%TF.GenerationSoftware,KiCad,Pcbnew,7.0.5*%
%TF.CreationDate,2023-06-07T14:55:56+03:00*%
%TF.ProjectId,IMU__1,494d555f-b131-42e6-9b69-6361645f7063,rev?*%
%TF.SameCoordinates,Original*%
%TF.FileFunction,Legend,Bot*%
%TF.FilePolarity,Positive*%
%FSLAX46Y46*%
G04 Gerber Fmt 4.6, Leading zero omitted, Abs format (unit mm)*
G04 Created by KiCad (PCBNEW 7.0.5) date 2023-06-07 14:55:56*
%MOMM*%
%LPD*%
G01*
G04 APERTURE LIST*
%ADD10C,0.120000*%
%ADD11C,0.100000*%
%ADD12C,0.525000*%
%ADD13C,0.675000*%
G04 APERTURE END LIST*
%TO.C,H1*%
D10*
X116730000Y-93880000D02*
X115594000Y-94330000D01*
X115594000Y-93438029D01*
X116730000Y-93880000D01*
G36*
X116730000Y-93880000D02*
G01*
X115594000Y-94330000D01*
X115594000Y-93438029D01*
X116730000Y-93880000D01*
G37*
D11*
X117740000Y-96680000D02*
X117740000Y-96680000D01*
X117740000Y-96680000D02*
X117740000Y-96680000D01*
X117740000Y-96680000D02*
X122040000Y-96680000D01*
X117740000Y-96680000D02*
X117740000Y-93280000D01*
X122040000Y-96680000D02*
X117740000Y-96680000D01*
X122040000Y-96680000D02*
X122040000Y-96680000D01*
X122040000Y-96680000D02*
X122040000Y-96680000D01*
X122040000Y-96680000D02*
X122040000Y-93280000D01*
X117740000Y-93280000D02*
X117740000Y-96680000D01*
X117740000Y-93280000D02*
X117740000Y-93280000D01*
X122040000Y-93280000D02*
X122040000Y-96680000D01*
X122040000Y-93280000D02*
X122040000Y-93280000D01*
X117740000Y-84280000D02*
X117740000Y-84280000D01*
X117740000Y-84280000D02*
X117740000Y-80880000D01*
X122040000Y-84280000D02*
X122040000Y-84280000D01*
X122040000Y-84280000D02*
X122040000Y-80880000D01*
X117740000Y-80880000D02*
X117740000Y-84280000D01*
X117740000Y-80880000D02*
X117740000Y-80880000D01*
X117740000Y-80880000D02*
X117740000Y-80880000D01*
X117740000Y-80880000D02*
X122040000Y-80880000D01*
X122040000Y-80880000D02*
X122040000Y-84280000D01*
X122040000Y-80880000D02*
X117740000Y-80880000D01*
X122040000Y-80880000D02*
X122040000Y-80880000D01*
X122040000Y-80880000D02*
X122040000Y-80880000D01*
%TD*%
D12*
%TO.C,H1*%
X120840000Y-82380000D03*
D13*
X120840000Y-95180000D03*
%TD*%
M02*
