%TF.GenerationSoftware,KiCad,Pcbnew,7.0.5*%
%TF.CreationDate,2023-06-07T14:55:56+03:00*%
%TF.ProjectId,IMU__1,494d555f-b131-42e6-9b69-6361645f7063,rev?*%
%TF.SameCoordinates,Original*%
%TF.FileFunction,Copper,L1,Top*%
%TF.FilePolarity,Positive*%
%FSLAX46Y46*%
G04 Gerber Fmt 4.6, Leading zero omitted, Abs format (unit mm)*
G04 Created by KiCad (PCBNEW 7.0.5) date 2023-06-07 14:55:56*
%MOMM*%
%LPD*%
G01*
G04 APERTURE LIST*
%TA.AperFunction,SMDPad,CuDef*%
%ADD10R,0.780000X0.980000*%
%TD*%
%TA.AperFunction,SMDPad,CuDef*%
%ADD11R,0.350000X0.575000*%
%TD*%
%TA.AperFunction,SMDPad,CuDef*%
%ADD12R,0.575000X0.350000*%
%TD*%
%TA.AperFunction,SMDPad,CuDef*%
%ADD13R,0.900000X0.650000*%
%TD*%
%TA.AperFunction,ComponentPad*%
%ADD14C,0.525000*%
%TD*%
%TA.AperFunction,ComponentPad*%
%ADD15C,0.675000*%
%TD*%
%TA.AperFunction,ViaPad*%
%ADD16C,0.700000*%
%TD*%
%TA.AperFunction,Conductor*%
%ADD17C,0.250000*%
%TD*%
%TA.AperFunction,Conductor*%
%ADD18C,0.500000*%
%TD*%
G04 APERTURE END LIST*
D10*
%TO.P,C1,2*%
%TO.N,/VCC3*%
X110360000Y-91700000D03*
%TO.P,C1,1*%
%TO.N,GND*%
X111760000Y-91700000D03*
%TD*%
D11*
%TO.P,IC2,14,SDA*%
%TO.N,/I2C_SDA*%
X110920000Y-87868000D03*
%TO.P,IC2,13,SCL*%
%TO.N,/I2C_SCL*%
X111420000Y-87868000D03*
%TO.P,IC2,12,CS*%
%TO.N,/VCC3*%
X111920000Y-87868000D03*
D12*
%TO.P,IC2,11,NC_2*%
%TO.N,unconnected-(IC2-NC_2-Pad11)*%
X112583000Y-88030000D03*
%TO.P,IC2,10,NC_1*%
%TO.N,unconnected-(IC2-NC_1-Pad10)*%
X112583000Y-88530000D03*
%TO.P,IC2,9,INT2*%
%TO.N,/INT2*%
X112583000Y-89030000D03*
%TO.P,IC2,8,VDD*%
%TO.N,/VCC3*%
X112583000Y-89530000D03*
D11*
%TO.P,IC2,7,GND_2*%
%TO.N,GND*%
X111920000Y-89692000D03*
%TO.P,IC2,6,GND_1*%
X111420000Y-89692000D03*
%TO.P,IC2,5,VDDIO*%
%TO.N,/VCC3*%
X110920000Y-89692000D03*
D12*
%TO.P,IC2,4,INT1*%
%TO.N,/INT1*%
X110257000Y-89530000D03*
%TO.P,IC2,3,SCX*%
%TO.N,unconnected-(IC2-SCX-Pad3)*%
X110257000Y-89030000D03*
%TO.P,IC2,2,SDX*%
%TO.N,unconnected-(IC2-SDX-Pad2)*%
X110257000Y-88530000D03*
%TO.P,IC2,1,SDO/SA0*%
%TO.N,GND*%
X110257000Y-88030000D03*
%TD*%
D13*
%TO.P,R2,2*%
%TO.N,/VCC3*%
X110440000Y-83312500D03*
%TO.P,R2,1*%
%TO.N,/I2C_SDA*%
X110440000Y-84762500D03*
%TD*%
%TO.P,R1,2*%
%TO.N,/VCC3*%
X112520000Y-84015000D03*
%TO.P,R1,1*%
%TO.N,/I2C_SCL*%
X112520000Y-85465000D03*
%TD*%
D10*
%TO.P,C6,2*%
%TO.N,/VCC3*%
X114350000Y-91700000D03*
%TO.P,C6,1*%
%TO.N,GND*%
X112950000Y-91700000D03*
%TD*%
D14*
%TO.P,H1,MH2*%
%TO.N,N/C*%
X120840000Y-82380000D03*
D15*
%TO.P,H1,MH1*%
X120840000Y-95180000D03*
%TD*%
D16*
%TO.N,GND*%
X109630000Y-87140000D03*
X115620000Y-92380000D03*
X119940000Y-92400000D03*
X112590000Y-90674114D03*
%TO.N,/INT2*%
X115070000Y-88320000D03*
%TO.N,GND*%
X111467381Y-90674114D03*
%TO.N,/VCC3*%
X115800000Y-84810000D03*
%TO.N,/I2C_SCL*%
X115080000Y-86780000D03*
%TO.N,/I2C_SDA*%
X115080000Y-85880000D03*
%TO.N,/INT1*%
X109390000Y-89550000D03*
%TD*%
D17*
%TO.N,/VCC3*%
X113900000Y-87260000D02*
X114240000Y-87600000D01*
X112140000Y-87260000D02*
X113900000Y-87260000D01*
X114240000Y-87600000D02*
X115990000Y-87600000D01*
X111920000Y-87480000D02*
X112140000Y-87260000D01*
X111920000Y-87868000D02*
X111920000Y-87480000D01*
X115990000Y-87600000D02*
X116120000Y-87470000D01*
%TO.N,/INT2*%
X114360000Y-89030000D02*
X112583000Y-89030000D01*
X115070000Y-88320000D02*
X114360000Y-89030000D01*
%TO.N,/INT1*%
X110237000Y-89550000D02*
X110257000Y-89530000D01*
X109390000Y-89550000D02*
X110237000Y-89550000D01*
%TO.N,GND*%
X109630000Y-87910000D02*
X109750000Y-88030000D01*
X109630000Y-87140000D02*
X109630000Y-87910000D01*
X109750000Y-88030000D02*
X110257000Y-88030000D01*
%TO.N,/VCC3*%
X113180000Y-89530000D02*
X114350000Y-90700000D01*
X112583000Y-89530000D02*
X113180000Y-89530000D01*
%TO.N,GND*%
X111920000Y-90004114D02*
X112590000Y-90674114D01*
X111920000Y-89692000D02*
X111920000Y-90004114D01*
X112920000Y-91010000D02*
X112920000Y-91344114D01*
X112590000Y-90680000D02*
X112920000Y-91010000D01*
X112590000Y-90674114D02*
X112590000Y-90680000D01*
X111760000Y-90966733D02*
X111760000Y-91190000D01*
X111467381Y-90674114D02*
X111760000Y-90966733D01*
X111420000Y-90626733D02*
X111467381Y-90674114D01*
X111420000Y-89692000D02*
X111420000Y-90626733D01*
%TO.N,/VCC3*%
X110360000Y-90826900D02*
X110360000Y-91700000D01*
X110920000Y-90266900D02*
X110360000Y-90826900D01*
X110920000Y-89692000D02*
X110920000Y-90266900D01*
D18*
X114350000Y-90700000D02*
X114350000Y-91700000D01*
X116120000Y-85130000D02*
X116120000Y-88930000D01*
X115800000Y-84810000D02*
X116120000Y-85130000D01*
X116120000Y-88930000D02*
X114350000Y-90700000D01*
X114640000Y-84810000D02*
X115800000Y-84810000D01*
X113150000Y-83320000D02*
X114640000Y-84810000D01*
X112537500Y-83320000D02*
X113150000Y-83320000D01*
D17*
%TO.N,/I2C_SDA*%
X113162500Y-84762500D02*
X110440000Y-84762500D01*
X114280000Y-85880000D02*
X113162500Y-84762500D01*
X115080000Y-85880000D02*
X114280000Y-85880000D01*
%TO.N,/I2C_SCL*%
X114440000Y-86780000D02*
X113125000Y-85465000D01*
X115080000Y-86780000D02*
X114440000Y-86780000D01*
X113125000Y-85465000D02*
X112520000Y-85465000D01*
%TO.N,/I2C_SDA*%
X110440000Y-85610000D02*
X110440000Y-84762500D01*
X110920000Y-86090000D02*
X110440000Y-85610000D01*
X110920000Y-87868000D02*
X110920000Y-86090000D01*
%TO.N,/I2C_SCL*%
X112015000Y-85465000D02*
X112520000Y-85465000D01*
X111420000Y-86060000D02*
X112015000Y-85465000D01*
X111420000Y-87868000D02*
X111420000Y-86060000D01*
%TO.N,GND*%
X111920000Y-91640000D02*
X111950000Y-91670000D01*
X111920000Y-91344114D02*
X111920000Y-91640000D01*
X111950000Y-91670000D02*
X111920000Y-91700000D01*
D18*
X112920000Y-91700000D02*
X111760000Y-91700000D01*
%TO.N,/VCC3*%
X114350000Y-92270000D02*
X114350000Y-91670000D01*
X113960000Y-92660000D02*
X114350000Y-92270000D01*
X110680000Y-92660000D02*
X113960000Y-92660000D01*
X110360000Y-92340000D02*
X110680000Y-92660000D01*
X110360000Y-91700000D02*
X110360000Y-92340000D01*
D17*
X115800000Y-84810000D02*
X115930000Y-84680000D01*
X112530000Y-83312500D02*
X112537500Y-83320000D01*
X112520000Y-83322500D02*
X112530000Y-83312500D01*
D18*
X112520000Y-84015000D02*
X112520000Y-83322500D01*
X110440000Y-83312500D02*
X112530000Y-83312500D01*
D17*
X110380000Y-83252500D02*
X110440000Y-83312500D01*
%TD*%
%TA.AperFunction,Conductor*%
%TO.N,GND*%
G36*
X112986586Y-90225183D02*
G01*
X113007228Y-90241818D01*
X113533074Y-90767664D01*
X113566559Y-90828987D01*
X113561575Y-90898679D01*
X113544660Y-90929655D01*
X113516206Y-90967664D01*
X113516202Y-90967671D01*
X113465910Y-91102513D01*
X113465909Y-91102517D01*
X113459500Y-91162127D01*
X113459500Y-91162134D01*
X113459500Y-91162135D01*
X113459500Y-91162136D01*
X113459501Y-91785500D01*
X113439817Y-91852539D01*
X113387013Y-91898294D01*
X113335501Y-91909500D01*
X111374500Y-91909500D01*
X111307461Y-91889815D01*
X111261706Y-91837011D01*
X111250500Y-91785500D01*
X111250499Y-91162129D01*
X111250498Y-91162123D01*
X111250497Y-91162116D01*
X111244091Y-91102517D01*
X111244090Y-91102513D01*
X111197202Y-90976799D01*
X111192774Y-90914892D01*
X111380000Y-91220000D01*
X111380000Y-91780000D01*
X113330000Y-91780000D01*
X113330000Y-90750000D01*
X112840000Y-90280000D01*
X112410000Y-90280000D01*
X112333096Y-90205499D01*
X112918372Y-90205499D01*
X112919547Y-90205499D01*
X112986586Y-90225183D01*
G37*
%TD.AperFunction*%
%TA.AperFunction,Conductor*%
G36*
X124882539Y-78800185D02*
G01*
X124928294Y-78852989D01*
X124939500Y-78904500D01*
X124939500Y-98655500D01*
X124919815Y-98722539D01*
X124867011Y-98768294D01*
X124815500Y-98779500D01*
X105064500Y-98779500D01*
X104997461Y-98759815D01*
X104951706Y-98707011D01*
X104940500Y-98655500D01*
X104940500Y-95288926D01*
X119664500Y-95288926D01*
X119704530Y-95503069D01*
X119742341Y-95600670D01*
X119783226Y-95706207D01*
X119783229Y-95706213D01*
X119897906Y-95891423D01*
X119897912Y-95891432D01*
X120044678Y-96052427D01*
X120218528Y-96183712D01*
X120413541Y-96280817D01*
X120623077Y-96340435D01*
X120785653Y-96355500D01*
X120785656Y-96355500D01*
X120894344Y-96355500D01*
X120894347Y-96355500D01*
X121056923Y-96340435D01*
X121266459Y-96280817D01*
X121461472Y-96183712D01*
X121635322Y-96052427D01*
X121782088Y-95891432D01*
X121896772Y-95706210D01*
X121975470Y-95503069D01*
X122015500Y-95288926D01*
X122015500Y-95071074D01*
X121975470Y-94856931D01*
X121896772Y-94653790D01*
X121782088Y-94468568D01*
X121635322Y-94307573D01*
X121461472Y-94176288D01*
X121266462Y-94079184D01*
X121266459Y-94079183D01*
X121056923Y-94019565D01*
X121056920Y-94019564D01*
X121056918Y-94019564D01*
X120949819Y-94009640D01*
X120894347Y-94004500D01*
X120785653Y-94004500D01*
X120735845Y-94009115D01*
X120623081Y-94019564D01*
X120413537Y-94079184D01*
X120218527Y-94176288D01*
X120044676Y-94307574D01*
X119897913Y-94468566D01*
X119897906Y-94468576D01*
X119783229Y-94653786D01*
X119783226Y-94653792D01*
X119723435Y-94808130D01*
X119704530Y-94856931D01*
X119664500Y-95071074D01*
X119664500Y-95288926D01*
X104940500Y-95288926D01*
X104940500Y-89549999D01*
X108534815Y-89549999D01*
X108553503Y-89727805D01*
X108553504Y-89727807D01*
X108608747Y-89897829D01*
X108608750Y-89897835D01*
X108698141Y-90052665D01*
X108707039Y-90062547D01*
X108817764Y-90185521D01*
X108817767Y-90185523D01*
X108817770Y-90185526D01*
X108962407Y-90290612D01*
X109125733Y-90363329D01*
X109300609Y-90400500D01*
X109300610Y-90400500D01*
X109479389Y-90400500D01*
X109479391Y-90400500D01*
X109654267Y-90363329D01*
X109654282Y-90363322D01*
X109654631Y-90363210D01*
X109654858Y-90363203D01*
X109660624Y-90361978D01*
X109660848Y-90363032D01*
X109724472Y-90361211D01*
X109784307Y-90397288D01*
X109815139Y-90459987D01*
X109807178Y-90529401D01*
X109806756Y-90530388D01*
X109798815Y-90548738D01*
X109796245Y-90553984D01*
X109773803Y-90594806D01*
X109768822Y-90614207D01*
X109762521Y-90632610D01*
X109754562Y-90651002D01*
X109754561Y-90651005D01*
X109747271Y-90697026D01*
X109746087Y-90702743D01*
X109741156Y-90721952D01*
X109705422Y-90781993D01*
X109695361Y-90790389D01*
X109612455Y-90852452D01*
X109612452Y-90852455D01*
X109526206Y-90967664D01*
X109526202Y-90967671D01*
X109475908Y-91102517D01*
X109469501Y-91162116D01*
X109469501Y-91162123D01*
X109469500Y-91162135D01*
X109469500Y-92237870D01*
X109469501Y-92237876D01*
X109475908Y-92297483D01*
X109526202Y-92432328D01*
X109526203Y-92432329D01*
X109526204Y-92432331D01*
X109612452Y-92547543D01*
X109612455Y-92547547D01*
X109615461Y-92549797D01*
X109617709Y-92552800D01*
X109618722Y-92553813D01*
X109618576Y-92553958D01*
X109657333Y-92605730D01*
X109658856Y-92610058D01*
X109675182Y-92659326D01*
X109678236Y-92665874D01*
X109678182Y-92665898D01*
X109681470Y-92672688D01*
X109681521Y-92672663D01*
X109684761Y-92679113D01*
X109684762Y-92679114D01*
X109684763Y-92679117D01*
X109726494Y-92742567D01*
X109727441Y-92744055D01*
X109743307Y-92769778D01*
X109767289Y-92808657D01*
X109771766Y-92814319D01*
X109771719Y-92814356D01*
X109776482Y-92820202D01*
X109776528Y-92820164D01*
X109781173Y-92825700D01*
X109836366Y-92877771D01*
X109837660Y-92879028D01*
X110104268Y-93145635D01*
X110116050Y-93159268D01*
X110130390Y-93178530D01*
X110170415Y-93212116D01*
X110174403Y-93215771D01*
X110180218Y-93221586D01*
X110205252Y-93241381D01*
X110206649Y-93242519D01*
X110218794Y-93252710D01*
X110264786Y-93291302D01*
X110264794Y-93291306D01*
X110270824Y-93295273D01*
X110270790Y-93295323D01*
X110277137Y-93299366D01*
X110277169Y-93299316D01*
X110283321Y-93303110D01*
X110283322Y-93303110D01*
X110283323Y-93303111D01*
X110352143Y-93335202D01*
X110353692Y-93335952D01*
X110421567Y-93370040D01*
X110421576Y-93370042D01*
X110428355Y-93372510D01*
X110428334Y-93372567D01*
X110435451Y-93375040D01*
X110435470Y-93374984D01*
X110442324Y-93377254D01*
X110442327Y-93377256D01*
X110516715Y-93392615D01*
X110518352Y-93392978D01*
X110592279Y-93410500D01*
X110592285Y-93410500D01*
X110599452Y-93411338D01*
X110599445Y-93411397D01*
X110606946Y-93412163D01*
X110606952Y-93412104D01*
X110614141Y-93412733D01*
X110614143Y-93412732D01*
X110614144Y-93412733D01*
X110635764Y-93412104D01*
X110690012Y-93410526D01*
X110691815Y-93410500D01*
X113896295Y-93410500D01*
X113914265Y-93411809D01*
X113938023Y-93415289D01*
X113990068Y-93410735D01*
X113995470Y-93410500D01*
X114003704Y-93410500D01*
X114003709Y-93410500D01*
X114035458Y-93406788D01*
X114037075Y-93406622D01*
X114112797Y-93399999D01*
X114112805Y-93399996D01*
X114119866Y-93398539D01*
X114119878Y-93398598D01*
X114127243Y-93396965D01*
X114127229Y-93396906D01*
X114134251Y-93395241D01*
X114134255Y-93395241D01*
X114205587Y-93369277D01*
X114207286Y-93368688D01*
X114279334Y-93344814D01*
X114279342Y-93344808D01*
X114285882Y-93341760D01*
X114285908Y-93341816D01*
X114292690Y-93338532D01*
X114292663Y-93338478D01*
X114299109Y-93335239D01*
X114299117Y-93335237D01*
X114362612Y-93293475D01*
X114363977Y-93292605D01*
X114428656Y-93252712D01*
X114428661Y-93252706D01*
X114434325Y-93248229D01*
X114434362Y-93248277D01*
X114440204Y-93243518D01*
X114440164Y-93243471D01*
X114445686Y-93238835D01*
X114445696Y-93238830D01*
X114497802Y-93183599D01*
X114498996Y-93182370D01*
X114835641Y-92845724D01*
X114849260Y-92833954D01*
X114868530Y-92819610D01*
X114902128Y-92779569D01*
X114905750Y-92775616D01*
X114911590Y-92769777D01*
X114931409Y-92744709D01*
X114932466Y-92743411D01*
X114981302Y-92685214D01*
X114981304Y-92685209D01*
X114985272Y-92679179D01*
X114985323Y-92679212D01*
X114989369Y-92672860D01*
X114989317Y-92672828D01*
X114993107Y-92666681D01*
X114993111Y-92666677D01*
X115009292Y-92631973D01*
X115047364Y-92585111D01*
X115097546Y-92547546D01*
X115183796Y-92432331D01*
X115234091Y-92297483D01*
X115240500Y-92237873D01*
X115240499Y-91162128D01*
X115234091Y-91102517D01*
X115200750Y-91013127D01*
X115195767Y-90943437D01*
X115229250Y-90882116D01*
X116605642Y-89505724D01*
X116619271Y-89493947D01*
X116638530Y-89479610D01*
X116672101Y-89439601D01*
X116675761Y-89435606D01*
X116681588Y-89429780D01*
X116681588Y-89429779D01*
X116681591Y-89429777D01*
X116701380Y-89404747D01*
X116702509Y-89403362D01*
X116704879Y-89400536D01*
X116751302Y-89345214D01*
X116751305Y-89345207D01*
X116755274Y-89339175D01*
X116755325Y-89339208D01*
X116759372Y-89332856D01*
X116759320Y-89332824D01*
X116763111Y-89326677D01*
X116772227Y-89307127D01*
X116795226Y-89257804D01*
X116795952Y-89256305D01*
X116830040Y-89188433D01*
X116830043Y-89188417D01*
X116832509Y-89181646D01*
X116832567Y-89181667D01*
X116835043Y-89174546D01*
X116834986Y-89174528D01*
X116837256Y-89167677D01*
X116837257Y-89167673D01*
X116852626Y-89093234D01*
X116852976Y-89091655D01*
X116870500Y-89017721D01*
X116870500Y-89017712D01*
X116871338Y-89010548D01*
X116871398Y-89010555D01*
X116872164Y-89003055D01*
X116872105Y-89003050D01*
X116872734Y-88995860D01*
X116870526Y-88919968D01*
X116870500Y-88918165D01*
X116870500Y-85193706D01*
X116871809Y-85175734D01*
X116875289Y-85151977D01*
X116875289Y-85151975D01*
X116870735Y-85099937D01*
X116870499Y-85094522D01*
X116870500Y-85086291D01*
X116866791Y-85054564D01*
X116866618Y-85052872D01*
X116859998Y-84977202D01*
X116859996Y-84977197D01*
X116858538Y-84970133D01*
X116858597Y-84970120D01*
X116856967Y-84962764D01*
X116856908Y-84962779D01*
X116855241Y-84955747D01*
X116855241Y-84955745D01*
X116829247Y-84884327D01*
X116828708Y-84882775D01*
X116804814Y-84810665D01*
X116804813Y-84810663D01*
X116801763Y-84804121D01*
X116801817Y-84804095D01*
X116798533Y-84797312D01*
X116798480Y-84797340D01*
X116795238Y-84790885D01*
X116795237Y-84790883D01*
X116753527Y-84727466D01*
X116752580Y-84725980D01*
X116712714Y-84661347D01*
X116708234Y-84655681D01*
X116708280Y-84655643D01*
X116703519Y-84649799D01*
X116703474Y-84649838D01*
X116698831Y-84644305D01*
X116643634Y-84592229D01*
X116642374Y-84591006D01*
X116634892Y-84583524D01*
X116604642Y-84534160D01*
X116581250Y-84462165D01*
X116581248Y-84462161D01*
X116504952Y-84330013D01*
X116491859Y-84307335D01*
X116372235Y-84174478D01*
X116372232Y-84174476D01*
X116372231Y-84174475D01*
X116372230Y-84174474D01*
X116227593Y-84069388D01*
X116064267Y-83996671D01*
X116064265Y-83996670D01*
X115906746Y-83963189D01*
X115889391Y-83959500D01*
X115710609Y-83959500D01*
X115693254Y-83963189D01*
X115535733Y-83996670D01*
X115418694Y-84048780D01*
X115368259Y-84059500D01*
X115002230Y-84059500D01*
X114935191Y-84039815D01*
X114914549Y-84023181D01*
X113725729Y-82834361D01*
X113713949Y-82820730D01*
X113706482Y-82810701D01*
X113699612Y-82801472D01*
X113699610Y-82801470D01*
X113659587Y-82767886D01*
X113655612Y-82764244D01*
X113652690Y-82761322D01*
X113649779Y-82758410D01*
X113624736Y-82738609D01*
X113623338Y-82737470D01*
X113565214Y-82688698D01*
X113559180Y-82684729D01*
X113559212Y-82684680D01*
X113552853Y-82680628D01*
X113552822Y-82680679D01*
X113546680Y-82676891D01*
X113546678Y-82676890D01*
X113546677Y-82676889D01*
X113477872Y-82644804D01*
X113476252Y-82644019D01*
X113436512Y-82624061D01*
X113408433Y-82609960D01*
X113408431Y-82609959D01*
X113408430Y-82609959D01*
X113401645Y-82607489D01*
X113401665Y-82607433D01*
X113394549Y-82604959D01*
X113394531Y-82605015D01*
X113387674Y-82602743D01*
X113313328Y-82587391D01*
X113311569Y-82587001D01*
X113237718Y-82569499D01*
X113230547Y-82568661D01*
X113230553Y-82568601D01*
X113223055Y-82567835D01*
X113223050Y-82567895D01*
X113215860Y-82567265D01*
X113139968Y-82569474D01*
X113138165Y-82569500D01*
X112663860Y-82569500D01*
X112635265Y-82566158D01*
X112635056Y-82566108D01*
X112617721Y-82562000D01*
X112617720Y-82562000D01*
X111197487Y-82562000D01*
X111138058Y-82546831D01*
X111132330Y-82543703D01*
X110997482Y-82493408D01*
X110997483Y-82493408D01*
X110937883Y-82487001D01*
X110937881Y-82487000D01*
X110937873Y-82487000D01*
X110937864Y-82487000D01*
X109942129Y-82487000D01*
X109942123Y-82487001D01*
X109882516Y-82493408D01*
X109747671Y-82543702D01*
X109747664Y-82543706D01*
X109632455Y-82629952D01*
X109632452Y-82629955D01*
X109546206Y-82745164D01*
X109546202Y-82745171D01*
X109495910Y-82880013D01*
X109495909Y-82880017D01*
X109489500Y-82939627D01*
X109489500Y-82939634D01*
X109489500Y-82939635D01*
X109489500Y-83685370D01*
X109489501Y-83685376D01*
X109495908Y-83744983D01*
X109546202Y-83879828D01*
X109546203Y-83879830D01*
X109608606Y-83963189D01*
X109633023Y-84028653D01*
X109618172Y-84096926D01*
X109608606Y-84111811D01*
X109546203Y-84195169D01*
X109546202Y-84195171D01*
X109504368Y-84307336D01*
X109495909Y-84330017D01*
X109489500Y-84389627D01*
X109489500Y-84389634D01*
X109489500Y-84389635D01*
X109489500Y-85135370D01*
X109489501Y-85135376D01*
X109495908Y-85194983D01*
X109546202Y-85329828D01*
X109546206Y-85329835D01*
X109632452Y-85445044D01*
X109632455Y-85445047D01*
X109747661Y-85531291D01*
X109747665Y-85531293D01*
X109747669Y-85531296D01*
X109747672Y-85531297D01*
X109749916Y-85532522D01*
X109751735Y-85534341D01*
X109754769Y-85536612D01*
X109754442Y-85537047D01*
X109799326Y-85581922D01*
X109814500Y-85641360D01*
X109814500Y-85649343D01*
X109814501Y-85649360D01*
X109815368Y-85656231D01*
X109815826Y-85662050D01*
X109817290Y-85708624D01*
X109817291Y-85708627D01*
X109822880Y-85727867D01*
X109826824Y-85746911D01*
X109829336Y-85766791D01*
X109846490Y-85810119D01*
X109848382Y-85815647D01*
X109861381Y-85860388D01*
X109871580Y-85877634D01*
X109880138Y-85895103D01*
X109887514Y-85913732D01*
X109914898Y-85951423D01*
X109918106Y-85956307D01*
X109941827Y-85996416D01*
X109941833Y-85996424D01*
X109955990Y-86010580D01*
X109968628Y-86025376D01*
X109980405Y-86041586D01*
X109980406Y-86041587D01*
X110016309Y-86071288D01*
X110020620Y-86075210D01*
X110258182Y-86312772D01*
X110291666Y-86374093D01*
X110294500Y-86400451D01*
X110294500Y-87333771D01*
X110286682Y-87377104D01*
X110250908Y-87473017D01*
X110244501Y-87532616D01*
X110244500Y-87532635D01*
X110244500Y-87730500D01*
X110224815Y-87797539D01*
X110172011Y-87843294D01*
X110120501Y-87854500D01*
X109921630Y-87854500D01*
X109921623Y-87854501D01*
X109862016Y-87860908D01*
X109727171Y-87911202D01*
X109727164Y-87911206D01*
X109611955Y-87997452D01*
X109611952Y-87997455D01*
X109525706Y-88112664D01*
X109525702Y-88112671D01*
X109475410Y-88247513D01*
X109475409Y-88247517D01*
X109469000Y-88307127D01*
X109469000Y-88307134D01*
X109469000Y-88307135D01*
X109469000Y-88307136D01*
X109469001Y-88575500D01*
X109449317Y-88642539D01*
X109396513Y-88688294D01*
X109345001Y-88699500D01*
X109300609Y-88699500D01*
X109269954Y-88706015D01*
X109125733Y-88736670D01*
X109125728Y-88736672D01*
X108962408Y-88809387D01*
X108817768Y-88914475D01*
X108698140Y-89047336D01*
X108608750Y-89202164D01*
X108608747Y-89202170D01*
X108553504Y-89372192D01*
X108553503Y-89372194D01*
X108534815Y-89549999D01*
X104940500Y-89549999D01*
X104940500Y-82379999D01*
X119809538Y-82379999D01*
X119829337Y-82581031D01*
X119887978Y-82774345D01*
X119983198Y-82952488D01*
X119983203Y-82952495D01*
X120111352Y-83108647D01*
X120220016Y-83197824D01*
X120267506Y-83236798D01*
X120267509Y-83236799D01*
X120267511Y-83236801D01*
X120445654Y-83332021D01*
X120445656Y-83332021D01*
X120445659Y-83332023D01*
X120638967Y-83390662D01*
X120789620Y-83405500D01*
X120789623Y-83405500D01*
X120890377Y-83405500D01*
X120890380Y-83405500D01*
X121041033Y-83390662D01*
X121234341Y-83332023D01*
X121412494Y-83236798D01*
X121568647Y-83108647D01*
X121696798Y-82952494D01*
X121792023Y-82774341D01*
X121850662Y-82581033D01*
X121870462Y-82380000D01*
X121850662Y-82178967D01*
X121792023Y-81985659D01*
X121792021Y-81985656D01*
X121792021Y-81985654D01*
X121696801Y-81807511D01*
X121696799Y-81807509D01*
X121696798Y-81807506D01*
X121657824Y-81760016D01*
X121568647Y-81651352D01*
X121412495Y-81523203D01*
X121412488Y-81523198D01*
X121234345Y-81427978D01*
X121041031Y-81369337D01*
X120930900Y-81358490D01*
X120890380Y-81354500D01*
X120789620Y-81354500D01*
X120752433Y-81358162D01*
X120638968Y-81369337D01*
X120445654Y-81427978D01*
X120267511Y-81523198D01*
X120267504Y-81523203D01*
X120111352Y-81651352D01*
X119983203Y-81807504D01*
X119983198Y-81807511D01*
X119887978Y-81985654D01*
X119829337Y-82178968D01*
X119809538Y-82379999D01*
X104940500Y-82379999D01*
X104940500Y-78904500D01*
X104960185Y-78837461D01*
X105012989Y-78791706D01*
X105064500Y-78780500D01*
X124815500Y-78780500D01*
X124882539Y-78800185D01*
G37*
%TD.AperFunction*%
%TD*%
%TA.AperFunction,Conductor*%
%TO.N,GND*%
G36*
X112090000Y-89970000D02*
G01*
X112410000Y-90280000D01*
X112840000Y-90280000D01*
X113330000Y-90750000D01*
X113330000Y-91780000D01*
X111380000Y-91780000D01*
X111380000Y-91220000D01*
X111110000Y-90780000D01*
X111110000Y-90570000D01*
X111250000Y-90380000D01*
X111250000Y-90137440D01*
X111265185Y-90085727D01*
X111266398Y-90083874D01*
X111283867Y-90057731D01*
X111295500Y-89999248D01*
X111295500Y-89410000D01*
X112090000Y-89410000D01*
X112090000Y-89970000D01*
G37*
%TD.AperFunction*%
%TD*%
M02*
