%TF.GenerationSoftware,KiCad,Pcbnew,7.0.5*%
%TF.CreationDate,2023-06-07T14:55:56+03:00*%
%TF.ProjectId,IMU__1,494d555f-b131-42e6-9b69-6361645f7063,rev?*%
%TF.SameCoordinates,Original*%
%TF.FileFunction,Legend,Top*%
%TF.FilePolarity,Positive*%
%FSLAX46Y46*%
G04 Gerber Fmt 4.6, Leading zero omitted, Abs format (unit mm)*
G04 Created by KiCad (PCBNEW 7.0.5) date 2023-06-07 14:55:56*
%MOMM*%
%LPD*%
G01*
G04 APERTURE LIST*
%ADD10C,0.150000*%
%ADD11C,0.027000*%
%ADD12C,0.254000*%
G04 APERTURE END LIST*
D10*
X107500811Y-97230983D02*
G75*
G03*
X107500811Y-97230983I-74754J0D01*
G01*
X110755000Y-95680000D02*
X112445000Y-95680000D01*
X112469160Y-94589819D02*
X112707255Y-94589819D01*
X112707255Y-94589819D02*
X112707255Y-94399342D01*
X112707255Y-94399342D02*
X112612017Y-94351723D01*
X112612017Y-94351723D02*
X112516779Y-94256485D01*
X112516779Y-94256485D02*
X112469160Y-94113628D01*
X112469160Y-94113628D02*
X112469160Y-93875533D01*
X112469160Y-93875533D02*
X112516779Y-93732676D01*
X112516779Y-93732676D02*
X112612017Y-93637438D01*
X112612017Y-93637438D02*
X112754874Y-93589819D01*
X112754874Y-93589819D02*
X112945350Y-93589819D01*
X112945350Y-93589819D02*
X113088207Y-93637438D01*
X113088207Y-93637438D02*
X113183445Y-93732676D01*
X113183445Y-93732676D02*
X113231064Y-93875533D01*
X113231064Y-93875533D02*
X113231064Y-94113628D01*
X113231064Y-94113628D02*
X113183445Y-94256485D01*
X113183445Y-94256485D02*
X113088207Y-94351723D01*
X113088207Y-94351723D02*
X112992969Y-94399342D01*
X112992969Y-94399342D02*
X112992969Y-94589819D01*
X112992969Y-94589819D02*
X113231064Y-94589819D01*
X113659636Y-93923152D02*
X113659636Y-94923152D01*
X113659636Y-93970771D02*
X113754874Y-93923152D01*
X113754874Y-93923152D02*
X113945350Y-93923152D01*
X113945350Y-93923152D02*
X114040588Y-93970771D01*
X114040588Y-93970771D02*
X114088207Y-94018390D01*
X114088207Y-94018390D02*
X114135826Y-94113628D01*
X114135826Y-94113628D02*
X114135826Y-94399342D01*
X114135826Y-94399342D02*
X114088207Y-94494580D01*
X114088207Y-94494580D02*
X114040588Y-94542200D01*
X114040588Y-94542200D02*
X113945350Y-94589819D01*
X113945350Y-94589819D02*
X113754874Y-94589819D01*
X113754874Y-94589819D02*
X113659636Y-94542200D01*
X106059160Y-93729819D02*
X106297255Y-93729819D01*
X106297255Y-93729819D02*
X106297255Y-93539342D01*
X106297255Y-93539342D02*
X106202017Y-93491723D01*
X106202017Y-93491723D02*
X106106779Y-93396485D01*
X106106779Y-93396485D02*
X106059160Y-93253628D01*
X106059160Y-93253628D02*
X106059160Y-93015533D01*
X106059160Y-93015533D02*
X106106779Y-92872676D01*
X106106779Y-92872676D02*
X106202017Y-92777438D01*
X106202017Y-92777438D02*
X106344874Y-92729819D01*
X106344874Y-92729819D02*
X106535350Y-92729819D01*
X106535350Y-92729819D02*
X106678207Y-92777438D01*
X106678207Y-92777438D02*
X106773445Y-92872676D01*
X106773445Y-92872676D02*
X106821064Y-93015533D01*
X106821064Y-93015533D02*
X106821064Y-93253628D01*
X106821064Y-93253628D02*
X106773445Y-93396485D01*
X106773445Y-93396485D02*
X106678207Y-93491723D01*
X106678207Y-93491723D02*
X106582969Y-93539342D01*
X106582969Y-93539342D02*
X106582969Y-93729819D01*
X106582969Y-93729819D02*
X106821064Y-93729819D01*
X107249636Y-93729819D02*
X107249636Y-93063152D01*
X107249636Y-93253628D02*
X107297255Y-93158390D01*
X107297255Y-93158390D02*
X107344874Y-93110771D01*
X107344874Y-93110771D02*
X107440112Y-93063152D01*
X107440112Y-93063152D02*
X107535350Y-93063152D01*
X109190143Y-97640802D02*
X109428238Y-97640802D01*
X109428238Y-97640802D02*
X109428238Y-97450325D01*
X109428238Y-97450325D02*
X109333000Y-97402706D01*
X109333000Y-97402706D02*
X109237762Y-97307468D01*
X109237762Y-97307468D02*
X109190143Y-97164611D01*
X109190143Y-97164611D02*
X109190143Y-96926516D01*
X109190143Y-96926516D02*
X109237762Y-96783659D01*
X109237762Y-96783659D02*
X109333000Y-96688421D01*
X109333000Y-96688421D02*
X109475857Y-96640802D01*
X109475857Y-96640802D02*
X109666333Y-96640802D01*
X109666333Y-96640802D02*
X109809190Y-96688421D01*
X109809190Y-96688421D02*
X109904428Y-96783659D01*
X109904428Y-96783659D02*
X109952047Y-96926516D01*
X109952047Y-96926516D02*
X109952047Y-97164611D01*
X109952047Y-97164611D02*
X109904428Y-97307468D01*
X109904428Y-97307468D02*
X109809190Y-97402706D01*
X109809190Y-97402706D02*
X109713952Y-97450325D01*
X109713952Y-97450325D02*
X109713952Y-97640802D01*
X109713952Y-97640802D02*
X109952047Y-97640802D01*
X110285381Y-96974135D02*
X110523476Y-97640802D01*
X110761571Y-96974135D02*
X110523476Y-97640802D01*
X110523476Y-97640802D02*
X110428238Y-97878897D01*
X110428238Y-97878897D02*
X110380619Y-97926516D01*
X110380619Y-97926516D02*
X110285381Y-97974135D01*
X107890000Y-96480000D02*
X108000000Y-96710000D01*
X107890000Y-97980000D02*
G75*
G03*
X107890000Y-96480000I0J750000D01*
G01*
X107890000Y-96480000D02*
X108060000Y-96280000D01*
X112740000Y-96370000D02*
X112850000Y-96140000D01*
X112735000Y-96380000D02*
X112905000Y-96580000D01*
X112740000Y-96370000D02*
G75*
G03*
X112740000Y-94870000I0J750000D01*
G01*
X109230000Y-93750000D02*
X109000000Y-93640000D01*
X109230000Y-93750000D02*
X109430000Y-93580000D01*
X109230000Y-93750000D02*
G75*
G03*
X107730000Y-93750000I-750000J0D01*
G01*
X105842524Y-96640802D02*
X106509190Y-96640802D01*
X106509190Y-96640802D02*
X105842524Y-97640802D01*
X105842524Y-97640802D02*
X106509190Y-97640802D01*
X110791541Y-93589819D02*
X111458207Y-94589819D01*
X111458207Y-93589819D02*
X110791541Y-94589819D01*
X106297255Y-94963628D02*
X106297255Y-95439819D01*
X105963922Y-94439819D02*
X106297255Y-94963628D01*
X106297255Y-94963628D02*
X106630588Y-94439819D01*
X107864311Y-97230983D02*
G75*
G03*
X107864311Y-97230983I-438254J0D01*
G01*
X112440000Y-95680000D02*
X111970000Y-95330000D01*
X112440000Y-95680000D02*
X111970000Y-96030000D01*
X108450000Y-93760000D02*
X108800000Y-94230000D01*
X108450000Y-93760000D02*
X108100000Y-94230000D01*
X108450000Y-95450000D02*
X108450000Y-93760000D01*
X109427755Y-88080000D02*
G75*
G03*
X109427755Y-88080000I-97755J0D01*
G01*
X110841793Y-80449819D02*
X110841793Y-79449819D01*
X111317983Y-80449819D02*
X111317983Y-79449819D01*
X111317983Y-79449819D02*
X111651316Y-80164104D01*
X111651316Y-80164104D02*
X111984649Y-79449819D01*
X111984649Y-79449819D02*
X111984649Y-80449819D01*
X112460840Y-79449819D02*
X112460840Y-80259342D01*
X112460840Y-80259342D02*
X112508459Y-80354580D01*
X112508459Y-80354580D02*
X112556078Y-80402200D01*
X112556078Y-80402200D02*
X112651316Y-80449819D01*
X112651316Y-80449819D02*
X112841792Y-80449819D01*
X112841792Y-80449819D02*
X112937030Y-80402200D01*
X112937030Y-80402200D02*
X112984649Y-80354580D01*
X112984649Y-80354580D02*
X113032268Y-80259342D01*
X113032268Y-80259342D02*
X113032268Y-79449819D01*
X114841792Y-79783152D02*
X114698935Y-80259342D01*
X114698935Y-80259342D02*
X114651316Y-80354580D01*
X114651316Y-80354580D02*
X114603697Y-80402200D01*
X114603697Y-80402200D02*
X114508459Y-80449819D01*
X114508459Y-80449819D02*
X114413221Y-80449819D01*
X114413221Y-80449819D02*
X114317983Y-80402200D01*
X114317983Y-80402200D02*
X114270364Y-80354580D01*
X114270364Y-80354580D02*
X114222745Y-80211723D01*
X114222745Y-80211723D02*
X114222745Y-80021247D01*
X114222745Y-80021247D02*
X114270364Y-79878390D01*
X114270364Y-79878390D02*
X114317983Y-79830771D01*
X114317983Y-79830771D02*
X114413221Y-79783152D01*
X114413221Y-79783152D02*
X114508459Y-79783152D01*
X114508459Y-79783152D02*
X114603697Y-79830771D01*
X114603697Y-79830771D02*
X114651316Y-79878390D01*
X114651316Y-79878390D02*
X114698935Y-79973628D01*
X114698935Y-79973628D02*
X114746554Y-80306961D01*
X114746554Y-80306961D02*
X114794173Y-80402200D01*
X114794173Y-80402200D02*
X114889411Y-80449819D01*
X115794173Y-80449819D02*
X115222745Y-80449819D01*
X115508459Y-80449819D02*
X115508459Y-79449819D01*
X115508459Y-79449819D02*
X115413221Y-79592676D01*
X115413221Y-79592676D02*
X115317983Y-79687914D01*
X115317983Y-79687914D02*
X115222745Y-79735533D01*
X118032269Y-80830771D02*
X117984650Y-80783152D01*
X117984650Y-80783152D02*
X117889412Y-80640295D01*
X117889412Y-80640295D02*
X117841793Y-80545057D01*
X117841793Y-80545057D02*
X117794174Y-80402200D01*
X117794174Y-80402200D02*
X117746555Y-80164104D01*
X117746555Y-80164104D02*
X117746555Y-79973628D01*
X117746555Y-79973628D02*
X117794174Y-79735533D01*
X117794174Y-79735533D02*
X117841793Y-79592676D01*
X117841793Y-79592676D02*
X117889412Y-79497438D01*
X117889412Y-79497438D02*
X117984650Y-79354580D01*
X117984650Y-79354580D02*
X118032269Y-79306961D01*
X118984650Y-80354580D02*
X118937031Y-80402200D01*
X118937031Y-80402200D02*
X118794174Y-80449819D01*
X118794174Y-80449819D02*
X118698936Y-80449819D01*
X118698936Y-80449819D02*
X118556079Y-80402200D01*
X118556079Y-80402200D02*
X118460841Y-80306961D01*
X118460841Y-80306961D02*
X118413222Y-80211723D01*
X118413222Y-80211723D02*
X118365603Y-80021247D01*
X118365603Y-80021247D02*
X118365603Y-79878390D01*
X118365603Y-79878390D02*
X118413222Y-79687914D01*
X118413222Y-79687914D02*
X118460841Y-79592676D01*
X118460841Y-79592676D02*
X118556079Y-79497438D01*
X118556079Y-79497438D02*
X118698936Y-79449819D01*
X118698936Y-79449819D02*
X118794174Y-79449819D01*
X118794174Y-79449819D02*
X118937031Y-79497438D01*
X118937031Y-79497438D02*
X118984650Y-79545057D01*
X119413222Y-80354580D02*
X119460841Y-80402200D01*
X119460841Y-80402200D02*
X119413222Y-80449819D01*
X119413222Y-80449819D02*
X119365603Y-80402200D01*
X119365603Y-80402200D02*
X119413222Y-80354580D01*
X119413222Y-80354580D02*
X119413222Y-80449819D01*
X119841793Y-80402200D02*
X119984650Y-80449819D01*
X119984650Y-80449819D02*
X120222745Y-80449819D01*
X120222745Y-80449819D02*
X120317983Y-80402200D01*
X120317983Y-80402200D02*
X120365602Y-80354580D01*
X120365602Y-80354580D02*
X120413221Y-80259342D01*
X120413221Y-80259342D02*
X120413221Y-80164104D01*
X120413221Y-80164104D02*
X120365602Y-80068866D01*
X120365602Y-80068866D02*
X120317983Y-80021247D01*
X120317983Y-80021247D02*
X120222745Y-79973628D01*
X120222745Y-79973628D02*
X120032269Y-79926009D01*
X120032269Y-79926009D02*
X119937031Y-79878390D01*
X119937031Y-79878390D02*
X119889412Y-79830771D01*
X119889412Y-79830771D02*
X119841793Y-79735533D01*
X119841793Y-79735533D02*
X119841793Y-79640295D01*
X119841793Y-79640295D02*
X119889412Y-79545057D01*
X119889412Y-79545057D02*
X119937031Y-79497438D01*
X119937031Y-79497438D02*
X120032269Y-79449819D01*
X120032269Y-79449819D02*
X120270364Y-79449819D01*
X120270364Y-79449819D02*
X120413221Y-79497438D01*
X120841793Y-80354580D02*
X120889412Y-80402200D01*
X120889412Y-80402200D02*
X120841793Y-80449819D01*
X120841793Y-80449819D02*
X120794174Y-80402200D01*
X120794174Y-80402200D02*
X120841793Y-80354580D01*
X120841793Y-80354580D02*
X120841793Y-80449819D01*
X121889411Y-80354580D02*
X121841792Y-80402200D01*
X121841792Y-80402200D02*
X121698935Y-80449819D01*
X121698935Y-80449819D02*
X121603697Y-80449819D01*
X121603697Y-80449819D02*
X121460840Y-80402200D01*
X121460840Y-80402200D02*
X121365602Y-80306961D01*
X121365602Y-80306961D02*
X121317983Y-80211723D01*
X121317983Y-80211723D02*
X121270364Y-80021247D01*
X121270364Y-80021247D02*
X121270364Y-79878390D01*
X121270364Y-79878390D02*
X121317983Y-79687914D01*
X121317983Y-79687914D02*
X121365602Y-79592676D01*
X121365602Y-79592676D02*
X121460840Y-79497438D01*
X121460840Y-79497438D02*
X121603697Y-79449819D01*
X121603697Y-79449819D02*
X121698935Y-79449819D01*
X121698935Y-79449819D02*
X121841792Y-79497438D01*
X121841792Y-79497438D02*
X121889411Y-79545057D01*
X122317983Y-80354580D02*
X122365602Y-80402200D01*
X122365602Y-80402200D02*
X122317983Y-80449819D01*
X122317983Y-80449819D02*
X122270364Y-80402200D01*
X122270364Y-80402200D02*
X122317983Y-80354580D01*
X122317983Y-80354580D02*
X122317983Y-80449819D01*
X122746554Y-80402200D02*
X122889411Y-80449819D01*
X122889411Y-80449819D02*
X123127506Y-80449819D01*
X123127506Y-80449819D02*
X123222744Y-80402200D01*
X123222744Y-80402200D02*
X123270363Y-80354580D01*
X123270363Y-80354580D02*
X123317982Y-80259342D01*
X123317982Y-80259342D02*
X123317982Y-80164104D01*
X123317982Y-80164104D02*
X123270363Y-80068866D01*
X123270363Y-80068866D02*
X123222744Y-80021247D01*
X123222744Y-80021247D02*
X123127506Y-79973628D01*
X123127506Y-79973628D02*
X122937030Y-79926009D01*
X122937030Y-79926009D02*
X122841792Y-79878390D01*
X122841792Y-79878390D02*
X122794173Y-79830771D01*
X122794173Y-79830771D02*
X122746554Y-79735533D01*
X122746554Y-79735533D02*
X122746554Y-79640295D01*
X122746554Y-79640295D02*
X122794173Y-79545057D01*
X122794173Y-79545057D02*
X122841792Y-79497438D01*
X122841792Y-79497438D02*
X122937030Y-79449819D01*
X122937030Y-79449819D02*
X123175125Y-79449819D01*
X123175125Y-79449819D02*
X123317982Y-79497438D01*
X123746554Y-80354580D02*
X123794173Y-80402200D01*
X123794173Y-80402200D02*
X123746554Y-80449819D01*
X123746554Y-80449819D02*
X123698935Y-80402200D01*
X123698935Y-80402200D02*
X123746554Y-80354580D01*
X123746554Y-80354580D02*
X123746554Y-80449819D01*
X124127506Y-80830771D02*
X124175125Y-80783152D01*
X124175125Y-80783152D02*
X124270363Y-80640295D01*
X124270363Y-80640295D02*
X124317982Y-80545057D01*
X124317982Y-80545057D02*
X124365601Y-80402200D01*
X124365601Y-80402200D02*
X124413220Y-80164104D01*
X124413220Y-80164104D02*
X124413220Y-79973628D01*
X124413220Y-79973628D02*
X124365601Y-79735533D01*
X124365601Y-79735533D02*
X124317982Y-79592676D01*
X124317982Y-79592676D02*
X124270363Y-79497438D01*
X124270363Y-79497438D02*
X124175125Y-79354580D01*
X124175125Y-79354580D02*
X124127506Y-79306961D01*
D11*
%TO.C,IC2*%
X109529000Y-87800000D02*
G75*
G03*
X109503000Y-87800000I-13000J0D01*
G01*
X109502000Y-87800000D02*
G75*
G03*
X109530000Y-87800000I14000J0D01*
G01*
X109529000Y-87800000D02*
X109529000Y-87800000D01*
X109502000Y-87800000D02*
X109502000Y-87800000D01*
D12*
%TO.C,R2*%
X110490000Y-85612500D02*
G75*
G03*
X110490000Y-85612500I-50000J0D01*
G01*
%TO.C,R1*%
X112570000Y-86315000D02*
G75*
G03*
X112570000Y-86315000I-50000J0D01*
G01*
%TO.C,G\u002A\u002A\u002A*%
G36*
X124418653Y-82824912D02*
G01*
X124387556Y-82881466D01*
X124324733Y-82944364D01*
X124265327Y-82984300D01*
X124165063Y-83047799D01*
X124038579Y-83138164D01*
X123932717Y-83220323D01*
X123818993Y-83307600D01*
X123716597Y-83377548D01*
X123651128Y-83413402D01*
X123575960Y-83467917D01*
X123512884Y-83552919D01*
X123427169Y-83651759D01*
X123309031Y-83720327D01*
X123180230Y-83787551D01*
X123119894Y-83865834D01*
X123122349Y-83968062D01*
X123158784Y-84061589D01*
X123229777Y-84185250D01*
X123320070Y-84312884D01*
X123345593Y-84344055D01*
X123420575Y-84448126D01*
X123435824Y-84513514D01*
X123391859Y-84537686D01*
X123308642Y-84524028D01*
X123169546Y-84518888D01*
X123105833Y-84542773D01*
X123025081Y-84572389D01*
X122948832Y-84559479D01*
X122900226Y-84537359D01*
X122814216Y-84503438D01*
X122743449Y-84510389D01*
X122678389Y-84540178D01*
X122601180Y-84597320D01*
X122586770Y-84650274D01*
X122581706Y-84714287D01*
X122544067Y-84796575D01*
X122491640Y-84866612D01*
X122444746Y-84893999D01*
X122393493Y-84909591D01*
X122300179Y-84949765D01*
X122221487Y-84987702D01*
X122107222Y-85041998D01*
X122013193Y-85081274D01*
X121975080Y-85093372D01*
X121888180Y-85118720D01*
X121849722Y-85133654D01*
X121763051Y-85148873D01*
X121688798Y-85143730D01*
X121595464Y-85146466D01*
X121493346Y-85177393D01*
X121410069Y-85224859D01*
X121373297Y-85276788D01*
X121373092Y-85350930D01*
X121375628Y-85385313D01*
X121356956Y-85436701D01*
X121290824Y-85450203D01*
X121215944Y-85429541D01*
X121167032Y-85355782D01*
X121158962Y-85334144D01*
X121118504Y-85218086D01*
X120895410Y-85243326D01*
X120729687Y-85252440D01*
X120612524Y-85234059D01*
X120570708Y-85216694D01*
X120467952Y-85165234D01*
X120348230Y-85106563D01*
X120330827Y-85098151D01*
X120220241Y-85021380D01*
X120155559Y-84927986D01*
X120148263Y-84842570D01*
X120132261Y-84794234D01*
X120085180Y-84731329D01*
X120038014Y-84650440D01*
X119993983Y-84526888D01*
X119959592Y-84387588D01*
X119941347Y-84259455D01*
X119945752Y-84169401D01*
X119947845Y-84163115D01*
X119970888Y-84129086D01*
X120009564Y-84143816D01*
X120055304Y-84183919D01*
X120140532Y-84241323D01*
X120218506Y-84263634D01*
X120293008Y-84234555D01*
X120375824Y-84163286D01*
X120441723Y-84073776D01*
X120458525Y-84035794D01*
X120499772Y-84006160D01*
X120588468Y-83977043D01*
X120632681Y-83967591D01*
X120758117Y-83955548D01*
X120857184Y-83979292D01*
X120914625Y-84009316D01*
X121035320Y-84080528D01*
X121136272Y-83960554D01*
X121199026Y-83873252D01*
X121223867Y-83789328D01*
X121221025Y-83672275D01*
X121220031Y-83661654D01*
X121215779Y-83532666D01*
X121237229Y-83469469D01*
X121288529Y-83466892D01*
X121348672Y-83501340D01*
X121443104Y-83541336D01*
X121558799Y-83559059D01*
X121564409Y-83559108D01*
X121676683Y-83566150D01*
X121822167Y-83584236D01*
X121917691Y-83600084D01*
X122076051Y-83615470D01*
X122255665Y-83611296D01*
X122434146Y-83590439D01*
X122589108Y-83555775D01*
X122698164Y-83510178D01*
X122715377Y-83497625D01*
X122791312Y-83463570D01*
X122896869Y-83447971D01*
X122905520Y-83447867D01*
X123035457Y-83431443D01*
X123185261Y-83388089D01*
X123335262Y-83326686D01*
X123465791Y-83256116D01*
X123557179Y-83185258D01*
X123587408Y-83139996D01*
X123627114Y-83091861D01*
X123660167Y-83091303D01*
X123718367Y-83088988D01*
X123733166Y-83075445D01*
X123785353Y-83043865D01*
X123814865Y-83039984D01*
X123887483Y-83016427D01*
X123944039Y-82977186D01*
X124049037Y-82910104D01*
X124217520Y-82838388D01*
X124357000Y-82791222D01*
X124410858Y-82789798D01*
X124418653Y-82824912D01*
G37*
%TD*%
M02*
