%TF.GenerationSoftware,KiCad,Pcbnew,7.0.5*%
%TF.CreationDate,2023-06-07T11:30:44+03:00*%
%TF.ProjectId,RS232-2__1,52533233-322d-4325-9fb1-312e6b696361,rev?*%
%TF.SameCoordinates,Original*%
%TF.FileFunction,Legend,Top*%
%TF.FilePolarity,Positive*%
%FSLAX46Y46*%
G04 Gerber Fmt 4.6, Leading zero omitted, Abs format (unit mm)*
G04 Created by KiCad (PCBNEW 7.0.5) date 2023-06-07 11:30:44*
%MOMM*%
%LPD*%
G01*
G04 APERTURE LIST*
%ADD10C,0.150000*%
%ADD11C,0.200000*%
G04 APERTURE END LIST*
D10*
X105509160Y-80394104D02*
X105985350Y-80394104D01*
X105413922Y-80679819D02*
X105747255Y-79679819D01*
X105747255Y-79679819D02*
X106080588Y-80679819D01*
X105970112Y-90066009D02*
X106112969Y-90113628D01*
X106112969Y-90113628D02*
X106160588Y-90161247D01*
X106160588Y-90161247D02*
X106208207Y-90256485D01*
X106208207Y-90256485D02*
X106208207Y-90399342D01*
X106208207Y-90399342D02*
X106160588Y-90494580D01*
X106160588Y-90494580D02*
X106112969Y-90542200D01*
X106112969Y-90542200D02*
X106017731Y-90589819D01*
X106017731Y-90589819D02*
X105636779Y-90589819D01*
X105636779Y-90589819D02*
X105636779Y-89589819D01*
X105636779Y-89589819D02*
X105970112Y-89589819D01*
X105970112Y-89589819D02*
X106065350Y-89637438D01*
X106065350Y-89637438D02*
X106112969Y-89685057D01*
X106112969Y-89685057D02*
X106160588Y-89780295D01*
X106160588Y-89780295D02*
X106160588Y-89875533D01*
X106160588Y-89875533D02*
X106112969Y-89970771D01*
X106112969Y-89970771D02*
X106065350Y-90018390D01*
X106065350Y-90018390D02*
X105970112Y-90066009D01*
X105970112Y-90066009D02*
X105636779Y-90066009D01*
X115956553Y-80019819D02*
X115623220Y-79543628D01*
X115385125Y-80019819D02*
X115385125Y-79019819D01*
X115385125Y-79019819D02*
X115766077Y-79019819D01*
X115766077Y-79019819D02*
X115861315Y-79067438D01*
X115861315Y-79067438D02*
X115908934Y-79115057D01*
X115908934Y-79115057D02*
X115956553Y-79210295D01*
X115956553Y-79210295D02*
X115956553Y-79353152D01*
X115956553Y-79353152D02*
X115908934Y-79448390D01*
X115908934Y-79448390D02*
X115861315Y-79496009D01*
X115861315Y-79496009D02*
X115766077Y-79543628D01*
X115766077Y-79543628D02*
X115385125Y-79543628D01*
X116337506Y-79972200D02*
X116480363Y-80019819D01*
X116480363Y-80019819D02*
X116718458Y-80019819D01*
X116718458Y-80019819D02*
X116813696Y-79972200D01*
X116813696Y-79972200D02*
X116861315Y-79924580D01*
X116861315Y-79924580D02*
X116908934Y-79829342D01*
X116908934Y-79829342D02*
X116908934Y-79734104D01*
X116908934Y-79734104D02*
X116861315Y-79638866D01*
X116861315Y-79638866D02*
X116813696Y-79591247D01*
X116813696Y-79591247D02*
X116718458Y-79543628D01*
X116718458Y-79543628D02*
X116527982Y-79496009D01*
X116527982Y-79496009D02*
X116432744Y-79448390D01*
X116432744Y-79448390D02*
X116385125Y-79400771D01*
X116385125Y-79400771D02*
X116337506Y-79305533D01*
X116337506Y-79305533D02*
X116337506Y-79210295D01*
X116337506Y-79210295D02*
X116385125Y-79115057D01*
X116385125Y-79115057D02*
X116432744Y-79067438D01*
X116432744Y-79067438D02*
X116527982Y-79019819D01*
X116527982Y-79019819D02*
X116766077Y-79019819D01*
X116766077Y-79019819D02*
X116908934Y-79067438D01*
X117289887Y-79115057D02*
X117337506Y-79067438D01*
X117337506Y-79067438D02*
X117432744Y-79019819D01*
X117432744Y-79019819D02*
X117670839Y-79019819D01*
X117670839Y-79019819D02*
X117766077Y-79067438D01*
X117766077Y-79067438D02*
X117813696Y-79115057D01*
X117813696Y-79115057D02*
X117861315Y-79210295D01*
X117861315Y-79210295D02*
X117861315Y-79305533D01*
X117861315Y-79305533D02*
X117813696Y-79448390D01*
X117813696Y-79448390D02*
X117242268Y-80019819D01*
X117242268Y-80019819D02*
X117861315Y-80019819D01*
X118194649Y-79019819D02*
X118813696Y-79019819D01*
X118813696Y-79019819D02*
X118480363Y-79400771D01*
X118480363Y-79400771D02*
X118623220Y-79400771D01*
X118623220Y-79400771D02*
X118718458Y-79448390D01*
X118718458Y-79448390D02*
X118766077Y-79496009D01*
X118766077Y-79496009D02*
X118813696Y-79591247D01*
X118813696Y-79591247D02*
X118813696Y-79829342D01*
X118813696Y-79829342D02*
X118766077Y-79924580D01*
X118766077Y-79924580D02*
X118718458Y-79972200D01*
X118718458Y-79972200D02*
X118623220Y-80019819D01*
X118623220Y-80019819D02*
X118337506Y-80019819D01*
X118337506Y-80019819D02*
X118242268Y-79972200D01*
X118242268Y-79972200D02*
X118194649Y-79924580D01*
X119194649Y-79115057D02*
X119242268Y-79067438D01*
X119242268Y-79067438D02*
X119337506Y-79019819D01*
X119337506Y-79019819D02*
X119575601Y-79019819D01*
X119575601Y-79019819D02*
X119670839Y-79067438D01*
X119670839Y-79067438D02*
X119718458Y-79115057D01*
X119718458Y-79115057D02*
X119766077Y-79210295D01*
X119766077Y-79210295D02*
X119766077Y-79305533D01*
X119766077Y-79305533D02*
X119718458Y-79448390D01*
X119718458Y-79448390D02*
X119147030Y-80019819D01*
X119147030Y-80019819D02*
X119766077Y-80019819D01*
X120194649Y-79638866D02*
X120956554Y-79638866D01*
X121385125Y-79115057D02*
X121432744Y-79067438D01*
X121432744Y-79067438D02*
X121527982Y-79019819D01*
X121527982Y-79019819D02*
X121766077Y-79019819D01*
X121766077Y-79019819D02*
X121861315Y-79067438D01*
X121861315Y-79067438D02*
X121908934Y-79115057D01*
X121908934Y-79115057D02*
X121956553Y-79210295D01*
X121956553Y-79210295D02*
X121956553Y-79305533D01*
X121956553Y-79305533D02*
X121908934Y-79448390D01*
X121908934Y-79448390D02*
X121337506Y-80019819D01*
X121337506Y-80019819D02*
X121956553Y-80019819D01*
X123718458Y-79353152D02*
X123575601Y-79829342D01*
X123575601Y-79829342D02*
X123527982Y-79924580D01*
X123527982Y-79924580D02*
X123480363Y-79972200D01*
X123480363Y-79972200D02*
X123385125Y-80019819D01*
X123385125Y-80019819D02*
X123289887Y-80019819D01*
X123289887Y-80019819D02*
X123194649Y-79972200D01*
X123194649Y-79972200D02*
X123147030Y-79924580D01*
X123147030Y-79924580D02*
X123099411Y-79781723D01*
X123099411Y-79781723D02*
X123099411Y-79591247D01*
X123099411Y-79591247D02*
X123147030Y-79448390D01*
X123147030Y-79448390D02*
X123194649Y-79400771D01*
X123194649Y-79400771D02*
X123289887Y-79353152D01*
X123289887Y-79353152D02*
X123385125Y-79353152D01*
X123385125Y-79353152D02*
X123480363Y-79400771D01*
X123480363Y-79400771D02*
X123527982Y-79448390D01*
X123527982Y-79448390D02*
X123575601Y-79543628D01*
X123575601Y-79543628D02*
X123623220Y-79876961D01*
X123623220Y-79876961D02*
X123670839Y-79972200D01*
X123670839Y-79972200D02*
X123766077Y-80019819D01*
X124670839Y-80019819D02*
X124099411Y-80019819D01*
X124385125Y-80019819D02*
X124385125Y-79019819D01*
X124385125Y-79019819D02*
X124289887Y-79162676D01*
X124289887Y-79162676D02*
X124194649Y-79257914D01*
X124194649Y-79257914D02*
X124099411Y-79305533D01*
X118242269Y-82010771D02*
X118194650Y-81963152D01*
X118194650Y-81963152D02*
X118099412Y-81820295D01*
X118099412Y-81820295D02*
X118051793Y-81725057D01*
X118051793Y-81725057D02*
X118004174Y-81582200D01*
X118004174Y-81582200D02*
X117956555Y-81344104D01*
X117956555Y-81344104D02*
X117956555Y-81153628D01*
X117956555Y-81153628D02*
X118004174Y-80915533D01*
X118004174Y-80915533D02*
X118051793Y-80772676D01*
X118051793Y-80772676D02*
X118099412Y-80677438D01*
X118099412Y-80677438D02*
X118194650Y-80534580D01*
X118194650Y-80534580D02*
X118242269Y-80486961D01*
X119194650Y-81534580D02*
X119147031Y-81582200D01*
X119147031Y-81582200D02*
X119004174Y-81629819D01*
X119004174Y-81629819D02*
X118908936Y-81629819D01*
X118908936Y-81629819D02*
X118766079Y-81582200D01*
X118766079Y-81582200D02*
X118670841Y-81486961D01*
X118670841Y-81486961D02*
X118623222Y-81391723D01*
X118623222Y-81391723D02*
X118575603Y-81201247D01*
X118575603Y-81201247D02*
X118575603Y-81058390D01*
X118575603Y-81058390D02*
X118623222Y-80867914D01*
X118623222Y-80867914D02*
X118670841Y-80772676D01*
X118670841Y-80772676D02*
X118766079Y-80677438D01*
X118766079Y-80677438D02*
X118908936Y-80629819D01*
X118908936Y-80629819D02*
X119004174Y-80629819D01*
X119004174Y-80629819D02*
X119147031Y-80677438D01*
X119147031Y-80677438D02*
X119194650Y-80725057D01*
X119623222Y-81534580D02*
X119670841Y-81582200D01*
X119670841Y-81582200D02*
X119623222Y-81629819D01*
X119623222Y-81629819D02*
X119575603Y-81582200D01*
X119575603Y-81582200D02*
X119623222Y-81534580D01*
X119623222Y-81534580D02*
X119623222Y-81629819D01*
X120051793Y-81582200D02*
X120194650Y-81629819D01*
X120194650Y-81629819D02*
X120432745Y-81629819D01*
X120432745Y-81629819D02*
X120527983Y-81582200D01*
X120527983Y-81582200D02*
X120575602Y-81534580D01*
X120575602Y-81534580D02*
X120623221Y-81439342D01*
X120623221Y-81439342D02*
X120623221Y-81344104D01*
X120623221Y-81344104D02*
X120575602Y-81248866D01*
X120575602Y-81248866D02*
X120527983Y-81201247D01*
X120527983Y-81201247D02*
X120432745Y-81153628D01*
X120432745Y-81153628D02*
X120242269Y-81106009D01*
X120242269Y-81106009D02*
X120147031Y-81058390D01*
X120147031Y-81058390D02*
X120099412Y-81010771D01*
X120099412Y-81010771D02*
X120051793Y-80915533D01*
X120051793Y-80915533D02*
X120051793Y-80820295D01*
X120051793Y-80820295D02*
X120099412Y-80725057D01*
X120099412Y-80725057D02*
X120147031Y-80677438D01*
X120147031Y-80677438D02*
X120242269Y-80629819D01*
X120242269Y-80629819D02*
X120480364Y-80629819D01*
X120480364Y-80629819D02*
X120623221Y-80677438D01*
X121051793Y-81534580D02*
X121099412Y-81582200D01*
X121099412Y-81582200D02*
X121051793Y-81629819D01*
X121051793Y-81629819D02*
X121004174Y-81582200D01*
X121004174Y-81582200D02*
X121051793Y-81534580D01*
X121051793Y-81534580D02*
X121051793Y-81629819D01*
X122099411Y-81534580D02*
X122051792Y-81582200D01*
X122051792Y-81582200D02*
X121908935Y-81629819D01*
X121908935Y-81629819D02*
X121813697Y-81629819D01*
X121813697Y-81629819D02*
X121670840Y-81582200D01*
X121670840Y-81582200D02*
X121575602Y-81486961D01*
X121575602Y-81486961D02*
X121527983Y-81391723D01*
X121527983Y-81391723D02*
X121480364Y-81201247D01*
X121480364Y-81201247D02*
X121480364Y-81058390D01*
X121480364Y-81058390D02*
X121527983Y-80867914D01*
X121527983Y-80867914D02*
X121575602Y-80772676D01*
X121575602Y-80772676D02*
X121670840Y-80677438D01*
X121670840Y-80677438D02*
X121813697Y-80629819D01*
X121813697Y-80629819D02*
X121908935Y-80629819D01*
X121908935Y-80629819D02*
X122051792Y-80677438D01*
X122051792Y-80677438D02*
X122099411Y-80725057D01*
X122527983Y-81534580D02*
X122575602Y-81582200D01*
X122575602Y-81582200D02*
X122527983Y-81629819D01*
X122527983Y-81629819D02*
X122480364Y-81582200D01*
X122480364Y-81582200D02*
X122527983Y-81534580D01*
X122527983Y-81534580D02*
X122527983Y-81629819D01*
X122956554Y-81582200D02*
X123099411Y-81629819D01*
X123099411Y-81629819D02*
X123337506Y-81629819D01*
X123337506Y-81629819D02*
X123432744Y-81582200D01*
X123432744Y-81582200D02*
X123480363Y-81534580D01*
X123480363Y-81534580D02*
X123527982Y-81439342D01*
X123527982Y-81439342D02*
X123527982Y-81344104D01*
X123527982Y-81344104D02*
X123480363Y-81248866D01*
X123480363Y-81248866D02*
X123432744Y-81201247D01*
X123432744Y-81201247D02*
X123337506Y-81153628D01*
X123337506Y-81153628D02*
X123147030Y-81106009D01*
X123147030Y-81106009D02*
X123051792Y-81058390D01*
X123051792Y-81058390D02*
X123004173Y-81010771D01*
X123004173Y-81010771D02*
X122956554Y-80915533D01*
X122956554Y-80915533D02*
X122956554Y-80820295D01*
X122956554Y-80820295D02*
X123004173Y-80725057D01*
X123004173Y-80725057D02*
X123051792Y-80677438D01*
X123051792Y-80677438D02*
X123147030Y-80629819D01*
X123147030Y-80629819D02*
X123385125Y-80629819D01*
X123385125Y-80629819D02*
X123527982Y-80677438D01*
X123956554Y-81534580D02*
X124004173Y-81582200D01*
X124004173Y-81582200D02*
X123956554Y-81629819D01*
X123956554Y-81629819D02*
X123908935Y-81582200D01*
X123908935Y-81582200D02*
X123956554Y-81534580D01*
X123956554Y-81534580D02*
X123956554Y-81629819D01*
X124337506Y-82010771D02*
X124385125Y-81963152D01*
X124385125Y-81963152D02*
X124480363Y-81820295D01*
X124480363Y-81820295D02*
X124527982Y-81725057D01*
X124527982Y-81725057D02*
X124575601Y-81582200D01*
X124575601Y-81582200D02*
X124623220Y-81344104D01*
X124623220Y-81344104D02*
X124623220Y-81153628D01*
X124623220Y-81153628D02*
X124575601Y-80915533D01*
X124575601Y-80915533D02*
X124527982Y-80772676D01*
X124527982Y-80772676D02*
X124480363Y-80677438D01*
X124480363Y-80677438D02*
X124385125Y-80534580D01*
X124385125Y-80534580D02*
X124337506Y-80486961D01*
%TO.C,G\u002A\u002A\u002A*%
G36*
X124663641Y-82526680D02*
G01*
X124632544Y-82583234D01*
X124569721Y-82646132D01*
X124510315Y-82686068D01*
X124410051Y-82749567D01*
X124283567Y-82839932D01*
X124177705Y-82922091D01*
X124063981Y-83009368D01*
X123961585Y-83079316D01*
X123896116Y-83115170D01*
X123820948Y-83169685D01*
X123757872Y-83254687D01*
X123672157Y-83353527D01*
X123554019Y-83422095D01*
X123425218Y-83489319D01*
X123364882Y-83567602D01*
X123367337Y-83669830D01*
X123403772Y-83763357D01*
X123474765Y-83887018D01*
X123565058Y-84014652D01*
X123590581Y-84045823D01*
X123665563Y-84149894D01*
X123680812Y-84215282D01*
X123636847Y-84239454D01*
X123553630Y-84225796D01*
X123414534Y-84220656D01*
X123350821Y-84244541D01*
X123270069Y-84274157D01*
X123193820Y-84261247D01*
X123145214Y-84239127D01*
X123059204Y-84205206D01*
X122988437Y-84212157D01*
X122923377Y-84241946D01*
X122846168Y-84299088D01*
X122831758Y-84352042D01*
X122826694Y-84416055D01*
X122789055Y-84498343D01*
X122736628Y-84568380D01*
X122689734Y-84595767D01*
X122638481Y-84611359D01*
X122545167Y-84651533D01*
X122466475Y-84689470D01*
X122352210Y-84743766D01*
X122258181Y-84783042D01*
X122220068Y-84795140D01*
X122133168Y-84820488D01*
X122094710Y-84835422D01*
X122008039Y-84850641D01*
X121933786Y-84845498D01*
X121840452Y-84848234D01*
X121738334Y-84879161D01*
X121655057Y-84926627D01*
X121618285Y-84978556D01*
X121618080Y-85052698D01*
X121620616Y-85087081D01*
X121601944Y-85138469D01*
X121535812Y-85151971D01*
X121460932Y-85131309D01*
X121412020Y-85057550D01*
X121403950Y-85035912D01*
X121363492Y-84919854D01*
X121140398Y-84945094D01*
X120974675Y-84954208D01*
X120857512Y-84935827D01*
X120815696Y-84918462D01*
X120712940Y-84867002D01*
X120593218Y-84808331D01*
X120575815Y-84799919D01*
X120465229Y-84723148D01*
X120400547Y-84629754D01*
X120393251Y-84544338D01*
X120377249Y-84496002D01*
X120330168Y-84433097D01*
X120283002Y-84352208D01*
X120238971Y-84228656D01*
X120204580Y-84089356D01*
X120186335Y-83961223D01*
X120190740Y-83871169D01*
X120192833Y-83864883D01*
X120215876Y-83830854D01*
X120254552Y-83845584D01*
X120300292Y-83885687D01*
X120385520Y-83943091D01*
X120463494Y-83965402D01*
X120537996Y-83936323D01*
X120620812Y-83865054D01*
X120686711Y-83775544D01*
X120703513Y-83737562D01*
X120744760Y-83707928D01*
X120833456Y-83678811D01*
X120877669Y-83669359D01*
X121003105Y-83657316D01*
X121102172Y-83681060D01*
X121159613Y-83711084D01*
X121280308Y-83782296D01*
X121381260Y-83662322D01*
X121444014Y-83575020D01*
X121468855Y-83491096D01*
X121466013Y-83374043D01*
X121465019Y-83363422D01*
X121460767Y-83234434D01*
X121482217Y-83171237D01*
X121533517Y-83168660D01*
X121593660Y-83203108D01*
X121688092Y-83243104D01*
X121803787Y-83260827D01*
X121809397Y-83260876D01*
X121921671Y-83267918D01*
X122067155Y-83286004D01*
X122162679Y-83301852D01*
X122321039Y-83317238D01*
X122500653Y-83313064D01*
X122679134Y-83292207D01*
X122834096Y-83257543D01*
X122943152Y-83211946D01*
X122960365Y-83199393D01*
X123036300Y-83165338D01*
X123141857Y-83149739D01*
X123150508Y-83149635D01*
X123280445Y-83133211D01*
X123430249Y-83089857D01*
X123580250Y-83028454D01*
X123710779Y-82957884D01*
X123802167Y-82887026D01*
X123832396Y-82841764D01*
X123872102Y-82793629D01*
X123905155Y-82793071D01*
X123963355Y-82790756D01*
X123978154Y-82777213D01*
X124030341Y-82745633D01*
X124059853Y-82741752D01*
X124132471Y-82718195D01*
X124189027Y-82678954D01*
X124294025Y-82611872D01*
X124462508Y-82540156D01*
X124601988Y-82492990D01*
X124655846Y-82491566D01*
X124663641Y-82526680D01*
G37*
D11*
%TO.C,IC2*%
X107350000Y-90960000D02*
X109055000Y-90960000D01*
X109405000Y-90710000D02*
X113995000Y-90710000D01*
X109405000Y-96910000D02*
X109405000Y-90710000D01*
X113995000Y-90710000D02*
X113995000Y-96910000D01*
X113995000Y-96910000D02*
X109405000Y-96910000D01*
%TO.C,IC1*%
X107350000Y-81510000D02*
X109055000Y-81510000D01*
X109405000Y-81260000D02*
X113995000Y-81260000D01*
X109405000Y-87460000D02*
X109405000Y-81260000D01*
X113995000Y-81260000D02*
X113995000Y-87460000D01*
X113995000Y-87460000D02*
X109405000Y-87460000D01*
%TD*%
M02*
