%TF.GenerationSoftware,KiCad,Pcbnew,7.0.5*%
%TF.CreationDate,2023-06-06T20:58:09+03:00*%
%TF.ProjectId,RS232-2__1,52533233-322d-4325-9fb1-312e6b696361,rev?*%
%TF.SameCoordinates,Original*%
%TF.FileFunction,Paste,Top*%
%TF.FilePolarity,Positive*%
%FSLAX46Y46*%
G04 Gerber Fmt 4.6, Leading zero omitted, Abs format (unit mm)*
G04 Created by KiCad (PCBNEW 7.0.5) date 2023-06-06 20:58:09*
%MOMM*%
%LPD*%
G01*
G04 APERTURE LIST*
%ADD10R,0.780000X0.980000*%
%ADD11R,0.980000X0.780000*%
%ADD12R,1.705000X0.450000*%
G04 APERTURE END LIST*
D10*
%TO.C,C9*%
X109040000Y-97860000D03*
X107640000Y-97860000D03*
%TD*%
D11*
%TO.C,C1*%
X105830000Y-83240000D03*
X105830000Y-81840000D03*
%TD*%
D10*
%TO.C,C7*%
X112210000Y-89750000D03*
X110810000Y-89750000D03*
%TD*%
D11*
%TO.C,C5*%
X117500000Y-93260000D03*
X117500000Y-91860000D03*
%TD*%
D10*
%TO.C,C4*%
X109040000Y-88420000D03*
X107640000Y-88420000D03*
%TD*%
%TO.C,C3*%
X112210000Y-80280000D03*
X110810000Y-80280000D03*
%TD*%
D11*
%TO.C,C10*%
X117670000Y-83800000D03*
X117670000Y-82400000D03*
%TD*%
D12*
%TO.C,IC2*%
X108202000Y-91535000D03*
X108202000Y-92185000D03*
X108202000Y-92835000D03*
X108202000Y-93485000D03*
X108202000Y-94135000D03*
X108202000Y-94785000D03*
X108202000Y-95435000D03*
X108202000Y-96085000D03*
X115198000Y-96085000D03*
X115198000Y-95435000D03*
X115198000Y-94785000D03*
X115198000Y-94135000D03*
X115198000Y-93485000D03*
X115198000Y-92835000D03*
X115198000Y-92185000D03*
X115198000Y-91535000D03*
%TD*%
D11*
%TO.C,C6*%
X105830000Y-92790000D03*
X105830000Y-91390000D03*
%TD*%
%TO.C,C2*%
X105830000Y-85820000D03*
X105830000Y-84420000D03*
%TD*%
%TO.C,C8*%
X105830000Y-95270000D03*
X105830000Y-93870000D03*
%TD*%
D12*
%TO.C,IC1*%
X108202000Y-82085000D03*
X108202000Y-82735000D03*
X108202000Y-83385000D03*
X108202000Y-84035000D03*
X108202000Y-84685000D03*
X108202000Y-85335000D03*
X108202000Y-85985000D03*
X108202000Y-86635000D03*
X115198000Y-86635000D03*
X115198000Y-85985000D03*
X115198000Y-85335000D03*
X115198000Y-84685000D03*
X115198000Y-84035000D03*
X115198000Y-83385000D03*
X115198000Y-82735000D03*
X115198000Y-82085000D03*
%TD*%
M02*
