M48
; DRILL file {KiCad 7.0.5} date Wed Jun  7 11:30:48 2023
; FORMAT={-:-/ absolute / inch / decimal}
; #@! TF.CreationDate,2023-06-07T11:30:48+03:00
; #@! TF.GenerationSoftware,Kicad,Pcbnew,7.0.5
; #@! TF.FileFunction,Plated,1,2,PTH
FMAT,2
INCH
; #@! TA.AperFunction,Plated,PTH,ViaDrill
T1C0.0157
; #@! TA.AperFunction,Plated,PTH,ViaDrill
T2C0.0197
; #@! TA.AperFunction,Plated,PTH,ComponentDrill
T3C0.0413
; #@! TA.AperFunction,Plated,PTH,ComponentDrill
T4C0.0531
%
G90
G05
T1
X4.2768Y-3.5445
X4.2894Y-3.1709
X4.3618Y-3.8524
X4.3736Y-3.4807
X4.3906Y-3.4165
X4.3912Y-3.7075
X4.4173Y-3.6106
X4.4181Y-3.211
X4.4594Y-3.6556
X4.478Y-3.3839
X4.4789Y-3.3094
X4.5594Y-3.4362
X4.7157Y-3.3318
X4.7484Y-3.5323
X4.7512Y-3.574
X4.7516Y-3.615
T2
X4.6688Y-3.6668
X4.6846Y-3.2496
X4.6982Y-3.4742
X4.8106Y-3.6669
T3
X4.7575Y-3.2433
T4
X4.7575Y-3.7472
T0
M30
