%TF.GenerationSoftware,KiCad,Pcbnew,7.0.5*%
%TF.CreationDate,2023-06-06T20:58:09+03:00*%
%TF.ProjectId,RS232-2__1,52533233-322d-4325-9fb1-312e6b696361,rev?*%
%TF.SameCoordinates,Original*%
%TF.FileFunction,Copper,L1,Top*%
%TF.FilePolarity,Positive*%
%FSLAX46Y46*%
G04 Gerber Fmt 4.6, Leading zero omitted, Abs format (unit mm)*
G04 Created by KiCad (PCBNEW 7.0.5) date 2023-06-06 20:58:09*
%MOMM*%
%LPD*%
G01*
G04 APERTURE LIST*
%TA.AperFunction,SMDPad,CuDef*%
%ADD10R,0.780000X0.980000*%
%TD*%
%TA.AperFunction,SMDPad,CuDef*%
%ADD11R,0.980000X0.780000*%
%TD*%
%TA.AperFunction,SMDPad,CuDef*%
%ADD12R,1.705000X0.450000*%
%TD*%
%TA.AperFunction,ComponentPad*%
%ADD13C,0.675000*%
%TD*%
%TA.AperFunction,ComponentPad*%
%ADD14C,0.525000*%
%TD*%
%TA.AperFunction,ViaPad*%
%ADD15C,0.700000*%
%TD*%
%TA.AperFunction,ViaPad*%
%ADD16C,1.000000*%
%TD*%
%TA.AperFunction,Conductor*%
%ADD17C,0.250000*%
%TD*%
%TA.AperFunction,Conductor*%
%ADD18C,0.500000*%
%TD*%
G04 APERTURE END LIST*
D10*
%TO.P,C9,1*%
%TO.N,GND*%
X109040000Y-97860000D03*
%TO.P,C9,2*%
%TO.N,Net-(IC2-V-)*%
X107640000Y-97860000D03*
%TD*%
D11*
%TO.P,C1,1*%
%TO.N,Net-(IC1-C1-)*%
X105830000Y-83240000D03*
%TO.P,C1,2*%
%TO.N,Net-(IC1-C1+)*%
X105830000Y-81840000D03*
%TD*%
D10*
%TO.P,C7,1*%
%TO.N,GND*%
X112210000Y-89750000D03*
%TO.P,C7,2*%
%TO.N,Net-(IC2-V+)*%
X110810000Y-89750000D03*
%TD*%
D11*
%TO.P,C5,1*%
%TO.N,GND*%
X117500000Y-93260000D03*
%TO.P,C5,2*%
%TO.N,/VCC2*%
X117500000Y-91860000D03*
%TD*%
D10*
%TO.P,C4,1*%
%TO.N,GND*%
X109040000Y-88420000D03*
%TO.P,C4,2*%
%TO.N,Net-(IC1-V-)*%
X107640000Y-88420000D03*
%TD*%
%TO.P,C3,1*%
%TO.N,GND*%
X112210000Y-80280000D03*
%TO.P,C3,2*%
%TO.N,Net-(IC1-V+)*%
X110810000Y-80280000D03*
%TD*%
D11*
%TO.P,C10,1*%
%TO.N,GND*%
X117670000Y-83800000D03*
%TO.P,C10,2*%
%TO.N,/VCC2*%
X117670000Y-82400000D03*
%TD*%
D12*
%TO.P,IC2,1,~{EN}*%
%TO.N,GND*%
X108202000Y-91535000D03*
%TO.P,IC2,2,C1+*%
%TO.N,Net-(IC2-C1+)*%
X108202000Y-92185000D03*
%TO.P,IC2,3,V+*%
%TO.N,Net-(IC2-V+)*%
X108202000Y-92835000D03*
%TO.P,IC2,4,C1-*%
%TO.N,Net-(IC2-C1-)*%
X108202000Y-93485000D03*
%TO.P,IC2,5,C2+*%
%TO.N,Net-(IC2-C2+)*%
X108202000Y-94135000D03*
%TO.P,IC2,6,C2-*%
%TO.N,Net-(IC2-C2-)*%
X108202000Y-94785000D03*
%TO.P,IC2,7,V-*%
%TO.N,Net-(IC2-V-)*%
X108202000Y-95435000D03*
%TO.P,IC2,8,R1IN*%
%TO.N,/RS232_B_RX*%
X108202000Y-96085000D03*
%TO.P,IC2,9,R1OUT*%
%TO.N,/UART_B_TTL_RX*%
X115198000Y-96085000D03*
%TO.P,IC2,10,~{INVALID}*%
%TO.N,unconnected-(IC2-~{INVALID}-Pad10)*%
X115198000Y-95435000D03*
%TO.P,IC2,11,T1IN*%
%TO.N,/UART_B_TTL_TX*%
X115198000Y-94785000D03*
%TO.P,IC2,12,FORCEON*%
%TO.N,/UART_B_FORCEON*%
X115198000Y-94135000D03*
%TO.P,IC2,13,T1OUT*%
%TO.N,/RS232_B_TX*%
X115198000Y-93485000D03*
%TO.P,IC2,14,GND*%
%TO.N,GND*%
X115198000Y-92835000D03*
%TO.P,IC2,15,VCC*%
%TO.N,/VCC2*%
X115198000Y-92185000D03*
%TO.P,IC2,16,~{FORCEOFF}*%
X115198000Y-91535000D03*
%TD*%
D11*
%TO.P,C6,1*%
%TO.N,Net-(IC2-C1-)*%
X105830000Y-92790000D03*
%TO.P,C6,2*%
%TO.N,Net-(IC2-C1+)*%
X105830000Y-91390000D03*
%TD*%
%TO.P,C2,1*%
%TO.N,Net-(IC1-C2-)*%
X105830000Y-85820000D03*
%TO.P,C2,2*%
%TO.N,Net-(IC1-C2+)*%
X105830000Y-84420000D03*
%TD*%
%TO.P,C8,1*%
%TO.N,Net-(IC2-C2-)*%
X105830000Y-95270000D03*
%TO.P,C8,2*%
%TO.N,Net-(IC2-C2+)*%
X105830000Y-93870000D03*
%TD*%
D12*
%TO.P,IC1,1,~{EN}*%
%TO.N,GND*%
X108202000Y-82085000D03*
%TO.P,IC1,2,C1+*%
%TO.N,Net-(IC1-C1+)*%
X108202000Y-82735000D03*
%TO.P,IC1,3,V+*%
%TO.N,Net-(IC1-V+)*%
X108202000Y-83385000D03*
%TO.P,IC1,4,C1-*%
%TO.N,Net-(IC1-C1-)*%
X108202000Y-84035000D03*
%TO.P,IC1,5,C2+*%
%TO.N,Net-(IC1-C2+)*%
X108202000Y-84685000D03*
%TO.P,IC1,6,C2-*%
%TO.N,Net-(IC1-C2-)*%
X108202000Y-85335000D03*
%TO.P,IC1,7,V-*%
%TO.N,Net-(IC1-V-)*%
X108202000Y-85985000D03*
%TO.P,IC1,8,R1IN*%
%TO.N,/RS232_A_RX*%
X108202000Y-86635000D03*
%TO.P,IC1,9,R1OUT*%
%TO.N,/UART_A_TTL_RX*%
X115198000Y-86635000D03*
%TO.P,IC1,10,~{INVALID}*%
%TO.N,unconnected-(IC1-~{INVALID}-Pad10)*%
X115198000Y-85985000D03*
%TO.P,IC1,11,T1IN*%
%TO.N,/UART_A_TTL_TX*%
X115198000Y-85335000D03*
%TO.P,IC1,12,FORCEON*%
%TO.N,/UART_A_FORCEON*%
X115198000Y-84685000D03*
%TO.P,IC1,13,T1OUT*%
%TO.N,/RS232_A_TX*%
X115198000Y-84035000D03*
%TO.P,IC1,14,GND*%
%TO.N,GND*%
X115198000Y-83385000D03*
%TO.P,IC1,15,VCC*%
%TO.N,/VCC2*%
X115198000Y-82735000D03*
%TO.P,IC1,16,~{FORCEOFF}*%
X115198000Y-82085000D03*
%TD*%
D13*
%TO.P,H1,MH1*%
%TO.N,N/C*%
X120840000Y-95180000D03*
D14*
%TO.P,H1,MH2*%
X120840000Y-82380000D03*
%TD*%
D15*
%TO.N,GND*%
X111090000Y-88410000D03*
X112220000Y-81560000D03*
X112200000Y-91710000D03*
D16*
X118586990Y-93136990D03*
X122190000Y-93140000D03*
D15*
X108950000Y-80540000D03*
X108630000Y-90030000D03*
X110790000Y-97850000D03*
%TO.N,/UART_A_TTL_TX*%
X113740000Y-85950000D03*
%TO.N,/UART_A_TTL_RX*%
X115810000Y-87280000D03*
D16*
%TO.N,/VCC2*%
X119335000Y-88245000D03*
X118990000Y-82540000D03*
D15*
%TO.N,/UART_B_TTL_TX*%
X120680000Y-90780000D03*
%TO.N,/UART_B_TTL_RX*%
X120689894Y-91820000D03*
%TO.N,/RS232_B_RX*%
X111535500Y-94170000D03*
%TO.N,/RS232_B_TX*%
X113268056Y-92851944D03*
%TO.N,/RS232_A_RX*%
X111520000Y-86780000D03*
%TO.N,/RS232_A_TX*%
X113765000Y-84059500D03*
%TO.N,/UART_A_FORCEON*%
X119779500Y-84626923D03*
%TO.N,/UART_B_FORCEON*%
X120610000Y-89720000D03*
%TD*%
D17*
%TO.N,GND*%
X110790000Y-97850000D02*
X110800000Y-97860000D01*
X111090000Y-88410000D02*
X109050000Y-88420000D01*
D18*
X118463980Y-93260000D02*
X117500000Y-93260000D01*
D17*
X116425000Y-83385000D02*
X115898000Y-83385000D01*
D18*
X118586990Y-93136990D02*
X118586990Y-90453010D01*
D17*
X112210000Y-83400000D02*
X112210000Y-87305000D01*
X110780000Y-97860000D02*
X110790000Y-97850000D01*
X112210000Y-87305000D02*
X111095000Y-88420000D01*
X112210000Y-83570000D02*
X112230000Y-83590000D01*
X110830000Y-97860000D02*
X112210000Y-96480000D01*
X108950000Y-80550000D02*
X108200000Y-81300000D01*
X115198000Y-92835000D02*
X114205000Y-92835000D01*
D18*
X120579500Y-84295552D02*
X120083948Y-83800000D01*
X118586990Y-93136990D02*
X118463980Y-93260000D01*
D17*
X112210000Y-79890000D02*
X111730000Y-79410000D01*
X108200000Y-81300000D02*
X108200000Y-82083000D01*
X112210000Y-91720000D02*
X112200000Y-91710000D01*
X117500000Y-93260000D02*
X116710000Y-93260000D01*
X108202000Y-90508000D02*
X108630000Y-90080000D01*
X108960000Y-80540000D02*
X108950000Y-80540000D01*
D18*
X120579500Y-88460500D02*
X120579500Y-84295552D01*
D17*
X116840000Y-83800000D02*
X116425000Y-83385000D01*
X108630000Y-90080000D02*
X108630000Y-90030000D01*
X115198000Y-83385000D02*
X112435000Y-83385000D01*
X109040000Y-89670000D02*
X109040000Y-88420000D01*
X108680000Y-90030000D02*
X109040000Y-89670000D01*
X108200000Y-82083000D02*
X108202000Y-82085000D01*
X109040000Y-97860000D02*
X110780000Y-97860000D01*
X114205000Y-92835000D02*
X112210000Y-90840000D01*
X112210000Y-90840000D02*
X112210000Y-89750000D01*
X112210000Y-89750000D02*
X112210000Y-87305000D01*
X108950000Y-80540000D02*
X108950000Y-80550000D01*
D18*
X122190000Y-90071000D02*
X120579500Y-88460500D01*
X118586990Y-90453010D02*
X120579500Y-88460500D01*
D17*
X112210000Y-80280000D02*
X112210000Y-81550000D01*
X112210000Y-81550000D02*
X112220000Y-81560000D01*
X112200000Y-91710000D02*
X112210000Y-91700000D01*
X117670000Y-83800000D02*
X116840000Y-83800000D01*
X112210000Y-81570000D02*
X112210000Y-83570000D01*
X112220000Y-81560000D02*
X112210000Y-81570000D01*
X110800000Y-97860000D02*
X110830000Y-97860000D01*
X108630000Y-90030000D02*
X108680000Y-90030000D01*
D18*
X122190000Y-93140000D02*
X122190000Y-90071000D01*
D17*
X110090000Y-79410000D02*
X108960000Y-80540000D01*
D18*
X120083948Y-83800000D02*
X117670000Y-83800000D01*
D17*
X112435000Y-83385000D02*
X112230000Y-83590000D01*
X116285000Y-92835000D02*
X115198000Y-92835000D01*
X112210000Y-96480000D02*
X112210000Y-91720000D01*
X116710000Y-93260000D02*
X116285000Y-92835000D01*
X111730000Y-79410000D02*
X110090000Y-79410000D01*
X112210000Y-91700000D02*
X112210000Y-90840000D01*
X112210000Y-90700000D02*
X112210000Y-91060000D01*
X108202000Y-91535000D02*
X108202000Y-90508000D01*
X112210000Y-80280000D02*
X112210000Y-79890000D01*
X111095000Y-88420000D02*
X111090000Y-88410000D01*
%TO.N,/UART_A_TTL_TX*%
X113740000Y-85950000D02*
X113740000Y-85715500D01*
X113740000Y-85715500D02*
X114120500Y-85335000D01*
X114120500Y-85335000D02*
X115198000Y-85335000D01*
%TO.N,/UART_A_TTL_RX*%
X115810000Y-87247000D02*
X115198000Y-86635000D01*
X115810000Y-87280000D02*
X115810000Y-87247000D01*
D18*
%TO.N,/VCC2*%
X117500000Y-91860000D02*
X117500000Y-90080000D01*
D17*
X116810000Y-82400000D02*
X117670000Y-82400000D01*
X115198000Y-91535000D02*
X115198000Y-92185000D01*
X116620000Y-91860000D02*
X116295000Y-92185000D01*
X117500000Y-91860000D02*
X116620000Y-91860000D01*
D18*
X117810000Y-82540000D02*
X117670000Y-82400000D01*
D17*
X115198000Y-82085000D02*
X115198000Y-82735000D01*
D18*
X117500000Y-90080000D02*
X119335000Y-88245000D01*
D17*
X115198000Y-82735000D02*
X116475000Y-82735000D01*
X116295000Y-92185000D02*
X115198000Y-92185000D01*
D18*
X118990000Y-82540000D02*
X117810000Y-82540000D01*
D17*
X115898000Y-82085000D02*
X115198000Y-82085000D01*
X116475000Y-82735000D02*
X116810000Y-82400000D01*
%TO.N,/UART_B_TTL_TX*%
X120014894Y-91445106D02*
X120014894Y-93605106D01*
X120014894Y-93605106D02*
X118835000Y-94785000D01*
X120680000Y-90780000D02*
X120014894Y-91445106D01*
X118835000Y-94785000D02*
X115198000Y-94785000D01*
%TO.N,/UART_B_TTL_RX*%
X120689894Y-93740106D02*
X118345000Y-96085000D01*
X120689894Y-91820000D02*
X120689894Y-93740106D01*
X118345000Y-96085000D02*
X115198000Y-96085000D01*
%TO.N,Net-(IC1-C1+)*%
X106140000Y-81840000D02*
X105830000Y-81840000D01*
X108202000Y-82735000D02*
X107035000Y-82735000D01*
X107035000Y-82735000D02*
X106140000Y-81840000D01*
%TO.N,Net-(IC1-C1-)*%
X108202000Y-84035000D02*
X107085000Y-84035000D01*
X106290000Y-83240000D02*
X105830000Y-83240000D01*
X107085000Y-84035000D02*
X106290000Y-83240000D01*
%TO.N,Net-(IC1-C2+)*%
X106095000Y-84685000D02*
X105830000Y-84420000D01*
X108202000Y-84685000D02*
X106095000Y-84685000D01*
%TO.N,Net-(IC1-C2-)*%
X108202000Y-85335000D02*
X106975000Y-85335000D01*
X106490000Y-85820000D02*
X105830000Y-85820000D01*
X106975000Y-85335000D02*
X106490000Y-85820000D01*
%TO.N,Net-(IC1-V+)*%
X108202000Y-83385000D02*
X109925000Y-83385000D01*
X109925000Y-83385000D02*
X110810000Y-82500000D01*
X110810000Y-82500000D02*
X110810000Y-80280000D01*
%TO.N,Net-(IC1-V-)*%
X108202000Y-85985000D02*
X107099500Y-85985000D01*
X107200000Y-88420000D02*
X107640000Y-88420000D01*
X106900000Y-86184500D02*
X106900000Y-88120000D01*
X107099500Y-85985000D02*
X106900000Y-86184500D01*
X106900000Y-88120000D02*
X107200000Y-88420000D01*
%TO.N,Net-(IC2-C1+)*%
X107205000Y-92185000D02*
X106410000Y-91390000D01*
X106410000Y-91390000D02*
X105830000Y-91390000D01*
X108202000Y-92185000D02*
X107205000Y-92185000D01*
%TO.N,Net-(IC2-C1-)*%
X107065000Y-93485000D02*
X106370000Y-92790000D01*
X108202000Y-93485000D02*
X107065000Y-93485000D01*
X106370000Y-92790000D02*
X105830000Y-92790000D01*
%TO.N,Net-(IC2-V+)*%
X109710000Y-90850000D02*
X109710000Y-92429500D01*
X109304500Y-92835000D02*
X108202000Y-92835000D01*
X109710000Y-92429500D02*
X109304500Y-92835000D01*
X110810000Y-89750000D02*
X109710000Y-90850000D01*
%TO.N,Net-(IC2-C2+)*%
X108202000Y-94135000D02*
X106095000Y-94135000D01*
X106095000Y-94135000D02*
X105830000Y-93870000D01*
%TO.N,Net-(IC2-C2-)*%
X106600000Y-95270000D02*
X105830000Y-95270000D01*
X107085000Y-94785000D02*
X106600000Y-95270000D01*
X108202000Y-94785000D02*
X107085000Y-94785000D01*
%TO.N,Net-(IC2-V-)*%
X107255000Y-95435000D02*
X106930000Y-95760000D01*
X107200000Y-97860000D02*
X107640000Y-97860000D01*
X106930000Y-95760000D02*
X106930000Y-97590000D01*
X106930000Y-97590000D02*
X107200000Y-97860000D01*
X108202000Y-95435000D02*
X107255000Y-95435000D01*
%TO.N,/RS232_B_RX*%
X109620500Y-96085000D02*
X108202000Y-96085000D01*
X111535500Y-94170000D02*
X109620500Y-96085000D01*
%TO.N,/RS232_B_TX*%
X113901112Y-93485000D02*
X115198000Y-93485000D01*
X113268056Y-92851944D02*
X113901112Y-93485000D01*
%TO.N,/RS232_A_RX*%
X111520000Y-86780000D02*
X111375000Y-86635000D01*
X111375000Y-86635000D02*
X108202000Y-86635000D01*
%TO.N,/RS232_A_TX*%
X113789500Y-84035000D02*
X115198000Y-84035000D01*
X113765000Y-84059500D02*
X113789500Y-84035000D01*
%TO.N,/UART_A_FORCEON*%
X119721423Y-84685000D02*
X115898000Y-84685000D01*
X119779500Y-84626923D02*
X119721423Y-84685000D01*
%TO.N,/UART_B_FORCEON*%
X120610000Y-89720000D02*
X119500000Y-90830000D01*
X118755000Y-94135000D02*
X115198000Y-94135000D01*
X119500000Y-93390000D02*
X118755000Y-94135000D01*
X119500000Y-90830000D02*
X119500000Y-93390000D01*
%TD*%
%TA.AperFunction,Conductor*%
%TO.N,GND*%
G36*
X124882539Y-78800185D02*
G01*
X124928294Y-78852989D01*
X124939500Y-78904500D01*
X124939500Y-98655500D01*
X124919815Y-98722539D01*
X124867011Y-98768294D01*
X124815500Y-98779500D01*
X109980010Y-98779500D01*
X109912971Y-98759815D01*
X109867216Y-98707011D01*
X109857272Y-98637853D01*
X109871179Y-98596072D01*
X109873352Y-98592091D01*
X109923596Y-98457379D01*
X109923598Y-98457372D01*
X109929999Y-98397844D01*
X109930000Y-98397827D01*
X109930000Y-97323553D01*
X109929999Y-97323552D01*
X109127680Y-98125871D01*
X109066357Y-98159356D01*
X108996665Y-98154372D01*
X108952318Y-98125871D01*
X108366818Y-97540371D01*
X108333333Y-97479048D01*
X108330499Y-97452690D01*
X108330499Y-97325143D01*
X108330499Y-97325136D01*
X108330497Y-97325117D01*
X108327586Y-97300012D01*
X108327585Y-97300010D01*
X108327585Y-97300009D01*
X108282206Y-97197235D01*
X108202765Y-97117794D01*
X108202764Y-97117793D01*
X108099992Y-97072415D01*
X108074868Y-97069500D01*
X108074865Y-97069500D01*
X107479499Y-97069500D01*
X107412460Y-97049815D01*
X107366705Y-96997011D01*
X107355499Y-96945499D01*
X107355499Y-96912442D01*
X108445995Y-96912442D01*
X109040000Y-97506446D01*
X109040001Y-97506446D01*
X109634004Y-96912443D01*
X109634003Y-96912442D01*
X109537379Y-96876403D01*
X109537372Y-96876401D01*
X109477844Y-96870000D01*
X108602155Y-96870000D01*
X108542627Y-96876401D01*
X108542620Y-96876403D01*
X108445995Y-96912442D01*
X107355499Y-96912442D01*
X107355500Y-96734498D01*
X107375185Y-96667459D01*
X107427989Y-96621704D01*
X107479500Y-96610499D01*
X109099356Y-96610499D01*
X109099364Y-96610499D01*
X109099379Y-96610497D01*
X109099382Y-96610497D01*
X109124487Y-96607586D01*
X109124488Y-96607585D01*
X109124491Y-96607585D01*
X109227265Y-96562206D01*
X109242651Y-96546819D01*
X109303975Y-96513334D01*
X109330333Y-96510500D01*
X109687892Y-96510500D01*
X109687893Y-96510500D01*
X109710860Y-96503036D01*
X109729776Y-96498495D01*
X109753626Y-96494719D01*
X109775136Y-96483757D01*
X109793114Y-96476310D01*
X109816081Y-96468849D01*
X109835618Y-96454653D01*
X109852206Y-96444488D01*
X109873720Y-96433528D01*
X109969028Y-96338220D01*
X110027587Y-96279661D01*
X110027599Y-96279647D01*
X111450428Y-94856819D01*
X111511752Y-94823334D01*
X111538110Y-94820500D01*
X111614485Y-94820500D01*
X111767865Y-94782696D01*
X111833621Y-94748184D01*
X111907740Y-94709283D01*
X112025983Y-94604530D01*
X112115720Y-94474523D01*
X112171737Y-94326818D01*
X112190778Y-94170000D01*
X112186899Y-94138049D01*
X112171737Y-94013181D01*
X112132795Y-93910500D01*
X112115720Y-93865477D01*
X112025983Y-93735470D01*
X111907740Y-93630717D01*
X111907738Y-93630716D01*
X111907737Y-93630715D01*
X111767865Y-93557303D01*
X111614486Y-93519500D01*
X111614485Y-93519500D01*
X111456515Y-93519500D01*
X111456514Y-93519500D01*
X111303134Y-93557303D01*
X111163262Y-93630715D01*
X111045016Y-93735471D01*
X110955281Y-93865475D01*
X110955280Y-93865476D01*
X110899262Y-94013181D01*
X110880222Y-94169999D01*
X110880222Y-94172167D01*
X110879773Y-94173694D01*
X110879318Y-94177445D01*
X110878694Y-94177369D01*
X110860537Y-94239206D01*
X110843903Y-94259848D01*
X109566680Y-95537071D01*
X109505357Y-95570556D01*
X109435665Y-95565572D01*
X109379732Y-95523700D01*
X109355315Y-95458236D01*
X109354999Y-95449406D01*
X109354999Y-95165136D01*
X109354997Y-95165117D01*
X109351011Y-95130742D01*
X109352780Y-95130536D01*
X109352782Y-95089460D01*
X109351010Y-95089255D01*
X109352085Y-95079991D01*
X109355000Y-95054865D01*
X109354999Y-94515136D01*
X109354659Y-94512206D01*
X109351011Y-94480742D01*
X109352780Y-94480536D01*
X109352782Y-94439460D01*
X109351010Y-94439255D01*
X109352085Y-94429991D01*
X109355000Y-94404865D01*
X109354999Y-93865136D01*
X109354997Y-93865117D01*
X109351011Y-93830742D01*
X109352780Y-93830536D01*
X109352782Y-93789460D01*
X109351010Y-93789255D01*
X109352085Y-93779991D01*
X109355000Y-93754865D01*
X109354999Y-93361656D01*
X109374683Y-93294618D01*
X109427487Y-93248863D01*
X109435991Y-93245552D01*
X109459134Y-93233759D01*
X109477114Y-93226310D01*
X109500081Y-93218849D01*
X109519618Y-93204653D01*
X109536206Y-93194488D01*
X109557720Y-93183528D01*
X109653028Y-93088220D01*
X109653028Y-93088219D01*
X109889304Y-92851944D01*
X112612778Y-92851944D01*
X112631818Y-93008762D01*
X112661953Y-93088219D01*
X112687836Y-93156467D01*
X112777573Y-93286474D01*
X112895816Y-93391227D01*
X112895818Y-93391228D01*
X113035690Y-93464640D01*
X113189070Y-93502444D01*
X113189071Y-93502444D01*
X113265446Y-93502444D01*
X113332485Y-93522129D01*
X113353127Y-93538763D01*
X113552584Y-93738220D01*
X113647892Y-93833528D01*
X113669412Y-93844493D01*
X113685987Y-93854649D01*
X113705531Y-93868849D01*
X113728493Y-93876309D01*
X113746466Y-93883753D01*
X113767986Y-93894719D01*
X113791836Y-93898495D01*
X113810757Y-93903039D01*
X113832601Y-93910136D01*
X113833719Y-93910500D01*
X113867624Y-93910500D01*
X113921000Y-93910500D01*
X113988039Y-93930185D01*
X114033794Y-93982989D01*
X114045000Y-94034500D01*
X114045000Y-94404856D01*
X114045002Y-94404882D01*
X114048989Y-94439258D01*
X114047226Y-94439462D01*
X114047226Y-94480540D01*
X114048990Y-94480745D01*
X114045000Y-94515131D01*
X114045000Y-95054856D01*
X114045002Y-95054882D01*
X114048989Y-95089258D01*
X114047226Y-95089462D01*
X114047226Y-95130540D01*
X114048990Y-95130745D01*
X114045000Y-95165131D01*
X114045000Y-95704856D01*
X114045002Y-95704882D01*
X114048989Y-95739258D01*
X114047226Y-95739462D01*
X114047226Y-95780540D01*
X114048990Y-95780745D01*
X114045000Y-95815131D01*
X114045000Y-96354856D01*
X114045002Y-96354882D01*
X114047913Y-96379987D01*
X114047915Y-96379991D01*
X114093293Y-96482764D01*
X114093294Y-96482765D01*
X114172735Y-96562206D01*
X114275509Y-96607585D01*
X114300635Y-96610500D01*
X116095364Y-96610499D01*
X116095379Y-96610497D01*
X116095382Y-96610497D01*
X116120487Y-96607586D01*
X116120488Y-96607585D01*
X116120491Y-96607585D01*
X116223265Y-96562206D01*
X116238652Y-96546819D01*
X116299975Y-96513334D01*
X116326333Y-96510500D01*
X118412392Y-96510500D01*
X118412393Y-96510500D01*
X118435360Y-96503036D01*
X118454276Y-96498495D01*
X118478126Y-96494719D01*
X118499636Y-96483757D01*
X118517614Y-96476310D01*
X118540581Y-96468849D01*
X118560118Y-96454653D01*
X118576706Y-96444488D01*
X118598220Y-96433528D01*
X118693528Y-96338220D01*
X118752087Y-96279661D01*
X118752100Y-96279646D01*
X119679771Y-95351975D01*
X119741092Y-95318492D01*
X119810784Y-95323476D01*
X119866717Y-95365348D01*
X119890020Y-95420878D01*
X119890769Y-95425768D01*
X119890771Y-95425777D01*
X119959673Y-95611815D01*
X119959677Y-95611824D01*
X120064616Y-95780184D01*
X120064621Y-95780191D01*
X120175801Y-95897152D01*
X120201309Y-95923986D01*
X120364146Y-96037324D01*
X120546465Y-96115563D01*
X120740801Y-96155500D01*
X120889474Y-96155500D01*
X121037380Y-96140459D01*
X121109478Y-96117838D01*
X121226678Y-96081067D01*
X121400146Y-95984784D01*
X121550682Y-95855553D01*
X121672122Y-95698666D01*
X121759495Y-95520544D01*
X121809224Y-95328480D01*
X121819272Y-95130337D01*
X121789230Y-94934227D01*
X121720325Y-94748180D01*
X121696081Y-94709284D01*
X121615383Y-94579815D01*
X121615378Y-94579808D01*
X121478693Y-94436016D01*
X121478692Y-94436015D01*
X121470037Y-94429991D01*
X121315854Y-94322676D01*
X121315855Y-94322676D01*
X121315853Y-94322675D01*
X121133536Y-94244437D01*
X121071849Y-94231760D01*
X121010145Y-94198983D01*
X120975956Y-94138049D01*
X120980138Y-94068304D01*
X121009128Y-94022619D01*
X121014448Y-94017300D01*
X121014447Y-94017299D01*
X121026434Y-94005312D01*
X121038422Y-93993326D01*
X121049383Y-93971810D01*
X121059552Y-93955218D01*
X121060759Y-93953556D01*
X121073743Y-93935687D01*
X121081204Y-93912720D01*
X121088653Y-93894740D01*
X121099612Y-93873234D01*
X121099612Y-93873233D01*
X121099613Y-93873232D01*
X121103389Y-93849382D01*
X121107930Y-93830466D01*
X121115394Y-93807499D01*
X121115394Y-93672713D01*
X121115394Y-93621359D01*
X121115393Y-93621350D01*
X121115393Y-93007794D01*
X121115393Y-92367903D01*
X121135078Y-92300868D01*
X121157164Y-92275093D01*
X121180377Y-92254530D01*
X121270114Y-92124523D01*
X121326131Y-91976818D01*
X121345172Y-91820000D01*
X121326131Y-91663182D01*
X121270114Y-91515477D01*
X121180377Y-91385470D01*
X121180375Y-91385467D01*
X121175403Y-91379855D01*
X121177029Y-91378414D01*
X121145677Y-91328433D01*
X121146441Y-91258568D01*
X121167259Y-91221419D01*
X121166222Y-91220703D01*
X121170483Y-91214530D01*
X121260220Y-91084523D01*
X121316237Y-90936818D01*
X121335278Y-90780000D01*
X121333196Y-90762848D01*
X121316237Y-90623181D01*
X121285954Y-90543333D01*
X121260220Y-90475477D01*
X121204626Y-90394934D01*
X121170482Y-90345468D01*
X121127488Y-90307380D01*
X121090361Y-90248191D01*
X121091127Y-90178325D01*
X121107661Y-90144129D01*
X121190220Y-90024523D01*
X121246237Y-89876818D01*
X121265278Y-89720000D01*
X121246237Y-89563182D01*
X121190220Y-89415477D01*
X121100483Y-89285470D01*
X120982240Y-89180717D01*
X120982238Y-89180716D01*
X120982237Y-89180715D01*
X120842365Y-89107303D01*
X120688986Y-89069500D01*
X120688985Y-89069500D01*
X120531015Y-89069500D01*
X120531014Y-89069500D01*
X120377634Y-89107303D01*
X120237762Y-89180715D01*
X120119516Y-89285471D01*
X120029781Y-89415475D01*
X120029780Y-89415476D01*
X119973762Y-89563181D01*
X119954722Y-89719999D01*
X119954722Y-89722166D01*
X119954273Y-89723693D01*
X119953818Y-89727445D01*
X119953194Y-89727369D01*
X119935037Y-89789205D01*
X119918403Y-89809847D01*
X119229339Y-90498912D01*
X119151472Y-90576778D01*
X119140510Y-90598293D01*
X119130346Y-90614878D01*
X119116152Y-90634414D01*
X119116151Y-90634417D01*
X119108688Y-90657385D01*
X119101243Y-90675358D01*
X119090280Y-90696873D01*
X119086503Y-90720722D01*
X119081962Y-90739639D01*
X119074500Y-90762604D01*
X119074499Y-90762608D01*
X119074500Y-93162390D01*
X119054815Y-93229429D01*
X119038181Y-93250071D01*
X118701681Y-93586571D01*
X118640358Y-93620056D01*
X118570666Y-93615072D01*
X118514733Y-93573200D01*
X118490316Y-93507736D01*
X118490000Y-93498890D01*
X118490000Y-92822172D01*
X118489999Y-92822155D01*
X118483598Y-92762623D01*
X118447556Y-92665994D01*
X117587680Y-93525871D01*
X117526357Y-93559356D01*
X117456665Y-93554372D01*
X117412318Y-93525871D01*
X117234127Y-93347680D01*
X117200642Y-93286357D01*
X117205626Y-93216665D01*
X117234127Y-93172318D01*
X117819628Y-92586818D01*
X117880951Y-92553333D01*
X117907307Y-92550499D01*
X118034864Y-92550499D01*
X118034879Y-92550497D01*
X118034882Y-92550497D01*
X118059987Y-92547586D01*
X118059988Y-92547585D01*
X118059991Y-92547585D01*
X118162765Y-92502206D01*
X118242206Y-92422765D01*
X118287585Y-92319991D01*
X118290500Y-92294865D01*
X118290499Y-91425136D01*
X118290497Y-91425117D01*
X118287586Y-91400012D01*
X118287585Y-91400010D01*
X118287585Y-91400009D01*
X118242206Y-91297235D01*
X118162765Y-91217794D01*
X118162765Y-91217793D01*
X118162764Y-91217793D01*
X118124411Y-91200858D01*
X118071036Y-91155771D01*
X118050510Y-91088985D01*
X118050500Y-91087425D01*
X118050500Y-90359386D01*
X118070185Y-90292347D01*
X118086814Y-90271710D01*
X119273846Y-89084677D01*
X119335167Y-89051194D01*
X119347630Y-89049141D01*
X119444204Y-89038260D01*
X119514250Y-89030369D01*
X119514253Y-89030368D01*
X119514255Y-89030368D01*
X119684522Y-88970789D01*
X119837262Y-88874816D01*
X119964816Y-88747262D01*
X120060789Y-88594522D01*
X120120368Y-88424255D01*
X120120369Y-88424249D01*
X120140565Y-88245003D01*
X120140565Y-88244996D01*
X120120369Y-88065750D01*
X120120368Y-88065745D01*
X120101803Y-88012690D01*
X120060789Y-87895478D01*
X120053295Y-87883552D01*
X119964815Y-87742737D01*
X119837262Y-87615184D01*
X119684523Y-87519211D01*
X119514254Y-87459631D01*
X119514249Y-87459630D01*
X119335004Y-87439435D01*
X119334996Y-87439435D01*
X119155750Y-87459630D01*
X119155745Y-87459631D01*
X118985476Y-87519211D01*
X118832737Y-87615184D01*
X118705184Y-87742737D01*
X118609211Y-87895476D01*
X118549631Y-88065745D01*
X118549630Y-88065749D01*
X118530859Y-88232356D01*
X118503793Y-88296769D01*
X118495320Y-88306153D01*
X117118146Y-89683327D01*
X117116625Y-89684797D01*
X117068958Y-89729317D01*
X117045956Y-89767139D01*
X117042384Y-89772388D01*
X117015639Y-89807658D01*
X117015636Y-89807663D01*
X117009055Y-89824352D01*
X116999653Y-89843283D01*
X116990327Y-89858619D01*
X116978385Y-89901237D01*
X116976362Y-89907255D01*
X116960122Y-89948440D01*
X116958288Y-89966284D01*
X116954342Y-89987048D01*
X116949501Y-90004328D01*
X116949500Y-90004337D01*
X116949500Y-90048594D01*
X116949175Y-90054939D01*
X116944648Y-90098970D01*
X116944648Y-90098975D01*
X116947697Y-90116656D01*
X116949500Y-90137724D01*
X116949500Y-91087426D01*
X116929815Y-91154465D01*
X116877011Y-91200220D01*
X116875587Y-91200860D01*
X116837234Y-91217794D01*
X116757794Y-91297234D01*
X116729821Y-91360587D01*
X116684735Y-91413963D01*
X116617948Y-91434490D01*
X116616387Y-91434500D01*
X116552604Y-91434500D01*
X116529639Y-91441962D01*
X116510725Y-91446503D01*
X116499550Y-91448273D01*
X116494400Y-91449088D01*
X116425107Y-91440136D01*
X116371654Y-91395141D01*
X116351012Y-91328391D01*
X116350999Y-91326616D01*
X116350999Y-91265143D01*
X116350999Y-91265136D01*
X116350997Y-91265117D01*
X116348086Y-91240012D01*
X116348085Y-91240010D01*
X116348085Y-91240009D01*
X116302706Y-91137235D01*
X116223265Y-91057794D01*
X116186299Y-91041472D01*
X116120492Y-91012415D01*
X116095365Y-91009500D01*
X114300643Y-91009500D01*
X114300617Y-91009502D01*
X114275512Y-91012413D01*
X114275508Y-91012415D01*
X114172735Y-91057793D01*
X114093294Y-91137234D01*
X114047915Y-91240006D01*
X114047915Y-91240008D01*
X114045000Y-91265131D01*
X114045000Y-91804856D01*
X114045002Y-91804882D01*
X114048989Y-91839258D01*
X114047223Y-91839462D01*
X114047223Y-91880541D01*
X114048990Y-91880746D01*
X114045000Y-91915131D01*
X114045000Y-92148303D01*
X114025315Y-92215342D01*
X113995314Y-92247567D01*
X113988317Y-92252804D01*
X113988310Y-92252811D01*
X113903300Y-92366369D01*
X113847366Y-92408239D01*
X113777674Y-92413223D01*
X113721807Y-92384873D01*
X113640296Y-92312661D01*
X113640294Y-92312660D01*
X113640293Y-92312659D01*
X113500421Y-92239247D01*
X113347042Y-92201444D01*
X113347041Y-92201444D01*
X113189071Y-92201444D01*
X113189070Y-92201444D01*
X113035690Y-92239247D01*
X112895818Y-92312659D01*
X112777572Y-92417415D01*
X112687837Y-92547419D01*
X112687836Y-92547420D01*
X112631818Y-92695125D01*
X112612778Y-92851943D01*
X112612778Y-92851944D01*
X109889304Y-92851944D01*
X110034554Y-92706694D01*
X110034554Y-92706693D01*
X110058528Y-92682720D01*
X110069493Y-92661199D01*
X110079650Y-92644625D01*
X110093850Y-92625081D01*
X110101311Y-92602114D01*
X110108760Y-92584133D01*
X110119718Y-92562629D01*
X110119718Y-92562628D01*
X110119718Y-92562627D01*
X110119719Y-92562626D01*
X110123496Y-92538773D01*
X110128035Y-92519866D01*
X110135500Y-92496893D01*
X110135500Y-92362107D01*
X110135500Y-91077609D01*
X110155185Y-91010570D01*
X110171815Y-90989932D01*
X110464190Y-90697556D01*
X111615994Y-90697556D01*
X111712623Y-90733598D01*
X111772155Y-90739999D01*
X111772172Y-90740000D01*
X112647828Y-90740000D01*
X112647844Y-90739999D01*
X112707371Y-90733598D01*
X112804004Y-90697556D01*
X112210001Y-90103553D01*
X112210000Y-90103553D01*
X111615994Y-90697556D01*
X110464190Y-90697556D01*
X110584929Y-90576817D01*
X110646252Y-90543333D01*
X110672610Y-90540499D01*
X111244856Y-90540499D01*
X111244864Y-90540499D01*
X111244879Y-90540497D01*
X111244882Y-90540497D01*
X111269987Y-90537586D01*
X111269988Y-90537585D01*
X111269991Y-90537585D01*
X111372765Y-90492206D01*
X111452206Y-90412765D01*
X111497585Y-90309991D01*
X111500500Y-90284865D01*
X111500499Y-90157306D01*
X111520183Y-90090269D01*
X111536818Y-90069626D01*
X111856444Y-89750001D01*
X112563553Y-89750001D01*
X113099999Y-90286447D01*
X113100000Y-90286446D01*
X113100000Y-89213552D01*
X113099999Y-89213551D01*
X112563553Y-89749999D01*
X112563553Y-89750001D01*
X111856444Y-89750001D01*
X111856446Y-89749999D01*
X111536818Y-89430371D01*
X111503333Y-89369048D01*
X111500499Y-89342690D01*
X111500499Y-89215143D01*
X111500499Y-89215136D01*
X111500497Y-89215117D01*
X111497586Y-89190012D01*
X111497585Y-89190010D01*
X111497585Y-89190009D01*
X111452206Y-89087235D01*
X111372765Y-89007794D01*
X111309802Y-88979993D01*
X111269992Y-88962415D01*
X111244865Y-88959500D01*
X110375143Y-88959500D01*
X110375117Y-88959502D01*
X110350012Y-88962413D01*
X110350008Y-88962415D01*
X110247235Y-89007793D01*
X110167794Y-89087234D01*
X110167434Y-89088051D01*
X110167267Y-89088248D01*
X110166712Y-89089686D01*
X110122415Y-89190009D01*
X110119500Y-89215131D01*
X110119500Y-89787389D01*
X110099815Y-89854428D01*
X110083181Y-89875070D01*
X109361472Y-90596778D01*
X109350510Y-90618293D01*
X109340346Y-90634878D01*
X109326152Y-90654414D01*
X109326151Y-90654417D01*
X109318688Y-90677385D01*
X109311243Y-90695358D01*
X109300280Y-90716873D01*
X109296730Y-90739289D01*
X109266800Y-90802423D01*
X109229627Y-90825568D01*
X108432016Y-91623181D01*
X108370693Y-91656666D01*
X108344335Y-91659500D01*
X108059664Y-91659500D01*
X107992625Y-91639815D01*
X107971983Y-91623181D01*
X107186098Y-90837296D01*
X107107414Y-90866645D01*
X106992309Y-90952813D01*
X106900831Y-91075011D01*
X106898425Y-91073210D01*
X106859623Y-91111983D01*
X106791344Y-91126809D01*
X106725889Y-91102367D01*
X106712557Y-91090809D01*
X106694958Y-91073210D01*
X106687194Y-91065446D01*
X106687193Y-91065446D01*
X106663220Y-91041472D01*
X106663218Y-91041471D01*
X106656558Y-91034810D01*
X106623076Y-90973486D01*
X106621050Y-90958675D01*
X106620912Y-90958692D01*
X106617586Y-90930012D01*
X106617585Y-90930010D01*
X106617585Y-90930009D01*
X106572206Y-90827235D01*
X106554971Y-90810000D01*
X107795197Y-90810000D01*
X108202000Y-91216802D01*
X108608802Y-90810000D01*
X107795197Y-90810000D01*
X106554971Y-90810000D01*
X106492765Y-90747794D01*
X106460614Y-90733598D01*
X106389992Y-90702415D01*
X106364865Y-90699500D01*
X105295143Y-90699500D01*
X105295117Y-90699502D01*
X105270012Y-90702413D01*
X105270008Y-90702415D01*
X105167235Y-90747793D01*
X105167234Y-90747794D01*
X105152181Y-90762848D01*
X105090858Y-90796333D01*
X105021166Y-90791349D01*
X104965233Y-90749477D01*
X104940816Y-90684013D01*
X104940500Y-90675167D01*
X104940500Y-89367556D01*
X108445994Y-89367556D01*
X108542623Y-89403598D01*
X108602155Y-89409999D01*
X108602172Y-89410000D01*
X109477828Y-89410000D01*
X109477844Y-89409999D01*
X109537371Y-89403598D01*
X109634004Y-89367556D01*
X109040001Y-88773553D01*
X109040000Y-88773553D01*
X108445994Y-89367556D01*
X104940500Y-89367556D01*
X104940500Y-86534833D01*
X104960185Y-86467794D01*
X105012989Y-86422039D01*
X105082147Y-86412095D01*
X105145703Y-86441120D01*
X105152181Y-86447152D01*
X105167235Y-86462206D01*
X105270009Y-86507585D01*
X105295135Y-86510500D01*
X106350500Y-86510499D01*
X106417539Y-86530183D01*
X106463294Y-86582987D01*
X106474500Y-86634499D01*
X106474500Y-88187394D01*
X106481962Y-88210358D01*
X106486503Y-88229273D01*
X106489470Y-88248010D01*
X106490281Y-88253127D01*
X106501243Y-88274641D01*
X106508688Y-88292615D01*
X106516150Y-88315580D01*
X106530340Y-88335110D01*
X106540508Y-88351703D01*
X106551470Y-88373218D01*
X106575446Y-88397194D01*
X106844401Y-88666148D01*
X106844404Y-88666152D01*
X106913181Y-88734929D01*
X106946666Y-88796252D01*
X106949500Y-88822609D01*
X106949500Y-88954856D01*
X106949502Y-88954881D01*
X106952414Y-88979988D01*
X106952415Y-88979991D01*
X106997793Y-89082764D01*
X106997793Y-89082765D01*
X106997794Y-89082765D01*
X107077235Y-89162206D01*
X107180009Y-89207585D01*
X107205135Y-89210500D01*
X108074864Y-89210499D01*
X108074879Y-89210497D01*
X108074882Y-89210497D01*
X108099987Y-89207586D01*
X108099988Y-89207585D01*
X108099991Y-89207585D01*
X108202765Y-89162206D01*
X108282206Y-89082765D01*
X108327585Y-88979991D01*
X108330500Y-88954865D01*
X108330499Y-88827306D01*
X108350183Y-88760269D01*
X108366818Y-88739626D01*
X108686445Y-88420000D01*
X109393553Y-88420000D01*
X109929999Y-88956446D01*
X109930000Y-88956446D01*
X109930000Y-88802442D01*
X111615995Y-88802442D01*
X112210000Y-89396447D01*
X112210001Y-89396447D01*
X112804003Y-88802442D01*
X112707379Y-88766403D01*
X112707372Y-88766401D01*
X112647844Y-88760000D01*
X111772155Y-88760000D01*
X111712627Y-88766401D01*
X111712620Y-88766403D01*
X111615995Y-88802442D01*
X109930000Y-88802442D01*
X109930000Y-87883553D01*
X109929999Y-87883552D01*
X109393553Y-88419999D01*
X109393553Y-88420000D01*
X108686445Y-88420000D01*
X108686446Y-88419999D01*
X108366818Y-88100371D01*
X108333333Y-88039048D01*
X108330499Y-88012690D01*
X108330499Y-87885143D01*
X108330499Y-87885136D01*
X108330497Y-87885117D01*
X108327586Y-87860012D01*
X108327585Y-87860010D01*
X108327585Y-87860009D01*
X108282206Y-87757235D01*
X108202765Y-87677794D01*
X108202764Y-87677793D01*
X108099992Y-87632415D01*
X108074868Y-87629500D01*
X108074865Y-87629500D01*
X107449500Y-87629500D01*
X107382461Y-87609815D01*
X107336706Y-87557011D01*
X107325500Y-87505500D01*
X107325500Y-87472442D01*
X108445995Y-87472442D01*
X109040000Y-88066446D01*
X109040001Y-88066446D01*
X109634004Y-87472443D01*
X109634003Y-87472442D01*
X109537379Y-87436403D01*
X109537372Y-87436401D01*
X109477844Y-87430000D01*
X108602155Y-87430000D01*
X108542627Y-87436401D01*
X108542620Y-87436403D01*
X108445995Y-87472442D01*
X107325500Y-87472442D01*
X107325500Y-87284499D01*
X107345185Y-87217460D01*
X107397989Y-87171705D01*
X107449500Y-87160499D01*
X109099356Y-87160499D01*
X109099364Y-87160499D01*
X109099379Y-87160497D01*
X109099382Y-87160497D01*
X109124487Y-87157586D01*
X109124488Y-87157585D01*
X109124491Y-87157585D01*
X109227265Y-87112206D01*
X109242651Y-87096818D01*
X109303975Y-87063334D01*
X109330333Y-87060500D01*
X110858118Y-87060500D01*
X110925157Y-87080185D01*
X110960167Y-87114059D01*
X111029517Y-87214530D01*
X111147760Y-87319283D01*
X111147762Y-87319284D01*
X111287634Y-87392696D01*
X111441014Y-87430500D01*
X111441015Y-87430500D01*
X111598985Y-87430500D01*
X111752365Y-87392696D01*
X111752364Y-87392696D01*
X111892240Y-87319283D01*
X112010483Y-87214530D01*
X112100220Y-87084523D01*
X112156237Y-86936818D01*
X112175278Y-86780000D01*
X112156237Y-86623182D01*
X112100220Y-86475477D01*
X112010483Y-86345470D01*
X111892240Y-86240717D01*
X111892238Y-86240716D01*
X111892237Y-86240715D01*
X111752365Y-86167303D01*
X111598986Y-86129500D01*
X111598985Y-86129500D01*
X111441015Y-86129500D01*
X111441014Y-86129500D01*
X111287636Y-86167303D01*
X111287635Y-86167303D01*
X111234301Y-86195296D01*
X111176675Y-86209500D01*
X109479000Y-86209500D01*
X109411961Y-86189815D01*
X109366206Y-86137011D01*
X109355000Y-86085500D01*
X109355000Y-85950000D01*
X113084722Y-85950000D01*
X113103762Y-86106818D01*
X113137318Y-86195296D01*
X113159780Y-86254523D01*
X113249517Y-86384530D01*
X113367760Y-86489283D01*
X113367762Y-86489284D01*
X113507634Y-86562696D01*
X113661014Y-86600500D01*
X113661015Y-86600500D01*
X113818985Y-86600500D01*
X113891325Y-86582670D01*
X113961128Y-86585739D01*
X114018190Y-86626059D01*
X114044395Y-86690829D01*
X114045000Y-86703066D01*
X114045000Y-86904856D01*
X114045002Y-86904882D01*
X114047913Y-86929987D01*
X114047915Y-86929991D01*
X114093293Y-87032764D01*
X114093294Y-87032765D01*
X114172735Y-87112206D01*
X114275509Y-87157585D01*
X114300635Y-87160500D01*
X115030722Y-87160499D01*
X115097761Y-87180183D01*
X115143516Y-87232987D01*
X115152167Y-87272755D01*
X115153818Y-87272555D01*
X115173762Y-87436818D01*
X115205010Y-87519211D01*
X115229780Y-87584523D01*
X115319517Y-87714530D01*
X115437760Y-87819283D01*
X115437762Y-87819284D01*
X115577634Y-87892696D01*
X115731014Y-87930500D01*
X115731015Y-87930500D01*
X115888985Y-87930500D01*
X116042365Y-87892696D01*
X116104644Y-87860009D01*
X116182240Y-87819283D01*
X116300483Y-87714530D01*
X116390220Y-87584523D01*
X116446237Y-87436818D01*
X116465278Y-87280000D01*
X116446237Y-87123182D01*
X116442777Y-87114060D01*
X116411946Y-87032764D01*
X116390220Y-86975477D01*
X116390218Y-86975475D01*
X116390218Y-86975473D01*
X116372950Y-86950457D01*
X116351066Y-86884102D01*
X116350999Y-86880074D01*
X116350999Y-86365136D01*
X116350997Y-86365117D01*
X116347011Y-86330742D01*
X116348780Y-86330536D01*
X116348782Y-86289460D01*
X116347010Y-86289255D01*
X116348085Y-86279991D01*
X116351000Y-86254865D01*
X116350999Y-85715136D01*
X116350997Y-85715117D01*
X116347011Y-85680742D01*
X116348780Y-85680536D01*
X116348782Y-85639460D01*
X116347010Y-85639255D01*
X116348085Y-85629991D01*
X116351000Y-85604865D01*
X116350999Y-85234499D01*
X116370683Y-85167461D01*
X116423487Y-85121706D01*
X116474999Y-85110500D01*
X119297354Y-85110500D01*
X119364393Y-85130185D01*
X119379572Y-85141677D01*
X119407260Y-85166206D01*
X119407265Y-85166208D01*
X119407267Y-85166210D01*
X119547134Y-85239619D01*
X119700514Y-85277423D01*
X119700515Y-85277423D01*
X119858485Y-85277423D01*
X120011865Y-85239619D01*
X120021618Y-85234500D01*
X120151740Y-85166206D01*
X120269983Y-85061453D01*
X120359720Y-84931446D01*
X120415737Y-84783741D01*
X120434778Y-84626923D01*
X120415737Y-84470105D01*
X120359720Y-84322400D01*
X120269983Y-84192393D01*
X120151740Y-84087640D01*
X120151738Y-84087639D01*
X120151737Y-84087638D01*
X120011865Y-84014226D01*
X119858486Y-83976423D01*
X119858485Y-83976423D01*
X119700515Y-83976423D01*
X119700514Y-83976423D01*
X119547134Y-84014226D01*
X119407262Y-84087638D01*
X119289016Y-84192393D01*
X119283258Y-84200735D01*
X119279667Y-84205938D01*
X119225387Y-84249929D01*
X119177617Y-84259500D01*
X118784000Y-84259500D01*
X118716961Y-84239815D01*
X118671206Y-84187011D01*
X118660000Y-84135500D01*
X118660000Y-83446452D01*
X118679685Y-83379413D01*
X118732489Y-83333658D01*
X118801647Y-83323714D01*
X118810265Y-83325314D01*
X118989996Y-83345565D01*
X118990000Y-83345565D01*
X118990004Y-83345565D01*
X119169249Y-83325369D01*
X119169252Y-83325368D01*
X119169255Y-83325368D01*
X119339522Y-83265789D01*
X119492262Y-83169816D01*
X119619816Y-83042262D01*
X119715789Y-82889522D01*
X119775368Y-82719255D01*
X119778036Y-82695581D01*
X119790968Y-82580802D01*
X119818034Y-82516388D01*
X119875629Y-82476833D01*
X119945466Y-82474695D01*
X120005372Y-82510653D01*
X120033668Y-82561512D01*
X120068605Y-82687348D01*
X120068608Y-82687354D01*
X120152714Y-82845993D01*
X120256986Y-82968751D01*
X120268956Y-82982843D01*
X120411901Y-83091507D01*
X120574862Y-83166901D01*
X120574863Y-83166901D01*
X120574865Y-83166902D01*
X120628065Y-83178611D01*
X120750221Y-83205500D01*
X120750224Y-83205500D01*
X120884755Y-83205500D01*
X120884760Y-83205500D01*
X121018505Y-83190954D01*
X121188662Y-83133622D01*
X121342517Y-83041050D01*
X121472875Y-82917569D01*
X121573640Y-82768951D01*
X121640101Y-82602147D01*
X121669150Y-82424955D01*
X121659429Y-82245661D01*
X121659428Y-82245656D01*
X121611394Y-82072651D01*
X121611391Y-82072645D01*
X121527285Y-81914006D01*
X121411044Y-81777157D01*
X121381413Y-81754632D01*
X121268099Y-81668493D01*
X121105138Y-81593099D01*
X121105134Y-81593097D01*
X120929779Y-81554500D01*
X120795240Y-81554500D01*
X120795238Y-81554500D01*
X120661496Y-81569045D01*
X120661489Y-81569047D01*
X120491339Y-81626377D01*
X120491336Y-81626379D01*
X120337482Y-81718950D01*
X120207123Y-81842431D01*
X120106358Y-81991051D01*
X120106357Y-81991053D01*
X120039898Y-82157852D01*
X120011565Y-82330676D01*
X119981294Y-82393648D01*
X119921783Y-82430257D01*
X119851927Y-82428881D01*
X119793905Y-82389956D01*
X119772157Y-82351569D01*
X119762423Y-82323752D01*
X119715789Y-82190478D01*
X119619816Y-82037738D01*
X119492262Y-81910184D01*
X119339523Y-81814211D01*
X119169254Y-81754631D01*
X119169249Y-81754630D01*
X118990004Y-81734435D01*
X118989996Y-81734435D01*
X118810750Y-81754630D01*
X118810745Y-81754631D01*
X118640476Y-81814211D01*
X118569881Y-81858570D01*
X118502645Y-81877570D01*
X118435809Y-81857202D01*
X118416228Y-81841257D01*
X118332765Y-81757794D01*
X118229992Y-81712415D01*
X118204865Y-81709500D01*
X117135143Y-81709500D01*
X117135117Y-81709502D01*
X117110012Y-81712413D01*
X117110008Y-81712415D01*
X117007235Y-81757793D01*
X116927794Y-81837234D01*
X116899821Y-81900587D01*
X116854735Y-81953963D01*
X116787948Y-81974490D01*
X116786387Y-81974500D01*
X116742607Y-81974500D01*
X116742605Y-81974500D01*
X116742601Y-81974501D01*
X116719642Y-81981961D01*
X116700724Y-81986503D01*
X116676878Y-81990279D01*
X116676870Y-81990282D01*
X116655352Y-82001245D01*
X116637389Y-82008686D01*
X116614418Y-82016150D01*
X116594887Y-82030341D01*
X116578301Y-82040505D01*
X116556782Y-82051469D01*
X116548888Y-82057206D01*
X116546758Y-82054274D01*
X116501297Y-82079069D01*
X116431607Y-82074050D01*
X116375695Y-82032151D01*
X116351311Y-81966674D01*
X116350999Y-81957890D01*
X116350999Y-81815143D01*
X116350999Y-81815136D01*
X116350892Y-81814211D01*
X116348086Y-81790012D01*
X116348085Y-81790010D01*
X116348085Y-81790009D01*
X116302706Y-81687235D01*
X116223265Y-81607794D01*
X116189984Y-81593099D01*
X116120492Y-81562415D01*
X116095365Y-81559500D01*
X114300643Y-81559500D01*
X114300617Y-81559502D01*
X114275512Y-81562413D01*
X114275508Y-81562415D01*
X114172735Y-81607793D01*
X114093294Y-81687234D01*
X114047915Y-81790006D01*
X114047915Y-81790008D01*
X114045000Y-81815131D01*
X114045000Y-82354856D01*
X114045002Y-82354882D01*
X114048989Y-82389258D01*
X114047226Y-82389462D01*
X114047226Y-82430540D01*
X114048990Y-82430745D01*
X114045000Y-82465131D01*
X114045000Y-82698303D01*
X114025315Y-82765342D01*
X113995314Y-82797567D01*
X113988317Y-82802804D01*
X113988308Y-82802814D01*
X113902149Y-82917906D01*
X113902145Y-82917913D01*
X113851903Y-83052620D01*
X113851901Y-83052627D01*
X113845500Y-83112155D01*
X113845500Y-83285000D01*
X113825815Y-83352039D01*
X113773011Y-83397794D01*
X113721500Y-83409000D01*
X113686014Y-83409000D01*
X113532634Y-83446803D01*
X113392762Y-83520215D01*
X113274516Y-83624971D01*
X113184781Y-83754975D01*
X113184780Y-83754976D01*
X113128762Y-83902681D01*
X113109722Y-84059499D01*
X113109722Y-84059500D01*
X113128762Y-84216318D01*
X113171873Y-84329991D01*
X113184780Y-84364023D01*
X113274517Y-84494030D01*
X113392760Y-84598783D01*
X113392762Y-84598784D01*
X113532634Y-84672196D01*
X113686014Y-84710000D01*
X113686015Y-84710000D01*
X113843986Y-84710000D01*
X113843986Y-84709999D01*
X113891324Y-84698332D01*
X113961126Y-84701400D01*
X114018188Y-84741719D01*
X114044394Y-84806488D01*
X114045000Y-84818728D01*
X114045000Y-84819931D01*
X114025315Y-84886970D01*
X113977295Y-84930416D01*
X113965859Y-84936243D01*
X113947886Y-84943688D01*
X113924918Y-84951151D01*
X113924916Y-84951152D01*
X113905384Y-84965343D01*
X113888799Y-84975506D01*
X113867282Y-84986469D01*
X113867280Y-84986471D01*
X113843305Y-85010447D01*
X113539527Y-85314224D01*
X113509473Y-85336338D01*
X113367761Y-85410716D01*
X113249516Y-85515471D01*
X113159781Y-85645475D01*
X113159780Y-85645476D01*
X113103762Y-85793181D01*
X113084722Y-85949999D01*
X113084722Y-85950000D01*
X109355000Y-85950000D01*
X109354999Y-85715143D01*
X109354999Y-85715136D01*
X109354997Y-85715117D01*
X109351011Y-85680742D01*
X109352780Y-85680536D01*
X109352782Y-85639460D01*
X109351010Y-85639255D01*
X109352085Y-85629991D01*
X109355000Y-85604865D01*
X109354999Y-85065136D01*
X109354572Y-85061451D01*
X109351011Y-85030742D01*
X109352780Y-85030536D01*
X109352782Y-84989460D01*
X109351010Y-84989255D01*
X109353784Y-84965343D01*
X109355000Y-84954865D01*
X109354999Y-84415136D01*
X109354997Y-84415117D01*
X109351011Y-84380742D01*
X109352776Y-84380537D01*
X109352779Y-84339461D01*
X109351010Y-84339256D01*
X109352085Y-84329991D01*
X109355000Y-84304865D01*
X109354999Y-83934499D01*
X109374683Y-83867461D01*
X109427487Y-83821706D01*
X109478999Y-83810500D01*
X109992392Y-83810500D01*
X109992393Y-83810500D01*
X110015360Y-83803036D01*
X110034276Y-83798495D01*
X110058126Y-83794719D01*
X110079636Y-83783757D01*
X110097614Y-83776310D01*
X110120581Y-83768849D01*
X110140118Y-83754653D01*
X110156706Y-83744488D01*
X110178220Y-83733528D01*
X110273528Y-83638220D01*
X110273528Y-83638219D01*
X111134554Y-82777194D01*
X111134553Y-82777193D01*
X111158524Y-82753224D01*
X111158524Y-82753223D01*
X111158528Y-82753220D01*
X111169489Y-82731704D01*
X111179658Y-82715112D01*
X111180865Y-82713450D01*
X111193849Y-82695581D01*
X111201310Y-82672614D01*
X111208759Y-82654634D01*
X111219718Y-82633128D01*
X111219718Y-82633127D01*
X111219719Y-82633126D01*
X111223495Y-82609276D01*
X111228036Y-82590360D01*
X111235500Y-82567393D01*
X111235500Y-82432607D01*
X111235500Y-81227556D01*
X111615994Y-81227556D01*
X111712623Y-81263598D01*
X111772155Y-81269999D01*
X111772172Y-81270000D01*
X112647828Y-81270000D01*
X112647844Y-81269999D01*
X112707371Y-81263598D01*
X112804004Y-81227556D01*
X112210001Y-80633553D01*
X112210000Y-80633553D01*
X111615994Y-81227556D01*
X111235500Y-81227556D01*
X111235500Y-81163612D01*
X111255185Y-81096573D01*
X111307989Y-81050818D01*
X111309280Y-81050236D01*
X111372765Y-81022206D01*
X111452206Y-80942765D01*
X111497585Y-80839991D01*
X111500500Y-80814865D01*
X111500499Y-80687306D01*
X111520183Y-80620269D01*
X111536818Y-80599626D01*
X111856445Y-80280000D01*
X112563553Y-80280000D01*
X113099999Y-80816447D01*
X113100000Y-80816446D01*
X113100000Y-79743553D01*
X113099999Y-79743552D01*
X112563553Y-80279999D01*
X112563553Y-80280000D01*
X111856445Y-80280000D01*
X111856446Y-80279999D01*
X111536818Y-79960371D01*
X111503333Y-79899048D01*
X111500499Y-79872690D01*
X111500499Y-79745143D01*
X111500499Y-79745136D01*
X111500497Y-79745117D01*
X111497586Y-79720012D01*
X111497585Y-79720010D01*
X111497585Y-79720009D01*
X111452206Y-79617235D01*
X111372765Y-79537794D01*
X111372764Y-79537793D01*
X111269992Y-79492415D01*
X111244865Y-79489500D01*
X110375143Y-79489500D01*
X110375117Y-79489502D01*
X110350012Y-79492413D01*
X110350008Y-79492415D01*
X110247235Y-79537793D01*
X110167794Y-79617234D01*
X110122415Y-79720006D01*
X110122415Y-79720008D01*
X110119500Y-79745131D01*
X110119500Y-80814856D01*
X110119502Y-80814882D01*
X110122413Y-80839987D01*
X110122415Y-80839991D01*
X110167793Y-80942764D01*
X110247235Y-81022206D01*
X110310585Y-81050178D01*
X110363962Y-81095264D01*
X110384489Y-81162050D01*
X110384499Y-81163612D01*
X110384499Y-82272390D01*
X110364814Y-82339429D01*
X110348180Y-82360071D01*
X109785071Y-82923181D01*
X109723748Y-82956666D01*
X109697390Y-82959500D01*
X109479000Y-82959500D01*
X109411961Y-82939815D01*
X109366206Y-82887011D01*
X109355000Y-82835502D01*
X109355000Y-82805135D01*
X109354999Y-82771695D01*
X109374683Y-82704658D01*
X109404694Y-82672425D01*
X109411688Y-82667189D01*
X109497852Y-82552088D01*
X109497854Y-82552086D01*
X109548096Y-82417379D01*
X109548098Y-82417372D01*
X109554499Y-82357844D01*
X109554500Y-82357827D01*
X109554500Y-81812172D01*
X109554499Y-81812155D01*
X109548098Y-81752627D01*
X109548096Y-81752620D01*
X109497854Y-81617913D01*
X109497850Y-81617906D01*
X109411690Y-81502813D01*
X109296585Y-81416645D01*
X109217899Y-81387296D01*
X108432016Y-82173181D01*
X108370693Y-82206666D01*
X108344335Y-82209500D01*
X108059664Y-82209500D01*
X107992625Y-82189815D01*
X107971983Y-82173181D01*
X107186098Y-81387296D01*
X107107414Y-81416645D01*
X106992309Y-81502813D01*
X106906149Y-81617906D01*
X106906143Y-81617917D01*
X106868581Y-81718624D01*
X106826710Y-81774558D01*
X106761245Y-81798974D01*
X106692972Y-81784122D01*
X106664719Y-81762971D01*
X106656818Y-81755070D01*
X106623333Y-81693747D01*
X106620499Y-81667389D01*
X106620499Y-81405143D01*
X106620499Y-81405136D01*
X106620497Y-81405117D01*
X106617586Y-81380012D01*
X106617585Y-81380010D01*
X106617585Y-81380009D01*
X106608750Y-81360000D01*
X107795197Y-81360000D01*
X108201999Y-81766802D01*
X108608802Y-81360000D01*
X107795197Y-81360000D01*
X106608750Y-81360000D01*
X106572206Y-81277235D01*
X106492765Y-81197794D01*
X106492764Y-81197793D01*
X106389992Y-81152415D01*
X106364865Y-81149500D01*
X105295143Y-81149500D01*
X105295117Y-81149502D01*
X105270012Y-81152413D01*
X105270008Y-81152415D01*
X105167235Y-81197793D01*
X105167234Y-81197794D01*
X105152181Y-81212848D01*
X105090858Y-81246333D01*
X105021166Y-81241349D01*
X104965233Y-81199477D01*
X104940816Y-81134013D01*
X104940500Y-81125167D01*
X104940500Y-79332442D01*
X111615995Y-79332442D01*
X112210000Y-79926446D01*
X112210001Y-79926446D01*
X112804004Y-79332443D01*
X112804003Y-79332442D01*
X112707379Y-79296403D01*
X112707372Y-79296401D01*
X112647844Y-79290000D01*
X111772155Y-79290000D01*
X111712627Y-79296401D01*
X111712620Y-79296403D01*
X111615995Y-79332442D01*
X104940500Y-79332442D01*
X104940500Y-78904500D01*
X104960185Y-78837461D01*
X105012989Y-78791706D01*
X105064500Y-78780500D01*
X124815500Y-78780500D01*
X124882539Y-78800185D01*
G37*
%TD.AperFunction*%
%TD*%
M02*
