%TF.GenerationSoftware,KiCad,Pcbnew,7.0.2*%
%TF.CreationDate,2023-06-06T11:51:25+03:00*%
%TF.ProjectId,MB_V1,4d425f56-312e-46b6-9963-61645f706362,rev?*%
%TF.SameCoordinates,Original*%
%TF.FileFunction,Copper,L3,Inr*%
%TF.FilePolarity,Positive*%
%FSLAX46Y46*%
G04 Gerber Fmt 4.6, Leading zero omitted, Abs format (unit mm)*
G04 Created by KiCad (PCBNEW 7.0.2) date 2023-06-06 11:51:25*
%MOMM*%
%LPD*%
G01*
G04 APERTURE LIST*
%TA.AperFunction,ComponentPad*%
%ADD10C,1.725000*%
%TD*%
%TA.AperFunction,ComponentPad*%
%ADD11R,1.725000X1.725000*%
%TD*%
%TA.AperFunction,ComponentPad*%
%ADD12C,0.525000*%
%TD*%
%TA.AperFunction,ComponentPad*%
%ADD13C,0.675000*%
%TD*%
%TA.AperFunction,ComponentPad*%
%ADD14R,1.275000X1.275000*%
%TD*%
%TA.AperFunction,ComponentPad*%
%ADD15C,1.275000*%
%TD*%
%TA.AperFunction,ViaPad*%
%ADD16C,0.700000*%
%TD*%
%TA.AperFunction,ViaPad*%
%ADD17C,1.000000*%
%TD*%
%TA.AperFunction,ViaPad*%
%ADD18C,5.000000*%
%TD*%
%TA.AperFunction,Conductor*%
%ADD19C,0.250000*%
%TD*%
%TA.AperFunction,Conductor*%
%ADD20C,0.500000*%
%TD*%
G04 APERTURE END LIST*
D10*
%TO.N,Net-(H2-Pad5)*%
%TO.C,J6*%
X82076000Y-160578000D03*
%TO.N,Net-(H2-Pad4)*%
X84616000Y-160578000D03*
%TO.N,Net-(H2-Pad3)*%
X87156000Y-160578000D03*
%TO.N,/PROG_PIN*%
X89696000Y-160578000D03*
%TO.N,GND*%
X92236000Y-160578000D03*
D11*
%TO.N,/VCC_S3_OUT*%
X94776000Y-160578000D03*
%TD*%
D12*
%TO.N,N/C*%
%TO.C,H1*%
X108320000Y-138150000D03*
X160610000Y-138150000D03*
D13*
X108320000Y-114950000D03*
X160610000Y-114950000D03*
%TD*%
D14*
%TO.N,/VIN_WILD*%
%TO.C,J5*%
X99830000Y-144840000D03*
D15*
%TO.N,GND*%
X99830000Y-147380000D03*
%TD*%
D12*
%TO.N,N/C*%
%TO.C,H3*%
X138585000Y-155980000D03*
D13*
X127385000Y-155980000D03*
%TD*%
D11*
%TO.N,/VCC_S1_OUT*%
%TO.C,J1*%
X120936000Y-149140000D03*
D10*
%TO.N,GND*%
X118396000Y-149140000D03*
%TO.N,Net-(H4-Pad2)*%
X115856000Y-149140000D03*
%TO.N,Net-(H4-Pad3)*%
X113316000Y-149140000D03*
%TO.N,Net-(H4-Pad4)*%
X110776000Y-149140000D03*
%TO.N,Net-(H4-Pad5)*%
X108236000Y-149140000D03*
%TD*%
D12*
%TO.N,N/C*%
%TO.C,H2*%
X94290000Y-125910000D03*
D13*
X94290000Y-137110000D03*
%TD*%
D12*
%TO.N,N/C*%
%TO.C,H5*%
X94290000Y-105650000D03*
D13*
X94290000Y-116850000D03*
%TD*%
D11*
%TO.N,/VCC_S4_OUT*%
%TO.C,J2*%
X94776000Y-145858000D03*
D10*
%TO.N,GND*%
X92236000Y-145858000D03*
%TO.N,unconnected-(J2-Pad3)*%
X89696000Y-145858000D03*
%TO.N,unconnected-(J2-Pad4)*%
X87156000Y-145858000D03*
%TO.N,Net-(H5-Pad4)*%
X84616000Y-145858000D03*
%TO.N,Net-(H5-Pad5)*%
X82076000Y-145858000D03*
%TD*%
D12*
%TO.N,N/C*%
%TO.C,H4*%
X150480000Y-158090000D03*
D13*
X150480000Y-146890000D03*
%TD*%
D11*
%TO.N,/VCC_S2_OUT*%
%TO.C,J3*%
X94776000Y-153248000D03*
D10*
%TO.N,GND*%
X92236000Y-153248000D03*
%TO.N,unconnected-(J3-Pad3)*%
X89696000Y-153248000D03*
%TO.N,unconnected-(J3-Pad4)*%
X87156000Y-153248000D03*
%TO.N,Net-(H5-Pad2)*%
X84616000Y-153248000D03*
%TO.N,Net-(H5-Pad3)*%
X82076000Y-153248000D03*
%TD*%
%TO.N,Net-(H3-Pad5)*%
%TO.C,J4*%
X108236000Y-160578000D03*
%TO.N,Net-(H3-Pad4)*%
X110776000Y-160578000D03*
%TO.N,Net-(H3-Pad3)*%
X113316000Y-160578000D03*
%TO.N,Net-(H3-Pad2)*%
X115856000Y-160578000D03*
%TO.N,GND*%
X118396000Y-160578000D03*
D11*
%TO.N,/VCC_S5_OUT*%
X120936000Y-160578000D03*
%TD*%
D16*
%TO.N,GND*%
X131080000Y-143670000D03*
X138570000Y-144380000D03*
X117400000Y-144400000D03*
X123850000Y-143620000D03*
%TO.N,/PWR_I2C_PULLUP*%
X159331904Y-130130000D03*
X157882743Y-157044293D03*
%TO.N,/PWR_MCU_I2C_SDA*%
X154120000Y-158290000D03*
%TO.N,/PWR_MCU_I2C_SCL*%
X152938056Y-158538056D03*
%TO.N,GND*%
X95260000Y-115470000D03*
X137690000Y-118860000D03*
X137690000Y-117150000D03*
X148580000Y-118860000D03*
X148580000Y-120570000D03*
X148580000Y-117150000D03*
X137690000Y-120570000D03*
X126720000Y-118860000D03*
X126720000Y-117150000D03*
X126720000Y-120570000D03*
X148600872Y-122339500D03*
X125460000Y-122210000D03*
%TO.N,/PWR_MCU_BOOTLOADER*%
X163170000Y-155470000D03*
%TO.N,/H2_13*%
X94658056Y-124044500D03*
%TO.N,/H2_12*%
X92769028Y-122942916D03*
%TO.N,/H2_14*%
X95620625Y-129614514D03*
%TO.N,/PWR_MCU_I2C_SCL*%
X107040777Y-138460000D03*
%TO.N,/PWR_MCU_I2C_SDA*%
X106308388Y-137434500D03*
%TO.N,/PWR_MCU_I2C_SCL*%
X159790000Y-152620000D03*
%TO.N,/PWR_MCU_I2C_SDA*%
X160780000Y-152620000D03*
%TO.N,/H3_16*%
X128585498Y-153700000D03*
%TO.N,/H3_17*%
X128520000Y-154600000D03*
X131785000Y-157229502D03*
%TO.N,/H3_16*%
X132589381Y-157846896D03*
%TO.N,Net-(IC7-NRST)*%
X162460000Y-153710000D03*
X159952600Y-149532600D03*
%TO.N,/H3_6*%
X129810000Y-147190000D03*
%TO.N,/H3_7*%
X129700000Y-146130000D03*
%TO.N,/H3_6*%
X133190000Y-152370000D03*
%TO.N,/H3_7*%
X134170000Y-152364500D03*
%TO.N,/H3_19*%
X130160000Y-157229502D03*
%TO.N,/H3_18*%
X130985000Y-157846896D03*
X139930000Y-149450000D03*
%TO.N,/H3_19*%
X138720662Y-149450662D03*
%TO.N,/H3_15*%
X133387920Y-157432848D03*
X129033670Y-148191651D03*
%TO.N,/PWR_MCU_BOOTLOADER*%
X162670000Y-150090000D03*
X160885500Y-148549858D03*
%TO.N,/H4_6*%
X154779832Y-153015500D03*
%TO.N,/H4_7*%
X155645498Y-152535002D03*
%TO.N,/H4_17*%
X148932464Y-150800000D03*
%TO.N,/H4_15*%
X148932464Y-152748719D03*
%TO.N,/H4_16*%
X148932464Y-151774359D03*
%TO.N,/H4_19*%
X146693056Y-146353056D03*
%TO.N,/H4_18*%
X145942334Y-147083778D03*
%TO.N,/H3_8*%
X140310000Y-152505500D03*
%TO.N,/H3_9*%
X139380000Y-153200000D03*
%TO.N,/H3_8*%
X154453056Y-154653056D03*
%TO.N,/H3_9*%
X154460000Y-155600000D03*
%TO.N,/H3_12*%
X135790000Y-157840000D03*
%TO.N,/H3_13*%
X134990498Y-157239500D03*
%TO.N,/H3_14*%
X134190000Y-157840000D03*
%TO.N,/H3_12*%
X144377161Y-155318342D03*
%TO.N,/H3_14*%
X143660000Y-153670000D03*
%TO.N,/H3_13*%
X143985934Y-154508375D03*
%TO.N,GND*%
X159150000Y-156420000D03*
%TO.N,/H2_8*%
X89495500Y-109621747D03*
%TO.N,/H2_9*%
X91320000Y-108450000D03*
%TO.N,/H2_17*%
X95940498Y-133510000D03*
%TO.N,/H2_6*%
X95940498Y-131695500D03*
%TO.N,/H2_7*%
X95888534Y-130689648D03*
%TO.N,/H2_9*%
X91350000Y-128710000D03*
%TO.N,/H2_8*%
X90989462Y-129534086D03*
%TO.N,/H5_7*%
X95324334Y-110075262D03*
%TO.N,/H5_6*%
X95940499Y-110966611D03*
%TO.N,/PROG_PIN*%
X102471067Y-121754863D03*
%TO.N,/H2_17*%
X102070000Y-124154863D03*
%TO.N,/H5_6*%
X102070000Y-125754863D03*
%TO.N,/H3_6*%
X102070000Y-132154863D03*
%TO.N,/H5_19*%
X102070000Y-122554863D03*
%TO.N,/H2_19*%
X102070000Y-128934863D03*
%TO.N,/H5_18*%
X102471067Y-123354863D03*
%TO.N,/H3_7*%
X102481067Y-132954863D03*
%TO.N,/H5_7*%
X102471067Y-126554863D03*
%TO.N,/H2_7*%
X102471067Y-128154863D03*
%TO.N,/H2_18*%
X102471067Y-124954863D03*
%TO.N,/H2_6*%
X102070000Y-127354863D03*
D17*
%TO.N,/VCC2_OUT*%
X105560000Y-108840000D03*
D16*
X154510000Y-116390000D03*
%TO.N,/VCC3*%
X158030000Y-142370000D03*
%TO.N,/H2_19*%
X100610000Y-134311947D03*
%TO.N,/H2_18*%
X100140000Y-133511947D03*
%TO.N,/H2_12*%
X100140000Y-108450000D03*
%TO.N,/H5_15*%
X100610000Y-110841947D03*
%TO.N,/H2_13*%
X100558961Y-109245974D03*
%TO.N,/H2_14*%
X100140000Y-110041947D03*
%TO.N,/H5_19*%
X100610000Y-114051947D03*
%TO.N,/H5_18*%
X100140000Y-113251947D03*
%TO.N,/H5_17*%
X100610000Y-112450000D03*
%TO.N,/H5_16*%
X100140000Y-111651947D03*
X107281067Y-123350000D03*
%TO.N,/H5_17*%
X106880000Y-124150000D03*
%TO.N,/PWR_MCU_I2C_SDA*%
X106860000Y-126440000D03*
%TO.N,/H5_15*%
X106880000Y-122550000D03*
%TO.N,/H3_17*%
X106860000Y-128880000D03*
%TO.N,/H2_9*%
X106880000Y-133750000D03*
%TO.N,/H2_8*%
X107291067Y-132950000D03*
%TO.N,/H3_16*%
X106860000Y-127900000D03*
%TO.N,/PWR_MCU_I2C_SCL*%
X106860000Y-125410000D03*
%TO.N,/PWR_MCU_BOOTLOADER*%
X159560000Y-121760000D03*
%TO.N,/H4_15*%
X159158933Y-120960000D03*
%TO.N,/H3_9*%
X159160337Y-126934708D03*
%TO.N,/H3_18*%
X159158933Y-125760000D03*
%TO.N,/H4_16*%
X159560000Y-120160000D03*
%TO.N,/H4_17*%
X159158933Y-119354863D03*
%TO.N,/H3_8*%
X159158933Y-127890000D03*
%TO.N,/H3_19*%
X159560000Y-124960000D03*
%TO.N,/H3_15*%
X154750000Y-128150000D03*
%TO.N,/H4_6*%
X154348933Y-127350000D03*
%TO.N,/H4_7*%
X154750000Y-126550000D03*
%TO.N,/H4_18*%
X154348933Y-125750000D03*
%TO.N,/H4_19*%
X154750000Y-124950000D03*
%TO.N,/H3_12*%
X154750000Y-121750000D03*
%TO.N,/H3_13*%
X154348933Y-120950000D03*
%TO.N,/H3_14*%
X154750000Y-120150000D03*
D17*
%TO.N,/VCC2_OUT*%
X132390000Y-120770000D03*
X132420000Y-122000500D03*
D16*
%TO.N,GND*%
X142010000Y-138810000D03*
X142010000Y-137460000D03*
X142940000Y-138180000D03*
X150360000Y-137460000D03*
X150360000Y-138790000D03*
X152200000Y-138790000D03*
D17*
%TO.N,/VCC2_OUT*%
X105560000Y-107630000D03*
%TO.N,/VCC3*%
X98540000Y-106700498D03*
X90980000Y-126740000D03*
%TO.N,/VCC2_OUT*%
X137500000Y-158744500D03*
%TO.N,/VCC3*%
X148140000Y-157360000D03*
X145848352Y-157411648D03*
D16*
%TO.N,Net-(H4-Pad3)*%
X154122908Y-149750980D03*
%TO.N,Net-(H4-Pad4)*%
X154172055Y-150655721D03*
%TO.N,Net-(H4-Pad2)*%
X154070000Y-148850000D03*
%TO.N,Net-(H4-Pad5)*%
X154180000Y-151720000D03*
%TO.N,Net-(H3-Pad2)*%
X129695622Y-152833853D03*
%TO.N,Net-(H3-Pad3)*%
X130619642Y-152803985D03*
%TO.N,Net-(H3-Pad4)*%
X130709087Y-151908940D03*
%TO.N,Net-(H3-Pad5)*%
X131659920Y-151905884D03*
%TO.N,GND*%
X152267250Y-147247250D03*
X98140000Y-115450000D03*
X98140000Y-135700000D03*
X93350000Y-135680000D03*
%TO.N,unconnected-(H2-Pad2)*%
X91340000Y-134310000D03*
%TO.N,Net-(H2-Pad3)*%
X90876452Y-133516510D03*
%TO.N,Net-(H2-Pad4)*%
X91306944Y-132726712D03*
%TO.N,Net-(H2-Pad5)*%
X90930000Y-131910000D03*
%TO.N,GND*%
X128090000Y-158720000D03*
X128090000Y-157770000D03*
X160640000Y-136770000D03*
X161560000Y-136770000D03*
X109270000Y-116350000D03*
X104470000Y-116360000D03*
X104470000Y-136760000D03*
D17*
%TO.N,/VCC3*%
X150110000Y-121350000D03*
X147190000Y-121540000D03*
D18*
%TO.N,*%
X133000000Y-103950000D03*
D16*
%TO.N,GND*%
X109270000Y-136760000D03*
X126525000Y-122890000D03*
X139840000Y-135850000D03*
X127150000Y-137450000D03*
X143850000Y-137460000D03*
X116950000Y-138800000D03*
X148455000Y-122950000D03*
X127420000Y-111070000D03*
X140295000Y-122930000D03*
X149207500Y-122950000D03*
X131500000Y-135850000D03*
X143312500Y-122930000D03*
X125020000Y-122890000D03*
X127420000Y-110340000D03*
X151280000Y-138130000D03*
X138330436Y-110350000D03*
X149350872Y-111030000D03*
X134610000Y-138210000D03*
X135500000Y-138800000D03*
X117890000Y-138150000D03*
X137670436Y-109620000D03*
X148590872Y-109620000D03*
X149350872Y-110300000D03*
X127410000Y-109620000D03*
X118800000Y-138800000D03*
X125300000Y-138790000D03*
X135500000Y-137450000D03*
X141800000Y-122930000D03*
X115350000Y-136730000D03*
X141047500Y-122930000D03*
X123515000Y-122890000D03*
X142552500Y-122930000D03*
X151465000Y-122950000D03*
X123140000Y-135850000D03*
X148160000Y-135830000D03*
X150712500Y-122950000D03*
X126260000Y-138170000D03*
X125772500Y-122890000D03*
X125280000Y-137450000D03*
X118800000Y-137460000D03*
X124267500Y-122890000D03*
X138310436Y-109620000D03*
X143860000Y-138800000D03*
X127150000Y-138800000D03*
X149960000Y-122950000D03*
X126700000Y-109620000D03*
X133650000Y-137450000D03*
X138330436Y-111040000D03*
X116950000Y-137460000D03*
X133650000Y-138810000D03*
X142940000Y-138180000D03*
X149310872Y-109630000D03*
X103740000Y-141280000D03*
X156440092Y-152956577D03*
%TO.N,Net-(PS1-CB)*%
X130510000Y-115320000D03*
X124689502Y-114440723D03*
%TO.N,/VCC1*%
X121470000Y-127180000D03*
X120740000Y-127190000D03*
X132250000Y-127180000D03*
X148930000Y-127200000D03*
X122170000Y-127180000D03*
X132940000Y-127170000D03*
X123880000Y-128600000D03*
X123880000Y-127180000D03*
X132250000Y-128600000D03*
X120750000Y-127900000D03*
X124560000Y-127170000D03*
X148930000Y-127910000D03*
X116270000Y-127170000D03*
X121480000Y-127890000D03*
X140590000Y-127180000D03*
X149630000Y-127190000D03*
X132250000Y-127890000D03*
X123880000Y-127890000D03*
X122180000Y-127890000D03*
X140590000Y-127890000D03*
X141290000Y-127170000D03*
X115540000Y-128600000D03*
X122190000Y-128600000D03*
X120760000Y-128610000D03*
X115540000Y-127180000D03*
X121490000Y-128600000D03*
X140590000Y-128600000D03*
X115540000Y-127890000D03*
X148930000Y-128620000D03*
%TO.N,/VIN*%
X132920000Y-124210000D03*
X148930000Y-124210000D03*
X141270000Y-124210000D03*
X140590000Y-125620000D03*
X117340000Y-123320000D03*
X132250000Y-125620000D03*
X115900000Y-122620000D03*
X132250000Y-124210000D03*
X123880000Y-124910000D03*
X116630000Y-122610000D03*
X140590000Y-124210000D03*
X117330000Y-122610000D03*
X149630000Y-124210000D03*
X132250000Y-124910000D03*
X140590000Y-124910000D03*
X116640000Y-123320000D03*
X115910000Y-123330000D03*
X123880000Y-124210000D03*
X123880000Y-125620000D03*
X148930000Y-124910000D03*
X116620000Y-121900000D03*
X148930000Y-125620000D03*
X124560000Y-124210000D03*
X115890000Y-121910000D03*
X117320000Y-121900000D03*
%TO.N,Net-(PS2-CB)*%
X135599938Y-114420723D03*
X141430436Y-115275000D03*
%TO.N,/VCC2*%
X132930000Y-130130000D03*
X123880000Y-130850000D03*
X148930000Y-130880000D03*
X148930000Y-131590000D03*
X138340000Y-130060000D03*
X137620000Y-130780000D03*
X115540000Y-130840000D03*
X132250000Y-131560000D03*
X141280000Y-130130000D03*
X149620000Y-130160000D03*
X137630000Y-131490000D03*
X116240000Y-130120000D03*
X132250000Y-130850000D03*
X140590000Y-130140000D03*
X123880000Y-131560000D03*
X124570000Y-130130000D03*
X139040000Y-130060000D03*
X123880000Y-130140000D03*
X132250000Y-130140000D03*
X115540000Y-130130000D03*
X139060000Y-131480000D03*
X138360000Y-131480000D03*
X148930000Y-130170000D03*
X138350000Y-130770000D03*
X115540000Y-131550000D03*
X140590000Y-130850000D03*
X137610000Y-130070000D03*
X140590000Y-131560000D03*
X139050000Y-130770000D03*
%TO.N,Net-(PS3-CB)*%
X146510327Y-114405463D03*
X152340872Y-115330000D03*
%TO.N,/VCC3*%
X140590000Y-133810000D03*
X140590000Y-134520000D03*
X145910000Y-133800000D03*
X149620000Y-133140000D03*
X123880000Y-133800000D03*
X123880000Y-133090000D03*
X124570000Y-133080000D03*
X123880000Y-134510000D03*
X146650000Y-134500000D03*
X132940000Y-133090000D03*
X132250000Y-134520000D03*
X146640000Y-133790000D03*
X115540000Y-134500000D03*
X145900000Y-133090000D03*
X148930000Y-134570000D03*
X148930000Y-133860000D03*
X115540000Y-133080000D03*
X147330000Y-133080000D03*
X158030000Y-141630000D03*
X132250000Y-133810000D03*
X132250000Y-133100000D03*
X146630000Y-133080000D03*
X141280000Y-133090000D03*
X116230000Y-133070000D03*
X147340000Y-133790000D03*
X145920000Y-134510000D03*
X147350000Y-134500000D03*
X140590000Y-133100000D03*
X115540000Y-133790000D03*
X148930000Y-133150000D03*
%TO.N,Net-(Q1-G)*%
X109160000Y-140360000D03*
X106870000Y-140360000D03*
D17*
%TO.N,/VCC_S4_OUT*%
X137305000Y-148675000D03*
X136490000Y-149460000D03*
X134340000Y-149460000D03*
X138070000Y-147880000D03*
X135415000Y-149460000D03*
%TO.N,/VCC_S5_OUT*%
X142000000Y-156080000D03*
X142000000Y-158220000D03*
X142000000Y-157150000D03*
X142000000Y-155010000D03*
X142000000Y-153940000D03*
D16*
%TO.N,/S1_SW_EN*%
X152208056Y-145501944D03*
X117182225Y-140524712D03*
%TO.N,/S2_SW_EN*%
X125470000Y-140730000D03*
X153780000Y-145140000D03*
%TO.N,/S3_SW_EN*%
X133830000Y-140680000D03*
X153800842Y-143786953D03*
%TO.N,/S4_SW_EN*%
X142180000Y-140730000D03*
X154713888Y-142750000D03*
%TO.N,/S1_SW_IMON*%
X157210000Y-147400000D03*
X115589577Y-143253281D03*
%TO.N,/S2_SW_IMON*%
X156708564Y-146653230D03*
X124570631Y-140714493D03*
%TO.N,/S3_SW_IMON*%
X132930501Y-140682583D03*
X156939500Y-144170000D03*
%TO.N,/S4_SW_IMON*%
X141280582Y-140717679D03*
X156289500Y-143495500D03*
%TO.N,/S5_SW_IMON*%
X148960500Y-140600000D03*
X155349933Y-142113956D03*
%TO.N,/S5_SW_EN*%
X156700000Y-141170000D03*
X150362888Y-140771000D03*
%TO.N,/DCDC3_EN*%
X146510378Y-113505961D03*
X157995500Y-137922594D03*
X145990372Y-111975500D03*
%TO.N,/DCDC2_EN*%
X135079936Y-111975500D03*
X157964053Y-138821546D03*
X135599938Y-113470723D03*
%TO.N,/DCDC1_EN*%
X124180000Y-111995500D03*
X124689502Y-113490723D03*
X157995500Y-139720497D03*
%TD*%
D19*
%TO.N,/H3_16*%
X110450000Y-131515405D02*
X106834595Y-127900000D01*
X106834595Y-127900000D02*
X106820000Y-127900000D01*
X114360000Y-145170000D02*
X110450000Y-141260000D01*
X110450000Y-141260000D02*
X110450000Y-131515405D01*
X127770000Y-152884502D02*
X127770000Y-150200000D01*
X122740000Y-145170000D02*
X114360000Y-145170000D01*
X128585498Y-153700000D02*
X127770000Y-152884502D01*
X127770000Y-150200000D02*
X122740000Y-145170000D01*
%TO.N,/H3_17*%
X106940000Y-128880000D02*
X106860000Y-128880000D01*
X109945000Y-131885000D02*
X106940000Y-128880000D01*
X122470000Y-145860000D02*
X114160000Y-145860000D01*
X109945000Y-141645000D02*
X109945000Y-131885000D01*
X127180000Y-150570000D02*
X122470000Y-145860000D01*
X127180000Y-153888473D02*
X127180000Y-150570000D01*
X127891527Y-154600000D02*
X127180000Y-153888473D01*
X114160000Y-145860000D02*
X109945000Y-141645000D01*
X128520000Y-154600000D02*
X127891527Y-154600000D01*
%TO.N,/PWR_MCU_I2C_SCL*%
X155120000Y-157290000D02*
X159790000Y-152620000D01*
X154165405Y-157290000D02*
X155120000Y-157290000D01*
X150355405Y-161100000D02*
X154165405Y-157290000D01*
X129515405Y-161100000D02*
X150355405Y-161100000D01*
X124690000Y-156274595D02*
X129515405Y-161100000D01*
X112960000Y-146310000D02*
X121840000Y-146310000D01*
X108320000Y-139739223D02*
X108320000Y-141670000D01*
X124690000Y-149160000D02*
X124690000Y-156274595D01*
X107040777Y-138460000D02*
X108320000Y-139739223D01*
X121840000Y-146310000D02*
X124690000Y-149160000D01*
X108320000Y-141670000D02*
X112960000Y-146310000D01*
%TO.N,/PWR_MCU_I2C_SDA*%
X154120000Y-158310000D02*
X154120000Y-158290000D01*
X150810000Y-161620000D02*
X154120000Y-158310000D01*
X129100000Y-161620000D02*
X150810000Y-161620000D01*
X121460000Y-146800000D02*
X124090000Y-149430000D01*
X107780000Y-140140000D02*
X107780000Y-141950000D01*
X107780000Y-141950000D02*
X112630000Y-146800000D01*
X106761182Y-139135000D02*
X106775000Y-139135000D01*
X106308388Y-138682206D02*
X106761182Y-139135000D01*
X112630000Y-146800000D02*
X121460000Y-146800000D01*
X106308388Y-137434500D02*
X106308388Y-138682206D01*
X124090000Y-156610000D02*
X129100000Y-161620000D01*
X106775000Y-139135000D02*
X107780000Y-140140000D01*
X124090000Y-149430000D02*
X124090000Y-156610000D01*
%TO.N,/H4_6*%
X154904595Y-127350000D02*
X154348933Y-127350000D01*
X156135000Y-128580405D02*
X154904595Y-127350000D01*
X156135000Y-139641396D02*
X156135000Y-128580405D01*
X149730000Y-145040000D02*
X150736396Y-145040000D01*
X147540000Y-147230000D02*
X149730000Y-145040000D01*
X150736396Y-145040000D02*
X156135000Y-139641396D01*
X147540000Y-152947246D02*
X147540000Y-147230000D01*
X153875332Y-153920000D02*
X148512754Y-153920000D01*
X154779832Y-153015500D02*
X153875332Y-153920000D01*
X148512754Y-153920000D02*
X147540000Y-152947246D01*
%TO.N,/H4_7*%
X156770000Y-128570000D02*
X154750000Y-126550000D01*
X156770000Y-139740000D02*
X156770000Y-128570000D01*
X150940000Y-145570000D02*
X156770000Y-139740000D01*
X148080000Y-152850850D02*
X148080000Y-147470000D01*
X148652869Y-153423719D02*
X148080000Y-152850850D01*
X154500237Y-152340500D02*
X153417018Y-153423719D01*
X153417018Y-153423719D02*
X148652869Y-153423719D01*
X148080000Y-147470000D02*
X149980000Y-145570000D01*
X155450996Y-152340500D02*
X154500237Y-152340500D01*
X149980000Y-145570000D02*
X150940000Y-145570000D01*
X155645498Y-152535002D02*
X155450996Y-152340500D01*
%TO.N,/H4_18*%
X153673933Y-126425000D02*
X154348933Y-125750000D01*
X155430000Y-129784595D02*
X153673933Y-128028528D01*
X153673933Y-128028528D02*
X153673933Y-126425000D01*
X155430000Y-139710000D02*
X155430000Y-129784595D01*
X150550000Y-144590000D02*
X155430000Y-139710000D01*
X149410000Y-144590000D02*
X150550000Y-144590000D01*
X145956112Y-147070000D02*
X146930000Y-147070000D01*
X145942334Y-147083778D02*
X145956112Y-147070000D01*
X146930000Y-147070000D02*
X149410000Y-144590000D01*
%TO.N,/H4_19*%
X154020000Y-124950000D02*
X154750000Y-124950000D01*
X153223933Y-125746067D02*
X154020000Y-124950000D01*
X154790000Y-129990000D02*
X153223933Y-128423933D01*
X150356396Y-144130000D02*
X154790000Y-139696396D01*
X149090000Y-144130000D02*
X150356396Y-144130000D01*
X154790000Y-139696396D02*
X154790000Y-129990000D01*
X146866944Y-146353056D02*
X149090000Y-144130000D01*
X153223933Y-128423933D02*
X153223933Y-125746067D01*
X146693056Y-146353056D02*
X146866944Y-146353056D01*
%TO.N,/H3_12*%
X145040000Y-154655503D02*
X144377161Y-155318342D01*
X145040000Y-146210000D02*
X145040000Y-154655503D01*
X147580000Y-143670000D02*
X145040000Y-146210000D01*
X150180000Y-143670000D02*
X147580000Y-143670000D01*
X152773933Y-125216067D02*
X152773933Y-128723933D01*
X152773933Y-128723933D02*
X154120000Y-130070000D01*
X154120000Y-139730000D02*
X150180000Y-143670000D01*
X153810000Y-124180000D02*
X152773933Y-125216067D01*
X154720000Y-121750000D02*
X153810000Y-122660000D01*
X154120000Y-130070000D02*
X154120000Y-139730000D01*
X153810000Y-122660000D02*
X153810000Y-124180000D01*
X154750000Y-121750000D02*
X154720000Y-121750000D01*
%TO.N,/H3_13*%
X144460000Y-154034309D02*
X143985934Y-154508375D01*
X144460000Y-146153604D02*
X144460000Y-154034309D01*
X147503604Y-143110000D02*
X144460000Y-146153604D01*
X150100000Y-143110000D02*
X147503604Y-143110000D01*
X153580000Y-139630000D02*
X150100000Y-143110000D01*
X153580000Y-130260000D02*
X153580000Y-139630000D01*
X153310000Y-121980000D02*
X153310000Y-124010000D01*
X153310000Y-124010000D02*
X152323933Y-124996067D01*
X154340000Y-120950000D02*
X153310000Y-121980000D01*
X154348933Y-120950000D02*
X154340000Y-120950000D01*
X152323933Y-124996067D02*
X152323933Y-129003933D01*
X152323933Y-129003933D02*
X153580000Y-130260000D01*
%TO.N,/H3_14*%
X154194338Y-120150000D02*
X154750000Y-120150000D01*
X152860000Y-121484338D02*
X154194338Y-120150000D01*
X152860000Y-123823604D02*
X152860000Y-121484338D01*
X151800000Y-124883604D02*
X152860000Y-123823604D01*
X152920000Y-139630000D02*
X152920000Y-130390000D01*
X151800000Y-129270000D02*
X151800000Y-124883604D01*
X143810000Y-146167208D02*
X147367208Y-142610000D01*
X147367208Y-142610000D02*
X149940000Y-142610000D01*
X149940000Y-142610000D02*
X152920000Y-139630000D01*
X152920000Y-130390000D02*
X151800000Y-129270000D01*
X143810000Y-153520000D02*
X143810000Y-146167208D01*
X143660000Y-153670000D02*
X143810000Y-153520000D01*
%TO.N,/H5_18*%
X99935000Y-113456947D02*
X100140000Y-113251947D01*
X99935000Y-121475000D02*
X99935000Y-113456947D01*
X101814863Y-123354863D02*
X99935000Y-121475000D01*
X102471067Y-123354863D02*
X101814863Y-123354863D01*
%TO.N,/H5_19*%
X100610000Y-121200000D02*
X100610000Y-114051947D01*
X101964863Y-122554863D02*
X100610000Y-121200000D01*
X102070000Y-122554863D02*
X101964863Y-122554863D01*
%TO.N,/H2_13*%
X97095974Y-109245974D02*
X100558961Y-109245974D01*
X96730000Y-108880000D02*
X97095974Y-109245974D01*
X94480000Y-108880000D02*
X96730000Y-108880000D01*
X92580000Y-121800000D02*
X92580000Y-110780000D01*
X94658056Y-123878056D02*
X92580000Y-121800000D01*
X92580000Y-110780000D02*
X94480000Y-108880000D01*
X94658056Y-124044500D02*
X94658056Y-123878056D01*
%TO.N,/H2_14*%
X97031947Y-110041947D02*
X100140000Y-110041947D01*
X96390762Y-109400762D02*
X97031947Y-110041947D01*
X94909500Y-123369500D02*
X93140000Y-121600000D01*
X93140000Y-121600000D02*
X93140000Y-111000000D01*
X94739238Y-109400762D02*
X96390762Y-109400762D01*
X94937651Y-123369500D02*
X94909500Y-123369500D01*
X95570000Y-124001849D02*
X94937651Y-123369500D01*
X93140000Y-111000000D02*
X94739238Y-109400762D01*
X95570000Y-129563889D02*
X95570000Y-124001849D01*
X95620625Y-129614514D02*
X95570000Y-129563889D01*
%TO.N,/H2_12*%
X100120000Y-108430000D02*
X100140000Y-108450000D01*
X94180000Y-108430000D02*
X100120000Y-108430000D01*
X92060000Y-122233888D02*
X92060000Y-110550000D01*
X92060000Y-110550000D02*
X94180000Y-108430000D01*
X92769028Y-122942916D02*
X92060000Y-122233888D01*
D20*
%TO.N,/VCC3*%
X90980000Y-110600000D02*
X90980000Y-126740000D01*
X94879502Y-106700498D02*
X90980000Y-110600000D01*
X98540000Y-106700498D02*
X94879502Y-106700498D01*
D19*
%TO.N,/H2_8*%
X89495500Y-109621747D02*
X89340000Y-109777247D01*
X89340000Y-109777247D02*
X89340000Y-127890000D01*
X89340000Y-127890000D02*
X90984086Y-129534086D01*
X90984086Y-129534086D02*
X90989462Y-129534086D01*
D20*
%TO.N,/VCC2_OUT*%
X105560000Y-108840000D02*
X105560000Y-107630000D01*
X106170000Y-108230000D02*
X107420000Y-108230000D01*
X105560000Y-108840000D02*
X106170000Y-108230000D01*
D19*
%TO.N,Net-(H2-Pad3)*%
X88420000Y-159314000D02*
X87156000Y-160578000D01*
X87170000Y-141640000D02*
X88420000Y-142890000D01*
X87170000Y-136060000D02*
X87170000Y-141640000D01*
X88420000Y-142890000D02*
X88420000Y-159314000D01*
X89713490Y-133516510D02*
X87170000Y-136060000D01*
X90876452Y-133516510D02*
X89713490Y-133516510D01*
%TO.N,/H3_6*%
X131583198Y-148863198D02*
X131583198Y-150763198D01*
X131583198Y-150763198D02*
X133190000Y-152370000D01*
X129910000Y-147190000D02*
X131583198Y-148863198D01*
X129810000Y-147190000D02*
X129910000Y-147190000D01*
%TO.N,/PWR_MCU_I2C_SDA*%
X154140000Y-158290000D02*
X154690000Y-157740000D01*
X154120000Y-158290000D02*
X154140000Y-158290000D01*
X155624595Y-157740000D02*
X160780000Y-152584595D01*
X160780000Y-152584595D02*
X160780000Y-152560000D01*
X154690000Y-157740000D02*
X155624595Y-157740000D01*
%TO.N,/H3_15*%
X129460000Y-153552826D02*
X129020622Y-153113448D01*
X129460000Y-158190000D02*
X129460000Y-153552826D01*
X129791396Y-158521396D02*
X129460000Y-158190000D01*
X129020622Y-153113448D02*
X129020622Y-148204699D01*
X133168604Y-158521396D02*
X129791396Y-158521396D01*
X129020622Y-148204699D02*
X129033670Y-148191651D01*
X133387920Y-158302080D02*
X133168604Y-158521396D01*
X133387920Y-157432848D02*
X133387920Y-158302080D01*
%TO.N,/H3_8*%
X156793604Y-154020000D02*
X155086112Y-154020000D01*
X162340000Y-131090000D02*
X162340000Y-148473604D01*
X155086112Y-154020000D02*
X154453056Y-154653056D01*
X159158933Y-127908933D02*
X162340000Y-131090000D01*
X162340000Y-148473604D02*
X156793604Y-154020000D01*
X159158933Y-127890000D02*
X159158933Y-127908933D01*
%TO.N,/H3_9*%
X156760000Y-154690000D02*
X155370000Y-154690000D01*
X162790000Y-130564371D02*
X162790000Y-148660000D01*
X162790000Y-148660000D02*
X156760000Y-154690000D01*
X155370000Y-154690000D02*
X154460000Y-155600000D01*
X159160337Y-126934708D02*
X162790000Y-130564371D01*
X140030000Y-153850000D02*
X139380000Y-153200000D01*
X140030000Y-159640000D02*
X140030000Y-153850000D01*
X144000000Y-160650000D02*
X141040000Y-160650000D01*
X144350000Y-160300000D02*
X144000000Y-160650000D01*
X145510000Y-156400000D02*
X144350000Y-157560000D01*
X144350000Y-157560000D02*
X144350000Y-160300000D01*
X153660000Y-156400000D02*
X145510000Y-156400000D01*
X141040000Y-160650000D02*
X140030000Y-159640000D01*
X154460000Y-155600000D02*
X153660000Y-156400000D01*
%TO.N,/H3_8*%
X140770000Y-152965500D02*
X140310000Y-152505500D01*
X140770000Y-159370000D02*
X140770000Y-152965500D01*
X141320000Y-159920000D02*
X140770000Y-159370000D01*
X143620000Y-159920000D02*
X141320000Y-159920000D01*
X143800000Y-157310000D02*
X143800000Y-159740000D01*
X143800000Y-159740000D02*
X143620000Y-159920000D01*
X154452349Y-154653056D02*
X153275405Y-155830000D01*
X153275405Y-155830000D02*
X145280000Y-155830000D01*
X154453056Y-154653056D02*
X154452349Y-154653056D01*
X145280000Y-155830000D02*
X143800000Y-157310000D01*
D20*
%TO.N,/VCC3*%
X119020000Y-130710000D02*
X122110000Y-133800000D01*
X119020000Y-117079950D02*
X119020000Y-130710000D01*
X122110000Y-133800000D02*
X123880000Y-133800000D01*
X98540000Y-106700498D02*
X101540498Y-106700498D01*
X101540498Y-106700498D02*
X104650000Y-109810000D01*
X104650000Y-109810000D02*
X111750050Y-109810000D01*
X111750050Y-109810000D02*
X119020000Y-117079950D01*
%TO.N,/VCC2_OUT*%
X107420000Y-108230000D02*
X106160000Y-108230000D01*
X131210000Y-108230000D02*
X107420000Y-108230000D01*
X106160000Y-108230000D02*
X105560000Y-107630000D01*
X132060000Y-109080000D02*
X131210000Y-108230000D01*
X132830000Y-108310000D02*
X132060000Y-109080000D01*
X154510000Y-112830000D02*
X149990000Y-108310000D01*
X149990000Y-108310000D02*
X132830000Y-108310000D01*
X154510000Y-116390000D02*
X154510000Y-112830000D01*
D19*
%TO.N,/H2_7*%
X95660903Y-132370500D02*
X97049500Y-132370500D01*
X97049500Y-132370500D02*
X101265137Y-128154863D01*
X95250000Y-131959597D02*
X95660903Y-132370500D01*
X101265137Y-128154863D02*
X102471067Y-128154863D01*
X95250000Y-131120000D02*
X95250000Y-131959597D01*
X95680352Y-130689648D02*
X95250000Y-131120000D01*
X95888534Y-130689648D02*
X95680352Y-130689648D01*
%TO.N,/H2_9*%
X90155000Y-126398273D02*
X90170000Y-126383273D01*
X91330000Y-128710000D02*
X90155000Y-127535000D01*
X90170000Y-126383273D02*
X90170000Y-109600000D01*
X91350000Y-128710000D02*
X91330000Y-128710000D01*
X90155000Y-127535000D02*
X90155000Y-126398273D01*
X90170000Y-109600000D02*
X91320000Y-108450000D01*
%TO.N,/H3_15*%
X133387920Y-157232080D02*
X133410000Y-157210000D01*
X133387920Y-157432848D02*
X133387920Y-157232080D01*
D20*
%TO.N,/VCC2_OUT*%
X135050000Y-135618468D02*
X135050000Y-124630500D01*
X140970000Y-141538468D02*
X135050000Y-135618468D01*
X135050000Y-124630500D02*
X132420000Y-122000500D01*
X140970000Y-150060000D02*
X140970000Y-141538468D01*
X137500000Y-153530000D02*
X140970000Y-150060000D01*
X137500000Y-158744500D02*
X137500000Y-153530000D01*
D19*
%TO.N,/H2_9*%
X99593458Y-134250000D02*
X100373458Y-135030000D01*
X100373458Y-135030000D02*
X105890000Y-135030000D01*
X105890000Y-135030000D02*
X106880000Y-134040000D01*
X92900000Y-131460000D02*
X95690000Y-134250000D01*
X92900000Y-130260000D02*
X92900000Y-131460000D01*
X106880000Y-134040000D02*
X106880000Y-133750000D01*
X91350000Y-128710000D02*
X92900000Y-130260000D01*
X95690000Y-134250000D02*
X99593458Y-134250000D01*
%TO.N,/H3_19*%
X132960000Y-155210000D02*
X138719338Y-149450662D01*
X130160000Y-157229502D02*
X130160000Y-156590000D01*
X130160000Y-156590000D02*
X131540000Y-155210000D01*
X131540000Y-155210000D02*
X132960000Y-155210000D01*
X138719338Y-149450662D02*
X138720662Y-149450662D01*
%TO.N,/H3_18*%
X131510000Y-155990000D02*
X133390000Y-155990000D01*
X133390000Y-155990000D02*
X139930000Y-149450000D01*
X130985000Y-156515000D02*
X131510000Y-155990000D01*
X130985000Y-157846896D02*
X130985000Y-156515000D01*
X130985000Y-157846896D02*
X130985000Y-157276304D01*
%TO.N,/H3_7*%
X129730000Y-146130000D02*
X129700000Y-146130000D01*
X132180000Y-148580000D02*
X129730000Y-146130000D01*
X132180000Y-150370000D02*
X132180000Y-148580000D01*
X134170000Y-152360000D02*
X132180000Y-150370000D01*
X134170000Y-152364500D02*
X134170000Y-152360000D01*
%TO.N,/H3_12*%
X144377161Y-155318342D02*
X144257651Y-155437852D01*
%TO.N,/H4_17*%
X157550000Y-120963796D02*
X159158933Y-119354863D01*
X158670000Y-143394094D02*
X158670000Y-136180000D01*
X157214094Y-144850000D02*
X158670000Y-143394094D01*
X155800000Y-144850000D02*
X157214094Y-144850000D01*
X157550000Y-135060000D02*
X157550000Y-120963796D01*
X152475000Y-148175000D02*
X155800000Y-144850000D01*
X151557464Y-148175000D02*
X152475000Y-148175000D01*
X148932464Y-150800000D02*
X151557464Y-148175000D01*
X158670000Y-136180000D02*
X157550000Y-135060000D01*
%TO.N,/H4_16*%
X158990192Y-120160000D02*
X159560000Y-120160000D01*
X158000000Y-121150192D02*
X158990192Y-120160000D01*
X158000000Y-134810000D02*
X158000000Y-121150192D01*
X159140000Y-135950000D02*
X158000000Y-134810000D01*
X159140000Y-143560490D02*
X159140000Y-135950000D01*
X156010000Y-145300000D02*
X157400490Y-145300000D01*
X149535641Y-151774359D02*
X156010000Y-145300000D01*
X148932464Y-151774359D02*
X149535641Y-151774359D01*
X157400490Y-145300000D02*
X159140000Y-143560490D01*
%TO.N,/H4_15*%
X158450000Y-121668933D02*
X159158933Y-120960000D01*
X158450000Y-134540000D02*
X158450000Y-121668933D01*
X153395000Y-148570405D02*
X155987175Y-145978230D01*
X155987175Y-145978230D02*
X157871770Y-145978230D01*
X153395000Y-149195000D02*
X153395000Y-148570405D01*
X159590000Y-144260000D02*
X159590000Y-135680000D01*
X149841281Y-152748719D02*
X153395000Y-149195000D01*
X157871770Y-145978230D02*
X159590000Y-144260000D01*
X159590000Y-135680000D02*
X158450000Y-134540000D01*
X148932464Y-152748719D02*
X149841281Y-152748719D01*
%TO.N,/H2_8*%
X107555000Y-133213933D02*
X107291067Y-132950000D01*
X99407062Y-134700000D02*
X100227062Y-135520000D01*
X95230000Y-134700000D02*
X99407062Y-134700000D01*
X106140000Y-135520000D02*
X107555000Y-134105000D01*
X107555000Y-134105000D02*
X107555000Y-133213933D01*
X92280000Y-131750000D02*
X95230000Y-134700000D01*
X92280000Y-130824624D02*
X92280000Y-131750000D01*
X100227062Y-135520000D02*
X106140000Y-135520000D01*
X90989462Y-129534086D02*
X92280000Y-130824624D01*
%TO.N,/H5_6*%
X101574863Y-125754863D02*
X102070000Y-125754863D01*
X97040000Y-121220000D02*
X101574863Y-125754863D01*
X97040000Y-112066112D02*
X97040000Y-121220000D01*
X95940499Y-110966611D02*
X97040000Y-112066112D01*
%TO.N,/H5_7*%
X101354863Y-126554863D02*
X102471067Y-126554863D01*
X96430000Y-112410000D02*
X96430000Y-121630000D01*
X95265499Y-111245499D02*
X96430000Y-112410000D01*
X96430000Y-121630000D02*
X101354863Y-126554863D01*
X95324334Y-110075262D02*
X95265499Y-110134097D01*
X95265499Y-110134097D02*
X95265499Y-111245499D01*
%TO.N,/H2_6*%
X100925137Y-127354863D02*
X102070000Y-127354863D01*
X96584500Y-131695500D02*
X100925137Y-127354863D01*
X95940498Y-131695500D02*
X96584500Y-131695500D01*
%TO.N,/H5_16*%
X106370000Y-123350000D02*
X107281067Y-123350000D01*
X105145000Y-122125000D02*
X106370000Y-123350000D01*
X105145000Y-115765000D02*
X105145000Y-122125000D01*
X100140000Y-111651947D02*
X101031947Y-111651947D01*
X101031947Y-111651947D02*
X105145000Y-115765000D01*
%TO.N,/H5_15*%
X105850000Y-122010000D02*
X106390000Y-122550000D01*
X105850000Y-115320000D02*
X105850000Y-122010000D01*
X100610000Y-110841947D02*
X101371947Y-110841947D01*
X101371947Y-110841947D02*
X105850000Y-115320000D01*
X106390000Y-122550000D02*
X106880000Y-122550000D01*
%TO.N,/H5_17*%
X103795000Y-121795000D02*
X106150000Y-124150000D01*
X103795000Y-115635000D02*
X103795000Y-121795000D01*
X100610000Y-112450000D02*
X103795000Y-115635000D01*
X106150000Y-124150000D02*
X106880000Y-124150000D01*
%TO.N,Net-(H2-Pad4)*%
X85890000Y-159304000D02*
X84616000Y-160578000D01*
X86210000Y-142280000D02*
X85890000Y-142600000D01*
X86210000Y-135830000D02*
X86210000Y-142280000D01*
X85890000Y-142600000D02*
X85890000Y-159304000D01*
X89313288Y-132726712D02*
X86210000Y-135830000D01*
X91306944Y-132726712D02*
X89313288Y-132726712D01*
%TO.N,Net-(H2-Pad5)*%
X85353500Y-141496500D02*
X83340000Y-143510000D01*
X83340000Y-159314000D02*
X82076000Y-160578000D01*
X85353500Y-135486500D02*
X85353500Y-141496500D01*
X83340000Y-143510000D02*
X83340000Y-159314000D01*
X88930000Y-131910000D02*
X85353500Y-135486500D01*
X90930000Y-131910000D02*
X88930000Y-131910000D01*
D20*
%TO.N,/VCC2_OUT*%
X132410000Y-120370000D02*
X132060000Y-120020000D01*
X132410000Y-120750000D02*
X132410000Y-120370000D01*
X132390000Y-120770000D02*
X132410000Y-120750000D01*
X132390000Y-120350000D02*
X132060000Y-120020000D01*
X132390000Y-121970500D02*
X132390000Y-120350000D01*
X132420000Y-122000500D02*
X132390000Y-121970500D01*
X132060000Y-120020000D02*
X132060000Y-109080000D01*
%TD*%
M02*
