M48
; DRILL file {KiCad 7.0.2} date Tue Jun  6 11:51:33 2023
; FORMAT={-:-/ absolute / inch / decimal}
; #@! TF.CreationDate,2023-06-06T11:51:33+03:00
; #@! TF.GenerationSoftware,Kicad,Pcbnew,7.0.2
; #@! TF.FileFunction,Plated,1,4,PTH
FMAT,2
INCH
; #@! TA.AperFunction,Plated,PTH,ViaDrill
T1C0.0157
; #@! TA.AperFunction,Plated,PTH,ViaDrill
T2C0.0236
; #@! TA.AperFunction,Plated,PTH,ComponentDrill
T3C0.0335
; #@! TA.AperFunction,Plated,PTH,ComponentDrill
T4C0.0413
; #@! TA.AperFunction,Plated,PTH,ComponentDrill
T5C0.0453
; #@! TA.AperFunction,Plated,PTH,ComponentDrill
T6C0.0531
; #@! TA.AperFunction,Plated,PTH,ViaDrill
T7C0.1181
%
G90
G05
T1
X3.5234Y-4.3158
X3.5778Y-5.2566
X3.5799Y-5.1933
X3.5823Y-5.0998
X3.5948Y-5.2255
X3.5953Y-4.2697
X3.5961Y-5.2878
X3.5965Y-5.0673
X3.6523Y-4.8403
X3.6752Y-5.3417
X3.7267Y-4.8836
X3.7504Y-4.5461
X3.7529Y-4.3337
X3.7646Y-5.1029
X3.7751Y-5.1453
X3.7772Y-5.1849
X3.7772Y-5.2563
X3.7772Y-4.3688
X3.8638Y-4.5453
X3.8638Y-5.3425
X3.9425Y-4.2697
X3.9425Y-4.3324
X3.9425Y-4.3957
X3.9425Y-4.4587
X3.9425Y-5.2564
X3.959Y-4.301
X3.961Y-4.3639
X3.961Y-4.4272
X3.961Y-4.4902
X3.961Y-5.2879
X4.0185Y-4.825
X4.0185Y-4.888
X4.0185Y-4.951
X4.0185Y-5.014
X4.0185Y-5.0762
X4.0185Y-5.2029
X4.0343Y-4.7935
X4.0343Y-4.8565
X4.0343Y-4.9195
X4.0343Y-4.9825
X4.0343Y-5.0455
X4.0347Y-5.2344
X4.0843Y-5.5622
X4.113Y-4.5811
X4.113Y-5.3843
X4.1854Y-5.4108
X4.2071Y-4.9374
X4.2071Y-4.978
X4.2071Y-5.0354
X4.2071Y-5.074
X4.2075Y-5.526
X4.2079Y-4.8248
X4.2079Y-4.8878
X4.2079Y-5.2657
X4.2142Y-5.4512
X4.2237Y-4.8563
X4.2241Y-5.2343
X4.2976Y-5.526
X4.302Y-4.5807
X4.302Y-5.3843
X4.5413Y-5.3831
X4.5488Y-5.0071
X4.5488Y-5.035
X4.5488Y-5.063
X4.5488Y-5.1232
X4.5488Y-5.1512
X4.5488Y-5.1791
X4.5488Y-5.2394
X4.5488Y-5.2673
X4.5488Y-5.2953
X4.5508Y-5.6399
X4.5626Y-4.7996
X4.563Y-4.8276
X4.5634Y-4.8555
X4.576Y-5.239
X4.5764Y-5.1228
X4.5776Y-5.0067
X4.5913Y-4.7992
X4.5917Y-4.8272
X4.5921Y-4.8551
X4.6043Y-5.4118
X4.6043Y-5.4646
X4.6135Y-5.5325
X4.6189Y-4.7992
X4.6193Y-4.8272
X4.6197Y-4.8551
X4.622Y-5.685
X4.6413Y-5.439
X4.6772Y-5.4118
X4.6772Y-5.4646
X4.7535Y-5.0075
X4.7539Y-5.0354
X4.7543Y-5.0634
X4.7823Y-5.0071
X4.7827Y-5.035
X4.7831Y-5.063
X4.8098Y-5.0071
X4.8102Y-5.035
X4.8106Y-5.063
X4.848Y-5.3484
X4.8628Y-4.8382
X4.876Y-5.6543
X4.8772Y-4.8902
X4.8772Y-4.9177
X4.8772Y-4.9457
X4.8772Y-5.0071
X4.8772Y-5.035
X4.8772Y-5.063
X4.8772Y-5.1236
X4.8772Y-5.1516
X4.8772Y-5.1795
X4.8772Y-5.2398
X4.8772Y-5.2677
X4.8772Y-5.2957
X4.889Y-4.4093
X4.8924Y-4.8382
X4.9039Y-4.8902
X4.9039Y-5.0067
X4.9043Y-5.1232
X4.9043Y-5.2394
X4.9044Y-5.5399
X4.909Y-4.4681
X4.909Y-4.5055
X4.922Y-4.8382
X4.9323Y-5.4114
X4.9331Y-5.4642
X4.9394Y-4.8114
X4.9398Y-5.5406
X4.9517Y-4.8382
X4.9709Y-5.4398
X4.9813Y-4.8382
X4.9882Y-4.3157
X4.989Y-4.6122
X4.989Y-4.6795
X4.989Y-4.7469
X5.0059Y-5.4114
X5.0059Y-5.4646
X5.0161Y-4.3157
X5.0165Y-4.3441
X5.0165Y-4.3728
X5.0429Y-6.2114
X5.0429Y-6.2488
X5.0598Y-6.0866
X5.0624Y-6.0512
X5.0801Y-5.8343
X5.1061Y-6.0171
X5.1063Y-5.7531
X5.1106Y-5.7949
X5.1244Y-6.1901
X5.1382Y-4.5402
X5.1425Y-6.0159
X5.146Y-5.9807
X5.1569Y-6.2144
X5.1606Y-5.6563
X5.1772Y-5.3484
X5.1835Y-5.9805
X5.1884Y-6.1901
X5.2067Y-4.8902
X5.2067Y-4.9177
X5.2067Y-4.9457
X5.2067Y-5.0071
X5.2067Y-5.035
X5.2067Y-5.063
X5.2067Y-5.1236
X5.2067Y-5.1516
X5.2067Y-5.1795
X5.2067Y-5.2402
X5.2067Y-5.2681
X5.2067Y-5.2961
X5.2201Y-6.2144
X5.2331Y-4.8902
X5.2335Y-5.1232
X5.2335Y-5.5387
X5.2339Y-5.0067
X5.2339Y-5.2398
X5.2437Y-5.9988
X5.2515Y-6.1981
X5.2618Y-5.4114
X5.2618Y-5.465
X5.2689Y-5.5386
X5.2823Y-5.9986
X5.2831Y-6.2142
X5.2996Y-5.4413
X5.3146Y-6.1905
X5.3181Y-4.4085
X5.3346Y-5.4114
X5.3346Y-5.4646
X5.3386Y-4.4674
X5.3386Y-4.5048
X5.3461Y-6.2142
X5.4177Y-5.1209
X5.4181Y-5.1488
X5.4185Y-5.1768
X5.4201Y-4.3157
X5.4209Y-4.6122
X5.4209Y-4.6795
X5.4209Y-4.7469
X5.4453Y-4.3157
X5.4461Y-4.3445
X5.4461Y-4.3717
X5.4465Y-5.1205
X5.4469Y-5.1484
X5.4472Y-5.1764
X5.4555Y-5.6843
X5.4614Y-5.8839
X5.474Y-5.1205
X5.4744Y-5.1484
X5.4748Y-5.1764
X5.4874Y-6.0315
X5.5055Y-5.3484
X5.5091Y-5.8839
X5.5234Y-4.8398
X5.524Y-6.0042
X5.535Y-4.8902
X5.535Y-4.9177
X5.535Y-4.9457
X5.535Y-5.0071
X5.535Y-5.035
X5.535Y-5.063
X5.535Y-5.1236
X5.535Y-5.1516
X5.535Y-5.1795
X5.535Y-5.2402
X5.535Y-5.2681
X5.535Y-5.2961
X5.5531Y-4.8398
X5.5618Y-4.8902
X5.5622Y-5.1232
X5.5622Y-5.2398
X5.5622Y-5.5401
X5.5626Y-5.0067
X5.5681Y-4.5384
X5.5827Y-4.8398
X5.5909Y-5.4118
X5.5909Y-5.465
X5.5976Y-5.5406
X5.6123Y-4.8398
X5.6276Y-5.4402
X5.6276Y-5.4402
X5.6422Y-4.8398
X5.6559Y-6.05
X5.6634Y-5.4118
X5.6638Y-5.4646
X5.6687Y-6.083
X5.6841Y-6.1149
X5.7441Y-5.2398
X5.7445Y-5.2677
X5.7449Y-5.2957
X5.7458Y-5.7907
X5.7477Y-4.4085
X5.7681Y-4.5042
X5.7681Y-4.4687
X5.7728Y-5.2394
X5.7732Y-5.2673
X5.7736Y-5.2953
X5.7753Y-5.7619
X5.8004Y-5.2394
X5.8008Y-5.2673
X5.8012Y-5.2953
X5.8331Y-5.3476
X5.8447Y-4.8406
X5.8496Y-4.6122
X5.8496Y-4.6795
X5.8496Y-4.7469
X5.85Y-4.3157
X5.8504Y-4.8165
X5.8634Y-4.8902
X5.8634Y-4.9177
X5.8634Y-4.9457
X5.8634Y-5.0079
X5.8634Y-5.0358
X5.8634Y-5.0638
X5.8634Y-5.1248
X5.8634Y-5.1528
X5.8634Y-5.1807
X5.8634Y-5.2421
X5.8634Y-5.2701
X5.8634Y-5.298
X5.8635Y-5.937
X5.8635Y-5.9754
X5.8635Y-6.0137
X5.8646Y-5.5354
X5.8743Y-4.8406
X5.8784Y-4.3161
X5.88Y-4.3425
X5.88Y-4.3713
X5.8906Y-5.1244
X5.8906Y-5.2417
X5.8909Y-4.8902
X5.8909Y-5.0075
X5.9039Y-4.8406
X5.9197Y-5.4118
X5.9197Y-5.4642
X5.9198Y-5.5422
X5.9336Y-4.8406
X5.9559Y-5.4382
X5.9632Y-4.8406
X5.9921Y-5.4642
X5.9924Y-5.7284
X5.9948Y-5.7971
X5.9977Y-4.5406
X6.0212Y-6.2417
X6.0543Y-5.7142
X6.0552Y-5.6609
X6.0657Y-5.8602
X6.0677Y-6.2319
X6.0678Y-5.8957
X6.0698Y-5.9313
X6.0701Y-5.9732
X6.0767Y-4.7618
X6.0767Y-4.9508
X6.0767Y-5.0138
X6.0808Y-6.0887
X6.0811Y-6.126
X6.0831Y-4.5823
X6.0911Y-5.6201
X6.0925Y-4.7303
X6.0925Y-4.7933
X6.0925Y-4.9193
X6.0925Y-4.9823
X6.0925Y-5.0453
X6.0937Y-6.0242
X6.1161Y-5.595
X6.1278Y-6.0053
X6.1531Y-5.6494
X6.1591Y-6.0219
X6.1693Y-5.5579
X6.1696Y-5.7737
X6.1787Y-5.676
X6.1894Y-5.8031
X6.2159Y-6.1828
X6.2191Y-5.4654
X6.2203Y-5.43
X6.2203Y-5.5008
X6.2217Y-5.576
X6.2217Y-5.6051
X6.2657Y-6.1583
X6.2661Y-4.699
X6.2661Y-4.7622
X6.2661Y-4.9512
X6.2661Y-5.035
X6.2662Y-4.9974
X6.2729Y-5.1232
X6.2819Y-4.7307
X6.2819Y-4.7937
X6.2819Y-4.9197
X6.2909Y-6.0087
X6.2973Y-5.8871
X6.3244Y-5.3846
X6.3299Y-6.0087
X6.3341Y-5.8484
X6.3606Y-5.3846
X6.3961Y-6.0516
X6.4043Y-5.9091
X6.424Y-6.1209
T2
X3.5819Y-4.9898
X3.8795Y-4.2008
X4.1559Y-4.2374
X4.1559Y-4.285
X5.2122Y-4.7547
X5.2134Y-4.8032
X5.289Y-5.8843
X5.3313Y-5.8843
X5.3736Y-5.8843
X5.4057Y-5.8533
X5.4134Y-6.2498
X5.4358Y-5.822
X5.5906Y-6.0606
X5.5906Y-6.1028
X5.5906Y-6.1449
X5.5906Y-6.187
X5.5906Y-6.2291
X5.7421Y-6.1973
X5.7949Y-4.785
X5.8323Y-6.1953
X5.9098Y-4.7776
T3
X3.9303Y-5.7024
X3.9303Y-5.8024
T4
X3.7122Y-4.1594
X3.7122Y-4.9571
X4.2646Y-5.439
X5.4561Y-6.1409
X5.9244Y-6.224
X6.3232Y-5.439
T5
X3.2313Y-5.7424
X3.2313Y-6.0334
X3.2313Y-6.322
X3.3313Y-5.7424
X3.3313Y-6.0334
X3.3313Y-6.322
X3.4313Y-5.7424
X3.4313Y-6.0334
X3.4313Y-6.322
X3.5313Y-5.7424
X3.5313Y-6.0334
X3.5313Y-6.322
X3.6313Y-5.7424
X3.6313Y-6.0334
X3.6313Y-6.322
X3.7313Y-5.7424
X3.7313Y-6.0334
X3.7313Y-6.322
X4.2613Y-5.8717
X4.2613Y-6.322
X4.3613Y-5.8717
X4.3613Y-6.322
X4.4613Y-5.8717
X4.4613Y-6.322
X4.5613Y-5.8717
X4.5613Y-6.322
X4.6613Y-5.8717
X4.6613Y-6.322
X4.7613Y-5.8717
X4.7613Y-6.322
T6
X3.7122Y-4.6004
X3.7122Y-5.398
X4.2646Y-4.5256
X5.0152Y-6.1409
X5.9244Y-5.7831
X6.3232Y-4.5256
T7
X4.0945Y-4.0945
X4.0945Y-6.2992
X5.2362Y-4.0925
X6.2992Y-4.0945
X6.2992Y-6.2992
T0
M30
