%TF.GenerationSoftware,KiCad,Pcbnew,7.0.2*%
%TF.CreationDate,2023-05-22T10:30:23+03:00*%
%TF.ProjectId,MCU_V1,4d43555f-5631-42e6-9b69-6361645f7063,rev?*%
%TF.SameCoordinates,Original*%
%TF.FileFunction,Copper,L2,Bot*%
%TF.FilePolarity,Positive*%
%FSLAX46Y46*%
G04 Gerber Fmt 4.6, Leading zero omitted, Abs format (unit mm)*
G04 Created by KiCad (PCBNEW 7.0.2) date 2023-05-22 10:30:23*
%MOMM*%
%LPD*%
G01*
G04 APERTURE LIST*
%TA.AperFunction,SMDPad,CuDef*%
%ADD10R,2.000000X0.500000*%
%TD*%
%TA.AperFunction,ComponentPad*%
%ADD11C,0.525000*%
%TD*%
%TA.AperFunction,ComponentPad*%
%ADD12C,0.675000*%
%TD*%
%TA.AperFunction,ViaPad*%
%ADD13C,0.700000*%
%TD*%
%TA.AperFunction,ViaPad*%
%ADD14C,5.000000*%
%TD*%
%TA.AperFunction,Conductor*%
%ADD15C,0.250000*%
%TD*%
%TA.AperFunction,Conductor*%
%ADD16C,0.500000*%
%TD*%
G04 APERTURE END LIST*
D10*
%TO.P,H1,1*%
%TO.N,/+3.3*%
X165980000Y-78940000D03*
%TO.P,H1,2*%
X165980000Y-79740000D03*
%TO.P,H1,3*%
%TO.N,/A3_PIN*%
X165980000Y-80540000D03*
%TO.P,H1,4*%
%TO.N,/A4_PIN*%
X165980000Y-81340000D03*
%TO.P,H1,5*%
%TO.N,/A5_PIN*%
X165980000Y-82140000D03*
%TO.P,H1,6*%
%TO.N,/A6_PIN*%
X165980000Y-82940000D03*
%TO.P,H1,7*%
%TO.N,/A7_PIN*%
X165980000Y-83740000D03*
%TO.P,H1,8*%
%TO.N,/A8_PIN*%
X165980000Y-84540000D03*
%TO.P,H1,9*%
%TO.N,/A9_PIN*%
X165980000Y-85340000D03*
%TO.P,H1,10*%
%TO.N,/A10_PIN*%
X165980000Y-86140000D03*
%TO.P,H1,11*%
%TO.N,/A11_PIN*%
X165980000Y-86940000D03*
%TO.P,H1,12*%
%TO.N,/A12_PIN*%
X165980000Y-87740000D03*
%TO.P,H1,13*%
%TO.N,/A13_PIN*%
X165980000Y-88540000D03*
%TO.P,H1,14*%
%TO.N,/A14_PIN*%
X165980000Y-89340000D03*
%TO.P,H1,15*%
%TO.N,/A15_PIN*%
X165980000Y-90140000D03*
%TO.P,H1,16*%
%TO.N,/A16_PIN*%
X165980000Y-90940000D03*
%TO.P,H1,17*%
%TO.N,/A17_PIN*%
X165980000Y-91740000D03*
%TO.P,H1,18*%
%TO.N,GND*%
X165980000Y-92540000D03*
%TO.P,H1,19*%
X165980000Y-93340000D03*
%TO.P,H1,20*%
X165980000Y-94140000D03*
%TO.P,H1,21*%
X165980000Y-94940000D03*
%TO.P,H1,22*%
X165980000Y-95740000D03*
%TO.P,H1,23*%
X165980000Y-96540000D03*
%TO.P,H1,24*%
X165980000Y-97340000D03*
%TO.P,H1,25*%
X165980000Y-98140000D03*
%TO.P,H1,26*%
X161280000Y-78940000D03*
%TO.P,H1,27*%
%TO.N,/A27_PIN*%
X161280000Y-79740000D03*
%TO.P,H1,28*%
%TO.N,/A28_PIN*%
X161280000Y-80540000D03*
%TO.P,H1,29*%
%TO.N,/A29_PIN*%
X161280000Y-81340000D03*
%TO.P,H1,30*%
%TO.N,/A30_PIN*%
X161280000Y-82140000D03*
%TO.P,H1,31*%
%TO.N,/A31_PIN*%
X161280000Y-82940000D03*
%TO.P,H1,32*%
%TO.N,/A32_PIN*%
X161280000Y-83740000D03*
%TO.P,H1,33*%
%TO.N,/A33_PIN*%
X161280000Y-84540000D03*
%TO.P,H1,34*%
%TO.N,/A34_PIN*%
X161280000Y-85340000D03*
%TO.P,H1,35*%
%TO.N,/A35_PIN*%
X161280000Y-86140000D03*
%TO.P,H1,36*%
%TO.N,/A36_PIN*%
X161280000Y-86940000D03*
%TO.P,H1,37*%
%TO.N,/A37_PIN*%
X161280000Y-87740000D03*
%TO.P,H1,38*%
%TO.N,/A38_PIN*%
X161280000Y-88540000D03*
%TO.P,H1,39*%
%TO.N,/A39_PIN*%
X161280000Y-89340000D03*
%TO.P,H1,40*%
%TO.N,/A40_PIN*%
X161280000Y-90140000D03*
%TO.P,H1,41*%
%TO.N,/A41_PIN*%
X161280000Y-90940000D03*
%TO.P,H1,42*%
%TO.N,/A42_PIN*%
X161280000Y-91740000D03*
%TO.P,H1,43*%
%TO.N,GND*%
X161280000Y-92540000D03*
%TO.P,H1,44*%
X161280000Y-93340000D03*
%TO.P,H1,45*%
X161280000Y-94140000D03*
%TO.P,H1,46*%
X161280000Y-94940000D03*
%TO.P,H1,47*%
X161280000Y-95740000D03*
%TO.P,H1,48*%
X161280000Y-96540000D03*
%TO.P,H1,49*%
X161280000Y-97340000D03*
%TO.P,H1,50*%
X161280000Y-98140000D03*
%TO.P,H1,51*%
X113690000Y-98140000D03*
%TO.P,H1,52*%
%TO.N,/B52_PIN*%
X113690000Y-97340000D03*
%TO.P,H1,53*%
%TO.N,/B53_PIN*%
X113690000Y-96540000D03*
%TO.P,H1,54*%
%TO.N,/B54_PIN*%
X113690000Y-95740000D03*
%TO.P,H1,55*%
%TO.N,/B55_PIN*%
X113690000Y-94940000D03*
%TO.P,H1,56*%
%TO.N,/B56_PIN*%
X113690000Y-94140000D03*
%TO.P,H1,57*%
%TO.N,/B57_PIN*%
X113690000Y-93340000D03*
%TO.P,H1,58*%
%TO.N,/B58_PIN*%
X113690000Y-92540000D03*
%TO.P,H1,59*%
%TO.N,/B59_PIN*%
X113690000Y-91740000D03*
%TO.P,H1,60*%
%TO.N,/B60_PIN*%
X113690000Y-90940000D03*
%TO.P,H1,61*%
%TO.N,/B61_PIN*%
X113690000Y-90140000D03*
%TO.P,H1,62*%
%TO.N,/B62_PIN*%
X113690000Y-89340000D03*
%TO.P,H1,63*%
%TO.N,/B63_PIN*%
X113690000Y-88540000D03*
%TO.P,H1,64*%
%TO.N,/B64_PIN*%
X113690000Y-87740000D03*
%TO.P,H1,65*%
%TO.N,/B65_PIN*%
X113690000Y-86940000D03*
%TO.P,H1,66*%
%TO.N,/B66_PIN*%
X113690000Y-86140000D03*
%TO.P,H1,67*%
%TO.N,/B67_PIN*%
X113690000Y-85340000D03*
%TO.P,H1,68*%
%TO.N,/B68_PIN*%
X113690000Y-84540000D03*
%TO.P,H1,69*%
%TO.N,GND*%
X113690000Y-83740000D03*
%TO.P,H1,70*%
X113690000Y-82940000D03*
%TO.P,H1,71*%
X113690000Y-82140000D03*
%TO.P,H1,72*%
X113690000Y-81340000D03*
%TO.P,H1,73*%
X113690000Y-80540000D03*
%TO.P,H1,74*%
X113690000Y-79740000D03*
%TO.P,H1,75*%
X113690000Y-78940000D03*
%TO.P,H1,76*%
X108990000Y-98140000D03*
%TO.P,H1,77*%
%TO.N,/B77_PIN*%
X108990000Y-97340000D03*
%TO.P,H1,78*%
%TO.N,/B78_PIN*%
X108990000Y-96540000D03*
%TO.P,H1,79*%
%TO.N,/B79_PIN*%
X108990000Y-95740000D03*
%TO.P,H1,80*%
%TO.N,/B80_PIN*%
X108990000Y-94940000D03*
%TO.P,H1,81*%
%TO.N,/B81_PIN*%
X108990000Y-94140000D03*
%TO.P,H1,82*%
%TO.N,/B82_PIN*%
X108990000Y-93340000D03*
%TO.P,H1,83*%
%TO.N,/B83_PIN*%
X108990000Y-92540000D03*
%TO.P,H1,84*%
%TO.N,/B84_PIN*%
X108990000Y-91740000D03*
%TO.P,H1,85*%
%TO.N,/B85_PIN*%
X108990000Y-90940000D03*
%TO.P,H1,86*%
%TO.N,/B86_PIN*%
X108990000Y-90140000D03*
%TO.P,H1,87*%
%TO.N,/B87_PIN*%
X108990000Y-89340000D03*
%TO.P,H1,88*%
%TO.N,/B88_PIN*%
X108990000Y-88540000D03*
%TO.P,H1,89*%
%TO.N,/B89_PIN*%
X108990000Y-87740000D03*
%TO.P,H1,90*%
%TO.N,/B90_PIN*%
X108990000Y-86940000D03*
%TO.P,H1,91*%
%TO.N,/B91_PIN*%
X108990000Y-86140000D03*
%TO.P,H1,92*%
%TO.N,/B92_PIN*%
X108990000Y-85340000D03*
%TO.P,H1,93*%
%TO.N,/B93_PIN*%
X108990000Y-84540000D03*
%TO.P,H1,94*%
%TO.N,/PROG_PIN*%
X108990000Y-83740000D03*
%TO.P,H1,95*%
%TO.N,GND*%
X108990000Y-82940000D03*
%TO.P,H1,96*%
X108990000Y-82140000D03*
%TO.P,H1,97*%
X108990000Y-81340000D03*
%TO.P,H1,98*%
X108990000Y-80540000D03*
%TO.P,H1,99*%
X108990000Y-79740000D03*
%TO.P,H1,100*%
X108990000Y-78940000D03*
D11*
%TO.P,H1,MH1*%
%TO.N,N/C*%
X162680000Y-100940000D03*
X110390000Y-100940000D03*
D12*
%TO.P,H1,MH2*%
X162680000Y-76140000D03*
X110390000Y-76140000D03*
%TD*%
D13*
%TO.N,/VBAT*%
X109020000Y-72750000D03*
X139424321Y-86746825D03*
X125250000Y-72760000D03*
%TO.N,GND*%
X111390000Y-78950000D03*
X138280000Y-94970000D03*
X152620000Y-101980000D03*
X159040000Y-94530000D03*
X114670000Y-68200000D03*
X163620000Y-98100000D03*
X135560000Y-92510000D03*
X143890000Y-70220000D03*
X138160000Y-88920000D03*
X151570000Y-78680000D03*
X155310000Y-70130000D03*
X159080000Y-101860000D03*
D14*
X137480000Y-65940000D03*
D13*
X125580000Y-79990000D03*
X132134341Y-81725659D03*
X161920000Y-73150000D03*
X161950000Y-78300000D03*
X112320000Y-98140000D03*
X130830000Y-88500000D03*
X163140000Y-65950000D03*
X127290000Y-79940000D03*
X157150000Y-78690000D03*
X119650000Y-68240000D03*
X118250000Y-73720000D03*
X133700000Y-89380000D03*
X137940000Y-87290000D03*
%TO.N,/+3.3*%
X132012220Y-91280000D03*
X131221110Y-91280000D03*
X132803332Y-91280000D03*
X130580000Y-75660000D03*
X139228056Y-90038056D03*
X122294784Y-91164500D03*
X130430000Y-91280000D03*
X141990000Y-87120000D03*
X149599858Y-78699858D03*
X126838056Y-75651944D03*
X124500000Y-77670000D03*
%TO.N,/SD_DAT1*%
X154013056Y-80023056D03*
X135981696Y-95502193D03*
%TO.N,/SD_DAT0*%
X135080000Y-95500000D03*
X152893056Y-80053056D03*
%TO.N,/SD_CLK*%
X141593556Y-94850000D03*
X151710000Y-82610000D03*
%TO.N,/SD_CMD*%
X150210000Y-83650000D03*
X142191944Y-93898056D03*
%TO.N,/SD_DAT3*%
X149160000Y-83600000D03*
X142140000Y-92735000D03*
%TO.N,/SD_DAT2*%
X141095000Y-92735000D03*
X148120000Y-83540000D03*
%TO.N,/MCU_BOOT0*%
X139176894Y-88958553D03*
X144180000Y-81210000D03*
%TO.N,/MCU_NRESET*%
X123310000Y-78905000D03*
X136246281Y-86791487D03*
%TO.N,/PROG_PIN*%
X110370000Y-83740000D03*
%TO.N,/QSPI_IO3*%
X120657698Y-94642167D03*
X123529304Y-96568500D03*
%TO.N,/QSPI_IO0*%
X126110000Y-95204500D03*
X123628952Y-93869000D03*
%TO.N,/SD_CD1*%
X145540000Y-97720000D03*
X155150000Y-80090000D03*
%TO.N,/B93_PIN*%
X115239500Y-80671684D03*
X110950000Y-84430000D03*
X135402713Y-87107287D03*
%TO.N,/B92_PIN*%
X110370000Y-85342500D03*
X115239500Y-81625729D03*
X135413072Y-88006730D03*
%TO.N,/B91_PIN*%
X115239500Y-82515444D03*
X111050000Y-86130000D03*
X134540874Y-88493771D03*
%TO.N,/B90_PIN*%
X110370000Y-86945000D03*
X115239500Y-83451530D03*
X133612903Y-88202197D03*
%TO.N,/B89_PIN*%
X130887178Y-87484909D03*
X111080000Y-87720000D03*
X116120000Y-84126030D03*
%TO.N,/B88_PIN*%
X117067665Y-84800530D03*
X110370000Y-88547500D03*
X130250000Y-86850000D03*
%TO.N,/B87_PIN*%
X111080000Y-89325000D03*
X127843056Y-85436944D03*
X117020000Y-85765500D03*
%TO.N,/B86_PIN*%
X110370000Y-90150000D03*
%TO.N,/B85_PIN*%
X111080000Y-90930000D03*
%TO.N,/B84_PIN*%
X110370000Y-91752500D03*
%TO.N,/B83_PIN*%
X111080000Y-92535000D03*
%TO.N,/B82_PIN*%
X110370000Y-93355000D03*
%TO.N,/B81_PIN*%
X111080000Y-94140000D03*
%TO.N,/B80_PIN*%
X110370000Y-94957500D03*
%TO.N,/B79_PIN*%
X111080000Y-95730000D03*
%TO.N,/B78_PIN*%
X110370000Y-96560000D03*
%TO.N,/B77_PIN*%
X111080000Y-97320000D03*
%TO.N,/B67_PIN*%
X123607472Y-92519500D03*
%TO.N,/B66_PIN*%
X124650000Y-93750000D03*
%TO.N,/B65_PIN*%
X125082242Y-97358017D03*
%TO.N,/B64_PIN*%
X124203804Y-97164500D03*
%TO.N,/B63_PIN*%
X122357821Y-97305500D03*
%TO.N,/B62_PIN*%
X131334707Y-95510000D03*
%TO.N,/B61_PIN*%
X132249804Y-95510000D03*
%TO.N,/B60_PIN*%
X133164901Y-95510000D03*
%TO.N,/B59_PIN*%
X134080000Y-95510000D03*
%TO.N,/B58_PIN*%
X134065500Y-96909693D03*
%TO.N,/B57_PIN*%
X134065500Y-97809020D03*
%TO.N,/B56_PIN*%
X134065500Y-98708347D03*
%TO.N,/B55_PIN*%
X134611675Y-99423048D03*
%TO.N,/B54_PIN*%
X127420000Y-101744500D03*
%TO.N,/B53_PIN*%
X135052286Y-102172287D03*
%TO.N,/B52_PIN*%
X135951583Y-102191532D03*
%TO.N,/A39_PIN*%
X137743389Y-97540000D03*
X164120000Y-78510000D03*
%TO.N,/A38_PIN*%
X163060000Y-78310000D03*
X138651944Y-98108056D03*
%TO.N,/A37_PIN*%
X138529470Y-96513968D03*
%TO.N,/A36_PIN*%
X140284500Y-97650658D03*
%TO.N,/A35_PIN*%
X140986583Y-98225500D03*
%TO.N,/A34_PIN*%
X147654039Y-97706000D03*
%TO.N,/A33_PIN*%
X148550000Y-96630000D03*
%TO.N,/A32_PIN*%
X147666221Y-96357000D03*
%TO.N,/A31_PIN*%
X148615487Y-95264229D03*
%TO.N,/A30_PIN*%
X147670000Y-94931895D03*
%TO.N,/A29_PIN*%
X148524110Y-93765606D03*
%TO.N,/A28_PIN*%
X147630000Y-93449056D03*
%TO.N,/A27_PIN*%
X148600000Y-92416106D03*
%TO.N,/A16_PIN*%
X164600000Y-90930000D03*
%TO.N,/A15_PIN*%
X164105230Y-90086196D03*
%TO.N,/A14_PIN*%
X164600000Y-89331665D03*
%TO.N,/A13_PIN*%
X164105230Y-88501830D03*
%TO.N,/A12_PIN*%
X164600000Y-87733332D03*
%TO.N,/A11_PIN*%
X164105230Y-86917464D03*
%TO.N,/A10_PIN*%
X164600000Y-86134999D03*
%TO.N,/A9_PIN*%
X164105230Y-85333098D03*
%TO.N,/A8_PIN*%
X164600000Y-84536666D03*
%TO.N,/A7_PIN*%
X164105230Y-83748732D03*
%TO.N,/A6_PIN*%
X164600000Y-82938333D03*
%TO.N,/A5_PIN*%
X164105230Y-82164366D03*
%TO.N,/A4_PIN*%
X164600000Y-81340000D03*
%TO.N,/A3_PIN*%
X164105230Y-80580000D03*
%TO.N,/A17_PIN*%
X164105230Y-91670562D03*
%TO.N,/A40_PIN*%
X136724500Y-96995406D03*
%TO.N,/A41_PIN*%
X135493889Y-98546623D03*
%TO.N,/A42_PIN*%
X135510884Y-99445965D03*
%TO.N,/B68_PIN*%
X129780000Y-92300000D03*
%TD*%
D15*
%TO.N,/VBAT*%
X139216825Y-86746825D02*
X125250000Y-72780000D01*
X125250000Y-72780000D02*
X125250000Y-72760000D01*
X109020000Y-72750000D02*
X109020000Y-72740000D01*
X125240000Y-72750000D02*
X109020000Y-72750000D01*
X125250000Y-72760000D02*
X125240000Y-72750000D01*
X139424321Y-86746825D02*
X139216825Y-86746825D01*
X109020000Y-72740000D02*
X109040000Y-72760000D01*
%TO.N,GND*%
X165980000Y-97340000D02*
X161280000Y-97340000D01*
X161920000Y-78300000D02*
X161280000Y-78940000D01*
X111420000Y-82940000D02*
X108990000Y-82940000D01*
X165980000Y-98140000D02*
X163660000Y-98140000D01*
X113690000Y-83740000D02*
X113690000Y-82940000D01*
X111390000Y-78940000D02*
X113690000Y-78940000D01*
X165980000Y-94140000D02*
X161280000Y-94140000D01*
X113690000Y-82940000D02*
X111420000Y-82940000D01*
X108990000Y-80540000D02*
X113690000Y-80540000D01*
X132285659Y-81725659D02*
X132940000Y-82380000D01*
X111390000Y-78940000D02*
X111390000Y-82910000D01*
X130830000Y-88500000D02*
X130840000Y-88500000D01*
X130840000Y-88500000D02*
X131700000Y-89360000D01*
X108990000Y-79740000D02*
X113690000Y-79740000D01*
X108990000Y-82140000D02*
X113690000Y-82140000D01*
X125580000Y-79990000D02*
X127240000Y-79990000D01*
X133680000Y-89360000D02*
X133700000Y-89380000D01*
X165980000Y-92540000D02*
X163620000Y-92540000D01*
X161280000Y-94940000D02*
X165980000Y-94940000D01*
X161280000Y-93340000D02*
X165980000Y-93340000D01*
X132134341Y-81725659D02*
X132285659Y-81725659D01*
X137890000Y-87290000D02*
X137940000Y-87290000D01*
X112320000Y-98140000D02*
X111290000Y-98140000D01*
X163620000Y-92540000D02*
X163620000Y-98100000D01*
X111390000Y-82910000D02*
X111420000Y-82940000D01*
X127240000Y-79990000D02*
X127290000Y-79940000D01*
X111290000Y-98140000D02*
X108990000Y-98140000D01*
X131700000Y-89360000D02*
X133680000Y-89360000D01*
X163620000Y-98100000D02*
X163660000Y-98140000D01*
X165980000Y-95740000D02*
X161280000Y-95740000D01*
X163620000Y-92540000D02*
X161280000Y-92540000D01*
X138160000Y-87510000D02*
X137940000Y-87290000D01*
X112320000Y-98140000D02*
X113690000Y-98140000D01*
X163660000Y-98140000D02*
X161280000Y-98140000D01*
X161950000Y-78300000D02*
X161920000Y-78300000D01*
X108990000Y-78940000D02*
X111390000Y-78940000D01*
X138160000Y-88920000D02*
X138160000Y-87510000D01*
X132134341Y-81725659D02*
X132325659Y-81725659D01*
X113690000Y-81340000D02*
X108990000Y-81340000D01*
X161280000Y-96540000D02*
X165980000Y-96540000D01*
X132325659Y-81725659D02*
X137890000Y-87290000D01*
D16*
%TO.N,/+3.3*%
X165980000Y-79740000D02*
X165980000Y-78940000D01*
X151019716Y-77320000D02*
X164360000Y-77320000D01*
D15*
X149599858Y-78699858D02*
X149599858Y-78710142D01*
X146580000Y-75680000D02*
X149599858Y-78699858D01*
X130580000Y-75660000D02*
X130600000Y-75680000D01*
D16*
X140005241Y-89260871D02*
X140005241Y-89254759D01*
X149599858Y-78699858D02*
X150979716Y-77320000D01*
X164360000Y-77320000D02*
X165980000Y-78940000D01*
X140005241Y-89254759D02*
X141990000Y-87270000D01*
X139228056Y-90038056D02*
X137996112Y-91270000D01*
X141990000Y-87270000D02*
X141990000Y-86320000D01*
X137996112Y-91270000D02*
X122400284Y-91270000D01*
D15*
X130600000Y-75680000D02*
X146580000Y-75680000D01*
D16*
X122400284Y-91270000D02*
X122294784Y-91164500D01*
D15*
X126518056Y-75651944D02*
X124500000Y-77670000D01*
D16*
X141990000Y-86320000D02*
X149599858Y-78710142D01*
D15*
X126838056Y-75651944D02*
X126518056Y-75651944D01*
D16*
X150979716Y-77320000D02*
X151300000Y-77320000D01*
X139228056Y-90038056D02*
X140005241Y-89260871D01*
D15*
%TO.N,/SD_DAT1*%
X146540000Y-83970000D02*
X149500000Y-81010000D01*
X135981696Y-95502193D02*
X135981696Y-95068304D01*
X135981696Y-95068304D02*
X146540000Y-84510000D01*
X149500000Y-81010000D02*
X153026112Y-81010000D01*
X146540000Y-84510000D02*
X146540000Y-83970000D01*
X153026112Y-81010000D02*
X154013056Y-80023056D01*
%TO.N,/SD_DAT0*%
X152576112Y-80370000D02*
X152893056Y-80053056D01*
X149470000Y-80370000D02*
X152576112Y-80370000D01*
X135080000Y-95250000D02*
X145890000Y-84440000D01*
X145890000Y-84440000D02*
X145890000Y-83950000D01*
X145890000Y-83950000D02*
X149470000Y-80370000D01*
X135080000Y-95500000D02*
X135080000Y-95250000D01*
%TO.N,/SD_CLK*%
X151710000Y-85410000D02*
X142270000Y-94850000D01*
X151710000Y-82610000D02*
X151710000Y-85410000D01*
X142270000Y-94850000D02*
X141593556Y-94850000D01*
%TO.N,/SD_CMD*%
X150230000Y-83670000D02*
X150210000Y-83650000D01*
X142191944Y-93898056D02*
X150230000Y-85860000D01*
X142268056Y-93898056D02*
X142191944Y-93898056D01*
X150230000Y-85860000D02*
X150230000Y-83670000D01*
%TO.N,/SD_DAT3*%
X149160000Y-85715000D02*
X149160000Y-83600000D01*
X142140000Y-92735000D02*
X149160000Y-85715000D01*
%TO.N,/SD_DAT2*%
X141095000Y-92735000D02*
X148150000Y-85680000D01*
X148150000Y-83570000D02*
X148120000Y-83540000D01*
X148150000Y-85680000D02*
X148150000Y-83570000D01*
%TO.N,/MCU_BOOT0*%
X141230000Y-85760000D02*
X144180000Y-82810000D01*
X139176894Y-88958553D02*
X139461447Y-88958553D01*
X141230000Y-87190000D02*
X141230000Y-85760000D01*
X139461447Y-88958553D02*
X141230000Y-87190000D01*
X144180000Y-82810000D02*
X144180000Y-81210000D01*
%TO.N,/MCU_NRESET*%
X123310000Y-79390000D02*
X125540000Y-81620000D01*
X135887081Y-86432287D02*
X136246281Y-86791487D01*
X125540000Y-81620000D02*
X130850000Y-81620000D01*
X135662287Y-86432287D02*
X135887081Y-86432287D01*
X123310000Y-78905000D02*
X123310000Y-79390000D01*
X130850000Y-81620000D02*
X135662287Y-86432287D01*
%TO.N,/PROG_PIN*%
X110370000Y-83740000D02*
X108990000Y-83740000D01*
%TO.N,/QSPI_IO3*%
X120657698Y-94642167D02*
X122584031Y-96568500D01*
X122584031Y-96568500D02*
X123529304Y-96568500D01*
%TO.N,/QSPI_IO0*%
X123628952Y-93869000D02*
X123629000Y-93869000D01*
X124964500Y-95204500D02*
X126110000Y-95204500D01*
X123629000Y-93869000D02*
X124964500Y-95204500D01*
%TO.N,/SD_CD1*%
X155150000Y-83340000D02*
X155150000Y-80090000D01*
X145640000Y-97620000D02*
X145640000Y-92850000D01*
X145540000Y-97720000D02*
X145640000Y-97620000D01*
X145640000Y-92850000D02*
X155150000Y-83340000D01*
%TO.N,/B93_PIN*%
X130365426Y-82070000D02*
X117010000Y-82070000D01*
X110950000Y-84430000D02*
X110850000Y-84530000D01*
X135402713Y-87107287D02*
X130365426Y-82070000D01*
X117010000Y-82070000D02*
X115611684Y-80671684D01*
X115611684Y-80671684D02*
X115239500Y-80671684D01*
X109000000Y-84530000D02*
X108990000Y-84540000D01*
X110850000Y-84530000D02*
X109000000Y-84530000D01*
%TO.N,/B92_PIN*%
X109010000Y-85320000D02*
X108990000Y-85340000D01*
X115625729Y-81625729D02*
X115238339Y-81625729D01*
X129860831Y-82520000D02*
X116520000Y-82520000D01*
X135347561Y-88006730D02*
X129860831Y-82520000D01*
X110360000Y-85320000D02*
X109010000Y-85320000D01*
X116520000Y-82520000D02*
X115625729Y-81625729D01*
X135413072Y-88006730D02*
X135347561Y-88006730D01*
%TO.N,/B91_PIN*%
X111050000Y-86130000D02*
X111040000Y-86140000D01*
X129354595Y-82990000D02*
X115950000Y-82990000D01*
X111040000Y-86140000D02*
X108990000Y-86140000D01*
X115475444Y-82515444D02*
X115239500Y-82515444D01*
X115950000Y-82990000D02*
X115475444Y-82515444D01*
X134540874Y-88493771D02*
X134540874Y-88176279D01*
X134540874Y-88176279D02*
X129354595Y-82990000D01*
%TO.N,/B90_PIN*%
X109000000Y-86930000D02*
X108990000Y-86940000D01*
X110350000Y-86930000D02*
X109000000Y-86930000D01*
X133612903Y-88162903D02*
X128901530Y-83451530D01*
X133612903Y-88202197D02*
X133612903Y-88162903D01*
X128901530Y-83451530D02*
X115239500Y-83451530D01*
%TO.N,/B89_PIN*%
X116344500Y-83901530D02*
X128341530Y-83901530D01*
X111060000Y-87740000D02*
X108990000Y-87740000D01*
X130925000Y-86485000D02*
X130925000Y-87447087D01*
X128341530Y-83901530D02*
X130925000Y-86485000D01*
X130925000Y-87447087D02*
X130887178Y-87484909D01*
X116120000Y-84126030D02*
X116344500Y-83901530D01*
X111080000Y-87720000D02*
X111060000Y-87740000D01*
%TO.N,/B88_PIN*%
X109000000Y-88530000D02*
X108990000Y-88540000D01*
X117516665Y-84351530D02*
X127711530Y-84351530D01*
X110350000Y-88530000D02*
X109000000Y-88530000D01*
X117067665Y-84800530D02*
X117516665Y-84351530D01*
X127711530Y-84351530D02*
X130210000Y-86850000D01*
X130210000Y-86850000D02*
X130250000Y-86850000D01*
%TO.N,/B87_PIN*%
X117345500Y-85440000D02*
X117020000Y-85765500D01*
X111080000Y-89325000D02*
X111065000Y-89340000D01*
X127840000Y-85440000D02*
X117345500Y-85440000D01*
X111065000Y-89340000D02*
X108990000Y-89340000D01*
X127843056Y-85436944D02*
X127840000Y-85440000D01*
%TO.N,/B86_PIN*%
X109000000Y-90130000D02*
X108990000Y-90140000D01*
X110360000Y-90130000D02*
X109000000Y-90130000D01*
%TO.N,/B85_PIN*%
X111070000Y-90940000D02*
X108990000Y-90940000D01*
X111080000Y-90930000D02*
X111070000Y-90940000D01*
%TO.N,/B84_PIN*%
X109000000Y-91730000D02*
X108990000Y-91740000D01*
X110360000Y-91730000D02*
X109000000Y-91730000D01*
%TO.N,/B83_PIN*%
X111080000Y-92535000D02*
X111075000Y-92540000D01*
X111075000Y-92540000D02*
X108990000Y-92540000D01*
%TO.N,/B82_PIN*%
X109000000Y-93330000D02*
X108990000Y-93340000D01*
X110360000Y-93330000D02*
X109000000Y-93330000D01*
%TO.N,/B81_PIN*%
X111080000Y-94140000D02*
X108990000Y-94140000D01*
%TO.N,/B80_PIN*%
X109000000Y-94930000D02*
X108990000Y-94940000D01*
X110400000Y-94930000D02*
X109000000Y-94930000D01*
%TO.N,/B79_PIN*%
X111070000Y-95740000D02*
X108990000Y-95740000D01*
X111080000Y-95730000D02*
X111070000Y-95740000D01*
%TO.N,/B78_PIN*%
X109010000Y-96560000D02*
X108990000Y-96540000D01*
X110420000Y-96560000D02*
X109010000Y-96560000D01*
%TO.N,/B77_PIN*%
X108990000Y-97340000D02*
X111060000Y-97340000D01*
%TO.N,/B67_PIN*%
X114740000Y-85340000D02*
X113690000Y-85340000D01*
X123607472Y-92519500D02*
X121919500Y-92519500D01*
X121919500Y-92519500D02*
X114740000Y-85340000D01*
%TO.N,/B66_PIN*%
X124464547Y-93750000D02*
X123909047Y-93194500D01*
X114750000Y-86140000D02*
X113690000Y-86140000D01*
X121804500Y-93194500D02*
X114750000Y-86140000D01*
X124650000Y-93750000D02*
X124464547Y-93750000D01*
X123909047Y-93194500D02*
X121804500Y-93194500D01*
%TO.N,/B65_PIN*%
X123354000Y-94544000D02*
X122425145Y-94544000D01*
X114821145Y-86940000D02*
X113690000Y-86940000D01*
X124910000Y-96100000D02*
X123354000Y-94544000D01*
X124910000Y-97185775D02*
X124910000Y-96100000D01*
X125082242Y-97358017D02*
X124910000Y-97185775D01*
X122425145Y-94544000D02*
X114821145Y-86940000D01*
%TO.N,/B64_PIN*%
X123015000Y-95135000D02*
X122135000Y-95135000D01*
X124203804Y-97164500D02*
X124203804Y-96288405D01*
X114740000Y-87740000D02*
X113690000Y-87740000D01*
X123808899Y-95893500D02*
X123773500Y-95893500D01*
X124203804Y-96288405D02*
X123808899Y-95893500D01*
X123773500Y-95893500D02*
X123015000Y-95135000D01*
X122135000Y-95135000D02*
X114740000Y-87740000D01*
%TO.N,/B63_PIN*%
X114730000Y-88540000D02*
X113690000Y-88540000D01*
X122357821Y-97305500D02*
X122325500Y-97305500D01*
X119983198Y-94963198D02*
X119983198Y-93793198D01*
X122325500Y-97305500D02*
X119983198Y-94963198D01*
X119983198Y-93793198D02*
X114730000Y-88540000D01*
%TO.N,/B62_PIN*%
X119533198Y-94143198D02*
X114730000Y-89340000D01*
X121682821Y-97572821D02*
X119533198Y-95423198D01*
X131334707Y-95510000D02*
X128924707Y-97920000D01*
X125065238Y-98310000D02*
X122407726Y-98310000D01*
X114730000Y-89340000D02*
X113690000Y-89340000D01*
X125455238Y-97920000D02*
X125065238Y-98310000D01*
X122407726Y-98310000D02*
X121682821Y-97585095D01*
X121682821Y-97585095D02*
X121682821Y-97572821D01*
X119533198Y-95423198D02*
X119533198Y-94143198D01*
X128924707Y-97920000D02*
X125455238Y-97920000D01*
%TO.N,/B61_PIN*%
X129429302Y-98370000D02*
X125641634Y-98370000D01*
X132231947Y-95567355D02*
X129429302Y-98370000D01*
X122060000Y-98760000D02*
X119065000Y-95765000D01*
X132231947Y-95510000D02*
X132231947Y-95567355D01*
X125641634Y-98370000D02*
X125251634Y-98760000D01*
X119065000Y-94578604D02*
X114626396Y-90140000D01*
X125251634Y-98760000D02*
X122060000Y-98760000D01*
X119065000Y-95765000D02*
X119065000Y-94578604D01*
X114626396Y-90140000D02*
X113690000Y-90140000D01*
%TO.N,/B60_PIN*%
X133125748Y-95588651D02*
X129894399Y-98820000D01*
X129894399Y-98820000D02*
X125828030Y-98820000D01*
X133125748Y-95510000D02*
X133125748Y-95588651D01*
X125438030Y-99210000D02*
X121760000Y-99210000D01*
X114740000Y-90940000D02*
X113690000Y-90940000D01*
X121760000Y-99210000D02*
X118615000Y-96065000D01*
X118615000Y-94815000D02*
X114740000Y-90940000D01*
X118615000Y-96065000D02*
X118615000Y-94815000D01*
X125828030Y-98820000D02*
X125438030Y-99210000D01*
%TO.N,/B59_PIN*%
X118165000Y-95175000D02*
X114730000Y-91740000D01*
X121540000Y-99660000D02*
X118165000Y-96285000D01*
X130370000Y-99270000D02*
X126014426Y-99270000D01*
X118165000Y-96285000D02*
X118165000Y-95175000D01*
X134080000Y-95560000D02*
X130370000Y-99270000D01*
X126014426Y-99270000D02*
X125624426Y-99660000D01*
X134080000Y-95510000D02*
X134080000Y-95560000D01*
X125624426Y-99660000D02*
X121540000Y-99660000D01*
X114730000Y-91740000D02*
X113690000Y-91740000D01*
%TO.N,/B58_PIN*%
X117715000Y-95505000D02*
X114750000Y-92540000D01*
X125810822Y-100110000D02*
X121350000Y-100110000D01*
X121350000Y-100110000D02*
X117715000Y-96475000D01*
X133570307Y-96909693D02*
X130760000Y-99720000D01*
X126200822Y-99720000D02*
X125810822Y-100110000D01*
X114750000Y-92540000D02*
X113690000Y-92540000D01*
X130760000Y-99720000D02*
X126200822Y-99720000D01*
X134084368Y-96909693D02*
X133570307Y-96909693D01*
X117715000Y-96475000D02*
X117715000Y-95505000D01*
%TO.N,/B57_PIN*%
X126387218Y-100170000D02*
X125997218Y-100560000D01*
X114720000Y-93340000D02*
X113690000Y-93340000D01*
X121163604Y-100560000D02*
X117265000Y-96661396D01*
X134059868Y-97808862D02*
X133561138Y-97808862D01*
X133561138Y-97808862D02*
X131200000Y-100170000D01*
X117265000Y-95885000D02*
X114720000Y-93340000D01*
X125997218Y-100560000D02*
X121163604Y-100560000D01*
X117265000Y-96661396D02*
X117265000Y-95885000D01*
X131200000Y-100170000D02*
X126387218Y-100170000D01*
%TO.N,/B56_PIN*%
X116815000Y-96215000D02*
X114740000Y-94140000D01*
X116815000Y-96965000D02*
X116815000Y-96215000D01*
X134065500Y-98708347D02*
X133681653Y-98708347D01*
X114740000Y-94140000D02*
X113690000Y-94140000D01*
X126183614Y-101010000D02*
X120860000Y-101010000D01*
X133681653Y-98708347D02*
X131770000Y-100620000D01*
X120860000Y-101010000D02*
X116815000Y-96965000D01*
X131770000Y-100620000D02*
X126573614Y-100620000D01*
X126573614Y-100620000D02*
X126183614Y-101010000D01*
%TO.N,/B55_PIN*%
X116365000Y-96555000D02*
X114750000Y-94940000D01*
X126760010Y-101070000D02*
X126370010Y-101460000D01*
X134611675Y-99423048D02*
X133846952Y-99423048D01*
X126370010Y-101460000D02*
X120630000Y-101460000D01*
X116365000Y-97195000D02*
X116365000Y-96555000D01*
X132200000Y-101070000D02*
X126760010Y-101070000D01*
X114750000Y-94940000D02*
X113690000Y-94940000D01*
X133846952Y-99423048D02*
X132200000Y-101070000D01*
X120630000Y-101460000D02*
X116365000Y-97195000D01*
%TO.N,/B54_PIN*%
X115915000Y-96925000D02*
X114730000Y-95740000D01*
X120380000Y-101910000D02*
X115915000Y-97445000D01*
X115915000Y-97445000D02*
X115915000Y-96925000D01*
X114730000Y-95740000D02*
X113690000Y-95740000D01*
X127254500Y-101910000D02*
X120380000Y-101910000D01*
X127420000Y-101744500D02*
X127254500Y-101910000D01*
%TO.N,/B53_PIN*%
X120253104Y-102419500D02*
X115465000Y-97631396D01*
X135052286Y-102172287D02*
X134805073Y-102419500D01*
X134805073Y-102419500D02*
X120253104Y-102419500D01*
X115465000Y-97265000D02*
X114740000Y-96540000D01*
X114740000Y-96540000D02*
X113690000Y-96540000D01*
X115465000Y-97631396D02*
X115465000Y-97265000D01*
%TO.N,/B52_PIN*%
X114730000Y-97340000D02*
X113690000Y-97340000D01*
X115015000Y-97625000D02*
X114730000Y-97340000D01*
X115015000Y-97885000D02*
X115015000Y-97625000D01*
X135309668Y-102869500D02*
X119999500Y-102869500D01*
X135727286Y-102415829D02*
X135727286Y-102451882D01*
X135727286Y-102451882D02*
X135309668Y-102869500D01*
X135951583Y-102191532D02*
X135727286Y-102415829D01*
X119999500Y-102869500D02*
X115015000Y-97885000D01*
%TO.N,/A39_PIN*%
X162530000Y-89340000D02*
X161280000Y-89340000D01*
X137976944Y-97773555D02*
X137976944Y-98766944D01*
X137743389Y-97540000D02*
X137976944Y-97773555D01*
X155600000Y-94321980D02*
X159055000Y-90866980D01*
X137976944Y-98766944D02*
X139470000Y-100260000D01*
X163410000Y-88460000D02*
X162530000Y-89340000D01*
X159055000Y-90866980D02*
X159055000Y-90465000D01*
X160180000Y-89340000D02*
X161280000Y-89340000D01*
X163410000Y-79220000D02*
X163410000Y-88460000D01*
X164120000Y-78510000D02*
X163410000Y-79220000D01*
X149665584Y-100260000D02*
X155600000Y-94325584D01*
X155600000Y-94325584D02*
X155600000Y-94321980D01*
X159055000Y-90465000D02*
X160180000Y-89340000D01*
X139470000Y-100260000D02*
X149665584Y-100260000D01*
%TO.N,/A38_PIN*%
X160160000Y-88540000D02*
X161280000Y-88540000D01*
X149479188Y-99810000D02*
X155150000Y-94139188D01*
X163060000Y-78310000D02*
X162880000Y-78490000D01*
X158605000Y-90095000D02*
X160160000Y-88540000D01*
X155150000Y-94135584D02*
X158605000Y-90680584D01*
X162880000Y-78490000D02*
X162880000Y-88190000D01*
X162880000Y-88190000D02*
X162530000Y-88540000D01*
X158605000Y-90680584D02*
X158605000Y-90095000D01*
X138651944Y-98108056D02*
X138670000Y-98126112D01*
X162530000Y-88540000D02*
X161280000Y-88540000D01*
X155150000Y-94139188D02*
X155150000Y-94135584D01*
X138670000Y-98760000D02*
X139720000Y-99810000D01*
X138670000Y-98126112D02*
X138670000Y-98760000D01*
X139720000Y-99810000D02*
X149479188Y-99810000D01*
%TO.N,/A37_PIN*%
X138529470Y-96513968D02*
X138529470Y-96804875D01*
X149292792Y-99360000D02*
X154700000Y-93952792D01*
X158155000Y-89765000D02*
X160180000Y-87740000D01*
X154700000Y-93949188D02*
X158155000Y-90494188D01*
X140050000Y-99360000D02*
X149292792Y-99360000D01*
X158155000Y-90494188D02*
X158155000Y-89765000D01*
X160180000Y-87740000D02*
X161280000Y-87740000D01*
X139326944Y-97602349D02*
X139326944Y-98636944D01*
X154700000Y-93952792D02*
X154700000Y-93949188D01*
X139326944Y-98636944D02*
X140050000Y-99360000D01*
X138529470Y-96804875D02*
X139326944Y-97602349D01*
%TO.N,/A36_PIN*%
X157705000Y-89405000D02*
X160170000Y-86940000D01*
X154250000Y-93762792D02*
X157705000Y-90307792D01*
X140660000Y-98910000D02*
X149106396Y-98910000D01*
X140311583Y-97677741D02*
X140311583Y-98561583D01*
X149106396Y-98910000D02*
X154250000Y-93766396D01*
X154250000Y-93766396D02*
X154250000Y-93762792D01*
X140284500Y-97650658D02*
X140311583Y-97677741D01*
X160170000Y-86940000D02*
X161280000Y-86940000D01*
X140311583Y-98561583D02*
X140660000Y-98910000D01*
X157705000Y-90307792D02*
X157705000Y-89405000D01*
%TO.N,/A35_PIN*%
X148920000Y-98460000D02*
X153800000Y-93580000D01*
X141221083Y-98460000D02*
X148920000Y-98460000D01*
X140986583Y-98225500D02*
X141221083Y-98460000D01*
X157255000Y-90121396D02*
X157255000Y-89065000D01*
X157255000Y-89065000D02*
X160180000Y-86140000D01*
X160180000Y-86140000D02*
X161280000Y-86140000D01*
X153800000Y-93576396D02*
X157255000Y-90121396D01*
X153800000Y-93580000D02*
X153800000Y-93576396D01*
%TO.N,/A34_PIN*%
X147654039Y-97706000D02*
X149034000Y-97706000D01*
X149034000Y-97706000D02*
X156805000Y-89935000D01*
X156805000Y-89935000D02*
X156805000Y-88725000D01*
X160190000Y-85340000D02*
X161280000Y-85340000D01*
X156805000Y-88725000D02*
X160190000Y-85340000D01*
%TO.N,/A33_PIN*%
X148550000Y-96630000D02*
X149473604Y-96630000D01*
X149473604Y-96630000D02*
X156355000Y-89748604D01*
X160180000Y-84540000D02*
X161280000Y-84540000D01*
X156355000Y-88365000D02*
X160180000Y-84540000D01*
X156355000Y-89748604D02*
X156355000Y-88365000D01*
%TO.N,/A32_PIN*%
X147672816Y-96350405D02*
X147875000Y-96350405D01*
X155905000Y-89562208D02*
X155905000Y-88015000D01*
X148270405Y-95955000D02*
X149512208Y-95955000D01*
X155905000Y-88015000D02*
X160180000Y-83740000D01*
X149512208Y-95955000D02*
X155905000Y-89562208D01*
X147875000Y-96350405D02*
X148270405Y-95955000D01*
X160180000Y-83740000D02*
X161280000Y-83740000D01*
X147666221Y-96357000D02*
X147672816Y-96350405D01*
%TO.N,/A31_PIN*%
X149566583Y-95264229D02*
X155455000Y-89375812D01*
X148615487Y-95264229D02*
X149566583Y-95264229D01*
X160180000Y-82940000D02*
X161280000Y-82940000D01*
X155455000Y-87665000D02*
X160180000Y-82940000D01*
X155455000Y-89375812D02*
X155455000Y-87665000D01*
%TO.N,/A30_PIN*%
X149605187Y-94589229D02*
X155005000Y-89189416D01*
X147670000Y-94931895D02*
X148012666Y-94589229D01*
X155005000Y-87315000D02*
X160180000Y-82140000D01*
X155005000Y-89189416D02*
X155005000Y-87315000D01*
X148012666Y-94589229D02*
X149605187Y-94589229D01*
X160180000Y-82140000D02*
X161280000Y-82140000D01*
%TO.N,/A29_PIN*%
X154555000Y-86965000D02*
X160180000Y-81340000D01*
X148524110Y-93765606D02*
X149792414Y-93765606D01*
X149792414Y-93765606D02*
X154555000Y-89003020D01*
X160180000Y-81340000D02*
X161280000Y-81340000D01*
X154555000Y-89003020D02*
X154555000Y-86965000D01*
%TO.N,/A28_PIN*%
X154105000Y-88816624D02*
X154105000Y-86615000D01*
X147988450Y-93090606D02*
X149831018Y-93090606D01*
X154105000Y-86615000D02*
X160180000Y-80540000D01*
X160180000Y-80540000D02*
X161280000Y-80540000D01*
X147630000Y-93449056D02*
X147988450Y-93090606D01*
X149831018Y-93090606D02*
X154105000Y-88816624D01*
%TO.N,/A27_PIN*%
X148600000Y-92416106D02*
X149869122Y-92416106D01*
X153655000Y-86265000D02*
X160180000Y-79740000D01*
X149869122Y-92416106D02*
X153655000Y-88630228D01*
X153655000Y-88630228D02*
X153655000Y-86265000D01*
X160180000Y-79740000D02*
X161280000Y-79740000D01*
%TO.N,/A16_PIN*%
X165980000Y-90940000D02*
X164610000Y-90940000D01*
X164610000Y-90940000D02*
X164600000Y-90930000D01*
%TO.N,/A15_PIN*%
X165980000Y-90140000D02*
X164159034Y-90140000D01*
X164159034Y-90140000D02*
X164105230Y-90086196D01*
%TO.N,/A14_PIN*%
X165980000Y-89340000D02*
X164608335Y-89340000D01*
X164608335Y-89340000D02*
X164600000Y-89331665D01*
%TO.N,/A13_PIN*%
X164143400Y-88540000D02*
X164105230Y-88501830D01*
X165980000Y-88540000D02*
X164143400Y-88540000D01*
%TO.N,/A12_PIN*%
X164606668Y-87740000D02*
X164600000Y-87733332D01*
X165980000Y-87740000D02*
X164606668Y-87740000D01*
%TO.N,/A11_PIN*%
X165980000Y-86940000D02*
X164127766Y-86940000D01*
X164127766Y-86940000D02*
X164105230Y-86917464D01*
%TO.N,/A10_PIN*%
X164605001Y-86140000D02*
X164600000Y-86134999D01*
X165980000Y-86140000D02*
X164605001Y-86140000D01*
%TO.N,/A9_PIN*%
X165980000Y-85340000D02*
X164112132Y-85340000D01*
X164112132Y-85340000D02*
X164105230Y-85333098D01*
%TO.N,/A8_PIN*%
X164603334Y-84540000D02*
X164600000Y-84536666D01*
X165980000Y-84540000D02*
X164603334Y-84540000D01*
%TO.N,/A7_PIN*%
X164113962Y-83740000D02*
X164105230Y-83748732D01*
X165980000Y-83740000D02*
X164113962Y-83740000D01*
%TO.N,/A6_PIN*%
X164601667Y-82940000D02*
X164600000Y-82938333D01*
X165980000Y-82940000D02*
X164601667Y-82940000D01*
%TO.N,/A5_PIN*%
X164129596Y-82140000D02*
X164105230Y-82164366D01*
X165980000Y-82140000D02*
X164129596Y-82140000D01*
%TO.N,/A4_PIN*%
X165980000Y-81340000D02*
X164600000Y-81340000D01*
%TO.N,/A3_PIN*%
X164145230Y-80540000D02*
X164105230Y-80580000D01*
X165980000Y-80540000D02*
X164145230Y-80540000D01*
%TO.N,/A17_PIN*%
X164174668Y-91740000D02*
X165980000Y-91740000D01*
X164105230Y-91670562D02*
X164174668Y-91740000D01*
%TO.N,/A40_PIN*%
X136724500Y-96995406D02*
X136740000Y-97010906D01*
X136740000Y-97010906D02*
X136740000Y-98230000D01*
X159505000Y-91053376D02*
X159505000Y-90795000D01*
X160160000Y-90140000D02*
X161280000Y-90140000D01*
X149851980Y-100710000D02*
X156050000Y-94511980D01*
X156050000Y-94511980D02*
X156050000Y-94508376D01*
X136740000Y-98230000D02*
X139220000Y-100710000D01*
X159505000Y-90795000D02*
X160160000Y-90140000D01*
X156050000Y-94508376D02*
X159505000Y-91053376D01*
X139220000Y-100710000D02*
X149851980Y-100710000D01*
%TO.N,/A41_PIN*%
X156500000Y-94698376D02*
X156500000Y-94694772D01*
X135493889Y-98546623D02*
X135940227Y-98546623D01*
X138553604Y-101160000D02*
X150038376Y-101160000D01*
X156500000Y-94694772D02*
X159955000Y-91239772D01*
X150038376Y-101160000D02*
X156500000Y-94698376D01*
X160180000Y-90940000D02*
X161280000Y-90940000D01*
X159955000Y-91165000D02*
X160180000Y-90940000D01*
X135940227Y-98546623D02*
X138553604Y-101160000D01*
X159955000Y-91239772D02*
X159955000Y-91165000D01*
%TO.N,/A42_PIN*%
X160091168Y-91740000D02*
X161280000Y-91740000D01*
X135510884Y-99445965D02*
X136203173Y-99445965D01*
X156950000Y-94884772D02*
X156950000Y-94881168D01*
X156950000Y-94881168D02*
X160091168Y-91740000D01*
X150224772Y-101610000D02*
X156950000Y-94884772D01*
X136203173Y-99445965D02*
X138367208Y-101610000D01*
X138367208Y-101610000D02*
X150224772Y-101610000D01*
%TO.N,/B68_PIN*%
X114716396Y-84540000D02*
X113690000Y-84540000D01*
X129780000Y-92300000D02*
X129325000Y-91845000D01*
X129325000Y-91845000D02*
X122021396Y-91845000D01*
X122021396Y-91845000D02*
X114716396Y-84540000D01*
%TD*%
%TA.AperFunction,Conductor*%
%TO.N,GND*%
G36*
X168385537Y-63460462D02*
G01*
X168440075Y-63515000D01*
X168460037Y-63589463D01*
X168469962Y-103280987D01*
X168450018Y-103355492D01*
X168395494Y-103410043D01*
X168320999Y-103430024D01*
X168320986Y-103430024D01*
X135705371Y-103435286D01*
X135630868Y-103415336D01*
X135576321Y-103360807D01*
X135556347Y-103286310D01*
X135576297Y-103211807D01*
X135599985Y-103180930D01*
X135658196Y-103122720D01*
X135658196Y-103122719D01*
X135895242Y-102885672D01*
X135962037Y-102847109D01*
X136000601Y-102842032D01*
X136030567Y-102842032D01*
X136030568Y-102842032D01*
X136183948Y-102804228D01*
X136323823Y-102730815D01*
X136442066Y-102626062D01*
X136531803Y-102496055D01*
X136587820Y-102348350D01*
X136606861Y-102191532D01*
X136587820Y-102034714D01*
X136587819Y-102034712D01*
X136587819Y-102034710D01*
X136531804Y-101887010D01*
X136490410Y-101827040D01*
X136442066Y-101757002D01*
X136323823Y-101652249D01*
X136323821Y-101652248D01*
X136323820Y-101652247D01*
X136183950Y-101578836D01*
X136081694Y-101553633D01*
X136030568Y-101541032D01*
X135872598Y-101541032D01*
X135797300Y-101559591D01*
X135719217Y-101578836D01*
X135586830Y-101648319D01*
X135511587Y-101665265D01*
X135437951Y-101642320D01*
X135427932Y-101634792D01*
X135424526Y-101633004D01*
X135363640Y-101601048D01*
X135284653Y-101559591D01*
X135182397Y-101534388D01*
X135131271Y-101521787D01*
X134973301Y-101521787D01*
X134934955Y-101531237D01*
X134819918Y-101559591D01*
X134680048Y-101633002D01*
X134561801Y-101737759D01*
X134475203Y-101863219D01*
X134472066Y-101867764D01*
X134460660Y-101897838D01*
X134415579Y-101960416D01*
X134345246Y-101992070D01*
X134321344Y-101994000D01*
X128213169Y-101994000D01*
X128138669Y-101974038D01*
X128084131Y-101919500D01*
X128064169Y-101845000D01*
X128065254Y-101827054D01*
X128075278Y-101744500D01*
X128065316Y-101662457D01*
X128076153Y-101586097D01*
X128123720Y-101525383D01*
X128195270Y-101496586D01*
X128213230Y-101495500D01*
X132267392Y-101495500D01*
X132267393Y-101495500D01*
X132288489Y-101488644D01*
X132311217Y-101483188D01*
X132333126Y-101479719D01*
X132352888Y-101469648D01*
X132374488Y-101460701D01*
X132395581Y-101453849D01*
X132413527Y-101440809D01*
X132433453Y-101428598D01*
X132453220Y-101418528D01*
X132548528Y-101323220D01*
X132548528Y-101323219D01*
X133965268Y-99906479D01*
X134032061Y-99867917D01*
X134109189Y-99867917D01*
X134169428Y-99900310D01*
X134239434Y-99962331D01*
X134239435Y-99962331D01*
X134379307Y-100035743D01*
X134379309Y-100035743D01*
X134379310Y-100035744D01*
X134532690Y-100073548D01*
X134532691Y-100073548D01*
X134690659Y-100073548D01*
X134690660Y-100073548D01*
X134844040Y-100035744D01*
X134973770Y-99967655D01*
X135049011Y-99950709D01*
X135122647Y-99973654D01*
X135136761Y-99984259D01*
X135138642Y-99985246D01*
X135138644Y-99985248D01*
X135215248Y-100025453D01*
X135278516Y-100058660D01*
X135278518Y-100058660D01*
X135278519Y-100058661D01*
X135431899Y-100096465D01*
X135431900Y-100096465D01*
X135589868Y-100096465D01*
X135589869Y-100096465D01*
X135743249Y-100058661D01*
X135883124Y-99985248D01*
X135914724Y-99957252D01*
X135983719Y-99922795D01*
X136060706Y-99927450D01*
X136118884Y-99963424D01*
X137997722Y-101842261D01*
X137997723Y-101842263D01*
X138018680Y-101863220D01*
X138113988Y-101958528D01*
X138133749Y-101968597D01*
X138153675Y-101980807D01*
X138171627Y-101993850D01*
X138192725Y-102000704D01*
X138214324Y-102009651D01*
X138234082Y-102019719D01*
X138255984Y-102023187D01*
X138278718Y-102028645D01*
X138299815Y-102035500D01*
X150292164Y-102035500D01*
X150292165Y-102035500D01*
X150313261Y-102028644D01*
X150335989Y-102023188D01*
X150357898Y-102019719D01*
X150377660Y-102009648D01*
X150399260Y-102000701D01*
X150420353Y-101993849D01*
X150438299Y-101980809D01*
X150458225Y-101968598D01*
X150477992Y-101958528D01*
X150573300Y-101863220D01*
X150573300Y-101863219D01*
X151541474Y-100895045D01*
X161850849Y-100895045D01*
X161860570Y-101074337D01*
X161908606Y-101247351D01*
X161992714Y-101405993D01*
X162108953Y-101542841D01*
X162156304Y-101578836D01*
X162251901Y-101651507D01*
X162414862Y-101726901D01*
X162590221Y-101765500D01*
X162590222Y-101765500D01*
X162720721Y-101765500D01*
X162724760Y-101765500D01*
X162858505Y-101750954D01*
X163028662Y-101693622D01*
X163182517Y-101601050D01*
X163312875Y-101477569D01*
X163413640Y-101328951D01*
X163415924Y-101323220D01*
X163480101Y-101162147D01*
X163509150Y-100984954D01*
X163499429Y-100805662D01*
X163451393Y-100632648D01*
X163367285Y-100474006D01*
X163251046Y-100337158D01*
X163108100Y-100228494D01*
X163108099Y-100228493D01*
X162945138Y-100153099D01*
X162769779Y-100114500D01*
X162635240Y-100114500D01*
X162631230Y-100114936D01*
X162631213Y-100114937D01*
X162501499Y-100129045D01*
X162501496Y-100129045D01*
X162501495Y-100129046D01*
X162331338Y-100186378D01*
X162177483Y-100278950D01*
X162177481Y-100278951D01*
X162177482Y-100278951D01*
X162047125Y-100402431D01*
X161946357Y-100551052D01*
X161879898Y-100717852D01*
X161850849Y-100895045D01*
X151541474Y-100895045D01*
X157274554Y-95161966D01*
X157274554Y-95161965D01*
X157295511Y-95141009D01*
X157295511Y-95141008D01*
X157298528Y-95137992D01*
X157298529Y-95137989D01*
X157309389Y-95127130D01*
X157318959Y-95113955D01*
X159725645Y-92707269D01*
X159792436Y-92668708D01*
X159869564Y-92668708D01*
X159936359Y-92707272D01*
X159974923Y-92774067D01*
X159980000Y-92812624D01*
X159980000Y-92830482D01*
X159980497Y-92839071D01*
X159982909Y-92859873D01*
X159991715Y-92879816D01*
X160003545Y-92956032D01*
X159991715Y-93000182D01*
X159982910Y-93020123D01*
X159980497Y-93040921D01*
X159980000Y-93049520D01*
X159980000Y-93630486D01*
X159980497Y-93639071D01*
X159982909Y-93659873D01*
X159991715Y-93679816D01*
X160003545Y-93756032D01*
X159991715Y-93800182D01*
X159982910Y-93820123D01*
X159980497Y-93840921D01*
X159980000Y-93849520D01*
X159980000Y-94430486D01*
X159980497Y-94439071D01*
X159982909Y-94459873D01*
X159991715Y-94479816D01*
X160003545Y-94556032D01*
X159991715Y-94600182D01*
X159982910Y-94620123D01*
X159980497Y-94640921D01*
X159980000Y-94649520D01*
X159980000Y-95230486D01*
X159980497Y-95239071D01*
X159982909Y-95259873D01*
X159991715Y-95279816D01*
X160003545Y-95356032D01*
X159991715Y-95400182D01*
X159982910Y-95420123D01*
X159980497Y-95440921D01*
X159980000Y-95449520D01*
X159980000Y-96030486D01*
X159980497Y-96039071D01*
X159982909Y-96059873D01*
X159991715Y-96079816D01*
X160003545Y-96156032D01*
X159991715Y-96200182D01*
X159982910Y-96220123D01*
X159980497Y-96240921D01*
X159980000Y-96249520D01*
X159980000Y-96830486D01*
X159980497Y-96839071D01*
X159982909Y-96859873D01*
X159991715Y-96879816D01*
X160003545Y-96956032D01*
X159991715Y-97000182D01*
X159982910Y-97020123D01*
X159980497Y-97040921D01*
X159980000Y-97049520D01*
X159980000Y-97630486D01*
X159980497Y-97639071D01*
X159982909Y-97659873D01*
X159991715Y-97679816D01*
X160003545Y-97756032D01*
X159991715Y-97800182D01*
X159982910Y-97820123D01*
X159980497Y-97840921D01*
X159980000Y-97849520D01*
X159980000Y-98430486D01*
X159980497Y-98439071D01*
X159982909Y-98459876D01*
X160028212Y-98562477D01*
X160107521Y-98641786D01*
X160210126Y-98687090D01*
X160230921Y-98689502D01*
X160239519Y-98689999D01*
X160376446Y-98689999D01*
X161083552Y-98689999D01*
X161476445Y-98689999D01*
X161280000Y-98493553D01*
X161083552Y-98689999D01*
X160376446Y-98689999D01*
X161174640Y-97891805D01*
X161241435Y-97853241D01*
X161318563Y-97853241D01*
X161385358Y-97891805D01*
X162183552Y-98689999D01*
X162320486Y-98689999D01*
X162329071Y-98689502D01*
X162349876Y-98687090D01*
X162452477Y-98641787D01*
X162531786Y-98562478D01*
X162577090Y-98459873D01*
X162579502Y-98439078D01*
X162579999Y-98430479D01*
X162579999Y-97849513D01*
X162579502Y-97840928D01*
X162577090Y-97820125D01*
X162568285Y-97800184D01*
X162556454Y-97723969D01*
X162568285Y-97679813D01*
X162577090Y-97659871D01*
X162579502Y-97639078D01*
X162579999Y-97630479D01*
X162579999Y-97049513D01*
X162579502Y-97040928D01*
X162577090Y-97020125D01*
X162568285Y-97000184D01*
X162556454Y-96923969D01*
X162568285Y-96879813D01*
X162577090Y-96859871D01*
X162579502Y-96839078D01*
X162579999Y-96830479D01*
X162579999Y-96249513D01*
X162579502Y-96240928D01*
X162577090Y-96220125D01*
X162568285Y-96200184D01*
X162556454Y-96123969D01*
X162568285Y-96079813D01*
X162577090Y-96059871D01*
X162579502Y-96039078D01*
X162579999Y-96030479D01*
X162579999Y-95449513D01*
X162579502Y-95440928D01*
X162577090Y-95420125D01*
X162568285Y-95400184D01*
X162556454Y-95323969D01*
X162568285Y-95279813D01*
X162577090Y-95259871D01*
X162579502Y-95239078D01*
X162579999Y-95230479D01*
X162579999Y-94649513D01*
X162579502Y-94640928D01*
X162577090Y-94620125D01*
X162568285Y-94600184D01*
X162556454Y-94523969D01*
X162568285Y-94479813D01*
X162577090Y-94459871D01*
X162579502Y-94439078D01*
X162579999Y-94430479D01*
X162579999Y-93849513D01*
X162579502Y-93840928D01*
X162577090Y-93820125D01*
X162568285Y-93800184D01*
X162556454Y-93723969D01*
X162568285Y-93679813D01*
X162577090Y-93659871D01*
X162579502Y-93639078D01*
X162579999Y-93630479D01*
X162579999Y-93049513D01*
X162579502Y-93040928D01*
X162577090Y-93020125D01*
X162568285Y-93000184D01*
X162556454Y-92923969D01*
X162568285Y-92879813D01*
X162577090Y-92859871D01*
X162579502Y-92839078D01*
X162579999Y-92830479D01*
X162579999Y-92249513D01*
X162579502Y-92240928D01*
X162577090Y-92220125D01*
X162568558Y-92200802D01*
X162556727Y-92124587D01*
X162568556Y-92080437D01*
X162577585Y-92059991D01*
X162580500Y-92034865D01*
X162580499Y-91445136D01*
X162577585Y-91420009D01*
X162568830Y-91400182D01*
X162557000Y-91323970D01*
X162568831Y-91279816D01*
X162577585Y-91259991D01*
X162580500Y-91234865D01*
X162580499Y-90645136D01*
X162577585Y-90620009D01*
X162568830Y-90600182D01*
X162557000Y-90523970D01*
X162568831Y-90479816D01*
X162577585Y-90459991D01*
X162580500Y-90434865D01*
X162580499Y-89883126D01*
X162600461Y-89808627D01*
X162654999Y-89754089D01*
X162661849Y-89750370D01*
X162682884Y-89739651D01*
X162704488Y-89730701D01*
X162725581Y-89723849D01*
X162743527Y-89710809D01*
X162763453Y-89698598D01*
X162783220Y-89688528D01*
X162878528Y-89593220D01*
X163304256Y-89167491D01*
X163473490Y-88998256D01*
X163540283Y-88959694D01*
X163617411Y-88959694D01*
X163677651Y-88992088D01*
X163732990Y-89041113D01*
X163874137Y-89115194D01*
X163930826Y-89167491D01*
X163953771Y-89241127D01*
X163952806Y-89265084D01*
X163945532Y-89325000D01*
X163942542Y-89349623D01*
X163941089Y-89349446D01*
X163933369Y-89403822D01*
X163885799Y-89464533D01*
X163865542Y-89477342D01*
X163732991Y-89546912D01*
X163732989Y-89546913D01*
X163732990Y-89546913D01*
X163662119Y-89609699D01*
X163614745Y-89651668D01*
X163525008Y-89781674D01*
X163468993Y-89929374D01*
X163449952Y-90086196D01*
X163468993Y-90243017D01*
X163525008Y-90390717D01*
X163586507Y-90479813D01*
X163614747Y-90520726D01*
X163732990Y-90625479D01*
X163732992Y-90625480D01*
X163875732Y-90700397D01*
X163932421Y-90752694D01*
X163955366Y-90826330D01*
X163954401Y-90850284D01*
X163944722Y-90930000D01*
X163944722Y-90930002D01*
X163942542Y-90947959D01*
X163937691Y-90947370D01*
X163931738Y-90989111D01*
X163884130Y-91049792D01*
X163863948Y-91062545D01*
X163732991Y-91131278D01*
X163732989Y-91131279D01*
X163732990Y-91131279D01*
X163616065Y-91234865D01*
X163614745Y-91236034D01*
X163525008Y-91366040D01*
X163468993Y-91513740D01*
X163449952Y-91670562D01*
X163468993Y-91827383D01*
X163525008Y-91975083D01*
X163539251Y-91995717D01*
X163614747Y-92105092D01*
X163732990Y-92209845D01*
X163732992Y-92209846D01*
X163872862Y-92283257D01*
X163872864Y-92283257D01*
X163872865Y-92283258D01*
X164026245Y-92321062D01*
X164026246Y-92321062D01*
X164184214Y-92321062D01*
X164184215Y-92321062D01*
X164337595Y-92283258D01*
X164461758Y-92218091D01*
X164536998Y-92201145D01*
X164610634Y-92224090D01*
X164662932Y-92280779D01*
X164680000Y-92350024D01*
X164680000Y-92830486D01*
X164680497Y-92839071D01*
X164682909Y-92859873D01*
X164691715Y-92879816D01*
X164703545Y-92956032D01*
X164691716Y-93000181D01*
X164682910Y-93020125D01*
X164680497Y-93040923D01*
X164680000Y-93049520D01*
X164680000Y-93630486D01*
X164680497Y-93639071D01*
X164682909Y-93659873D01*
X164691715Y-93679816D01*
X164703545Y-93756032D01*
X164691716Y-93800181D01*
X164682910Y-93820125D01*
X164680497Y-93840923D01*
X164680000Y-93849520D01*
X164680000Y-94430486D01*
X164680497Y-94439071D01*
X164682909Y-94459873D01*
X164691715Y-94479816D01*
X164703545Y-94556032D01*
X164691716Y-94600181D01*
X164682910Y-94620125D01*
X164680497Y-94640923D01*
X164680000Y-94649520D01*
X164680000Y-95230486D01*
X164680497Y-95239071D01*
X164682909Y-95259873D01*
X164691715Y-95279816D01*
X164703545Y-95356032D01*
X164691716Y-95400181D01*
X164682910Y-95420125D01*
X164680497Y-95440923D01*
X164680000Y-95449520D01*
X164680000Y-96030486D01*
X164680497Y-96039071D01*
X164682909Y-96059873D01*
X164691715Y-96079816D01*
X164703545Y-96156032D01*
X164691716Y-96200181D01*
X164682910Y-96220125D01*
X164680497Y-96240923D01*
X164680000Y-96249520D01*
X164680000Y-96830486D01*
X164680497Y-96839071D01*
X164682909Y-96859873D01*
X164691715Y-96879816D01*
X164703545Y-96956032D01*
X164691716Y-97000181D01*
X164682910Y-97020125D01*
X164680497Y-97040923D01*
X164680000Y-97049520D01*
X164680000Y-97630486D01*
X164680497Y-97639071D01*
X164682909Y-97659873D01*
X164691715Y-97679816D01*
X164703545Y-97756032D01*
X164691716Y-97800181D01*
X164682910Y-97820125D01*
X164680497Y-97840923D01*
X164680000Y-97849520D01*
X164680000Y-98430486D01*
X164680497Y-98439071D01*
X164682909Y-98459876D01*
X164728212Y-98562477D01*
X164807521Y-98641786D01*
X164910126Y-98687090D01*
X164930921Y-98689502D01*
X164939519Y-98689999D01*
X165076446Y-98689999D01*
X165783552Y-98689999D01*
X166176445Y-98689999D01*
X165980000Y-98493553D01*
X165783552Y-98689999D01*
X165076446Y-98689999D01*
X165874640Y-97891805D01*
X165941435Y-97853241D01*
X166018563Y-97853241D01*
X166085358Y-97891805D01*
X166883552Y-98689999D01*
X167020486Y-98689999D01*
X167029071Y-98689502D01*
X167049876Y-98687090D01*
X167152477Y-98641787D01*
X167231786Y-98562478D01*
X167277090Y-98459873D01*
X167279502Y-98439078D01*
X167279999Y-98430479D01*
X167279999Y-97849513D01*
X167279502Y-97840928D01*
X167277090Y-97820125D01*
X167268285Y-97800184D01*
X167256454Y-97723969D01*
X167268285Y-97679813D01*
X167277090Y-97659871D01*
X167279502Y-97639078D01*
X167279999Y-97630479D01*
X167279999Y-97049513D01*
X167279502Y-97040928D01*
X167277090Y-97020125D01*
X167268285Y-97000184D01*
X167256454Y-96923969D01*
X167268285Y-96879813D01*
X167277090Y-96859871D01*
X167279502Y-96839078D01*
X167279999Y-96830479D01*
X167279999Y-96249513D01*
X167279502Y-96240928D01*
X167277090Y-96220125D01*
X167268285Y-96200184D01*
X167256454Y-96123969D01*
X167268285Y-96079813D01*
X167277090Y-96059871D01*
X167279502Y-96039078D01*
X167279999Y-96030479D01*
X167279999Y-95449513D01*
X167279502Y-95440928D01*
X167277090Y-95420125D01*
X167268285Y-95400184D01*
X167256454Y-95323969D01*
X167268285Y-95279813D01*
X167277090Y-95259871D01*
X167279502Y-95239078D01*
X167279999Y-95230479D01*
X167279999Y-94649513D01*
X167279502Y-94640928D01*
X167277090Y-94620125D01*
X167268285Y-94600184D01*
X167256454Y-94523969D01*
X167268285Y-94479813D01*
X167277090Y-94459871D01*
X167279502Y-94439078D01*
X167279999Y-94430479D01*
X167279999Y-93849513D01*
X167279502Y-93840928D01*
X167277090Y-93820125D01*
X167268285Y-93800184D01*
X167256454Y-93723969D01*
X167268285Y-93679813D01*
X167277090Y-93659871D01*
X167279502Y-93639078D01*
X167279999Y-93630479D01*
X167279999Y-93049513D01*
X167279502Y-93040928D01*
X167277090Y-93020125D01*
X167268285Y-93000184D01*
X167256454Y-92923969D01*
X167268285Y-92879813D01*
X167277090Y-92859871D01*
X167279502Y-92839078D01*
X167279999Y-92830479D01*
X167279999Y-92249513D01*
X167279502Y-92240928D01*
X167277090Y-92220125D01*
X167268558Y-92200802D01*
X167256727Y-92124587D01*
X167268556Y-92080437D01*
X167277585Y-92059991D01*
X167280500Y-92034865D01*
X167280499Y-91445136D01*
X167277585Y-91420009D01*
X167268830Y-91400180D01*
X167257000Y-91323970D01*
X167268831Y-91279816D01*
X167277585Y-91259991D01*
X167280500Y-91234865D01*
X167280499Y-90645136D01*
X167277585Y-90620009D01*
X167268830Y-90600180D01*
X167257000Y-90523970D01*
X167268831Y-90479816D01*
X167277585Y-90459991D01*
X167280500Y-90434865D01*
X167280499Y-89845136D01*
X167277585Y-89820009D01*
X167268830Y-89800180D01*
X167257000Y-89723970D01*
X167268831Y-89679816D01*
X167277585Y-89659991D01*
X167280500Y-89634865D01*
X167280499Y-89045136D01*
X167277585Y-89020009D01*
X167268830Y-89000180D01*
X167257000Y-88923970D01*
X167268831Y-88879816D01*
X167277585Y-88859991D01*
X167280500Y-88834865D01*
X167280499Y-88245136D01*
X167277585Y-88220009D01*
X167268830Y-88200180D01*
X167257000Y-88123970D01*
X167268831Y-88079816D01*
X167277585Y-88059991D01*
X167280500Y-88034865D01*
X167280499Y-87445136D01*
X167277585Y-87420009D01*
X167268830Y-87400180D01*
X167257000Y-87323970D01*
X167268831Y-87279816D01*
X167277585Y-87259991D01*
X167280500Y-87234865D01*
X167280499Y-86645136D01*
X167277585Y-86620009D01*
X167268830Y-86600180D01*
X167257000Y-86523970D01*
X167268831Y-86479816D01*
X167277585Y-86459991D01*
X167280500Y-86434865D01*
X167280499Y-85845136D01*
X167277585Y-85820009D01*
X167268830Y-85800180D01*
X167257000Y-85723970D01*
X167268831Y-85679816D01*
X167277585Y-85659991D01*
X167280500Y-85634865D01*
X167280499Y-85045136D01*
X167277585Y-85020009D01*
X167268830Y-85000180D01*
X167257000Y-84923970D01*
X167268831Y-84879816D01*
X167277585Y-84859991D01*
X167280500Y-84834865D01*
X167280499Y-84245136D01*
X167277585Y-84220009D01*
X167268830Y-84200182D01*
X167257000Y-84123970D01*
X167268831Y-84079816D01*
X167277585Y-84059991D01*
X167280500Y-84034865D01*
X167280499Y-83445136D01*
X167277585Y-83420009D01*
X167268830Y-83400182D01*
X167257000Y-83323970D01*
X167268831Y-83279816D01*
X167277585Y-83259991D01*
X167280500Y-83234865D01*
X167280499Y-82645136D01*
X167277585Y-82620009D01*
X167268830Y-82600182D01*
X167257000Y-82523970D01*
X167268831Y-82479816D01*
X167277585Y-82459991D01*
X167280500Y-82434865D01*
X167280499Y-81845136D01*
X167277585Y-81820009D01*
X167268830Y-81800182D01*
X167257000Y-81723970D01*
X167268831Y-81679816D01*
X167277585Y-81659991D01*
X167280500Y-81634865D01*
X167280499Y-81045136D01*
X167277585Y-81020009D01*
X167268830Y-81000182D01*
X167257000Y-80923970D01*
X167268831Y-80879816D01*
X167277585Y-80859991D01*
X167280500Y-80834865D01*
X167280499Y-80245136D01*
X167277585Y-80220009D01*
X167268830Y-80200182D01*
X167257000Y-80123970D01*
X167268831Y-80079816D01*
X167277585Y-80059991D01*
X167280500Y-80034865D01*
X167280499Y-79445136D01*
X167277585Y-79420009D01*
X167268830Y-79400182D01*
X167257000Y-79323970D01*
X167268831Y-79279816D01*
X167277585Y-79259991D01*
X167280500Y-79234865D01*
X167280499Y-78645136D01*
X167277585Y-78620009D01*
X167277585Y-78620007D01*
X167232206Y-78517235D01*
X167152766Y-78437795D01*
X167152765Y-78437795D01*
X167152765Y-78437794D01*
X167049991Y-78392415D01*
X167049990Y-78392414D01*
X167049988Y-78392414D01*
X167029132Y-78389995D01*
X167029131Y-78389994D01*
X167024865Y-78389500D01*
X167020569Y-78389500D01*
X166269743Y-78389500D01*
X166195243Y-78369538D01*
X166164384Y-78345859D01*
X164757701Y-76939176D01*
X164754166Y-76935518D01*
X164735558Y-76915594D01*
X164710680Y-76888956D01*
X164678667Y-76869488D01*
X164676671Y-76868274D01*
X164664061Y-76859692D01*
X164632340Y-76835637D01*
X164617632Y-76829837D01*
X164594886Y-76818539D01*
X164581383Y-76810328D01*
X164543046Y-76799586D01*
X164528589Y-76794724D01*
X164491566Y-76780124D01*
X164487589Y-76779715D01*
X164475837Y-76778506D01*
X164450888Y-76773765D01*
X164435665Y-76769500D01*
X164435664Y-76769500D01*
X164395865Y-76769500D01*
X164380628Y-76768719D01*
X164362058Y-76766810D01*
X164341028Y-76764648D01*
X164341027Y-76764648D01*
X164331691Y-76766257D01*
X164325454Y-76767333D01*
X164300138Y-76769500D01*
X163696804Y-76769500D01*
X163622304Y-76749538D01*
X163567766Y-76695000D01*
X163547804Y-76620500D01*
X163563031Y-76554881D01*
X163564237Y-76552422D01*
X163599495Y-76480544D01*
X163649224Y-76288480D01*
X163659272Y-76090337D01*
X163629230Y-75894227D01*
X163560325Y-75708180D01*
X163455380Y-75539811D01*
X163420558Y-75503178D01*
X163318692Y-75396014D01*
X163155854Y-75282675D01*
X162973533Y-75204436D01*
X162779199Y-75164500D01*
X162630527Y-75164500D01*
X162626770Y-75164882D01*
X162626771Y-75164882D01*
X162482619Y-75179541D01*
X162293318Y-75238934D01*
X162119854Y-75335215D01*
X161969320Y-75464443D01*
X161847877Y-75621335D01*
X161760505Y-75799455D01*
X161710776Y-75991520D01*
X161700728Y-76189663D01*
X161730770Y-76385775D01*
X161798538Y-76568752D01*
X161805693Y-76645547D01*
X161773491Y-76715631D01*
X161710561Y-76760225D01*
X161658813Y-76769500D01*
X150991652Y-76769500D01*
X150986566Y-76769413D01*
X150922887Y-76767237D01*
X150884216Y-76776661D01*
X150869231Y-76779509D01*
X150829797Y-76784929D01*
X150815293Y-76791229D01*
X150791213Y-76799326D01*
X150775864Y-76803066D01*
X150741160Y-76822578D01*
X150727506Y-76829359D01*
X150690995Y-76845219D01*
X150678732Y-76855196D01*
X150657733Y-76869488D01*
X150643955Y-76877235D01*
X150615812Y-76905377D01*
X150604492Y-76915594D01*
X150573607Y-76940722D01*
X150564491Y-76953636D01*
X150548126Y-76973063D01*
X149616828Y-77904362D01*
X149550033Y-77942926D01*
X149472905Y-77942926D01*
X149406110Y-77904362D01*
X146878151Y-75376403D01*
X146878146Y-75376395D01*
X146833220Y-75331471D01*
X146813458Y-75321402D01*
X146793525Y-75309187D01*
X146775582Y-75296151D01*
X146763310Y-75292164D01*
X146754492Y-75289298D01*
X146732890Y-75280351D01*
X146713124Y-75270279D01*
X146691217Y-75266810D01*
X146668482Y-75261352D01*
X146647394Y-75254500D01*
X146647393Y-75254500D01*
X146613488Y-75254500D01*
X131159759Y-75254500D01*
X131085259Y-75234538D01*
X131060959Y-75217032D01*
X130952240Y-75120717D01*
X130952238Y-75120716D01*
X130952237Y-75120715D01*
X130812367Y-75047304D01*
X130710111Y-75022101D01*
X130658985Y-75009500D01*
X130501015Y-75009500D01*
X130462670Y-75018951D01*
X130347632Y-75047304D01*
X130207762Y-75120715D01*
X130207759Y-75120717D01*
X130207760Y-75120717D01*
X130098611Y-75217414D01*
X130089515Y-75225472D01*
X129999778Y-75355478D01*
X129943763Y-75503178D01*
X129924722Y-75659999D01*
X129943763Y-75816821D01*
X129999778Y-75964521D01*
X130080318Y-76081202D01*
X130089517Y-76094530D01*
X130207760Y-76199283D01*
X130207762Y-76199284D01*
X130347632Y-76272695D01*
X130347634Y-76272695D01*
X130347635Y-76272696D01*
X130501015Y-76310500D01*
X130501016Y-76310500D01*
X130658984Y-76310500D01*
X130658985Y-76310500D01*
X130812365Y-76272696D01*
X130952240Y-76199283D01*
X131015803Y-76142971D01*
X131084805Y-76108511D01*
X131114608Y-76105500D01*
X146342034Y-76105500D01*
X146416534Y-76125462D01*
X146447393Y-76149141D01*
X148809504Y-78511252D01*
X148848068Y-78578047D01*
X148848068Y-78655175D01*
X148809504Y-78721970D01*
X144859859Y-82671615D01*
X144793064Y-82710179D01*
X144715936Y-82710179D01*
X144649141Y-82671615D01*
X144610577Y-82604820D01*
X144605500Y-82566256D01*
X144605500Y-81769158D01*
X144625462Y-81694658D01*
X144655693Y-81657631D01*
X144670483Y-81644530D01*
X144760220Y-81514523D01*
X144777519Y-81468911D01*
X144816236Y-81366821D01*
X144816236Y-81366820D01*
X144816237Y-81366818D01*
X144835278Y-81210000D01*
X144816237Y-81053182D01*
X144816236Y-81053180D01*
X144816236Y-81053178D01*
X144760221Y-80905478D01*
X144670484Y-80775472D01*
X144670483Y-80775470D01*
X144552240Y-80670717D01*
X144552238Y-80670716D01*
X144552237Y-80670715D01*
X144412367Y-80597304D01*
X144310111Y-80572101D01*
X144258985Y-80559500D01*
X144101015Y-80559500D01*
X144062670Y-80568951D01*
X143947632Y-80597304D01*
X143807762Y-80670715D01*
X143689515Y-80775472D01*
X143599778Y-80905478D01*
X143543763Y-81053178D01*
X143524722Y-81210000D01*
X143543763Y-81366821D01*
X143599778Y-81514521D01*
X143638956Y-81571280D01*
X143689517Y-81644530D01*
X143704304Y-81657630D01*
X143746831Y-81721971D01*
X143754500Y-81769158D01*
X143754500Y-82572033D01*
X143734538Y-82646533D01*
X143710859Y-82677392D01*
X140955822Y-85432429D01*
X140881470Y-85506780D01*
X140871399Y-85526546D01*
X140859186Y-85546476D01*
X140846149Y-85564420D01*
X140839295Y-85585514D01*
X140830350Y-85607110D01*
X140820280Y-85626873D01*
X140816809Y-85648788D01*
X140811352Y-85671518D01*
X140804500Y-85692606D01*
X140804500Y-86952033D01*
X140784538Y-87026533D01*
X140760859Y-87057392D01*
X139519332Y-88298918D01*
X139452537Y-88337482D01*
X139378316Y-88338230D01*
X139303161Y-88319706D01*
X139255879Y-88308053D01*
X139097909Y-88308053D01*
X139084926Y-88311253D01*
X138944526Y-88345857D01*
X138804656Y-88419268D01*
X138686409Y-88524025D01*
X138596672Y-88654031D01*
X138540657Y-88801731D01*
X138521616Y-88958553D01*
X138540657Y-89115374D01*
X138596672Y-89263074D01*
X138686411Y-89393083D01*
X138709491Y-89413530D01*
X138752018Y-89477874D01*
X138756675Y-89554861D01*
X138733311Y-89609699D01*
X138647835Y-89733534D01*
X138594284Y-89874736D01*
X138560326Y-89927259D01*
X137811728Y-90675859D01*
X137744933Y-90714423D01*
X137706369Y-90719500D01*
X133171873Y-90719500D01*
X133102629Y-90702433D01*
X133035697Y-90667304D01*
X132963222Y-90649441D01*
X132882317Y-90629500D01*
X132724347Y-90629500D01*
X132678273Y-90640856D01*
X132570966Y-90667304D01*
X132504035Y-90702433D01*
X132434791Y-90719500D01*
X132380761Y-90719500D01*
X132311517Y-90702433D01*
X132244585Y-90667304D01*
X132172110Y-90649441D01*
X132091205Y-90629500D01*
X131933235Y-90629500D01*
X131887161Y-90640856D01*
X131779854Y-90667304D01*
X131712923Y-90702433D01*
X131643679Y-90719500D01*
X131589651Y-90719500D01*
X131520407Y-90702433D01*
X131453475Y-90667304D01*
X131381000Y-90649441D01*
X131300095Y-90629500D01*
X131142125Y-90629500D01*
X131096051Y-90640856D01*
X130988744Y-90667304D01*
X130921813Y-90702433D01*
X130852569Y-90719500D01*
X130798541Y-90719500D01*
X130729297Y-90702433D01*
X130662365Y-90667304D01*
X130589890Y-90649441D01*
X130508985Y-90629500D01*
X130351015Y-90629500D01*
X130304941Y-90640856D01*
X130197634Y-90667304D01*
X130130703Y-90702433D01*
X130061459Y-90719500D01*
X122829956Y-90719500D01*
X122755456Y-90699538D01*
X122731158Y-90682034D01*
X122667024Y-90625217D01*
X122667022Y-90625216D01*
X122667021Y-90625215D01*
X122527151Y-90551804D01*
X122401058Y-90520726D01*
X122373769Y-90514000D01*
X122215799Y-90514000D01*
X122188522Y-90520723D01*
X122062416Y-90551804D01*
X121922546Y-90625215D01*
X121922249Y-90625478D01*
X121816120Y-90719500D01*
X121804298Y-90729973D01*
X121784908Y-90758065D01*
X121726159Y-90808037D01*
X121650294Y-90821940D01*
X121577642Y-90796047D01*
X121556925Y-90778782D01*
X117332577Y-86554433D01*
X117294013Y-86487638D01*
X117294013Y-86410510D01*
X117332577Y-86343715D01*
X117368690Y-86317143D01*
X117392240Y-86304783D01*
X117510483Y-86200030D01*
X117600220Y-86070023D01*
X117636947Y-85973182D01*
X117641316Y-85961663D01*
X117686399Y-85899084D01*
X117756732Y-85867429D01*
X117780633Y-85865500D01*
X127289322Y-85865500D01*
X127363822Y-85885462D01*
X127388126Y-85902971D01*
X127470816Y-85976227D01*
X127610688Y-86049639D01*
X127610690Y-86049639D01*
X127610691Y-86049640D01*
X127764071Y-86087444D01*
X127764072Y-86087444D01*
X127922040Y-86087444D01*
X127922041Y-86087444D01*
X128075421Y-86049640D01*
X128215296Y-85976227D01*
X128333539Y-85871474D01*
X128352931Y-85843378D01*
X128411678Y-85793408D01*
X128487543Y-85779504D01*
X128560195Y-85805395D01*
X128580914Y-85822662D01*
X129556495Y-86798242D01*
X129595059Y-86865037D01*
X129599048Y-86885634D01*
X129601236Y-86903646D01*
X129613763Y-87006821D01*
X129669778Y-87154521D01*
X129728189Y-87239143D01*
X129759517Y-87284530D01*
X129877760Y-87389283D01*
X129877762Y-87389284D01*
X130017632Y-87462695D01*
X130017634Y-87462695D01*
X130017635Y-87462696D01*
X130135870Y-87491837D01*
X130203427Y-87529048D01*
X130243329Y-87595053D01*
X130248125Y-87618545D01*
X130250940Y-87641726D01*
X130306956Y-87789430D01*
X130348701Y-87849908D01*
X130396695Y-87919439D01*
X130514938Y-88024192D01*
X130514940Y-88024193D01*
X130654810Y-88097604D01*
X130654812Y-88097604D01*
X130654813Y-88097605D01*
X130808193Y-88135409D01*
X130808194Y-88135409D01*
X130966162Y-88135409D01*
X130966163Y-88135409D01*
X131119543Y-88097605D01*
X131259418Y-88024192D01*
X131377661Y-87919439D01*
X131467398Y-87789432D01*
X131523415Y-87641727D01*
X131542456Y-87484909D01*
X131523415Y-87328091D01*
X131523414Y-87328089D01*
X131523414Y-87328087D01*
X131486426Y-87230558D01*
X131467398Y-87180386D01*
X131378330Y-87051348D01*
X131376875Y-87049240D01*
X131350983Y-86976588D01*
X131350500Y-86964599D01*
X131350500Y-86861966D01*
X131370462Y-86787466D01*
X131425000Y-86732928D01*
X131499500Y-86712966D01*
X131574000Y-86732928D01*
X131604859Y-86756607D01*
X132916376Y-88068124D01*
X132954940Y-88134919D01*
X132958931Y-88191440D01*
X132957625Y-88202197D01*
X132964557Y-88259284D01*
X132976666Y-88359018D01*
X133032681Y-88506718D01*
X133060831Y-88547500D01*
X133122420Y-88636727D01*
X133240663Y-88741480D01*
X133240665Y-88741481D01*
X133380535Y-88814892D01*
X133380537Y-88814892D01*
X133380538Y-88814893D01*
X133533918Y-88852697D01*
X133533919Y-88852697D01*
X133691891Y-88852697D01*
X133853811Y-88812788D01*
X133930923Y-88814341D01*
X133996928Y-88854243D01*
X134012092Y-88872816D01*
X134050388Y-88928298D01*
X134050390Y-88928300D01*
X134050391Y-88928301D01*
X134168634Y-89033054D01*
X134168636Y-89033055D01*
X134308506Y-89106466D01*
X134308508Y-89106466D01*
X134308509Y-89106467D01*
X134461889Y-89144271D01*
X134461890Y-89144271D01*
X134619858Y-89144271D01*
X134619859Y-89144271D01*
X134773239Y-89106467D01*
X134913114Y-89033054D01*
X135031357Y-88928301D01*
X135121094Y-88798294D01*
X135141419Y-88744701D01*
X135186500Y-88682124D01*
X135256832Y-88650469D01*
X135316393Y-88652868D01*
X135334087Y-88657230D01*
X135492056Y-88657230D01*
X135492057Y-88657230D01*
X135645437Y-88619426D01*
X135785312Y-88546013D01*
X135903555Y-88441260D01*
X135993292Y-88311253D01*
X136019983Y-88240876D01*
X136049308Y-88163551D01*
X136049308Y-88163550D01*
X136049309Y-88163548D01*
X136068350Y-88006730D01*
X136049309Y-87849912D01*
X136049308Y-87849910D01*
X136049308Y-87849908D01*
X135993293Y-87702210D01*
X135993292Y-87702207D01*
X135964358Y-87660290D01*
X135938468Y-87587641D01*
X135952371Y-87511776D01*
X136002343Y-87453026D01*
X136074995Y-87427134D01*
X136122641Y-87430980D01*
X136167296Y-87441987D01*
X136325265Y-87441987D01*
X136325266Y-87441987D01*
X136478646Y-87404183D01*
X136618521Y-87330770D01*
X136736764Y-87226017D01*
X136826501Y-87096010D01*
X136844239Y-87049240D01*
X136882517Y-86948308D01*
X136882517Y-86948307D01*
X136882518Y-86948305D01*
X136901559Y-86791487D01*
X136882518Y-86634669D01*
X136882517Y-86634667D01*
X136882517Y-86634665D01*
X136826502Y-86486965D01*
X136736765Y-86356959D01*
X136736764Y-86356957D01*
X136618521Y-86252204D01*
X136618519Y-86252203D01*
X136618518Y-86252202D01*
X136478648Y-86178791D01*
X136376392Y-86153588D01*
X136325266Y-86140987D01*
X136325265Y-86140987D01*
X136259247Y-86140987D01*
X136184747Y-86121025D01*
X136153888Y-86097346D01*
X136140300Y-86083758D01*
X136120541Y-86073691D01*
X136100604Y-86061473D01*
X136082663Y-86048438D01*
X136070391Y-86044451D01*
X136061573Y-86041585D01*
X136039971Y-86032638D01*
X136020205Y-86022566D01*
X135998298Y-86019097D01*
X135975563Y-86013639D01*
X135954475Y-86006787D01*
X135954474Y-86006787D01*
X135920569Y-86006787D01*
X135900253Y-86006787D01*
X135825753Y-85986825D01*
X135794894Y-85963146D01*
X131148151Y-81316403D01*
X131148146Y-81316395D01*
X131103220Y-81271471D01*
X131083458Y-81261402D01*
X131063525Y-81249187D01*
X131045582Y-81236151D01*
X131033310Y-81232164D01*
X131024492Y-81229298D01*
X131002890Y-81220351D01*
X130983124Y-81210279D01*
X130961217Y-81206810D01*
X130938482Y-81201352D01*
X130917394Y-81194500D01*
X130917393Y-81194500D01*
X130883488Y-81194500D01*
X125777966Y-81194500D01*
X125703466Y-81174538D01*
X125672607Y-81150859D01*
X123913115Y-79391367D01*
X123874551Y-79324572D01*
X123874551Y-79247444D01*
X123884193Y-79226587D01*
X123883805Y-79226440D01*
X123946236Y-79061821D01*
X123946236Y-79061820D01*
X123946237Y-79061818D01*
X123965278Y-78905000D01*
X123946237Y-78748182D01*
X123946236Y-78748180D01*
X123946236Y-78748178D01*
X123890221Y-78600478D01*
X123849951Y-78542137D01*
X123800483Y-78470470D01*
X123682240Y-78365717D01*
X123682238Y-78365716D01*
X123682237Y-78365715D01*
X123542367Y-78292304D01*
X123407076Y-78258959D01*
X123388985Y-78254500D01*
X123231015Y-78254500D01*
X123212924Y-78258959D01*
X123077632Y-78292304D01*
X122937762Y-78365715D01*
X122910350Y-78390000D01*
X122823640Y-78466818D01*
X122819515Y-78470472D01*
X122729778Y-78600478D01*
X122673763Y-78748178D01*
X122654722Y-78905000D01*
X122673763Y-79061821D01*
X122729778Y-79209521D01*
X122794689Y-79303561D01*
X122819517Y-79339530D01*
X122834305Y-79352631D01*
X122876831Y-79416974D01*
X122882301Y-79450628D01*
X122891352Y-79478483D01*
X122896810Y-79501217D01*
X122900280Y-79523125D01*
X122910351Y-79542890D01*
X122919300Y-79564495D01*
X122926151Y-79585582D01*
X122939186Y-79603523D01*
X122951404Y-79623460D01*
X122961471Y-79643219D01*
X124708393Y-81390141D01*
X124746957Y-81456936D01*
X124746957Y-81534064D01*
X124708393Y-81600859D01*
X124641598Y-81639423D01*
X124603034Y-81644500D01*
X117247966Y-81644500D01*
X117173466Y-81624538D01*
X117142607Y-81600859D01*
X115909835Y-80368087D01*
X115909830Y-80368079D01*
X115864904Y-80323155D01*
X115845142Y-80313086D01*
X115825209Y-80300871D01*
X115807267Y-80287836D01*
X115807265Y-80287835D01*
X115800680Y-80285695D01*
X115743848Y-80248788D01*
X115743527Y-80249152D01*
X115741107Y-80247008D01*
X115735996Y-80243689D01*
X115732814Y-80239661D01*
X115611739Y-80132400D01*
X115471867Y-80058988D01*
X115319653Y-80021472D01*
X115318485Y-80021184D01*
X115160515Y-80021184D01*
X115142423Y-80021184D01*
X115142423Y-80017049D01*
X115097508Y-80016133D01*
X115031513Y-79976215D01*
X114994319Y-79908648D01*
X114989999Y-79873027D01*
X114989999Y-79449513D01*
X114989502Y-79440928D01*
X114987090Y-79420125D01*
X114978285Y-79400184D01*
X114966454Y-79323969D01*
X114978285Y-79279813D01*
X114987090Y-79259871D01*
X114989502Y-79239078D01*
X114989999Y-79230479D01*
X114989999Y-78649513D01*
X114989502Y-78640928D01*
X114987090Y-78620123D01*
X114941787Y-78517522D01*
X114862478Y-78438213D01*
X114759873Y-78392909D01*
X114739078Y-78390497D01*
X114730480Y-78390000D01*
X114593552Y-78390000D01*
X113795358Y-79188193D01*
X113728563Y-79226757D01*
X113651435Y-79226757D01*
X113584640Y-79188193D01*
X112786447Y-78390000D01*
X113493554Y-78390000D01*
X113689999Y-78586446D01*
X113886445Y-78390000D01*
X113493554Y-78390000D01*
X112786447Y-78390000D01*
X112649513Y-78390000D01*
X112640929Y-78390497D01*
X112620123Y-78392909D01*
X112517522Y-78438212D01*
X112438213Y-78517521D01*
X112392909Y-78620126D01*
X112390497Y-78640921D01*
X112390000Y-78649520D01*
X112390000Y-79230486D01*
X112390497Y-79239071D01*
X112392909Y-79259873D01*
X112401715Y-79279816D01*
X112413545Y-79356032D01*
X112401715Y-79400182D01*
X112392910Y-79420123D01*
X112390497Y-79440921D01*
X112390000Y-79449520D01*
X112390000Y-80030486D01*
X112390497Y-80039071D01*
X112392909Y-80059873D01*
X112401715Y-80079816D01*
X112413545Y-80156032D01*
X112401715Y-80200182D01*
X112392910Y-80220123D01*
X112390497Y-80240921D01*
X112390000Y-80249520D01*
X112390000Y-80830486D01*
X112390497Y-80839071D01*
X112392909Y-80859873D01*
X112401715Y-80879816D01*
X112413545Y-80956032D01*
X112401715Y-81000182D01*
X112392910Y-81020123D01*
X112390497Y-81040921D01*
X112390000Y-81049520D01*
X112390000Y-81630486D01*
X112390497Y-81639071D01*
X112392909Y-81659873D01*
X112401715Y-81679816D01*
X112413545Y-81756032D01*
X112401715Y-81800182D01*
X112392910Y-81820123D01*
X112390497Y-81840921D01*
X112390000Y-81849520D01*
X112390000Y-82430486D01*
X112390497Y-82439071D01*
X112392909Y-82459873D01*
X112401715Y-82479816D01*
X112413545Y-82556032D01*
X112401715Y-82600182D01*
X112392910Y-82620123D01*
X112390497Y-82640921D01*
X112390000Y-82649520D01*
X112390000Y-83230486D01*
X112390497Y-83239071D01*
X112392909Y-83259873D01*
X112401715Y-83279816D01*
X112413545Y-83356032D01*
X112401715Y-83400182D01*
X112392910Y-83420123D01*
X112390497Y-83440921D01*
X112390000Y-83449520D01*
X112390000Y-84030486D01*
X112390497Y-84039071D01*
X112392909Y-84059874D01*
X112401441Y-84079196D01*
X112413272Y-84155412D01*
X112401442Y-84199564D01*
X112392415Y-84220007D01*
X112392414Y-84220009D01*
X112392415Y-84220009D01*
X112389500Y-84245135D01*
X112389500Y-84249430D01*
X112389500Y-84249431D01*
X112389500Y-84830558D01*
X112389501Y-84830568D01*
X112389501Y-84834864D01*
X112389996Y-84839134D01*
X112389997Y-84839143D01*
X112392414Y-84859991D01*
X112401168Y-84879816D01*
X112412998Y-84956032D01*
X112401169Y-85000180D01*
X112392415Y-85020005D01*
X112389996Y-85040856D01*
X112389500Y-85045135D01*
X112389500Y-85049430D01*
X112389500Y-85049431D01*
X112389500Y-85630558D01*
X112389501Y-85630568D01*
X112389501Y-85634864D01*
X112389996Y-85639134D01*
X112389997Y-85639143D01*
X112392414Y-85659991D01*
X112401168Y-85679816D01*
X112412998Y-85756032D01*
X112401169Y-85800180D01*
X112392415Y-85820005D01*
X112389996Y-85840856D01*
X112389500Y-85845135D01*
X112389500Y-85849430D01*
X112389500Y-85849431D01*
X112389500Y-86430558D01*
X112389501Y-86430568D01*
X112389501Y-86434864D01*
X112389996Y-86439134D01*
X112389997Y-86439143D01*
X112392414Y-86459991D01*
X112401168Y-86479816D01*
X112412998Y-86556032D01*
X112401169Y-86600180D01*
X112392415Y-86620005D01*
X112390714Y-86634669D01*
X112389500Y-86645135D01*
X112389500Y-86649430D01*
X112389500Y-86649431D01*
X112389500Y-87230558D01*
X112389501Y-87230568D01*
X112389501Y-87234864D01*
X112389996Y-87239134D01*
X112389997Y-87239143D01*
X112392414Y-87259991D01*
X112401168Y-87279816D01*
X112412998Y-87356032D01*
X112401169Y-87400180D01*
X112392415Y-87420005D01*
X112391588Y-87427134D01*
X112389500Y-87445135D01*
X112389500Y-87449430D01*
X112389500Y-87449431D01*
X112389500Y-88030558D01*
X112389501Y-88030568D01*
X112389501Y-88034864D01*
X112389996Y-88039134D01*
X112389997Y-88039143D01*
X112392414Y-88059991D01*
X112401168Y-88079816D01*
X112412998Y-88156032D01*
X112401169Y-88200180D01*
X112392415Y-88220005D01*
X112389996Y-88240856D01*
X112389500Y-88245135D01*
X112389500Y-88249430D01*
X112389500Y-88249431D01*
X112389500Y-88830558D01*
X112389501Y-88830568D01*
X112389501Y-88834864D01*
X112389996Y-88839134D01*
X112389997Y-88839143D01*
X112392414Y-88859991D01*
X112401168Y-88879816D01*
X112412998Y-88956032D01*
X112401169Y-89000180D01*
X112392415Y-89020005D01*
X112390901Y-89033055D01*
X112389500Y-89045135D01*
X112389500Y-89049430D01*
X112389500Y-89049431D01*
X112389500Y-89630558D01*
X112389501Y-89630568D01*
X112389501Y-89634864D01*
X112389996Y-89639134D01*
X112389997Y-89639143D01*
X112392414Y-89659991D01*
X112401168Y-89679816D01*
X112412998Y-89756032D01*
X112401169Y-89800180D01*
X112392415Y-89820005D01*
X112389996Y-89840856D01*
X112389500Y-89845135D01*
X112389500Y-89849430D01*
X112389500Y-89849431D01*
X112389500Y-90430558D01*
X112389501Y-90430568D01*
X112389501Y-90434864D01*
X112389996Y-90439132D01*
X112389997Y-90439143D01*
X112392414Y-90459991D01*
X112401168Y-90479816D01*
X112412998Y-90556032D01*
X112401169Y-90600180D01*
X112392415Y-90620005D01*
X112391780Y-90625479D01*
X112389500Y-90645135D01*
X112389500Y-90649430D01*
X112389500Y-90649431D01*
X112389500Y-91230558D01*
X112389501Y-91230568D01*
X112389501Y-91234864D01*
X112389996Y-91239132D01*
X112389997Y-91239143D01*
X112392414Y-91259991D01*
X112401168Y-91279816D01*
X112412998Y-91356032D01*
X112401169Y-91400180D01*
X112392415Y-91420005D01*
X112389996Y-91440856D01*
X112389500Y-91445135D01*
X112389500Y-91449430D01*
X112389500Y-91449431D01*
X112389500Y-92030558D01*
X112389501Y-92030568D01*
X112389501Y-92034864D01*
X112389996Y-92039132D01*
X112389997Y-92039143D01*
X112392414Y-92059991D01*
X112401168Y-92079816D01*
X112412998Y-92156032D01*
X112401169Y-92200180D01*
X112392415Y-92220005D01*
X112391200Y-92230478D01*
X112389500Y-92245135D01*
X112389500Y-92249430D01*
X112389500Y-92249431D01*
X112389500Y-92830558D01*
X112389500Y-92830575D01*
X112389501Y-92834864D01*
X112389996Y-92839138D01*
X112389997Y-92839143D01*
X112392414Y-92859991D01*
X112401168Y-92879816D01*
X112412998Y-92956032D01*
X112401169Y-93000180D01*
X112392415Y-93020005D01*
X112391691Y-93026248D01*
X112389500Y-93045135D01*
X112389500Y-93049430D01*
X112389500Y-93049431D01*
X112389500Y-93630558D01*
X112389500Y-93630575D01*
X112389501Y-93634864D01*
X112389996Y-93639138D01*
X112389997Y-93639143D01*
X112392414Y-93659991D01*
X112401168Y-93679816D01*
X112412998Y-93756032D01*
X112401169Y-93800180D01*
X112392415Y-93820005D01*
X112390620Y-93835477D01*
X112389500Y-93845135D01*
X112389500Y-93849430D01*
X112389500Y-93849431D01*
X112389500Y-94430558D01*
X112389500Y-94430575D01*
X112389501Y-94434864D01*
X112389996Y-94439138D01*
X112389997Y-94439143D01*
X112392414Y-94459991D01*
X112401168Y-94479816D01*
X112412998Y-94556032D01*
X112401169Y-94600180D01*
X112392415Y-94620005D01*
X112389994Y-94640876D01*
X112389500Y-94645135D01*
X112389500Y-94649430D01*
X112389500Y-94649431D01*
X112389500Y-95230558D01*
X112389500Y-95230575D01*
X112389501Y-95234864D01*
X112389996Y-95239138D01*
X112389997Y-95239143D01*
X112392414Y-95259991D01*
X112401168Y-95279816D01*
X112412998Y-95356032D01*
X112401169Y-95400180D01*
X112392415Y-95420005D01*
X112389994Y-95440876D01*
X112389500Y-95445135D01*
X112389500Y-95449430D01*
X112389500Y-95449431D01*
X112389500Y-96030558D01*
X112389500Y-96030575D01*
X112389501Y-96034864D01*
X112389996Y-96039138D01*
X112389997Y-96039143D01*
X112392414Y-96059991D01*
X112401168Y-96079816D01*
X112412998Y-96156032D01*
X112401169Y-96200180D01*
X112392415Y-96220005D01*
X112389994Y-96240876D01*
X112389500Y-96245135D01*
X112389500Y-96249430D01*
X112389500Y-96249431D01*
X112389500Y-96830558D01*
X112389500Y-96830575D01*
X112389501Y-96834864D01*
X112389996Y-96839138D01*
X112389997Y-96839143D01*
X112392414Y-96859991D01*
X112401168Y-96879816D01*
X112412998Y-96956032D01*
X112401169Y-97000180D01*
X112392415Y-97020005D01*
X112392148Y-97022307D01*
X112389500Y-97045135D01*
X112389500Y-97049430D01*
X112389500Y-97049431D01*
X112389500Y-97630558D01*
X112389500Y-97630575D01*
X112389501Y-97634864D01*
X112389996Y-97639138D01*
X112389997Y-97639143D01*
X112392414Y-97659990D01*
X112401441Y-97680433D01*
X112413272Y-97756649D01*
X112401443Y-97800799D01*
X112392910Y-97820125D01*
X112390497Y-97840921D01*
X112390000Y-97849520D01*
X112390000Y-98430486D01*
X112390497Y-98439071D01*
X112392909Y-98459876D01*
X112438212Y-98562477D01*
X112517521Y-98641786D01*
X112620126Y-98687090D01*
X112640921Y-98689502D01*
X112649519Y-98689999D01*
X112786446Y-98689999D01*
X113493552Y-98689999D01*
X113886445Y-98689999D01*
X113690000Y-98493553D01*
X113493552Y-98689999D01*
X112786446Y-98689999D01*
X112786447Y-98689998D01*
X113542306Y-97934140D01*
X113609101Y-97895576D01*
X113647661Y-97890499D01*
X113732335Y-97890499D01*
X113806834Y-97910461D01*
X113837693Y-97934140D01*
X114593552Y-98689999D01*
X114730486Y-98689999D01*
X114739071Y-98689502D01*
X114759876Y-98687090D01*
X114862476Y-98641787D01*
X114910898Y-98593366D01*
X114977693Y-98554801D01*
X115054821Y-98554801D01*
X115121616Y-98593364D01*
X119650972Y-103122720D01*
X119711777Y-103183525D01*
X119750341Y-103250318D01*
X119750341Y-103327446D01*
X119711778Y-103394241D01*
X119644983Y-103432806D01*
X119606442Y-103437883D01*
X109589000Y-103439500D01*
X106639037Y-103439500D01*
X106564537Y-103419538D01*
X106509999Y-103365000D01*
X106490037Y-103290500D01*
X106490037Y-103290463D01*
X106490038Y-103286310D01*
X106490636Y-100895045D01*
X109560849Y-100895045D01*
X109570570Y-101074337D01*
X109618606Y-101247351D01*
X109702714Y-101405993D01*
X109818953Y-101542841D01*
X109866304Y-101578836D01*
X109961901Y-101651507D01*
X110124862Y-101726901D01*
X110300221Y-101765500D01*
X110300222Y-101765500D01*
X110430721Y-101765500D01*
X110434760Y-101765500D01*
X110568505Y-101750954D01*
X110738662Y-101693622D01*
X110892517Y-101601050D01*
X111022875Y-101477569D01*
X111123640Y-101328951D01*
X111125924Y-101323220D01*
X111190101Y-101162147D01*
X111219150Y-100984954D01*
X111209429Y-100805662D01*
X111161393Y-100632648D01*
X111077285Y-100474006D01*
X110961046Y-100337158D01*
X110818100Y-100228494D01*
X110818099Y-100228493D01*
X110655138Y-100153099D01*
X110479779Y-100114500D01*
X110345240Y-100114500D01*
X110341230Y-100114936D01*
X110341213Y-100114937D01*
X110211499Y-100129045D01*
X110211496Y-100129045D01*
X110211495Y-100129046D01*
X110041338Y-100186378D01*
X109887483Y-100278950D01*
X109887481Y-100278951D01*
X109887482Y-100278951D01*
X109757125Y-100402431D01*
X109656357Y-100551052D01*
X109589898Y-100717852D01*
X109560849Y-100895045D01*
X106490636Y-100895045D01*
X106491452Y-97630575D01*
X107689500Y-97630575D01*
X107689501Y-97634864D01*
X107689996Y-97639138D01*
X107689997Y-97639143D01*
X107692414Y-97659990D01*
X107701441Y-97680433D01*
X107713272Y-97756649D01*
X107701443Y-97800799D01*
X107692910Y-97820125D01*
X107690497Y-97840921D01*
X107690000Y-97849520D01*
X107690000Y-98430486D01*
X107690497Y-98439071D01*
X107692909Y-98459876D01*
X107738212Y-98562477D01*
X107817521Y-98641786D01*
X107920126Y-98687090D01*
X107940921Y-98689502D01*
X107949519Y-98689999D01*
X108086446Y-98689999D01*
X108793552Y-98689999D01*
X109186445Y-98689999D01*
X108990000Y-98493553D01*
X108793552Y-98689999D01*
X108086446Y-98689999D01*
X108086447Y-98689998D01*
X108842306Y-97934140D01*
X108909101Y-97895576D01*
X108947661Y-97890499D01*
X109032335Y-97890499D01*
X109106834Y-97910461D01*
X109137693Y-97934140D01*
X109893552Y-98689999D01*
X110030486Y-98689999D01*
X110039071Y-98689502D01*
X110059876Y-98687090D01*
X110162477Y-98641787D01*
X110241786Y-98562478D01*
X110287090Y-98459873D01*
X110289502Y-98439078D01*
X110289999Y-98430479D01*
X110289999Y-97914500D01*
X110309961Y-97840000D01*
X110364499Y-97785462D01*
X110438999Y-97765500D01*
X110545392Y-97765500D01*
X110619892Y-97785462D01*
X110644196Y-97802971D01*
X110707760Y-97859283D01*
X110847632Y-97932695D01*
X110847634Y-97932695D01*
X110847635Y-97932696D01*
X111001015Y-97970500D01*
X111001016Y-97970500D01*
X111158984Y-97970500D01*
X111158985Y-97970500D01*
X111312365Y-97932696D01*
X111452240Y-97859283D01*
X111570483Y-97754530D01*
X111660220Y-97624523D01*
X111660430Y-97623971D01*
X111716236Y-97476821D01*
X111716236Y-97476820D01*
X111716237Y-97476818D01*
X111735278Y-97320000D01*
X111716237Y-97163182D01*
X111716236Y-97163180D01*
X111716236Y-97163178D01*
X111660221Y-97015478D01*
X111608122Y-96940000D01*
X111570483Y-96885470D01*
X111452240Y-96780717D01*
X111452238Y-96780716D01*
X111452237Y-96780715D01*
X111312367Y-96707304D01*
X111231759Y-96687436D01*
X111159675Y-96669670D01*
X111092119Y-96632460D01*
X111052217Y-96566455D01*
X111050663Y-96489343D01*
X111087874Y-96421785D01*
X111153879Y-96381883D01*
X111159656Y-96380334D01*
X111312365Y-96342696D01*
X111452240Y-96269283D01*
X111570483Y-96164530D01*
X111660220Y-96034523D01*
X111662233Y-96029217D01*
X111716236Y-95886821D01*
X111716236Y-95886820D01*
X111716237Y-95886818D01*
X111735278Y-95730000D01*
X111716237Y-95573182D01*
X111716236Y-95573180D01*
X111716236Y-95573178D01*
X111660221Y-95425478D01*
X111612286Y-95356032D01*
X111570483Y-95295470D01*
X111452240Y-95190717D01*
X111452238Y-95190716D01*
X111452237Y-95190715D01*
X111312367Y-95117304D01*
X111231759Y-95097436D01*
X111159675Y-95079670D01*
X111092119Y-95042460D01*
X111052217Y-94976455D01*
X111050663Y-94899343D01*
X111087874Y-94831785D01*
X111153879Y-94791883D01*
X111159656Y-94790334D01*
X111312365Y-94752696D01*
X111452240Y-94679283D01*
X111570483Y-94574530D01*
X111660220Y-94444523D01*
X111662261Y-94439143D01*
X111716236Y-94296821D01*
X111716236Y-94296820D01*
X111716237Y-94296818D01*
X111735278Y-94140000D01*
X111716237Y-93983182D01*
X111716236Y-93983180D01*
X111716236Y-93983178D01*
X111660221Y-93835478D01*
X111594317Y-93740000D01*
X111570483Y-93705470D01*
X111452240Y-93600717D01*
X111452238Y-93600716D01*
X111452237Y-93600715D01*
X111312367Y-93527304D01*
X111205414Y-93500943D01*
X111158985Y-93489500D01*
X111158984Y-93489500D01*
X111141420Y-93485171D01*
X111142413Y-93481140D01*
X111099111Y-93469538D01*
X111044573Y-93415000D01*
X111025696Y-93358447D01*
X111024968Y-93352447D01*
X111035811Y-93276085D01*
X111083383Y-93215375D01*
X111141912Y-93191825D01*
X111141420Y-93189829D01*
X111158984Y-93185500D01*
X111158985Y-93185500D01*
X111312365Y-93147696D01*
X111452240Y-93074283D01*
X111570483Y-92969530D01*
X111660220Y-92839523D01*
X111660392Y-92839071D01*
X111716236Y-92691821D01*
X111716236Y-92691820D01*
X111716237Y-92691818D01*
X111735278Y-92535000D01*
X111716237Y-92378182D01*
X111716236Y-92378180D01*
X111716236Y-92378178D01*
X111660221Y-92230478D01*
X111613482Y-92162765D01*
X111570483Y-92100470D01*
X111452240Y-91995717D01*
X111452238Y-91995716D01*
X111452237Y-91995715D01*
X111312367Y-91922304D01*
X111192234Y-91892695D01*
X111158985Y-91884500D01*
X111158984Y-91884500D01*
X111141420Y-91880171D01*
X111142394Y-91876216D01*
X111098808Y-91864538D01*
X111044270Y-91810000D01*
X111025396Y-91753471D01*
X111024667Y-91747471D01*
X111035498Y-91671108D01*
X111083059Y-91610390D01*
X111141883Y-91586710D01*
X111141420Y-91584829D01*
X111158984Y-91580500D01*
X111158985Y-91580500D01*
X111312365Y-91542696D01*
X111452240Y-91469283D01*
X111570483Y-91364530D01*
X111660220Y-91234523D01*
X111716237Y-91086818D01*
X111735278Y-90930000D01*
X111716237Y-90773182D01*
X111716236Y-90773180D01*
X111716236Y-90773178D01*
X111660221Y-90625478D01*
X111570484Y-90495472D01*
X111570483Y-90495470D01*
X111452240Y-90390717D01*
X111452238Y-90390716D01*
X111452237Y-90390715D01*
X111312367Y-90317304D01*
X111205414Y-90290943D01*
X111158985Y-90279500D01*
X111158984Y-90279500D01*
X111141420Y-90275171D01*
X111142375Y-90271293D01*
X111098504Y-90259538D01*
X111043966Y-90205000D01*
X111025089Y-90148447D01*
X111024361Y-90142447D01*
X111035204Y-90066085D01*
X111082776Y-90005375D01*
X111141857Y-89981603D01*
X111141420Y-89979829D01*
X111153929Y-89976745D01*
X111154329Y-89976585D01*
X111154663Y-89976564D01*
X111158980Y-89975500D01*
X111158985Y-89975500D01*
X111312365Y-89937696D01*
X111452240Y-89864283D01*
X111570483Y-89759530D01*
X111660220Y-89629523D01*
X111670080Y-89603526D01*
X111716236Y-89481821D01*
X111716236Y-89481820D01*
X111716237Y-89481818D01*
X111735278Y-89325000D01*
X111716237Y-89168182D01*
X111716236Y-89168180D01*
X111716236Y-89168178D01*
X111660221Y-89020478D01*
X111570484Y-88890472D01*
X111570483Y-88890470D01*
X111452240Y-88785717D01*
X111452238Y-88785716D01*
X111452237Y-88785715D01*
X111312367Y-88712304D01*
X111189917Y-88682124D01*
X111158985Y-88674500D01*
X111158984Y-88674500D01*
X111141420Y-88670171D01*
X111142356Y-88666369D01*
X111098201Y-88654538D01*
X111043663Y-88600000D01*
X111024789Y-88543471D01*
X111024060Y-88537471D01*
X111034891Y-88461108D01*
X111082452Y-88400390D01*
X111141828Y-88376487D01*
X111141420Y-88374829D01*
X111153103Y-88371949D01*
X111154001Y-88371588D01*
X111154754Y-88371542D01*
X111158982Y-88370500D01*
X111158985Y-88370500D01*
X111312365Y-88332696D01*
X111452240Y-88259283D01*
X111570483Y-88154530D01*
X111660220Y-88024523D01*
X111716237Y-87876818D01*
X111735278Y-87720000D01*
X111716237Y-87563182D01*
X111716236Y-87563180D01*
X111716236Y-87563178D01*
X111660221Y-87415478D01*
X111608122Y-87340000D01*
X111570483Y-87285470D01*
X111452240Y-87180717D01*
X111452238Y-87180716D01*
X111452237Y-87180715D01*
X111312364Y-87107303D01*
X111144676Y-87065972D01*
X111077118Y-87028761D01*
X111037217Y-86962757D01*
X111035664Y-86885644D01*
X111072875Y-86818086D01*
X111138879Y-86778185D01*
X111144626Y-86776644D01*
X111282365Y-86742696D01*
X111422240Y-86669283D01*
X111540483Y-86564530D01*
X111630220Y-86434523D01*
X111671993Y-86324378D01*
X111686236Y-86286821D01*
X111686236Y-86286820D01*
X111686237Y-86286818D01*
X111705278Y-86130000D01*
X111686237Y-85973182D01*
X111686236Y-85973180D01*
X111686236Y-85973178D01*
X111630221Y-85825478D01*
X111571219Y-85739999D01*
X111540483Y-85695470D01*
X111422240Y-85590717D01*
X111422238Y-85590716D01*
X111422237Y-85590715D01*
X111282364Y-85517303D01*
X111139084Y-85481988D01*
X111071526Y-85444777D01*
X111031625Y-85378773D01*
X111026828Y-85355277D01*
X111025277Y-85342505D01*
X111025278Y-85342500D01*
X111010408Y-85220037D01*
X111021245Y-85143677D01*
X111068812Y-85082964D01*
X111122663Y-85057410D01*
X111182365Y-85042696D01*
X111322240Y-84969283D01*
X111440483Y-84864530D01*
X111530220Y-84734523D01*
X111535576Y-84720402D01*
X111586236Y-84586821D01*
X111586236Y-84586820D01*
X111586237Y-84586818D01*
X111605278Y-84430000D01*
X111586237Y-84273182D01*
X111586236Y-84273180D01*
X111586236Y-84273178D01*
X111530221Y-84125478D01*
X111467675Y-84034865D01*
X111440483Y-83995470D01*
X111322240Y-83890717D01*
X111322238Y-83890716D01*
X111322237Y-83890715D01*
X111182363Y-83817303D01*
X111129966Y-83804388D01*
X111062408Y-83767177D01*
X111022507Y-83701172D01*
X111017711Y-83677685D01*
X111006237Y-83583182D01*
X111006236Y-83583180D01*
X111006236Y-83583178D01*
X110950221Y-83435478D01*
X110888098Y-83345477D01*
X110860483Y-83305470D01*
X110742240Y-83200717D01*
X110742238Y-83200716D01*
X110742237Y-83200715D01*
X110602367Y-83127304D01*
X110469912Y-83094658D01*
X110448985Y-83089500D01*
X110438999Y-83089500D01*
X110364499Y-83069538D01*
X110309961Y-83015000D01*
X110289999Y-82940500D01*
X110289999Y-82649513D01*
X110289502Y-82640928D01*
X110287090Y-82620125D01*
X110278285Y-82600184D01*
X110266454Y-82523969D01*
X110278285Y-82479813D01*
X110287090Y-82459871D01*
X110289502Y-82439078D01*
X110289999Y-82430479D01*
X110289999Y-81849513D01*
X110289502Y-81840928D01*
X110287090Y-81820125D01*
X110278285Y-81800184D01*
X110266454Y-81723969D01*
X110278285Y-81679813D01*
X110287090Y-81659871D01*
X110289502Y-81639078D01*
X110289999Y-81630479D01*
X110289999Y-81049513D01*
X110289502Y-81040928D01*
X110287090Y-81020125D01*
X110278285Y-81000184D01*
X110266454Y-80923969D01*
X110278285Y-80879813D01*
X110287090Y-80859871D01*
X110289502Y-80839078D01*
X110289999Y-80830479D01*
X110289999Y-80249513D01*
X110289502Y-80240928D01*
X110287090Y-80220125D01*
X110278285Y-80200184D01*
X110266454Y-80123969D01*
X110278285Y-80079813D01*
X110287090Y-80059871D01*
X110289502Y-80039078D01*
X110289999Y-80030479D01*
X110289999Y-79449513D01*
X110289502Y-79440928D01*
X110287090Y-79420125D01*
X110278285Y-79400184D01*
X110266454Y-79323969D01*
X110278285Y-79279813D01*
X110287090Y-79259871D01*
X110289502Y-79239078D01*
X110289999Y-79230479D01*
X110289999Y-78649513D01*
X110289502Y-78640928D01*
X110287090Y-78620123D01*
X110241787Y-78517522D01*
X110162478Y-78438213D01*
X110059873Y-78392909D01*
X110039078Y-78390497D01*
X110030480Y-78390000D01*
X109893552Y-78390000D01*
X109095358Y-79188193D01*
X109028563Y-79226757D01*
X108951435Y-79226757D01*
X108884640Y-79188193D01*
X108086447Y-78390000D01*
X108793554Y-78390000D01*
X108989999Y-78586446D01*
X109186445Y-78390000D01*
X108793554Y-78390000D01*
X108086447Y-78390000D01*
X107949513Y-78390000D01*
X107940929Y-78390497D01*
X107920123Y-78392909D01*
X107817522Y-78438212D01*
X107738213Y-78517521D01*
X107692909Y-78620126D01*
X107690497Y-78640921D01*
X107690000Y-78649520D01*
X107690000Y-79230486D01*
X107690497Y-79239071D01*
X107692909Y-79259873D01*
X107701715Y-79279816D01*
X107713545Y-79356032D01*
X107701715Y-79400182D01*
X107692910Y-79420123D01*
X107690497Y-79440921D01*
X107690000Y-79449520D01*
X107690000Y-80030486D01*
X107690497Y-80039071D01*
X107692909Y-80059873D01*
X107701715Y-80079816D01*
X107713545Y-80156032D01*
X107701715Y-80200182D01*
X107692910Y-80220123D01*
X107690497Y-80240921D01*
X107690000Y-80249520D01*
X107690000Y-80830486D01*
X107690497Y-80839071D01*
X107692909Y-80859873D01*
X107701715Y-80879816D01*
X107713545Y-80956032D01*
X107701715Y-81000182D01*
X107692910Y-81020123D01*
X107690497Y-81040921D01*
X107690000Y-81049520D01*
X107690000Y-81630486D01*
X107690497Y-81639071D01*
X107692909Y-81659873D01*
X107701715Y-81679816D01*
X107713545Y-81756032D01*
X107701715Y-81800182D01*
X107692910Y-81820123D01*
X107690497Y-81840921D01*
X107690000Y-81849520D01*
X107690000Y-82430486D01*
X107690497Y-82439071D01*
X107692909Y-82459873D01*
X107701715Y-82479816D01*
X107713545Y-82556032D01*
X107701715Y-82600182D01*
X107692910Y-82620123D01*
X107690497Y-82640921D01*
X107690000Y-82649520D01*
X107690000Y-83230486D01*
X107690497Y-83239071D01*
X107692909Y-83259874D01*
X107701441Y-83279196D01*
X107713272Y-83355412D01*
X107701442Y-83399564D01*
X107692415Y-83420007D01*
X107692414Y-83420009D01*
X107692415Y-83420009D01*
X107689500Y-83445135D01*
X107689500Y-83449430D01*
X107689500Y-83449431D01*
X107689500Y-84030558D01*
X107689501Y-84030568D01*
X107689501Y-84034864D01*
X107689996Y-84039134D01*
X107689997Y-84039143D01*
X107692414Y-84059991D01*
X107701168Y-84079816D01*
X107712998Y-84156032D01*
X107701169Y-84200179D01*
X107692415Y-84220004D01*
X107690022Y-84240630D01*
X107689500Y-84245135D01*
X107689500Y-84249430D01*
X107689500Y-84249431D01*
X107689500Y-84830558D01*
X107689501Y-84830568D01*
X107689501Y-84834864D01*
X107689996Y-84839134D01*
X107689997Y-84839143D01*
X107692414Y-84859991D01*
X107701168Y-84879816D01*
X107712998Y-84956032D01*
X107701169Y-85000179D01*
X107692415Y-85020004D01*
X107690022Y-85040630D01*
X107689500Y-85045135D01*
X107689500Y-85049430D01*
X107689500Y-85049431D01*
X107689500Y-85630558D01*
X107689501Y-85630568D01*
X107689501Y-85634864D01*
X107689996Y-85639134D01*
X107689997Y-85639143D01*
X107692414Y-85659991D01*
X107701168Y-85679816D01*
X107712998Y-85756032D01*
X107701169Y-85800179D01*
X107692415Y-85820004D01*
X107690022Y-85840630D01*
X107689500Y-85845135D01*
X107689500Y-85849430D01*
X107689500Y-85849431D01*
X107689500Y-86430558D01*
X107689501Y-86430568D01*
X107689501Y-86434864D01*
X107689996Y-86439134D01*
X107689997Y-86439143D01*
X107692414Y-86459991D01*
X107701168Y-86479816D01*
X107712998Y-86556032D01*
X107701169Y-86600179D01*
X107692415Y-86620004D01*
X107690715Y-86634665D01*
X107689500Y-86645135D01*
X107689500Y-86649430D01*
X107689500Y-86649431D01*
X107689500Y-87230558D01*
X107689501Y-87230568D01*
X107689501Y-87234864D01*
X107689996Y-87239134D01*
X107689997Y-87239143D01*
X107692414Y-87259991D01*
X107701168Y-87279816D01*
X107712998Y-87356032D01*
X107701169Y-87400179D01*
X107692415Y-87420004D01*
X107691588Y-87427134D01*
X107689500Y-87445135D01*
X107689500Y-87449430D01*
X107689500Y-87449431D01*
X107689500Y-88030558D01*
X107689501Y-88030568D01*
X107689501Y-88034864D01*
X107689996Y-88039134D01*
X107689997Y-88039143D01*
X107692414Y-88059991D01*
X107701168Y-88079816D01*
X107712998Y-88156032D01*
X107701169Y-88200179D01*
X107692415Y-88220004D01*
X107690022Y-88240630D01*
X107689500Y-88245135D01*
X107689500Y-88249430D01*
X107689500Y-88249431D01*
X107689500Y-88830558D01*
X107689501Y-88830568D01*
X107689501Y-88834864D01*
X107689996Y-88839134D01*
X107689997Y-88839143D01*
X107692414Y-88859991D01*
X107701168Y-88879816D01*
X107712998Y-88956032D01*
X107701169Y-89000179D01*
X107692415Y-89020004D01*
X107690901Y-89033055D01*
X107689500Y-89045135D01*
X107689500Y-89049430D01*
X107689500Y-89049431D01*
X107689500Y-89630558D01*
X107689501Y-89630568D01*
X107689501Y-89634864D01*
X107689996Y-89639134D01*
X107689997Y-89639143D01*
X107692414Y-89659991D01*
X107701168Y-89679816D01*
X107712998Y-89756032D01*
X107701169Y-89800179D01*
X107692415Y-89820004D01*
X107690022Y-89840630D01*
X107689500Y-89845135D01*
X107689500Y-89849430D01*
X107689500Y-89849431D01*
X107689500Y-90430558D01*
X107689501Y-90430568D01*
X107689501Y-90434864D01*
X107689996Y-90439132D01*
X107689997Y-90439143D01*
X107692414Y-90459991D01*
X107701168Y-90479816D01*
X107712998Y-90556032D01*
X107701169Y-90600179D01*
X107692415Y-90620004D01*
X107691780Y-90625479D01*
X107689500Y-90645135D01*
X107689500Y-90649430D01*
X107689500Y-90649431D01*
X107689500Y-91230558D01*
X107689501Y-91230568D01*
X107689501Y-91234864D01*
X107689996Y-91239132D01*
X107689997Y-91239143D01*
X107692414Y-91259991D01*
X107701168Y-91279816D01*
X107712998Y-91356032D01*
X107701169Y-91400179D01*
X107692415Y-91420004D01*
X107690022Y-91440630D01*
X107689500Y-91445135D01*
X107689500Y-91449430D01*
X107689500Y-91449431D01*
X107689500Y-92030558D01*
X107689501Y-92030568D01*
X107689501Y-92034864D01*
X107689996Y-92039132D01*
X107689997Y-92039143D01*
X107692414Y-92059991D01*
X107701168Y-92079816D01*
X107712998Y-92156032D01*
X107701169Y-92200179D01*
X107692415Y-92220004D01*
X107691200Y-92230478D01*
X107689500Y-92245135D01*
X107689500Y-92249430D01*
X107689500Y-92249431D01*
X107689500Y-92830558D01*
X107689500Y-92830575D01*
X107689501Y-92834864D01*
X107689996Y-92839138D01*
X107689997Y-92839143D01*
X107692414Y-92859991D01*
X107701168Y-92879816D01*
X107712998Y-92956032D01*
X107701169Y-93000179D01*
X107692415Y-93020004D01*
X107691691Y-93026248D01*
X107689500Y-93045135D01*
X107689500Y-93049430D01*
X107689500Y-93049431D01*
X107689500Y-93630558D01*
X107689500Y-93630575D01*
X107689501Y-93634864D01*
X107689996Y-93639138D01*
X107689997Y-93639143D01*
X107692414Y-93659991D01*
X107701168Y-93679816D01*
X107712998Y-93756032D01*
X107701169Y-93800179D01*
X107692415Y-93820004D01*
X107690620Y-93835477D01*
X107689500Y-93845135D01*
X107689500Y-93849430D01*
X107689500Y-93849431D01*
X107689500Y-94430558D01*
X107689500Y-94430575D01*
X107689501Y-94434864D01*
X107689996Y-94439138D01*
X107689997Y-94439143D01*
X107692414Y-94459991D01*
X107701168Y-94479816D01*
X107712998Y-94556032D01*
X107701169Y-94600179D01*
X107692415Y-94620004D01*
X107690022Y-94640630D01*
X107689500Y-94645135D01*
X107689500Y-94649430D01*
X107689500Y-94649431D01*
X107689500Y-95230558D01*
X107689500Y-95230575D01*
X107689501Y-95234864D01*
X107689996Y-95239138D01*
X107689997Y-95239143D01*
X107692414Y-95259991D01*
X107701168Y-95279816D01*
X107712998Y-95356032D01*
X107701169Y-95400179D01*
X107692415Y-95420004D01*
X107690022Y-95440630D01*
X107689500Y-95445135D01*
X107689500Y-95449430D01*
X107689500Y-95449431D01*
X107689500Y-96030558D01*
X107689500Y-96030575D01*
X107689501Y-96034864D01*
X107689996Y-96039138D01*
X107689997Y-96039143D01*
X107692414Y-96059991D01*
X107701168Y-96079816D01*
X107712998Y-96156032D01*
X107701169Y-96200179D01*
X107692415Y-96220004D01*
X107690022Y-96240630D01*
X107689500Y-96245135D01*
X107689500Y-96249430D01*
X107689500Y-96249431D01*
X107689500Y-96830558D01*
X107689500Y-96830575D01*
X107689501Y-96834864D01*
X107689996Y-96839138D01*
X107689997Y-96839143D01*
X107692414Y-96859991D01*
X107701168Y-96879816D01*
X107712998Y-96956032D01*
X107701169Y-97000179D01*
X107692415Y-97020004D01*
X107692148Y-97022307D01*
X107689500Y-97045135D01*
X107689500Y-97049430D01*
X107689500Y-97049431D01*
X107689500Y-97630558D01*
X107689500Y-97630575D01*
X106491452Y-97630575D01*
X106496814Y-76189663D01*
X109410728Y-76189663D01*
X109440770Y-76385773D01*
X109509674Y-76571819D01*
X109614621Y-76740190D01*
X109751307Y-76883985D01*
X109914145Y-76997324D01*
X109965822Y-77019500D01*
X110096465Y-77075563D01*
X110290801Y-77115500D01*
X110435686Y-77115500D01*
X110439473Y-77115500D01*
X110587379Y-77100459D01*
X110776678Y-77041067D01*
X110950146Y-76944784D01*
X111084600Y-76829359D01*
X111100679Y-76815556D01*
X111100679Y-76815554D01*
X111100682Y-76815553D01*
X111222122Y-76658666D01*
X111309495Y-76480544D01*
X111359224Y-76288480D01*
X111369272Y-76090337D01*
X111339230Y-75894227D01*
X111270325Y-75708180D01*
X111165380Y-75539811D01*
X111130558Y-75503178D01*
X111028692Y-75396014D01*
X110865854Y-75282675D01*
X110683533Y-75204436D01*
X110489199Y-75164500D01*
X110340527Y-75164500D01*
X110336770Y-75164882D01*
X110336771Y-75164882D01*
X110192619Y-75179541D01*
X110003318Y-75238934D01*
X109829854Y-75335215D01*
X109679320Y-75464443D01*
X109557877Y-75621335D01*
X109470505Y-75799455D01*
X109420776Y-75991520D01*
X109410728Y-76189663D01*
X106496814Y-76189663D01*
X106497674Y-72750000D01*
X108364722Y-72750000D01*
X108383763Y-72906821D01*
X108439778Y-73054521D01*
X108520317Y-73171202D01*
X108529517Y-73184530D01*
X108647760Y-73289283D01*
X108647762Y-73289284D01*
X108787632Y-73362695D01*
X108787634Y-73362695D01*
X108787635Y-73362696D01*
X108941015Y-73400500D01*
X108941016Y-73400500D01*
X109098984Y-73400500D01*
X109098985Y-73400500D01*
X109252365Y-73362696D01*
X109392240Y-73289283D01*
X109478381Y-73212969D01*
X109547380Y-73178511D01*
X109577183Y-73175500D01*
X124681529Y-73175500D01*
X124756029Y-73195462D01*
X124780327Y-73212966D01*
X124877760Y-73299283D01*
X124877762Y-73299284D01*
X125017632Y-73372695D01*
X125017634Y-73372695D01*
X125017635Y-73372696D01*
X125171015Y-73410500D01*
X125217034Y-73410500D01*
X125291534Y-73430462D01*
X125322393Y-73454141D01*
X126661014Y-74792762D01*
X126699578Y-74859557D01*
X126699578Y-74936685D01*
X126661014Y-75003480D01*
X126619831Y-75027256D01*
X126621712Y-75030839D01*
X126465816Y-75112660D01*
X126347572Y-75217413D01*
X126322293Y-75254036D01*
X126267322Y-75302148D01*
X126264835Y-75303414D01*
X126186624Y-75381626D01*
X126186623Y-75381628D01*
X126169526Y-75398724D01*
X126169526Y-75398725D01*
X125368968Y-76199284D01*
X124592393Y-76975859D01*
X124525598Y-77014423D01*
X124487034Y-77019500D01*
X124421015Y-77019500D01*
X124382670Y-77028951D01*
X124267632Y-77057304D01*
X124127762Y-77130715D01*
X124009515Y-77235472D01*
X123919778Y-77365478D01*
X123863763Y-77513178D01*
X123844722Y-77669999D01*
X123863763Y-77826821D01*
X123919778Y-77974521D01*
X123944075Y-78009721D01*
X124009517Y-78104530D01*
X124127760Y-78209283D01*
X124127762Y-78209284D01*
X124267632Y-78282695D01*
X124267634Y-78282695D01*
X124267635Y-78282696D01*
X124421015Y-78320500D01*
X124421016Y-78320500D01*
X124578984Y-78320500D01*
X124578985Y-78320500D01*
X124732365Y-78282696D01*
X124872240Y-78209283D01*
X124990483Y-78104530D01*
X125080220Y-77974523D01*
X125081664Y-77970717D01*
X125136236Y-77826821D01*
X125136236Y-77826820D01*
X125136237Y-77826818D01*
X125155278Y-77670000D01*
X125155277Y-77669994D01*
X125156477Y-77660114D01*
X125185273Y-77588563D01*
X125199025Y-77572721D01*
X126467179Y-76304566D01*
X126533972Y-76266004D01*
X126608194Y-76265257D01*
X126759069Y-76302444D01*
X126759071Y-76302444D01*
X126917040Y-76302444D01*
X126917041Y-76302444D01*
X127070421Y-76264640D01*
X127210296Y-76191227D01*
X127328539Y-76086474D01*
X127418276Y-75956467D01*
X127448316Y-75877257D01*
X127493395Y-75814682D01*
X127563728Y-75783027D01*
X127640466Y-75790779D01*
X127692990Y-75824738D01*
X138775358Y-86907106D01*
X138809316Y-86959629D01*
X138844099Y-87051346D01*
X138882724Y-87107304D01*
X138933838Y-87181355D01*
X139052081Y-87286108D01*
X139052083Y-87286109D01*
X139191953Y-87359520D01*
X139191955Y-87359520D01*
X139191956Y-87359521D01*
X139345336Y-87397325D01*
X139345337Y-87397325D01*
X139503305Y-87397325D01*
X139503306Y-87397325D01*
X139656686Y-87359521D01*
X139796561Y-87286108D01*
X139914804Y-87181355D01*
X140004541Y-87051348D01*
X140004909Y-87050379D01*
X140060557Y-86903646D01*
X140060557Y-86903645D01*
X140060558Y-86903643D01*
X140079599Y-86746825D01*
X140060558Y-86590007D01*
X140060557Y-86590005D01*
X140060557Y-86590003D01*
X140004542Y-86442303D01*
X139945632Y-86356957D01*
X139914804Y-86312295D01*
X139796561Y-86207542D01*
X139796559Y-86207541D01*
X139796558Y-86207540D01*
X139656688Y-86134129D01*
X139549591Y-86107733D01*
X139503306Y-86096325D01*
X139345336Y-86096325D01*
X139345335Y-86096325D01*
X139284715Y-86111265D01*
X139207602Y-86109710D01*
X139143701Y-86071953D01*
X125948615Y-72876867D01*
X125910051Y-72810072D01*
X125907782Y-72777920D01*
X125907458Y-72777960D01*
X125905277Y-72760002D01*
X125905278Y-72760000D01*
X125886237Y-72603182D01*
X125886236Y-72603180D01*
X125886236Y-72603178D01*
X125830221Y-72455478D01*
X125740484Y-72325472D01*
X125740483Y-72325470D01*
X125622240Y-72220717D01*
X125622238Y-72220716D01*
X125622237Y-72220715D01*
X125482367Y-72147304D01*
X125380111Y-72122101D01*
X125328985Y-72109500D01*
X125171015Y-72109500D01*
X125132669Y-72118951D01*
X125017632Y-72147304D01*
X124877760Y-72220716D01*
X124802908Y-72287029D01*
X124733907Y-72321489D01*
X124704104Y-72324500D01*
X109577183Y-72324500D01*
X109502683Y-72304538D01*
X109478385Y-72287034D01*
X109392240Y-72210717D01*
X109380138Y-72204365D01*
X109252367Y-72137304D01*
X109139557Y-72109500D01*
X109098985Y-72099500D01*
X108941015Y-72099500D01*
X108902670Y-72108950D01*
X108787632Y-72137304D01*
X108647762Y-72210715D01*
X108529515Y-72315472D01*
X108439778Y-72445478D01*
X108383763Y-72593178D01*
X108364722Y-72750000D01*
X106497674Y-72750000D01*
X106499962Y-63598935D01*
X106519943Y-63524443D01*
X106574494Y-63469919D01*
X106648934Y-63449975D01*
X165362000Y-63440500D01*
X168311037Y-63440500D01*
X168385537Y-63460462D01*
G37*
%TD.AperFunction*%
%TA.AperFunction,Conductor*%
G36*
X147512772Y-83809692D02*
G01*
X147530037Y-83830409D01*
X147629515Y-83974528D01*
X147629516Y-83974529D01*
X147629517Y-83974530D01*
X147674304Y-84014207D01*
X147716831Y-84078549D01*
X147724500Y-84125735D01*
X147724500Y-85442034D01*
X147704538Y-85516534D01*
X147680859Y-85547393D01*
X141187393Y-92040859D01*
X141120598Y-92079423D01*
X141082034Y-92084500D01*
X141016015Y-92084500D01*
X140977669Y-92093951D01*
X140862632Y-92122304D01*
X140722762Y-92195715D01*
X140671785Y-92240876D01*
X140619062Y-92287585D01*
X140604515Y-92300472D01*
X140514778Y-92430478D01*
X140458763Y-92578178D01*
X140439722Y-92735000D01*
X140458763Y-92891821D01*
X140514778Y-93039521D01*
X140563483Y-93110082D01*
X140604517Y-93169530D01*
X140722760Y-93274283D01*
X140722762Y-93274284D01*
X140862632Y-93347695D01*
X140862634Y-93347695D01*
X140862635Y-93347696D01*
X141016015Y-93385500D01*
X141016016Y-93385500D01*
X141173984Y-93385500D01*
X141173985Y-93385500D01*
X141327365Y-93347696D01*
X141467240Y-93274283D01*
X141487859Y-93256015D01*
X141556860Y-93221555D01*
X141633848Y-93226212D01*
X141698192Y-93268739D01*
X141732653Y-93337740D01*
X141727996Y-93414728D01*
X141709289Y-93452185D01*
X141611723Y-93593534D01*
X141555707Y-93741234D01*
X141536666Y-93898056D01*
X141555651Y-94054413D01*
X141544814Y-94130776D01*
X141497247Y-94191489D01*
X141443395Y-94217042D01*
X141361191Y-94237303D01*
X141221318Y-94310715D01*
X141103071Y-94415472D01*
X141013334Y-94545478D01*
X140957319Y-94693178D01*
X140944266Y-94800682D01*
X140938278Y-94850000D01*
X140941757Y-94878656D01*
X140957319Y-95006821D01*
X141013334Y-95154521D01*
X141078998Y-95249651D01*
X141103073Y-95284530D01*
X141221316Y-95389283D01*
X141221318Y-95389284D01*
X141361188Y-95462695D01*
X141361190Y-95462695D01*
X141361191Y-95462696D01*
X141514571Y-95500500D01*
X141514572Y-95500500D01*
X141672540Y-95500500D01*
X141672541Y-95500500D01*
X141825921Y-95462696D01*
X141965796Y-95389283D01*
X142051937Y-95312969D01*
X142120936Y-95278511D01*
X142150739Y-95275500D01*
X142337392Y-95275500D01*
X142337393Y-95275500D01*
X142358489Y-95268644D01*
X142381217Y-95263188D01*
X142403126Y-95259719D01*
X142422888Y-95249648D01*
X142444488Y-95240701D01*
X142465581Y-95233849D01*
X142483527Y-95220809D01*
X142503453Y-95208598D01*
X142523220Y-95198528D01*
X142618528Y-95103220D01*
X144960141Y-92761606D01*
X145026936Y-92723042D01*
X145104064Y-92723042D01*
X145170859Y-92761606D01*
X145209423Y-92828401D01*
X145214500Y-92866965D01*
X145214500Y-97072249D01*
X145194538Y-97146749D01*
X145164305Y-97183777D01*
X145049517Y-97285469D01*
X144959778Y-97415478D01*
X144903763Y-97563178D01*
X144889601Y-97679816D01*
X144884722Y-97720000D01*
X144902636Y-97867542D01*
X144891800Y-97943903D01*
X144844233Y-98004617D01*
X144772683Y-98033414D01*
X144754723Y-98034500D01*
X141712704Y-98034500D01*
X141638204Y-98014538D01*
X141583666Y-97960000D01*
X141573387Y-97938337D01*
X141566803Y-97920977D01*
X141526659Y-97862818D01*
X141477066Y-97790970D01*
X141358823Y-97686217D01*
X141358821Y-97686216D01*
X141358820Y-97686215D01*
X141218950Y-97612804D01*
X141116694Y-97587601D01*
X141065568Y-97575000D01*
X141065567Y-97575000D01*
X141054364Y-97575000D01*
X140979864Y-97555038D01*
X140925326Y-97500500D01*
X140915047Y-97478836D01*
X140877312Y-97379338D01*
X140864720Y-97346135D01*
X140774983Y-97216128D01*
X140656740Y-97111375D01*
X140656738Y-97111374D01*
X140656737Y-97111373D01*
X140516867Y-97037962D01*
X140375137Y-97003030D01*
X140363485Y-97000158D01*
X140205515Y-97000158D01*
X140193863Y-97003030D01*
X140052132Y-97037962D01*
X139912262Y-97111373D01*
X139866147Y-97152227D01*
X139796177Y-97214215D01*
X139794015Y-97216130D01*
X139792851Y-97217817D01*
X139734099Y-97267786D01*
X139658233Y-97281685D01*
X139585582Y-97255790D01*
X139564871Y-97238528D01*
X139187472Y-96861129D01*
X139148908Y-96794334D01*
X139148908Y-96717206D01*
X139153507Y-96702951D01*
X139165707Y-96670786D01*
X139184748Y-96513968D01*
X139165707Y-96357150D01*
X139165706Y-96357148D01*
X139165706Y-96357146D01*
X139109691Y-96209446D01*
X139064796Y-96144405D01*
X139019953Y-96079438D01*
X138901710Y-95974685D01*
X138901708Y-95974684D01*
X138901707Y-95974683D01*
X138761837Y-95901272D01*
X138659581Y-95876069D01*
X138608455Y-95863468D01*
X138450485Y-95863468D01*
X138412139Y-95872919D01*
X138297102Y-95901272D01*
X138157232Y-95974683D01*
X138128246Y-96000362D01*
X138060939Y-96059991D01*
X138038985Y-96079440D01*
X137949248Y-96209446D01*
X137893233Y-96357146D01*
X137874192Y-96513968D01*
X137893233Y-96670787D01*
X137899634Y-96687665D01*
X137907386Y-96764403D01*
X137875731Y-96834735D01*
X137813151Y-96879818D01*
X137760316Y-96889500D01*
X137664404Y-96889500D01*
X137532519Y-96922006D01*
X137455407Y-96920452D01*
X137389402Y-96880550D01*
X137357546Y-96830174D01*
X137304720Y-96690883D01*
X137214983Y-96560876D01*
X137096740Y-96456123D01*
X137096738Y-96456122D01*
X137096737Y-96456121D01*
X136956867Y-96382710D01*
X136852549Y-96356999D01*
X136803485Y-96344906D01*
X136645515Y-96344906D01*
X136607170Y-96354357D01*
X136492132Y-96382710D01*
X136352262Y-96456121D01*
X136234015Y-96560878D01*
X136144278Y-96690884D01*
X136088263Y-96838584D01*
X136069393Y-96994000D01*
X136069222Y-96995406D01*
X136071659Y-97015477D01*
X136088263Y-97152227D01*
X136144279Y-97299927D01*
X136144280Y-97299929D01*
X136153611Y-97313447D01*
X136227158Y-97420000D01*
X136234017Y-97429936D01*
X136264302Y-97456766D01*
X136306831Y-97521109D01*
X136314500Y-97568296D01*
X136314500Y-98015754D01*
X136294538Y-98090254D01*
X136240000Y-98144792D01*
X136165500Y-98164754D01*
X136119464Y-98157463D01*
X136114712Y-98155919D01*
X136093117Y-98146974D01*
X136073351Y-98136902D01*
X136051444Y-98133433D01*
X136028706Y-98127974D01*
X136022398Y-98125924D01*
X136016521Y-98124015D01*
X135963768Y-98093839D01*
X135866129Y-98007340D01*
X135866127Y-98007339D01*
X135866126Y-98007338D01*
X135726256Y-97933927D01*
X135624000Y-97908724D01*
X135572874Y-97896123D01*
X135414904Y-97896123D01*
X135376558Y-97905573D01*
X135261521Y-97933927D01*
X135121651Y-98007338D01*
X135121648Y-98007340D01*
X135121649Y-98007340D01*
X135028058Y-98090254D01*
X135003403Y-98112096D01*
X134907844Y-98250537D01*
X134849095Y-98300509D01*
X134773230Y-98314412D01*
X134700578Y-98288519D01*
X134650606Y-98229770D01*
X134636703Y-98153905D01*
X134645901Y-98113064D01*
X134701737Y-97965838D01*
X134720778Y-97809020D01*
X134701737Y-97652202D01*
X134701736Y-97652200D01*
X134701736Y-97652198D01*
X134645720Y-97504498D01*
X134645720Y-97504497D01*
X134603959Y-97443996D01*
X134578068Y-97371345D01*
X134591971Y-97295480D01*
X134603961Y-97274714D01*
X134606199Y-97271472D01*
X134645720Y-97214216D01*
X134686811Y-97105867D01*
X134701736Y-97066514D01*
X134701736Y-97066513D01*
X134701737Y-97066511D01*
X134720778Y-96909693D01*
X134701737Y-96752875D01*
X134701736Y-96752873D01*
X134701736Y-96752871D01*
X134645721Y-96605171D01*
X134582767Y-96513967D01*
X134555983Y-96475163D01*
X134437740Y-96370410D01*
X134390437Y-96345583D01*
X134333749Y-96293285D01*
X134310804Y-96219649D01*
X134327751Y-96144405D01*
X134380049Y-96087717D01*
X134390418Y-96081729D01*
X134452240Y-96049283D01*
X134486839Y-96018630D01*
X134555838Y-95984170D01*
X134632825Y-95988827D01*
X134684447Y-96018630D01*
X134707760Y-96039283D01*
X134847632Y-96112695D01*
X134847634Y-96112695D01*
X134847635Y-96112696D01*
X135001015Y-96150500D01*
X135001016Y-96150500D01*
X135158984Y-96150500D01*
X135158985Y-96150500D01*
X135312365Y-96112696D01*
X135452240Y-96039283D01*
X135452240Y-96039282D01*
X135459514Y-96035465D01*
X135534757Y-96018518D01*
X135598004Y-96035465D01*
X135609454Y-96041475D01*
X135609456Y-96041476D01*
X135644508Y-96059873D01*
X135749328Y-96114888D01*
X135749330Y-96114888D01*
X135749331Y-96114889D01*
X135902711Y-96152693D01*
X135902712Y-96152693D01*
X136060680Y-96152693D01*
X136060681Y-96152693D01*
X136214061Y-96114889D01*
X136353936Y-96041476D01*
X136472179Y-95936723D01*
X136561916Y-95806716D01*
X136573798Y-95775387D01*
X136617932Y-95659014D01*
X136617932Y-95659013D01*
X136617933Y-95659011D01*
X136636974Y-95502193D01*
X136617933Y-95345375D01*
X136617932Y-95345373D01*
X136617932Y-95345371D01*
X136566425Y-95209558D01*
X136558672Y-95132821D01*
X136590326Y-95062488D01*
X136600373Y-95051373D01*
X146864554Y-84787194D01*
X146888528Y-84763220D01*
X146898598Y-84743456D01*
X146910806Y-84723533D01*
X146923850Y-84705581D01*
X146930702Y-84684487D01*
X146939652Y-84662882D01*
X146949717Y-84643129D01*
X146949719Y-84643126D01*
X146953189Y-84621209D01*
X146958644Y-84598492D01*
X146965500Y-84577393D01*
X146965500Y-84442607D01*
X146965500Y-84442606D01*
X146965500Y-84207965D01*
X146985462Y-84133465D01*
X147009141Y-84102606D01*
X147149980Y-83961767D01*
X147302056Y-83809690D01*
X147368849Y-83771128D01*
X147445977Y-83771128D01*
X147512772Y-83809692D01*
G37*
%TD.AperFunction*%
%TA.AperFunction,Conductor*%
G36*
X137622534Y-91840462D02*
G01*
X137677072Y-91895000D01*
X137697034Y-91969500D01*
X137677072Y-92044000D01*
X137653393Y-92074859D01*
X134849594Y-94878656D01*
X134813480Y-94905229D01*
X134707760Y-94960716D01*
X134673160Y-94991369D01*
X134604158Y-95025829D01*
X134527170Y-95021171D01*
X134475552Y-94991369D01*
X134452240Y-94970716D01*
X134312367Y-94897304D01*
X134210111Y-94872101D01*
X134158985Y-94859500D01*
X134001015Y-94859500D01*
X133962670Y-94868951D01*
X133847632Y-94897304D01*
X133691742Y-94979124D01*
X133689416Y-94974692D01*
X133651135Y-94993446D01*
X133574185Y-94988199D01*
X133554450Y-94976664D01*
X133553159Y-94979124D01*
X133397268Y-94897304D01*
X133295012Y-94872101D01*
X133243886Y-94859500D01*
X133085916Y-94859500D01*
X133047571Y-94868951D01*
X132932533Y-94897304D01*
X132776643Y-94979124D01*
X132774319Y-94974697D01*
X132735806Y-94993490D01*
X132658865Y-94988122D01*
X132639332Y-94976702D01*
X132638062Y-94979124D01*
X132482171Y-94897304D01*
X132379915Y-94872101D01*
X132328789Y-94859500D01*
X132170819Y-94859500D01*
X132132474Y-94868951D01*
X132017436Y-94897304D01*
X131861546Y-94979124D01*
X131859222Y-94974697D01*
X131820709Y-94993490D01*
X131743768Y-94988122D01*
X131724235Y-94976702D01*
X131722965Y-94979124D01*
X131567074Y-94897304D01*
X131464818Y-94872101D01*
X131413692Y-94859500D01*
X131255722Y-94859500D01*
X131217376Y-94868950D01*
X131102339Y-94897304D01*
X130962469Y-94970715D01*
X130905516Y-95021171D01*
X130871436Y-95051363D01*
X130844222Y-95075472D01*
X130754485Y-95205478D01*
X130698470Y-95353178D01*
X130685173Y-95462695D01*
X130680583Y-95500500D01*
X130678229Y-95519884D01*
X130649432Y-95591435D01*
X130635674Y-95607283D01*
X128792100Y-97450859D01*
X128725305Y-97489423D01*
X128686741Y-97494500D01*
X125886094Y-97494500D01*
X125811594Y-97474538D01*
X125757056Y-97420000D01*
X125738180Y-97363459D01*
X125737519Y-97358020D01*
X125737520Y-97358017D01*
X125718479Y-97201199D01*
X125718478Y-97201197D01*
X125718478Y-97201195D01*
X125662463Y-97053495D01*
X125595189Y-96956032D01*
X125572725Y-96923487D01*
X125454482Y-96818734D01*
X125415254Y-96798145D01*
X125358565Y-96745846D01*
X125335621Y-96672210D01*
X125335500Y-96666213D01*
X125335500Y-96356999D01*
X125335500Y-96066512D01*
X125335500Y-96066511D01*
X125335500Y-96032607D01*
X125328643Y-96011507D01*
X125323188Y-95988783D01*
X125319719Y-95966874D01*
X125309648Y-95947110D01*
X125300698Y-95925501D01*
X125299714Y-95922472D01*
X125293849Y-95904419D01*
X125280814Y-95886478D01*
X125268598Y-95866543D01*
X125258459Y-95846644D01*
X125242423Y-95771202D01*
X125266257Y-95697849D01*
X125323575Y-95646240D01*
X125391219Y-95630000D01*
X125552817Y-95630000D01*
X125627317Y-95649962D01*
X125651614Y-95667465D01*
X125737760Y-95743783D01*
X125786546Y-95769388D01*
X125877632Y-95817195D01*
X125877634Y-95817195D01*
X125877635Y-95817196D01*
X126031015Y-95855000D01*
X126031016Y-95855000D01*
X126188984Y-95855000D01*
X126188985Y-95855000D01*
X126342365Y-95817196D01*
X126482240Y-95743783D01*
X126600483Y-95639030D01*
X126690220Y-95509023D01*
X126692811Y-95502193D01*
X126746236Y-95361321D01*
X126746236Y-95361320D01*
X126746237Y-95361318D01*
X126765278Y-95204500D01*
X126746237Y-95047682D01*
X126746236Y-95047680D01*
X126746236Y-95047678D01*
X126690221Y-94899978D01*
X126614654Y-94790500D01*
X126600483Y-94769970D01*
X126482240Y-94665217D01*
X126482238Y-94665216D01*
X126482237Y-94665215D01*
X126342367Y-94591804D01*
X126214294Y-94560238D01*
X126188985Y-94554000D01*
X126031015Y-94554000D01*
X126022771Y-94556032D01*
X125877632Y-94591804D01*
X125737763Y-94665215D01*
X125737761Y-94665216D01*
X125737760Y-94665217D01*
X125651618Y-94741530D01*
X125582620Y-94775989D01*
X125552817Y-94779000D01*
X125202465Y-94779000D01*
X125127965Y-94759038D01*
X125097106Y-94735359D01*
X124953551Y-94591804D01*
X124921984Y-94560236D01*
X124883421Y-94493443D01*
X124883421Y-94416315D01*
X124921985Y-94349520D01*
X124958096Y-94322948D01*
X125022240Y-94289283D01*
X125140483Y-94184530D01*
X125230220Y-94054523D01*
X125239901Y-94028998D01*
X125286236Y-93906821D01*
X125286236Y-93906820D01*
X125286237Y-93906818D01*
X125305278Y-93750000D01*
X125286237Y-93593182D01*
X125286236Y-93593180D01*
X125286236Y-93593178D01*
X125230221Y-93445478D01*
X125140484Y-93315472D01*
X125140483Y-93315470D01*
X125022240Y-93210717D01*
X125022238Y-93210716D01*
X125022237Y-93210715D01*
X124882367Y-93137304D01*
X124765614Y-93108528D01*
X124728985Y-93099500D01*
X124571015Y-93099500D01*
X124528080Y-93110082D01*
X124450968Y-93108528D01*
X124387065Y-93070770D01*
X124242785Y-92926490D01*
X124204221Y-92859695D01*
X124204221Y-92782567D01*
X124208827Y-92768295D01*
X124225989Y-92723042D01*
X124243709Y-92676318D01*
X124262750Y-92519500D01*
X124252788Y-92437457D01*
X124263625Y-92361097D01*
X124311192Y-92300383D01*
X124382742Y-92271586D01*
X124400702Y-92270500D01*
X128989138Y-92270500D01*
X129063638Y-92290462D01*
X129118176Y-92345000D01*
X129137050Y-92401537D01*
X129138820Y-92416106D01*
X129143763Y-92456821D01*
X129199778Y-92604521D01*
X129252490Y-92680887D01*
X129289517Y-92734530D01*
X129407760Y-92839283D01*
X129408217Y-92839523D01*
X129547632Y-92912695D01*
X129547634Y-92912695D01*
X129547635Y-92912696D01*
X129701015Y-92950500D01*
X129701016Y-92950500D01*
X129858984Y-92950500D01*
X129858985Y-92950500D01*
X130012365Y-92912696D01*
X130152240Y-92839283D01*
X130270483Y-92734530D01*
X130360220Y-92604523D01*
X130363561Y-92595715D01*
X130416236Y-92456821D01*
X130416236Y-92456820D01*
X130416237Y-92456818D01*
X130435278Y-92300000D01*
X130416237Y-92143182D01*
X130410040Y-92126843D01*
X130402287Y-92050108D01*
X130433941Y-91979775D01*
X130496520Y-91934691D01*
X130513691Y-91929340D01*
X130662365Y-91892696D01*
X130756310Y-91843388D01*
X130831553Y-91826442D01*
X130894799Y-91843388D01*
X130988745Y-91892696D01*
X131142125Y-91930500D01*
X131142126Y-91930500D01*
X131300094Y-91930500D01*
X131300095Y-91930500D01*
X131453475Y-91892696D01*
X131547420Y-91843388D01*
X131622663Y-91826442D01*
X131685909Y-91843388D01*
X131779855Y-91892696D01*
X131933235Y-91930500D01*
X131933236Y-91930500D01*
X132091204Y-91930500D01*
X132091205Y-91930500D01*
X132244585Y-91892696D01*
X132338533Y-91843387D01*
X132413775Y-91826442D01*
X132477018Y-91843387D01*
X132570967Y-91892696D01*
X132724347Y-91930500D01*
X132724348Y-91930500D01*
X132882316Y-91930500D01*
X132882317Y-91930500D01*
X133035697Y-91892696D01*
X133105003Y-91856320D01*
X133140736Y-91837567D01*
X133209980Y-91820500D01*
X137548034Y-91820500D01*
X137622534Y-91840462D01*
G37*
%TD.AperFunction*%
%TA.AperFunction,Conductor*%
G36*
X162389606Y-77890462D02*
G01*
X162444144Y-77945000D01*
X162464106Y-78019500D01*
X162454424Y-78072334D01*
X162423763Y-78153182D01*
X162410919Y-78258960D01*
X162382123Y-78330510D01*
X162321410Y-78378077D01*
X162263006Y-78390000D01*
X162183552Y-78390000D01*
X161427693Y-79145859D01*
X161360898Y-79184423D01*
X161322334Y-79189500D01*
X161237665Y-79189500D01*
X161163165Y-79169538D01*
X161132306Y-79145859D01*
X160376447Y-78390000D01*
X161083553Y-78390000D01*
X161279999Y-78586446D01*
X161476445Y-78390000D01*
X161083553Y-78390000D01*
X160376447Y-78390000D01*
X160239513Y-78390000D01*
X160230929Y-78390497D01*
X160210123Y-78392909D01*
X160107522Y-78438212D01*
X160028213Y-78517521D01*
X159982909Y-78620126D01*
X159980497Y-78640921D01*
X159980000Y-78649520D01*
X159980000Y-79230486D01*
X159980496Y-79239066D01*
X159982452Y-79255931D01*
X159971202Y-79332234D01*
X159939801Y-79378450D01*
X159881851Y-79436398D01*
X159881847Y-79436404D01*
X155829859Y-83488392D01*
X155763064Y-83526956D01*
X155685936Y-83526956D01*
X155619141Y-83488392D01*
X155580577Y-83421597D01*
X155575500Y-83383033D01*
X155575500Y-80649158D01*
X155595462Y-80574658D01*
X155625693Y-80537631D01*
X155640483Y-80524530D01*
X155730220Y-80394523D01*
X155765738Y-80300871D01*
X155786236Y-80246821D01*
X155786236Y-80246820D01*
X155786237Y-80246818D01*
X155805278Y-80090000D01*
X155786237Y-79933182D01*
X155786236Y-79933180D01*
X155786236Y-79933178D01*
X155730221Y-79785478D01*
X155674146Y-79704239D01*
X155640483Y-79655470D01*
X155522240Y-79550717D01*
X155522238Y-79550716D01*
X155522237Y-79550715D01*
X155382367Y-79477304D01*
X155274134Y-79450628D01*
X155228985Y-79439500D01*
X155071015Y-79439500D01*
X155032669Y-79448951D01*
X154917632Y-79477304D01*
X154777759Y-79550717D01*
X154717287Y-79604289D01*
X154648285Y-79638748D01*
X154571297Y-79634090D01*
X154518348Y-79599093D01*
X154517081Y-79600524D01*
X154506996Y-79591590D01*
X154506954Y-79591562D01*
X154506929Y-79591530D01*
X154503540Y-79588527D01*
X154503539Y-79588526D01*
X154385296Y-79483773D01*
X154385294Y-79483772D01*
X154385293Y-79483771D01*
X154245423Y-79410360D01*
X154143167Y-79385157D01*
X154092041Y-79372556D01*
X153934071Y-79372556D01*
X153910158Y-79378450D01*
X153780688Y-79410360D01*
X153640816Y-79483772D01*
X153534928Y-79577580D01*
X153465927Y-79612040D01*
X153388939Y-79607383D01*
X153337321Y-79577581D01*
X153265296Y-79513773D01*
X153265294Y-79513772D01*
X153265293Y-79513771D01*
X153125423Y-79440360D01*
X153023167Y-79415157D01*
X152972041Y-79402556D01*
X152814071Y-79402556D01*
X152782408Y-79410360D01*
X152660688Y-79440360D01*
X152520818Y-79513771D01*
X152487949Y-79542890D01*
X152408801Y-79613009D01*
X152402571Y-79618528D01*
X152312834Y-79748534D01*
X152274985Y-79848336D01*
X152229902Y-79910916D01*
X152159569Y-79942571D01*
X152135668Y-79944500D01*
X149503741Y-79944500D01*
X149429241Y-79924538D01*
X149374703Y-79870000D01*
X149354741Y-79795500D01*
X149374703Y-79721000D01*
X149398382Y-79690141D01*
X149545633Y-79542890D01*
X149728200Y-79360322D01*
X149794993Y-79321760D01*
X149797854Y-79321024D01*
X149832223Y-79312554D01*
X149972098Y-79239141D01*
X150090341Y-79134388D01*
X150180078Y-79004381D01*
X150233632Y-78863170D01*
X150267586Y-78810653D01*
X151164099Y-77914141D01*
X151230895Y-77875577D01*
X151269459Y-77870500D01*
X162315106Y-77870500D01*
X162389606Y-77890462D01*
G37*
%TD.AperFunction*%
%TD*%
%TA.AperFunction,NonConductor*%
G36*
X153185859Y-86116606D02*
G01*
X153224423Y-86183401D01*
X153229500Y-86221965D01*
X153229500Y-88392261D01*
X153209538Y-88466761D01*
X153185859Y-88497620D01*
X149736515Y-91946965D01*
X149669720Y-91985529D01*
X149631156Y-91990606D01*
X149157183Y-91990606D01*
X149082683Y-91970644D01*
X149058385Y-91953140D01*
X148972240Y-91876823D01*
X148908538Y-91843389D01*
X148832367Y-91803410D01*
X148730111Y-91778207D01*
X148678985Y-91765606D01*
X148521015Y-91765606D01*
X148482670Y-91775057D01*
X148367632Y-91803410D01*
X148227762Y-91876821D01*
X148109515Y-91981578D01*
X148019778Y-92111584D01*
X147963763Y-92259284D01*
X147944722Y-92416106D01*
X147957258Y-92519352D01*
X147946420Y-92595715D01*
X147898854Y-92656429D01*
X147874594Y-92666731D01*
X147876349Y-92670174D01*
X147835560Y-92690956D01*
X147813964Y-92699901D01*
X147792870Y-92706755D01*
X147774926Y-92719792D01*
X147754996Y-92732005D01*
X147735232Y-92742075D01*
X147722393Y-92754915D01*
X147655598Y-92793479D01*
X147617034Y-92798556D01*
X147551015Y-92798556D01*
X147512670Y-92808007D01*
X147397632Y-92836360D01*
X147257762Y-92909771D01*
X147223640Y-92940000D01*
X147155710Y-93000181D01*
X147139515Y-93014528D01*
X147049778Y-93144534D01*
X146993763Y-93292234D01*
X146974722Y-93449056D01*
X146993763Y-93605877D01*
X147049778Y-93753577D01*
X147115998Y-93849513D01*
X147139517Y-93883586D01*
X147257760Y-93988339D01*
X147397635Y-94061752D01*
X147397636Y-94061752D01*
X147411520Y-94069039D01*
X147468210Y-94121337D01*
X147491155Y-94194973D01*
X147474209Y-94270216D01*
X147421911Y-94326906D01*
X147411521Y-94332904D01*
X147297763Y-94392610D01*
X147297761Y-94392611D01*
X147297760Y-94392612D01*
X147199326Y-94479816D01*
X147179515Y-94497367D01*
X147089778Y-94627373D01*
X147033763Y-94775073D01*
X147014722Y-94931895D01*
X147033763Y-95088716D01*
X147089778Y-95236416D01*
X147164987Y-95345375D01*
X147179517Y-95366425D01*
X147297760Y-95471178D01*
X147374632Y-95511524D01*
X147431319Y-95563820D01*
X147454265Y-95637455D01*
X147437319Y-95712699D01*
X147385021Y-95769388D01*
X147374632Y-95775387D01*
X147293982Y-95817716D01*
X147175736Y-95922472D01*
X147085999Y-96052478D01*
X147029984Y-96200178D01*
X147010943Y-96356999D01*
X147029984Y-96513821D01*
X147085999Y-96661521D01*
X147106267Y-96690884D01*
X147175738Y-96791530D01*
X147293981Y-96896283D01*
X147293982Y-96896283D01*
X147293984Y-96896285D01*
X147294150Y-96896372D01*
X147295778Y-96897874D01*
X147307523Y-96908279D01*
X147307313Y-96908515D01*
X147350838Y-96948670D01*
X147373782Y-97022307D01*
X147356834Y-97097550D01*
X147304536Y-97154238D01*
X147294150Y-97160234D01*
X147281802Y-97166714D01*
X147265455Y-97181196D01*
X147167715Y-97267786D01*
X147163554Y-97271472D01*
X147073817Y-97401478D01*
X147017802Y-97549178D01*
X147001940Y-97679816D01*
X146998761Y-97706000D01*
X147017802Y-97862818D01*
X147017802Y-97862820D01*
X147018376Y-97867540D01*
X147007539Y-97943903D01*
X146959972Y-98004617D01*
X146888422Y-98033414D01*
X146870462Y-98034500D01*
X146325277Y-98034500D01*
X146250777Y-98014538D01*
X146196239Y-97960000D01*
X146176277Y-97885500D01*
X146177362Y-97867548D01*
X146195278Y-97720000D01*
X146176237Y-97563182D01*
X146176236Y-97563180D01*
X146176236Y-97563178D01*
X146140527Y-97469023D01*
X146120220Y-97415477D01*
X146091874Y-97374411D01*
X146065983Y-97301760D01*
X146065500Y-97289771D01*
X146065500Y-93087966D01*
X146085462Y-93013466D01*
X146109141Y-92982607D01*
X149536887Y-89554861D01*
X152975143Y-86116604D01*
X153041936Y-86078042D01*
X153119064Y-86078042D01*
X153185859Y-86116606D01*
G37*
%TD.AperFunction*%
M02*
