%TF.GenerationSoftware,KiCad,Pcbnew,7.0.2*%
%TF.CreationDate,2023-05-22T10:30:23+03:00*%
%TF.ProjectId,MCU_V1,4d43555f-5631-42e6-9b69-6361645f7063,rev?*%
%TF.SameCoordinates,Original*%
%TF.FileFunction,Legend,Bot*%
%TF.FilePolarity,Positive*%
%FSLAX46Y46*%
G04 Gerber Fmt 4.6, Leading zero omitted, Abs format (unit mm)*
G04 Created by KiCad (PCBNEW 7.0.2) date 2023-05-22 10:30:23*
%MOMM*%
%LPD*%
G01*
G04 APERTURE LIST*
%ADD10C,0.150000*%
%ADD11C,0.100000*%
%ADD12C,0.120000*%
%ADD13C,0.525000*%
%ADD14C,0.675000*%
G04 APERTURE END LIST*
D10*
%TO.C,H1*%
X163968094Y-72866904D02*
X163491904Y-72866904D01*
X164063332Y-73152619D02*
X163729999Y-72152619D01*
X163729999Y-72152619D02*
X163396666Y-73152619D01*
X111368571Y-72628809D02*
X111225714Y-72676428D01*
X111225714Y-72676428D02*
X111178095Y-72724047D01*
X111178095Y-72724047D02*
X111130476Y-72819285D01*
X111130476Y-72819285D02*
X111130476Y-72962142D01*
X111130476Y-72962142D02*
X111178095Y-73057380D01*
X111178095Y-73057380D02*
X111225714Y-73105000D01*
X111225714Y-73105000D02*
X111320952Y-73152619D01*
X111320952Y-73152619D02*
X111701904Y-73152619D01*
X111701904Y-73152619D02*
X111701904Y-72152619D01*
X111701904Y-72152619D02*
X111368571Y-72152619D01*
X111368571Y-72152619D02*
X111273333Y-72200238D01*
X111273333Y-72200238D02*
X111225714Y-72247857D01*
X111225714Y-72247857D02*
X111178095Y-72343095D01*
X111178095Y-72343095D02*
X111178095Y-72438333D01*
X111178095Y-72438333D02*
X111225714Y-72533571D01*
X111225714Y-72533571D02*
X111273333Y-72581190D01*
X111273333Y-72581190D02*
X111368571Y-72628809D01*
X111368571Y-72628809D02*
X111701904Y-72628809D01*
D11*
X165780000Y-102440000D02*
X165780000Y-102440000D01*
X165780000Y-102440000D02*
X165780000Y-102440000D01*
X165780000Y-102440000D02*
X165780000Y-99040000D01*
X165780000Y-102440000D02*
X161480000Y-102440000D01*
X165780000Y-99040000D02*
X165780000Y-102440000D01*
X165780000Y-99040000D02*
X165780000Y-99040000D01*
X165780000Y-78040000D02*
X165780000Y-78040000D01*
X165780000Y-78040000D02*
X165780000Y-74640000D01*
X165780000Y-74790000D02*
X165780000Y-78040000D01*
X165780000Y-74790000D02*
X165780000Y-74790000D01*
X165780000Y-74640000D02*
X165780000Y-74640000D01*
X165780000Y-74640000D02*
X161630000Y-74640000D01*
X161630000Y-74640000D02*
X165780000Y-74640000D01*
X161630000Y-74640000D02*
X161630000Y-74640000D01*
X161630000Y-74640000D02*
X161630000Y-74640000D01*
X161630000Y-74640000D02*
X161480000Y-74640000D01*
X161480000Y-102440000D02*
X165780000Y-102440000D01*
X161480000Y-102440000D02*
X161480000Y-102440000D01*
X161480000Y-102440000D02*
X161480000Y-102440000D01*
X161480000Y-102440000D02*
X161480000Y-99040000D01*
X161480000Y-99040000D02*
X161480000Y-102440000D01*
X161480000Y-99040000D02*
X161480000Y-99040000D01*
X161480000Y-78040000D02*
X161480000Y-78040000D01*
X161480000Y-78040000D02*
X161480000Y-74640000D01*
X161480000Y-74640000D02*
X161630000Y-74640000D01*
X161480000Y-74640000D02*
X161480000Y-78040000D01*
X161480000Y-74640000D02*
X161480000Y-74640000D01*
X161480000Y-74640000D02*
X161480000Y-74640000D01*
X113490000Y-102440000D02*
X113490000Y-102440000D01*
X113490000Y-102440000D02*
X113490000Y-102440000D01*
X113490000Y-102440000D02*
X113490000Y-99040000D01*
X113490000Y-102440000D02*
X109190000Y-102440000D01*
X113490000Y-99040000D02*
X113490000Y-102440000D01*
X113490000Y-99040000D02*
X113490000Y-99040000D01*
X113490000Y-78040000D02*
X113490000Y-78040000D01*
X113490000Y-78040000D02*
X113490000Y-74790000D01*
X113490000Y-74790000D02*
X113490000Y-78040000D01*
X113490000Y-74790000D02*
X113490000Y-74790000D01*
X113490000Y-74640000D02*
X113490000Y-74640000D01*
X113490000Y-74640000D02*
X109340000Y-74640000D01*
X109340000Y-74640000D02*
X113490000Y-74640000D01*
X109340000Y-74640000D02*
X109340000Y-74640000D01*
X109340000Y-74640000D02*
X109340000Y-74640000D01*
X109340000Y-74640000D02*
X109190000Y-74640000D01*
X109190000Y-102440000D02*
X113490000Y-102440000D01*
X109190000Y-102440000D02*
X109190000Y-102440000D01*
X109190000Y-102440000D02*
X109190000Y-102440000D01*
X109190000Y-102440000D02*
X109190000Y-99040000D01*
X109190000Y-99040000D02*
X109190000Y-102440000D01*
X109190000Y-99040000D02*
X109190000Y-99040000D01*
X109190000Y-78040000D02*
X109190000Y-78040000D01*
X109190000Y-78040000D02*
X109190000Y-74640000D01*
X109190000Y-74640000D02*
X109340000Y-74640000D01*
X109190000Y-74640000D02*
X109190000Y-78040000D01*
X109190000Y-74640000D02*
X109190000Y-74640000D01*
X109190000Y-74640000D02*
X109190000Y-74640000D01*
D12*
X167730000Y-78190000D02*
X166230000Y-77440000D01*
X167730000Y-76690000D01*
X167730000Y-78190000D01*
G36*
X167730000Y-78190000D02*
G01*
X166230000Y-77440000D01*
X167730000Y-76690000D01*
X167730000Y-78190000D01*
G37*
X115440000Y-78190000D02*
X113940000Y-77440000D01*
X115440000Y-76690000D01*
X115440000Y-78190000D01*
G36*
X115440000Y-78190000D02*
G01*
X113940000Y-77440000D01*
X115440000Y-76690000D01*
X115440000Y-78190000D01*
G37*
%TD*%
D13*
%TO.C,H1*%
X162680000Y-100940000D03*
X110390000Y-100940000D03*
D14*
X162680000Y-76140000D03*
X110390000Y-76140000D03*
%TD*%
M02*
