%TF.GenerationSoftware,KiCad,Pcbnew,7.0.2*%
%TF.CreationDate,2023-05-22T10:30:23+03:00*%
%TF.ProjectId,MCU_V1,4d43555f-5631-42e6-9b69-6361645f7063,rev?*%
%TF.SameCoordinates,Original*%
%TF.FileFunction,Soldermask,Bot*%
%TF.FilePolarity,Negative*%
%FSLAX46Y46*%
G04 Gerber Fmt 4.6, Leading zero omitted, Abs format (unit mm)*
G04 Created by KiCad (PCBNEW 7.0.2) date 2023-05-22 10:30:23*
%MOMM*%
%LPD*%
G01*
G04 APERTURE LIST*
%ADD10R,2.000000X0.500000*%
%ADD11C,0.525000*%
%ADD12C,0.675000*%
G04 APERTURE END LIST*
D10*
%TO.C,H1*%
X165980000Y-78940000D03*
X165980000Y-79740000D03*
X165980000Y-80540000D03*
X165980000Y-81340000D03*
X165980000Y-82140000D03*
X165980000Y-82940000D03*
X165980000Y-83740000D03*
X165980000Y-84540000D03*
X165980000Y-85340000D03*
X165980000Y-86140000D03*
X165980000Y-86940000D03*
X165980000Y-87740000D03*
X165980000Y-88540000D03*
X165980000Y-89340000D03*
X165980000Y-90140000D03*
X165980000Y-90940000D03*
X165980000Y-91740000D03*
X165980000Y-92540000D03*
X165980000Y-93340000D03*
X165980000Y-94140000D03*
X165980000Y-94940000D03*
X165980000Y-95740000D03*
X165980000Y-96540000D03*
X165980000Y-97340000D03*
X165980000Y-98140000D03*
X161280000Y-78940000D03*
X161280000Y-79740000D03*
X161280000Y-80540000D03*
X161280000Y-81340000D03*
X161280000Y-82140000D03*
X161280000Y-82940000D03*
X161280000Y-83740000D03*
X161280000Y-84540000D03*
X161280000Y-85340000D03*
X161280000Y-86140000D03*
X161280000Y-86940000D03*
X161280000Y-87740000D03*
X161280000Y-88540000D03*
X161280000Y-89340000D03*
X161280000Y-90140000D03*
X161280000Y-90940000D03*
X161280000Y-91740000D03*
X161280000Y-92540000D03*
X161280000Y-93340000D03*
X161280000Y-94140000D03*
X161280000Y-94940000D03*
X161280000Y-95740000D03*
X161280000Y-96540000D03*
X161280000Y-97340000D03*
X161280000Y-98140000D03*
X113690000Y-98140000D03*
X113690000Y-97340000D03*
X113690000Y-96540000D03*
X113690000Y-95740000D03*
X113690000Y-94940000D03*
X113690000Y-94140000D03*
X113690000Y-93340000D03*
X113690000Y-92540000D03*
X113690000Y-91740000D03*
X113690000Y-90940000D03*
X113690000Y-90140000D03*
X113690000Y-89340000D03*
X113690000Y-88540000D03*
X113690000Y-87740000D03*
X113690000Y-86940000D03*
X113690000Y-86140000D03*
X113690000Y-85340000D03*
X113690000Y-84540000D03*
X113690000Y-83740000D03*
X113690000Y-82940000D03*
X113690000Y-82140000D03*
X113690000Y-81340000D03*
X113690000Y-80540000D03*
X113690000Y-79740000D03*
X113690000Y-78940000D03*
X108990000Y-98140000D03*
X108990000Y-97340000D03*
X108990000Y-96540000D03*
X108990000Y-95740000D03*
X108990000Y-94940000D03*
X108990000Y-94140000D03*
X108990000Y-93340000D03*
X108990000Y-92540000D03*
X108990000Y-91740000D03*
X108990000Y-90940000D03*
X108990000Y-90140000D03*
X108990000Y-89340000D03*
X108990000Y-88540000D03*
X108990000Y-87740000D03*
X108990000Y-86940000D03*
X108990000Y-86140000D03*
X108990000Y-85340000D03*
X108990000Y-84540000D03*
X108990000Y-83740000D03*
X108990000Y-82940000D03*
X108990000Y-82140000D03*
X108990000Y-81340000D03*
X108990000Y-80540000D03*
X108990000Y-79740000D03*
X108990000Y-78940000D03*
D11*
X162680000Y-100940000D03*
X110390000Y-100940000D03*
D12*
X162680000Y-76140000D03*
X110390000Y-76140000D03*
%TD*%
M02*
