%TF.GenerationSoftware,KiCad,Pcbnew,7.0.2*%
%TF.CreationDate,2023-05-22T10:30:23+03:00*%
%TF.ProjectId,MCU_V1,4d43555f-5631-42e6-9b69-6361645f7063,rev?*%
%TF.SameCoordinates,Original*%
%TF.FileFunction,Copper,L1,Top*%
%TF.FilePolarity,Positive*%
%FSLAX46Y46*%
G04 Gerber Fmt 4.6, Leading zero omitted, Abs format (unit mm)*
G04 Created by KiCad (PCBNEW 7.0.2) date 2023-05-22 10:30:23*
%MOMM*%
%LPD*%
G01*
G04 APERTURE LIST*
G04 Aperture macros list*
%AMRoundRect*
0 Rectangle with rounded corners*
0 $1 Rounding radius*
0 $2 $3 $4 $5 $6 $7 $8 $9 X,Y pos of 4 corners*
0 Add a 4 corners polygon primitive as box body*
4,1,4,$2,$3,$4,$5,$6,$7,$8,$9,$2,$3,0*
0 Add four circle primitives for the rounded corners*
1,1,$1+$1,$2,$3*
1,1,$1+$1,$4,$5*
1,1,$1+$1,$6,$7*
1,1,$1+$1,$8,$9*
0 Add four rect primitives between the rounded corners*
20,1,$1+$1,$2,$3,$4,$5,0*
20,1,$1+$1,$4,$5,$6,$7,0*
20,1,$1+$1,$6,$7,$8,$9,0*
20,1,$1+$1,$8,$9,$2,$3,0*%
G04 Aperture macros list end*
%TA.AperFunction,SMDPad,CuDef*%
%ADD10R,0.475000X0.500000*%
%TD*%
%TA.AperFunction,SMDPad,CuDef*%
%ADD11R,2.000000X2.000000*%
%TD*%
%TA.AperFunction,SMDPad,CuDef*%
%ADD12R,1.100000X1.900000*%
%TD*%
%TA.AperFunction,SMDPad,CuDef*%
%ADD13R,0.620000X0.650000*%
%TD*%
%TA.AperFunction,SMDPad,CuDef*%
%ADD14R,0.980000X0.780000*%
%TD*%
%TA.AperFunction,SMDPad,CuDef*%
%ADD15R,1.300000X0.600000*%
%TD*%
%TA.AperFunction,SMDPad,CuDef*%
%ADD16R,0.650000X0.620000*%
%TD*%
%TA.AperFunction,SMDPad,CuDef*%
%ADD17R,0.500000X0.475000*%
%TD*%
%TA.AperFunction,SMDPad,CuDef*%
%ADD18R,0.950000X0.900000*%
%TD*%
%TA.AperFunction,SMDPad,CuDef*%
%ADD19R,0.620000X0.620000*%
%TD*%
%TA.AperFunction,SMDPad,CuDef*%
%ADD20R,1.270000X3.250000*%
%TD*%
%TA.AperFunction,SMDPad,CuDef*%
%ADD21R,1.500000X1.200000*%
%TD*%
%TA.AperFunction,SMDPad,CuDef*%
%ADD22R,0.800000X1.200000*%
%TD*%
%TA.AperFunction,SMDPad,CuDef*%
%ADD23R,1.300000X2.500000*%
%TD*%
%TA.AperFunction,SMDPad,CuDef*%
%ADD24R,1.300000X1.700000*%
%TD*%
%TA.AperFunction,SMDPad,CuDef*%
%ADD25R,1.700000X1.000000*%
%TD*%
%TA.AperFunction,SMDPad,CuDef*%
%ADD26R,3.200000X3.200000*%
%TD*%
%TA.AperFunction,SMDPad,CuDef*%
%ADD27R,0.650000X1.500000*%
%TD*%
%TA.AperFunction,SMDPad,CuDef*%
%ADD28RoundRect,0.075000X-0.075000X0.725000X-0.075000X-0.725000X0.075000X-0.725000X0.075000X0.725000X0*%
%TD*%
%TA.AperFunction,SMDPad,CuDef*%
%ADD29RoundRect,0.075000X-0.725000X0.075000X-0.725000X-0.075000X0.725000X-0.075000X0.725000X0.075000X0*%
%TD*%
%TA.AperFunction,SMDPad,CuDef*%
%ADD30R,1.000000X0.700000*%
%TD*%
%TA.AperFunction,ComponentPad*%
%ADD31C,0.525000*%
%TD*%
%TA.AperFunction,ComponentPad*%
%ADD32C,0.675000*%
%TD*%
%TA.AperFunction,ViaPad*%
%ADD33C,0.700000*%
%TD*%
%TA.AperFunction,ViaPad*%
%ADD34C,5.000000*%
%TD*%
%TA.AperFunction,Conductor*%
%ADD35C,0.250000*%
%TD*%
G04 APERTURE END LIST*
D10*
%TO.P,R3,1*%
%TO.N,GND*%
X119302000Y-79940000D03*
%TO.P,R3,2*%
%TO.N,/MCU_BOOT0*%
X118278000Y-79940000D03*
%TD*%
D11*
%TO.P,Z1,1*%
%TO.N,/MCU_BOOT0*%
X119730000Y-83200000D03*
%TO.P,Z1,2*%
%TO.N,GND*%
X123930000Y-83200000D03*
%TD*%
D10*
%TO.P,R4,1*%
%TO.N,GND*%
X119302000Y-78800000D03*
%TO.P,R4,2*%
%TO.N,Net-(Q1-G)*%
X118278000Y-78800000D03*
%TD*%
D12*
%TO.P,Y2,1*%
%TO.N,/RCC_OSC32_OUT*%
X136420000Y-81230000D03*
%TO.P,Y2,2*%
%TO.N,/RCC_OSC32_IN*%
X138920000Y-81230000D03*
%TD*%
D13*
%TO.P,C5,1*%
%TO.N,/+3.3*%
X143470000Y-100910000D03*
%TO.P,C5,2*%
%TO.N,GND*%
X143470000Y-101790000D03*
%TD*%
D14*
%TO.P,C11,1*%
%TO.N,Net-(Q1-G)*%
X116920000Y-78560000D03*
%TO.P,C11,2*%
%TO.N,/MCU_BOOT0*%
X116920000Y-79960000D03*
%TD*%
D15*
%TO.P,Q1,1,G*%
%TO.N,Net-(Q1-G)*%
X120870000Y-78770000D03*
%TO.P,Q1,2,S*%
%TO.N,GND*%
X120870000Y-80670000D03*
%TO.P,Q1,3,D*%
%TO.N,/MCU_NRESET*%
X122970000Y-79720000D03*
%TD*%
D16*
%TO.P,C7,1*%
%TO.N,/RCC_OSC_IN*%
X134510000Y-82900000D03*
%TO.P,C7,2*%
%TO.N,GND*%
X133630000Y-82900000D03*
%TD*%
D17*
%TO.P,R1,1*%
%TO.N,/MCU_NRESET*%
X124470000Y-79662000D03*
%TO.P,R1,2*%
%TO.N,/+3.3*%
X124470000Y-78638000D03*
%TD*%
D18*
%TO.P,R2,1*%
%TO.N,/MCU_BOOT0*%
X116910000Y-81240000D03*
%TO.P,R2,2*%
%TO.N,/PROG_PIN*%
X116910000Y-82840000D03*
%TD*%
D19*
%TO.P,C9,1*%
%TO.N,GND*%
X138220000Y-82770000D03*
%TO.P,C9,2*%
%TO.N,/RCC_OSC32_IN*%
X139120000Y-82770000D03*
%TD*%
D20*
%TO.P,J3,1,1*%
%TO.N,GND*%
X161070000Y-67325500D03*
%TO.P,J3,2,2*%
%TO.N,/A38_PIN*%
X163610000Y-70276500D03*
%TO.P,J3,3,3*%
%TO.N,/A39_PIN*%
X166150000Y-67325500D03*
%TD*%
D21*
%TO.P,Y1,1,CRYSTAL_1*%
%TO.N,/RCC_OSC_OUT*%
X129820000Y-81340000D03*
%TO.P,Y1,2,GND_1*%
%TO.N,GND*%
X133620000Y-81340000D03*
%TO.P,Y1,3,CRYSTAL_2*%
%TO.N,/RCC_OSC_IN*%
X133620000Y-79140000D03*
%TO.P,Y1,4,GND_2*%
%TO.N,GND*%
X129820000Y-79140000D03*
%TD*%
D22*
%TO.P,J1,1,DAT2*%
%TO.N,/SD_DAT2*%
X147300000Y-81460000D03*
%TO.P,J1,2,CD/DAT3*%
%TO.N,/SD_DAT3*%
X148400000Y-81460000D03*
%TO.P,J1,3,CMD*%
%TO.N,/SD_CMD*%
X149500000Y-81460000D03*
%TO.P,J1,4,VDD*%
%TO.N,/+3.3*%
X150600000Y-81460000D03*
%TO.P,J1,5,CLK*%
%TO.N,/SD_CLK*%
X151700000Y-81460000D03*
%TO.P,J1,6,VSS*%
%TO.N,GND*%
X152800000Y-81460000D03*
%TO.P,J1,7,DAT0*%
%TO.N,/SD_DAT0*%
X153900000Y-81460000D03*
%TO.P,J1,8,DAT1*%
%TO.N,/SD_DAT1*%
X155000000Y-81460000D03*
%TO.P,J1,9,COM*%
%TO.N,/SD_COM*%
X156000000Y-81460000D03*
D23*
%TO.P,J1,10,10*%
%TO.N,GND*%
X142290000Y-77100000D03*
%TO.P,J1,11,11*%
X142290000Y-68600000D03*
%TO.P,J1,12,12*%
X156850000Y-68600000D03*
D24*
%TO.P,J1,13,13*%
X156850000Y-75610000D03*
D25*
%TO.P,J1,CD1,CD1*%
%TO.N,/SD_CD1*%
X156650000Y-74010000D03*
%TD*%
D16*
%TO.P,C1,1*%
%TO.N,/+3.3*%
X151230000Y-83550000D03*
%TO.P,C1,2*%
%TO.N,GND*%
X152110000Y-83550000D03*
%TD*%
%TO.P,C2,1*%
%TO.N,/+3.3*%
X129470000Y-82900000D03*
%TO.P,C2,2*%
%TO.N,GND*%
X130350000Y-82900000D03*
%TD*%
D13*
%TO.P,C10,1*%
%TO.N,/+3.3*%
X116905000Y-92675000D03*
%TO.P,C10,2*%
%TO.N,GND*%
X116905000Y-93555000D03*
%TD*%
D16*
%TO.P,C4,1*%
%TO.N,/+3.3*%
X143830000Y-86210000D03*
%TO.P,C4,2*%
%TO.N,GND*%
X144710000Y-86210000D03*
%TD*%
D26*
%TO.P,U2,1,+_1*%
%TO.N,/VBAT*%
X125240000Y-70690000D03*
%TO.P,U2,2,+_2*%
X109140000Y-70690000D03*
%TO.P,U2,3,NEGATIVE_CONTACT_PAD*%
%TO.N,GND*%
X117190000Y-70690000D03*
%TD*%
D27*
%TO.P,IC1,1,~{CE}*%
%TO.N,/QSPI_CS*%
X118360000Y-98605000D03*
%TO.P,IC1,2,SO/SIO[1]*%
%TO.N,/QSPI_IO1*%
X119630000Y-98605000D03*
%TO.P,IC1,3,SIO[2]*%
%TO.N,/QSPI_IO2*%
X120900000Y-98605000D03*
%TO.P,IC1,4,VSS*%
%TO.N,GND*%
X122170000Y-98605000D03*
%TO.P,IC1,5,SI/SIO[0]*%
%TO.N,/QSPI_IO0*%
X122170000Y-93205000D03*
%TO.P,IC1,6,SCLK*%
%TO.N,/QSPI_CLK*%
X120900000Y-93205000D03*
%TO.P,IC1,7,SIO[3]*%
%TO.N,/QSPI_IO3*%
X119630000Y-93205000D03*
%TO.P,IC1,8,VDD*%
%TO.N,/+3.3*%
X118360000Y-93205000D03*
%TD*%
D19*
%TO.P,C8,1*%
%TO.N,GND*%
X137120000Y-82770000D03*
%TO.P,C8,2*%
%TO.N,/RCC_OSC32_OUT*%
X136220000Y-82770000D03*
%TD*%
D28*
%TO.P,U1,1,PE2*%
%TO.N,/A8_PIN*%
X142110000Y-85445000D03*
%TO.P,U1,2,PE3*%
%TO.N,/A7_PIN*%
X141610000Y-85445000D03*
%TO.P,U1,3,PE4*%
%TO.N,/A6_PIN*%
X141110000Y-85445000D03*
%TO.P,U1,4,PE5*%
%TO.N,/A5_PIN*%
X140610000Y-85445000D03*
%TO.P,U1,5,PE6*%
%TO.N,/A4_PIN*%
X140110000Y-85445000D03*
%TO.P,U1,6,VBAT*%
%TO.N,/VBAT*%
X139610000Y-85445000D03*
%TO.P,U1,7,PC13*%
%TO.N,/A3_PIN*%
X139110000Y-85445000D03*
%TO.P,U1,8,PC14*%
%TO.N,/RCC_OSC32_IN*%
X138610000Y-85445000D03*
%TO.P,U1,9,PC15*%
%TO.N,/RCC_OSC32_OUT*%
X138110000Y-85445000D03*
%TO.P,U1,10,VSS*%
%TO.N,GND*%
X137610000Y-85445000D03*
%TO.P,U1,11,VDD*%
%TO.N,/+3.3*%
X137110000Y-85445000D03*
%TO.P,U1,12,PH0*%
%TO.N,/RCC_OSC_IN*%
X136610000Y-85445000D03*
%TO.P,U1,13,PH1*%
%TO.N,/RCC_OSC_OUT*%
X136110000Y-85445000D03*
%TO.P,U1,14,NRST*%
%TO.N,/MCU_NRESET*%
X135610000Y-85445000D03*
%TO.P,U1,15,PC0*%
%TO.N,/B93_PIN*%
X135110000Y-85445000D03*
%TO.P,U1,16,PC1*%
%TO.N,/B92_PIN*%
X134610000Y-85445000D03*
%TO.P,U1,17,PC2*%
%TO.N,/B91_PIN*%
X134110000Y-85445000D03*
%TO.P,U1,18,PC3*%
%TO.N,/B90_PIN*%
X133610000Y-85445000D03*
%TO.P,U1,19,VSSA*%
%TO.N,GND*%
X133110000Y-85445000D03*
%TO.P,U1,20,VREF-*%
X132610000Y-85445000D03*
%TO.P,U1,21,VREF+*%
%TO.N,/+3.3*%
X132110000Y-85445000D03*
%TO.P,U1,22,VDDA*%
X131610000Y-85445000D03*
%TO.P,U1,23,PA0*%
%TO.N,/B89_PIN*%
X131110000Y-85445000D03*
%TO.P,U1,24,PA1*%
%TO.N,/B88_PIN*%
X130610000Y-85445000D03*
%TO.P,U1,25,PA2*%
%TO.N,/B87_PIN*%
X130110000Y-85445000D03*
D29*
%TO.P,U1,26,PA3*%
%TO.N,/B86_PIN*%
X128435000Y-87120000D03*
%TO.P,U1,27,VSS*%
%TO.N,GND*%
X128435000Y-87620000D03*
%TO.P,U1,28,VDD*%
%TO.N,/+3.3*%
X128435000Y-88120000D03*
%TO.P,U1,29,PA4*%
%TO.N,/B85_PIN*%
X128435000Y-88620000D03*
%TO.P,U1,30,PA5*%
%TO.N,/B84_PIN*%
X128435000Y-89120000D03*
%TO.P,U1,31,PA6*%
%TO.N,/B83_PIN*%
X128435000Y-89620000D03*
%TO.P,U1,32,PA7*%
%TO.N,/B82_PIN*%
X128435000Y-90120000D03*
%TO.P,U1,33,PC4*%
%TO.N,/B81_PIN*%
X128435000Y-90620000D03*
%TO.P,U1,34,PC5*%
%TO.N,/B80_PIN*%
X128435000Y-91120000D03*
%TO.P,U1,35,PB0*%
%TO.N,/B79_PIN*%
X128435000Y-91620000D03*
%TO.P,U1,36,PB1*%
%TO.N,/B78_PIN*%
X128435000Y-92120000D03*
%TO.P,U1,37,PB2*%
%TO.N,/B77_PIN*%
X128435000Y-92620000D03*
%TO.P,U1,38,PE7*%
%TO.N,/B68_PIN*%
X128435000Y-93120000D03*
%TO.P,U1,39,PE8*%
%TO.N,/B67_PIN*%
X128435000Y-93620000D03*
%TO.P,U1,40,PE9*%
%TO.N,/B66_PIN*%
X128435000Y-94120000D03*
%TO.P,U1,41,PE10*%
%TO.N,/QSPI_CLK*%
X128435000Y-94620000D03*
%TO.P,U1,42,PE11*%
%TO.N,/QSPI_CS*%
X128435000Y-95120000D03*
%TO.P,U1,43,PE12*%
%TO.N,/QSPI_IO0*%
X128435000Y-95620000D03*
%TO.P,U1,44,PE13*%
%TO.N,/QSPI_IO1*%
X128435000Y-96120000D03*
%TO.P,U1,45,PE14*%
%TO.N,/QSPI_IO2*%
X128435000Y-96620000D03*
%TO.P,U1,46,PE15*%
%TO.N,/QSPI_IO3*%
X128435000Y-97120000D03*
%TO.P,U1,47,PB10*%
%TO.N,/B65_PIN*%
X128435000Y-97620000D03*
%TO.P,U1,48,PB11*%
%TO.N,/B64_PIN*%
X128435000Y-98120000D03*
%TO.P,U1,49,VSS*%
%TO.N,GND*%
X128435000Y-98620000D03*
%TO.P,U1,50,VDD*%
%TO.N,/+3.3*%
X128435000Y-99120000D03*
D28*
%TO.P,U1,51,PB12*%
%TO.N,/B63_PIN*%
X130110000Y-100795000D03*
%TO.P,U1,52,PB13*%
%TO.N,/B62_PIN*%
X130610000Y-100795000D03*
%TO.P,U1,53,PB14*%
%TO.N,/B61_PIN*%
X131110000Y-100795000D03*
%TO.P,U1,54,PB15*%
%TO.N,/B60_PIN*%
X131610000Y-100795000D03*
%TO.P,U1,55,PD8*%
%TO.N,/B59_PIN*%
X132110000Y-100795000D03*
%TO.P,U1,56,PD9*%
%TO.N,/B58_PIN*%
X132610000Y-100795000D03*
%TO.P,U1,57,PD10*%
%TO.N,/B57_PIN*%
X133110000Y-100795000D03*
%TO.P,U1,58,PD11*%
%TO.N,/B56_PIN*%
X133610000Y-100795000D03*
%TO.P,U1,59,PD12*%
%TO.N,/B55_PIN*%
X134110000Y-100795000D03*
%TO.P,U1,60,PD13*%
%TO.N,/B54_PIN*%
X134610000Y-100795000D03*
%TO.P,U1,61,PD14*%
%TO.N,/B53_PIN*%
X135110000Y-100795000D03*
%TO.P,U1,62,PD15*%
%TO.N,/B52_PIN*%
X135610000Y-100795000D03*
%TO.P,U1,63,PC6*%
%TO.N,/A42_PIN*%
X136110000Y-100795000D03*
%TO.P,U1,64,PC7*%
%TO.N,/A41_PIN*%
X136610000Y-100795000D03*
%TO.P,U1,65,PC8*%
%TO.N,/SD_DAT0*%
X137110000Y-100795000D03*
%TO.P,U1,66,PC9*%
%TO.N,/SD_DAT1*%
X137610000Y-100795000D03*
%TO.P,U1,67,PA8*%
%TO.N,/A40_PIN*%
X138110000Y-100795000D03*
%TO.P,U1,68,PA9*%
%TO.N,/A39_PIN*%
X138610000Y-100795000D03*
%TO.P,U1,69,PA10*%
%TO.N,/A38_PIN*%
X139110000Y-100795000D03*
%TO.P,U1,70,PA11*%
%TO.N,/A37_PIN*%
X139610000Y-100795000D03*
%TO.P,U1,71,PA12*%
%TO.N,/A36_PIN*%
X140110000Y-100795000D03*
%TO.P,U1,72,PA13*%
%TO.N,/A35_PIN*%
X140610000Y-100795000D03*
%TO.P,U1,73,VDDUSB*%
%TO.N,/+3.3*%
X141110000Y-100795000D03*
%TO.P,U1,74,VSS*%
%TO.N,GND*%
X141610000Y-100795000D03*
%TO.P,U1,75,VDD*%
%TO.N,/+3.3*%
X142110000Y-100795000D03*
D29*
%TO.P,U1,76,PA14*%
%TO.N,/A34_PIN*%
X143785000Y-99120000D03*
%TO.P,U1,77,PA15*%
%TO.N,/SD_CD1*%
X143785000Y-98620000D03*
%TO.P,U1,78,PC10*%
%TO.N,/SD_DAT2*%
X143785000Y-98120000D03*
%TO.P,U1,79,PC11*%
%TO.N,/SD_DAT3*%
X143785000Y-97620000D03*
%TO.P,U1,80,PC12*%
%TO.N,/SD_CLK*%
X143785000Y-97120000D03*
%TO.P,U1,81,PD0*%
%TO.N,/A33_PIN*%
X143785000Y-96620000D03*
%TO.P,U1,82,PD1*%
%TO.N,/A32_PIN*%
X143785000Y-96120000D03*
%TO.P,U1,83,PD2*%
%TO.N,/SD_CMD*%
X143785000Y-95620000D03*
%TO.P,U1,84,PD3*%
%TO.N,/A31_PIN*%
X143785000Y-95120000D03*
%TO.P,U1,85,PD4*%
%TO.N,/A30_PIN*%
X143785000Y-94620000D03*
%TO.P,U1,86,PD5*%
%TO.N,/A29_PIN*%
X143785000Y-94120000D03*
%TO.P,U1,87,PD6*%
%TO.N,/A28_PIN*%
X143785000Y-93620000D03*
%TO.P,U1,88,PD7*%
%TO.N,/A27_PIN*%
X143785000Y-93120000D03*
%TO.P,U1,89,PB3*%
%TO.N,/A17_PIN*%
X143785000Y-92620000D03*
%TO.P,U1,90,PB4*%
%TO.N,/A16_PIN*%
X143785000Y-92120000D03*
%TO.P,U1,91,PB5*%
%TO.N,/A15_PIN*%
X143785000Y-91620000D03*
%TO.P,U1,92,PB6*%
%TO.N,/A14_PIN*%
X143785000Y-91120000D03*
%TO.P,U1,93,PB7*%
%TO.N,/A13_PIN*%
X143785000Y-90620000D03*
%TO.P,U1,94,PH3*%
%TO.N,/MCU_BOOT0*%
X143785000Y-90120000D03*
%TO.P,U1,95,PB8*%
%TO.N,/A12_PIN*%
X143785000Y-89620000D03*
%TO.P,U1,96,PB9*%
%TO.N,/A11_PIN*%
X143785000Y-89120000D03*
%TO.P,U1,97,PE0*%
%TO.N,/A10_PIN*%
X143785000Y-88620000D03*
%TO.P,U1,98,PE1*%
%TO.N,/A9_PIN*%
X143785000Y-88120000D03*
%TO.P,U1,99,VSS*%
%TO.N,GND*%
X143785000Y-87620000D03*
%TO.P,U1,100,VDD*%
%TO.N,/+3.3*%
X143785000Y-87120000D03*
%TD*%
D30*
%TO.P,S2,1,COM_1*%
%TO.N,/MCU_BOOT0*%
X135390000Y-75650000D03*
%TO.P,S2,2,COM_2*%
%TO.N,/+3.3*%
X129390000Y-75650000D03*
%TO.P,S2,3,NO_1*%
%TO.N,GND*%
X135390000Y-71950000D03*
%TO.P,S2,4,NO_2*%
X129390000Y-71950000D03*
%TD*%
D13*
%TO.P,C3,1*%
%TO.N,/+3.3*%
X126370000Y-87980000D03*
%TO.P,C3,2*%
%TO.N,GND*%
X126370000Y-87100000D03*
%TD*%
D16*
%TO.P,C12,1*%
%TO.N,/+3.3*%
X128090000Y-100030000D03*
%TO.P,C12,2*%
%TO.N,GND*%
X127210000Y-100030000D03*
%TD*%
%TO.P,C6,1*%
%TO.N,GND*%
X132390000Y-82900000D03*
%TO.P,C6,2*%
%TO.N,/RCC_OSC_OUT*%
X131510000Y-82900000D03*
%TD*%
D31*
%TO.P,H1,MH1*%
%TO.N,N/C*%
X162680000Y-100940000D03*
X110390000Y-100940000D03*
D32*
%TO.P,H1,MH2*%
X162680000Y-76140000D03*
X110390000Y-76140000D03*
%TD*%
D33*
%TO.N,/VBAT*%
X109020000Y-72750000D03*
X139424321Y-86746825D03*
X125250000Y-72760000D03*
%TO.N,GND*%
X111390000Y-78950000D03*
X138280000Y-94970000D03*
X152620000Y-101980000D03*
X159040000Y-94530000D03*
X114670000Y-68200000D03*
X163620000Y-98100000D03*
X135560000Y-92510000D03*
X143890000Y-70220000D03*
X138160000Y-88920000D03*
X151570000Y-78680000D03*
X155310000Y-70130000D03*
X159080000Y-101860000D03*
D34*
X137480000Y-65940000D03*
D33*
X125580000Y-79990000D03*
X132134341Y-81725659D03*
X161920000Y-73150000D03*
X161950000Y-78300000D03*
X112320000Y-98140000D03*
X130830000Y-88500000D03*
X163140000Y-65950000D03*
X127290000Y-79940000D03*
X157150000Y-78690000D03*
X119650000Y-68240000D03*
X118250000Y-73720000D03*
X133700000Y-89380000D03*
X137940000Y-87290000D03*
%TO.N,/+3.3*%
X132012220Y-91280000D03*
X131221110Y-91280000D03*
X132803332Y-91280000D03*
X130580000Y-75660000D03*
X139228056Y-90038056D03*
X122294784Y-91164500D03*
X130430000Y-91280000D03*
X141990000Y-87120000D03*
X149599858Y-78699858D03*
X126838056Y-75651944D03*
X124500000Y-77670000D03*
%TO.N,/SD_DAT1*%
X154013056Y-80023056D03*
X135981696Y-95502193D03*
%TO.N,/SD_DAT0*%
X135080000Y-95500000D03*
X152893056Y-80053056D03*
%TO.N,/SD_CLK*%
X141593556Y-94850000D03*
X151710000Y-82610000D03*
%TO.N,/SD_CMD*%
X150210000Y-83650000D03*
X142191944Y-93898056D03*
%TO.N,/SD_DAT3*%
X149160000Y-83600000D03*
X142140000Y-92735000D03*
%TO.N,/SD_DAT2*%
X141095000Y-92735000D03*
X148120000Y-83540000D03*
%TO.N,/MCU_BOOT0*%
X139176894Y-88958553D03*
X144180000Y-81210000D03*
%TO.N,/MCU_NRESET*%
X123310000Y-78905000D03*
X136246281Y-86791487D03*
%TO.N,/PROG_PIN*%
X110370000Y-83740000D03*
%TO.N,/QSPI_IO3*%
X120657698Y-94642167D03*
X123529304Y-96568500D03*
%TO.N,/QSPI_IO0*%
X126110000Y-95204500D03*
X123628952Y-93869000D03*
%TO.N,/SD_CD1*%
X145540000Y-97720000D03*
X155150000Y-80090000D03*
%TO.N,/B93_PIN*%
X115239500Y-80671684D03*
X110950000Y-84430000D03*
X135402713Y-87107287D03*
%TO.N,/B92_PIN*%
X110370000Y-85342500D03*
X115239500Y-81625729D03*
X135413072Y-88006730D03*
%TO.N,/B91_PIN*%
X115239500Y-82515444D03*
X111050000Y-86130000D03*
X134540874Y-88493771D03*
%TO.N,/B90_PIN*%
X110370000Y-86945000D03*
X115239500Y-83451530D03*
X133612903Y-88202197D03*
%TO.N,/B89_PIN*%
X130887178Y-87484909D03*
X111080000Y-87720000D03*
X116120000Y-84126030D03*
%TO.N,/B88_PIN*%
X117067665Y-84800530D03*
X110370000Y-88547500D03*
X130250000Y-86850000D03*
%TO.N,/B87_PIN*%
X111080000Y-89325000D03*
X127843056Y-85436944D03*
X117020000Y-85765500D03*
%TO.N,/B86_PIN*%
X110370000Y-90150000D03*
%TO.N,/B85_PIN*%
X111080000Y-90930000D03*
%TO.N,/B84_PIN*%
X110370000Y-91752500D03*
%TO.N,/B83_PIN*%
X111080000Y-92535000D03*
%TO.N,/B82_PIN*%
X110370000Y-93355000D03*
%TO.N,/B81_PIN*%
X111080000Y-94140000D03*
%TO.N,/B80_PIN*%
X110370000Y-94957500D03*
%TO.N,/B79_PIN*%
X111080000Y-95730000D03*
%TO.N,/B78_PIN*%
X110370000Y-96560000D03*
%TO.N,/B77_PIN*%
X111080000Y-97320000D03*
%TO.N,/B67_PIN*%
X123607472Y-92519500D03*
%TO.N,/B66_PIN*%
X124650000Y-93750000D03*
%TO.N,/B65_PIN*%
X125082242Y-97358017D03*
%TO.N,/B64_PIN*%
X124203804Y-97164500D03*
%TO.N,/B63_PIN*%
X122357821Y-97305500D03*
%TO.N,/B62_PIN*%
X131334707Y-95510000D03*
%TO.N,/B61_PIN*%
X132249804Y-95510000D03*
%TO.N,/B60_PIN*%
X133164901Y-95510000D03*
%TO.N,/B59_PIN*%
X134080000Y-95510000D03*
%TO.N,/B58_PIN*%
X134065500Y-96909693D03*
%TO.N,/B57_PIN*%
X134065500Y-97809020D03*
%TO.N,/B56_PIN*%
X134065500Y-98708347D03*
%TO.N,/B55_PIN*%
X134611675Y-99423048D03*
%TO.N,/B54_PIN*%
X127420000Y-101744500D03*
%TO.N,/B53_PIN*%
X135052286Y-102172287D03*
%TO.N,/B52_PIN*%
X135951583Y-102191532D03*
%TO.N,/A39_PIN*%
X137743389Y-97540000D03*
X164120000Y-78510000D03*
%TO.N,/A38_PIN*%
X163060000Y-78310000D03*
X138651944Y-98108056D03*
%TO.N,/A37_PIN*%
X138529470Y-96513968D03*
%TO.N,/A36_PIN*%
X140284500Y-97650658D03*
%TO.N,/A35_PIN*%
X140986583Y-98225500D03*
%TO.N,/A34_PIN*%
X147654039Y-97706000D03*
%TO.N,/A33_PIN*%
X148550000Y-96630000D03*
%TO.N,/A32_PIN*%
X147666221Y-96357000D03*
%TO.N,/A31_PIN*%
X148615487Y-95264229D03*
%TO.N,/A30_PIN*%
X147670000Y-94931895D03*
%TO.N,/A29_PIN*%
X148524110Y-93765606D03*
%TO.N,/A28_PIN*%
X147630000Y-93449056D03*
%TO.N,/A27_PIN*%
X148600000Y-92416106D03*
%TO.N,/A16_PIN*%
X164600000Y-90930000D03*
%TO.N,/A15_PIN*%
X164105230Y-90086196D03*
%TO.N,/A14_PIN*%
X164600000Y-89331665D03*
%TO.N,/A13_PIN*%
X164105230Y-88501830D03*
%TO.N,/A12_PIN*%
X164600000Y-87733332D03*
%TO.N,/A11_PIN*%
X164105230Y-86917464D03*
%TO.N,/A10_PIN*%
X164600000Y-86134999D03*
%TO.N,/A9_PIN*%
X164105230Y-85333098D03*
%TO.N,/A8_PIN*%
X164600000Y-84536666D03*
%TO.N,/A7_PIN*%
X164105230Y-83748732D03*
%TO.N,/A6_PIN*%
X164600000Y-82938333D03*
%TO.N,/A5_PIN*%
X164105230Y-82164366D03*
%TO.N,/A4_PIN*%
X164600000Y-81340000D03*
%TO.N,/A3_PIN*%
X164105230Y-80580000D03*
%TO.N,/A17_PIN*%
X164105230Y-91670562D03*
%TO.N,/A40_PIN*%
X136724500Y-96995406D03*
%TO.N,/A41_PIN*%
X135493889Y-98546623D03*
%TO.N,/A42_PIN*%
X135510884Y-99445965D03*
%TO.N,/B68_PIN*%
X129780000Y-92300000D03*
%TD*%
D35*
%TO.N,/RCC_OSC_IN*%
X133620000Y-79140000D02*
X135040000Y-80560000D01*
X135040000Y-80560000D02*
X135040000Y-82900000D01*
X134510000Y-82900000D02*
X134596802Y-82813198D01*
X134510000Y-82900000D02*
X135240000Y-82900000D01*
X135240000Y-82900000D02*
X136610000Y-84270000D01*
X136610000Y-84270000D02*
X136610000Y-85445000D01*
%TO.N,/RCC_OSC_OUT*%
X131950000Y-83570000D02*
X131510000Y-83130000D01*
X131510000Y-82570000D02*
X131510000Y-82900000D01*
X136110000Y-85445000D02*
X136110000Y-84406396D01*
X131510000Y-83130000D02*
X131510000Y-82900000D01*
X129820000Y-81340000D02*
X130280000Y-81340000D01*
X135273604Y-83570000D02*
X131950000Y-83570000D01*
X130280000Y-81340000D02*
X131510000Y-82570000D01*
X136110000Y-84406396D02*
X135273604Y-83570000D01*
%TO.N,/VBAT*%
X109020000Y-72750000D02*
X109020000Y-70710000D01*
X125250000Y-70800000D02*
X125140000Y-70690000D01*
X109020000Y-70710000D02*
X109040000Y-70690000D01*
X139424321Y-86746825D02*
X139610000Y-86561146D01*
X125250000Y-72760000D02*
X125250000Y-70800000D01*
X139610000Y-86561146D02*
X139610000Y-85445000D01*
%TO.N,GND*%
X127140000Y-80040000D02*
X127140000Y-83790000D01*
X121900000Y-79390000D02*
X121830000Y-79460000D01*
X129125000Y-86360000D02*
X129560000Y-86795000D01*
X132390000Y-82900000D02*
X132990000Y-82900000D01*
X152590000Y-102530000D02*
X144210000Y-102530000D01*
X157120000Y-82150000D02*
X157120000Y-78720000D01*
X132560000Y-84020000D02*
X132610000Y-84070000D01*
X138796447Y-88283553D02*
X142086447Y-88283553D01*
X133710000Y-89370000D02*
X133700000Y-89380000D01*
X117160000Y-70690000D02*
X117190000Y-70690000D01*
X157150000Y-78690000D02*
X157120000Y-78660000D01*
X142086447Y-88283553D02*
X142750000Y-87620000D01*
X120275000Y-73705000D02*
X118265000Y-73705000D01*
X123025000Y-76995000D02*
X121900000Y-78120000D01*
X157120000Y-75880000D02*
X156850000Y-75610000D01*
X137650000Y-82770000D02*
X137650000Y-78770000D01*
X152800000Y-80914595D02*
X151570000Y-79684595D01*
X135700000Y-92730000D02*
X135700000Y-92650000D01*
X119710000Y-79208000D02*
X119710000Y-79532000D01*
X117200000Y-70690000D02*
X117190000Y-70690000D01*
X133540000Y-81340000D02*
X131340000Y-79140000D01*
X129390000Y-71950000D02*
X130320000Y-72880000D01*
X159200000Y-102530000D02*
X152590000Y-102530000D01*
X115310000Y-98140000D02*
X111300000Y-98140000D01*
X134510000Y-91460000D02*
X134510000Y-90190000D01*
X158970000Y-69410000D02*
X161054500Y-67325500D01*
X137940000Y-94970000D02*
X135700000Y-92730000D01*
X132990000Y-82900000D02*
X132940000Y-82850000D01*
X161920000Y-73150000D02*
X159000000Y-73150000D01*
X116370000Y-99200000D02*
X116905000Y-98665000D01*
X128435000Y-87620000D02*
X127220000Y-87620000D01*
X135390000Y-71950000D02*
X136280000Y-72840000D01*
X134510000Y-90190000D02*
X133700000Y-89380000D01*
X159445000Y-102225000D02*
X159505000Y-102225000D01*
X121950000Y-96560000D02*
X121660000Y-96850000D01*
X137090000Y-66390000D02*
X137480000Y-66000000D01*
X130830000Y-88500000D02*
X130670000Y-88510000D01*
X121900000Y-78120000D02*
X121900000Y-79390000D01*
X152800000Y-81460000D02*
X152800000Y-82530000D01*
X112320000Y-98140000D02*
X109700000Y-98140000D01*
X159080000Y-101860000D02*
X159445000Y-102225000D01*
X133690000Y-89370000D02*
X133700000Y-89380000D01*
X130320000Y-72880000D02*
X134460000Y-72880000D01*
X142720000Y-102540000D02*
X142489315Y-102540000D01*
X127240000Y-79940000D02*
X127140000Y-80040000D01*
X122170000Y-100080000D02*
X122170000Y-98605000D01*
X133110000Y-85445000D02*
X133110000Y-84360000D01*
X129560000Y-86795000D02*
X129560000Y-87420000D01*
X132940000Y-82360000D02*
X132940000Y-82850000D01*
X116370000Y-99200000D02*
X115310000Y-98140000D01*
X144710000Y-86210000D02*
X145060000Y-86210000D01*
X127260000Y-98620000D02*
X127170000Y-98710000D01*
X155280000Y-70170000D02*
X155310000Y-70140000D01*
X122740000Y-76170000D02*
X120275000Y-73705000D01*
X131660000Y-78600000D02*
X132045000Y-78215000D01*
X152620000Y-102500000D02*
X152590000Y-102530000D01*
X132870000Y-88560000D02*
X133680000Y-89370000D01*
X130350000Y-83230000D02*
X130655000Y-83535000D01*
X141610000Y-101660685D02*
X141610000Y-100795000D01*
X132305659Y-81725659D02*
X132940000Y-82360000D01*
X162720000Y-65950000D02*
X162100000Y-65330000D01*
X124214500Y-83484500D02*
X123930000Y-83200000D01*
X139320000Y-77100000D02*
X142290000Y-77100000D01*
X137710000Y-89370000D02*
X133710000Y-89370000D01*
X109700000Y-98140000D02*
X108910000Y-97350000D01*
X158970000Y-69465500D02*
X158970000Y-69410000D01*
X131340000Y-79140000D02*
X129820000Y-79140000D01*
X155320000Y-70130000D02*
X156850000Y-68600000D01*
X155310000Y-70130000D02*
X155320000Y-70130000D01*
X137940000Y-94970000D02*
X137860000Y-94890000D01*
X137120000Y-82770000D02*
X137650000Y-82770000D01*
X152800000Y-82530000D02*
X153390000Y-83120000D01*
X156150000Y-83120000D02*
X157120000Y-82150000D01*
X166150000Y-94540000D02*
X166150000Y-95560000D01*
X118235000Y-73705000D02*
X118185000Y-73705000D01*
X151570000Y-79684595D02*
X151570000Y-78680000D01*
X142750000Y-87620000D02*
X143785000Y-87620000D01*
X126150000Y-75190000D02*
X129390000Y-71950000D01*
X133110000Y-85445000D02*
X133110000Y-86580000D01*
X130650000Y-88510000D02*
X130650000Y-88510000D01*
X118265000Y-73705000D02*
X118250000Y-73720000D01*
X165340000Y-79420000D02*
X166150000Y-80230000D01*
X119170000Y-72720000D02*
X112940000Y-78950000D01*
X121830000Y-79460000D02*
X119782000Y-79460000D01*
X127170000Y-98710000D02*
X127170000Y-99820000D01*
X131660000Y-79570000D02*
X131660000Y-78600000D01*
X119302000Y-78800000D02*
X119710000Y-79208000D01*
X126036209Y-100030000D02*
X122566209Y-96560000D01*
X157120000Y-78660000D02*
X157120000Y-75880000D01*
X133620000Y-81340000D02*
X133540000Y-81340000D01*
X142290000Y-68600000D02*
X143860000Y-70170000D01*
X117090000Y-70690000D02*
X117140000Y-70690000D01*
X145460000Y-87190000D02*
X145030000Y-87620000D01*
X132610000Y-86554194D02*
X132610000Y-85445000D01*
X158970000Y-74930000D02*
X158970000Y-73180000D01*
X127696396Y-86360000D02*
X129125000Y-86360000D01*
X145060000Y-86210000D02*
X145460000Y-86610000D01*
X130670000Y-88510000D02*
X130660000Y-88510000D01*
X163620000Y-98090000D02*
X163620000Y-98100000D01*
X161950000Y-78300000D02*
X163070000Y-79420000D01*
X137610000Y-86310685D02*
X137910000Y-86610685D01*
X138160000Y-88920000D02*
X138796447Y-88283553D01*
X166140000Y-94530000D02*
X166150000Y-94540000D01*
X152800000Y-82860000D02*
X152110000Y-83550000D01*
X123930000Y-83200000D02*
X123930000Y-81640000D01*
X121660000Y-96850000D02*
X121660000Y-97710000D01*
X157120000Y-78720000D02*
X157150000Y-78690000D01*
X117780000Y-100610000D02*
X116370000Y-99200000D01*
X133110000Y-84360000D02*
X132770000Y-84020000D01*
X126150000Y-75190000D02*
X125170000Y-76170000D01*
X137650000Y-78770000D02*
X139320000Y-77100000D01*
X159520000Y-78300000D02*
X158970000Y-77750000D01*
X163620000Y-98110000D02*
X159505000Y-102225000D01*
X158970000Y-70020000D02*
X158970000Y-69465500D01*
X159000000Y-73150000D02*
X158970000Y-73180000D01*
X152800000Y-81460000D02*
X152800000Y-82860000D01*
X118185000Y-73705000D02*
X118005000Y-73885000D01*
X127170000Y-99820000D02*
X127400000Y-100050000D01*
X120140000Y-79940000D02*
X119302000Y-79940000D01*
X155310000Y-70140000D02*
X155310000Y-70130000D01*
X134460000Y-72880000D02*
X135390000Y-71950000D01*
X137940000Y-87290000D02*
X137910000Y-87220000D01*
X138280000Y-94970000D02*
X137940000Y-94970000D01*
X125580000Y-79990000D02*
X125580000Y-75760000D01*
X163140000Y-65950000D02*
X162720000Y-65950000D01*
X132940000Y-82360000D02*
X133620000Y-81680000D01*
X128435000Y-87620000D02*
X129360000Y-87620000D01*
X126690000Y-87080000D02*
X126390000Y-87080000D01*
X132134341Y-81725659D02*
X132305659Y-81725659D01*
X127140000Y-83830000D02*
X127140000Y-85803604D01*
X132872903Y-86817097D02*
X132870000Y-86820000D01*
X124345000Y-76995000D02*
X123025000Y-76995000D01*
X129820000Y-79140000D02*
X129805000Y-79125000D01*
X137910000Y-86610685D02*
X137940000Y-87290000D01*
X145030000Y-87620000D02*
X143785000Y-87620000D01*
X143470000Y-101790000D02*
X142720000Y-102540000D01*
X158970000Y-77730000D02*
X158970000Y-74930000D01*
X137095000Y-78215000D02*
X137650000Y-78770000D01*
X166150000Y-80230000D02*
X166150000Y-94540000D01*
X159040000Y-94530000D02*
X166140000Y-94530000D01*
X133110000Y-86580000D02*
X132872903Y-86817097D01*
X142489315Y-102540000D02*
X141610000Y-101660685D01*
X118250000Y-73720000D02*
X118235000Y-73705000D01*
X128055000Y-79125000D02*
X127290000Y-79890000D01*
X121370000Y-100610000D02*
X117780000Y-100610000D01*
X130350000Y-82900000D02*
X130350000Y-83230000D01*
X132770000Y-84020000D02*
X132560000Y-84020000D01*
X143890000Y-70220000D02*
X155280000Y-70170000D01*
X138060000Y-72840000D02*
X142290000Y-68610000D01*
X124956532Y-102866532D02*
X122170000Y-100080000D01*
X125580000Y-75760000D02*
X126150000Y-75190000D01*
X137610000Y-85445000D02*
X137610000Y-86310685D01*
X143860000Y-70170000D02*
X143890000Y-70220000D01*
X166150000Y-95560000D02*
X163620000Y-98090000D01*
X137090000Y-72840000D02*
X138060000Y-72840000D01*
X142393468Y-102866532D02*
X124956532Y-102866532D01*
X108910000Y-97350000D02*
X108910000Y-81430000D01*
X123930000Y-81640000D02*
X125580000Y-79990000D01*
X133620000Y-81680000D02*
X133620000Y-81340000D01*
X119782000Y-79460000D02*
X119302000Y-79940000D01*
X132045000Y-78215000D02*
X137095000Y-78215000D01*
X127290000Y-79890000D02*
X127290000Y-79940000D01*
X121660000Y-97710000D02*
X122170000Y-98220000D01*
X161070000Y-66360000D02*
X161070000Y-67325500D01*
X163070000Y-79420000D02*
X165340000Y-79420000D01*
X158970000Y-73180000D02*
X158970000Y-69465500D01*
X161054500Y-67325500D02*
X161070000Y-67325500D01*
X156850000Y-68600000D02*
X158270000Y-70020000D01*
X114670000Y-68200000D02*
X117160000Y-70690000D01*
X159505000Y-102225000D02*
X159200000Y-102530000D01*
X126390000Y-87080000D02*
X126370000Y-87100000D01*
X132610000Y-84070000D02*
X132610000Y-85445000D01*
X127140000Y-85803604D02*
X127696396Y-86360000D01*
X158970000Y-77750000D02*
X158970000Y-74930000D01*
X119650000Y-68240000D02*
X117200000Y-70690000D01*
X122566209Y-96560000D02*
X121950000Y-96560000D01*
X126690000Y-87090000D02*
X126690000Y-87080000D01*
X142290000Y-68610000D02*
X142290000Y-68600000D01*
X132870000Y-86820000D02*
X132870000Y-88560000D01*
X131763604Y-84020000D02*
X132560000Y-84020000D01*
X129560000Y-87420000D02*
X130640000Y-88500000D01*
X127210000Y-100030000D02*
X126036209Y-100030000D01*
X131278604Y-83535000D02*
X131763604Y-84020000D01*
X130655000Y-83535000D02*
X131278604Y-83535000D01*
X132990000Y-82900000D02*
X133630000Y-82900000D01*
X158270000Y-70020000D02*
X158970000Y-70020000D01*
X129805000Y-79125000D02*
X128055000Y-79125000D01*
X156850000Y-75610000D02*
X158970000Y-77730000D01*
X143470000Y-101790000D02*
X142393468Y-102866532D01*
X119710000Y-79532000D02*
X119302000Y-79940000D01*
X145460000Y-86610000D02*
X145460000Y-87190000D01*
X120870000Y-80670000D02*
X120140000Y-79940000D01*
X127220000Y-87620000D02*
X126690000Y-87090000D01*
X152800000Y-81460000D02*
X152800000Y-80914595D01*
X153390000Y-83120000D02*
X156150000Y-83120000D01*
X162100000Y-65330000D02*
X161070000Y-66360000D01*
X129360000Y-87620000D02*
X129560000Y-87420000D01*
X133680000Y-89370000D02*
X133690000Y-89370000D01*
X125170000Y-76170000D02*
X122740000Y-76170000D01*
X144210000Y-102530000D02*
X143470000Y-101790000D01*
X116905000Y-98665000D02*
X116905000Y-93555000D01*
X126150000Y-75190000D02*
X124345000Y-76995000D01*
X112940000Y-78950000D02*
X111390000Y-78950000D01*
X130640000Y-88500000D02*
X130830000Y-88500000D01*
X137650000Y-82770000D02*
X138220000Y-82770000D01*
X127290000Y-79940000D02*
X127240000Y-79940000D01*
X161950000Y-78300000D02*
X159520000Y-78300000D01*
X122170000Y-99810000D02*
X121370000Y-100610000D01*
X136280000Y-72840000D02*
X137090000Y-72840000D01*
X128435000Y-98620000D02*
X127260000Y-98620000D01*
X152620000Y-101980000D02*
X152620000Y-102500000D01*
X137090000Y-72840000D02*
X137090000Y-66390000D01*
X122170000Y-98605000D02*
X122170000Y-99810000D01*
X108910000Y-81430000D02*
X111390000Y-78950000D01*
X138160000Y-88920000D02*
X137710000Y-89370000D01*
X132872903Y-86817097D02*
X132610000Y-86554194D01*
X163620000Y-98100000D02*
X163620000Y-98110000D01*
X135700000Y-92650000D02*
X135560000Y-92510000D01*
X122170000Y-98220000D02*
X122170000Y-98605000D01*
X123560000Y-80670000D02*
X120870000Y-80670000D01*
X123930000Y-83200000D02*
X123930000Y-81040000D01*
X131780000Y-79690000D02*
X131660000Y-79570000D01*
X117140000Y-70690000D02*
X119170000Y-72720000D01*
X123930000Y-81040000D02*
X123560000Y-80670000D01*
X135560000Y-92510000D02*
X134510000Y-91460000D01*
%TO.N,/+3.3*%
X131610000Y-85445000D02*
X131610000Y-88860000D01*
X131607208Y-84500000D02*
X131610000Y-84500000D01*
X132012220Y-89262220D02*
X132012220Y-91234446D01*
X141360000Y-99630000D02*
X141810685Y-99630000D01*
X122229284Y-91230000D02*
X118350000Y-91230000D01*
X130455000Y-95045000D02*
X129860000Y-95640000D01*
X149599858Y-78699858D02*
X150600000Y-79700000D01*
X128060000Y-99830000D02*
X128280000Y-100050000D01*
X129470000Y-83460000D02*
X130081396Y-84071396D01*
X117830000Y-92675000D02*
X116905000Y-92675000D01*
X150600000Y-79700000D02*
X150600000Y-81460000D01*
X132803332Y-89263332D02*
X132803332Y-91280000D01*
X138733604Y-87710000D02*
X138478604Y-87965000D01*
X142110000Y-99929315D02*
X142110000Y-100795000D01*
X126840000Y-75650000D02*
X129390000Y-75650000D01*
X129300685Y-99120000D02*
X128435000Y-99120000D01*
X143830000Y-86290000D02*
X143830000Y-86210000D01*
X124500000Y-78608000D02*
X124470000Y-78638000D01*
X128435000Y-99120000D02*
X128060000Y-99495000D01*
X132110000Y-88570000D02*
X132803332Y-89263332D01*
X131178604Y-84071396D02*
X131607208Y-84500000D01*
X139228056Y-95438056D02*
X139228056Y-90038056D01*
X137660405Y-87965000D02*
X137110000Y-87414595D01*
X130430000Y-91270000D02*
X130455000Y-91295000D01*
X141110000Y-99880000D02*
X141360000Y-99630000D01*
X124500000Y-77670000D02*
X124500000Y-78608000D01*
X129860000Y-98560685D02*
X129300685Y-99120000D01*
X128060000Y-99495000D02*
X128060000Y-99830000D01*
X141990000Y-87120000D02*
X142510000Y-87120000D01*
X129340000Y-88120000D02*
X131221110Y-90001110D01*
X143785000Y-87120000D02*
X142510000Y-87120000D01*
X131221110Y-90001110D02*
X131221110Y-91280000D01*
X130455000Y-91295000D02*
X130455000Y-95045000D01*
X142510000Y-87120000D02*
X143380000Y-87120000D01*
X143470000Y-100910000D02*
X142225000Y-100910000D01*
X132012220Y-91234446D02*
X131966666Y-91280000D01*
X141480000Y-87710000D02*
X138733604Y-87710000D01*
X131610000Y-85445000D02*
X131610000Y-84500000D01*
X142110000Y-100795000D02*
X142110000Y-100970000D01*
X128435000Y-88120000D02*
X126510000Y-88120000D01*
X142225000Y-100910000D02*
X142110000Y-100795000D01*
X126510000Y-88120000D02*
X126370000Y-87980000D01*
X126838056Y-75651944D02*
X126840000Y-75650000D01*
X122324500Y-91164500D02*
X122420000Y-91260000D01*
X141990000Y-87120000D02*
X141990000Y-87200000D01*
X122294784Y-91164500D02*
X122324500Y-91164500D01*
X132110000Y-85445000D02*
X132110000Y-88570000D01*
X141810685Y-99630000D02*
X142110000Y-99929315D01*
X150600000Y-82900000D02*
X151230000Y-83530000D01*
X143380000Y-87120000D02*
X143380000Y-86740000D01*
X151230000Y-83530000D02*
X151230000Y-83550000D01*
X150600000Y-81460000D02*
X150600000Y-82900000D01*
X122294784Y-91164500D02*
X122229284Y-91230000D01*
X118350000Y-91230000D02*
X116905000Y-92675000D01*
X142110000Y-98320000D02*
X139228056Y-95438056D01*
X130081396Y-84071396D02*
X131178604Y-84071396D01*
X141110000Y-100795000D02*
X141110000Y-99880000D01*
X128435000Y-88120000D02*
X129340000Y-88120000D01*
X129860000Y-95640000D02*
X129860000Y-98560685D01*
X130580000Y-75660000D02*
X130570000Y-75650000D01*
X118360000Y-93205000D02*
X117830000Y-92675000D01*
X129470000Y-82900000D02*
X129470000Y-83460000D01*
X141990000Y-87200000D02*
X141480000Y-87710000D01*
X143380000Y-86740000D02*
X143830000Y-86290000D01*
X137110000Y-87414595D02*
X137110000Y-85445000D01*
X142110000Y-100795000D02*
X142110000Y-98320000D01*
X130570000Y-75650000D02*
X129390000Y-75650000D01*
X138478604Y-87965000D02*
X137660405Y-87965000D01*
X131610000Y-88860000D02*
X132012220Y-89262220D01*
X126370000Y-87980000D02*
X126390000Y-87960000D01*
%TO.N,/SD_DAT1*%
X137085884Y-98793578D02*
X137085884Y-98802280D01*
X135980000Y-97441743D02*
X136618889Y-98080632D01*
X136618889Y-98080632D02*
X136618889Y-98326583D01*
X137610000Y-99326396D02*
X137610000Y-100795000D01*
X135980000Y-95503889D02*
X135980000Y-97441743D01*
X135981696Y-95502193D02*
X135980000Y-95503889D01*
X137085884Y-98802280D02*
X137610000Y-99326396D01*
X136618889Y-98326583D02*
X137085884Y-98793578D01*
X155000000Y-81010000D02*
X155000000Y-81460000D01*
X154013056Y-80023056D02*
X155000000Y-81010000D01*
%TO.N,/SD_DAT0*%
X136168889Y-98512979D02*
X136635884Y-98979974D01*
X152893056Y-80053056D02*
X153900000Y-81060000D01*
X136168889Y-98267028D02*
X136168889Y-98512979D01*
X135070000Y-97168139D02*
X136168889Y-98267028D01*
X153900000Y-81060000D02*
X153900000Y-81460000D01*
X137110000Y-99462792D02*
X137110000Y-100795000D01*
X135080000Y-95500000D02*
X135070000Y-95510000D01*
X136635884Y-98988676D02*
X137110000Y-99462792D01*
X135070000Y-95510000D02*
X135070000Y-97168139D01*
X136635884Y-98979974D02*
X136635884Y-98988676D01*
%TO.N,/SD_CLK*%
X151710000Y-82610000D02*
X151710000Y-81470000D01*
X142919315Y-97120000D02*
X143785000Y-97120000D01*
X151700000Y-81460000D02*
X151700000Y-81855000D01*
X141593556Y-94850000D02*
X141593556Y-95794241D01*
X151710000Y-81470000D02*
X151700000Y-81460000D01*
X141593556Y-95794241D02*
X142919315Y-97120000D01*
%TO.N,/SD_CMD*%
X150210000Y-83650000D02*
X149500000Y-82940000D01*
X149500000Y-82940000D02*
X149500000Y-81460000D01*
X142268556Y-94969241D02*
X142919315Y-95620000D01*
X142268556Y-94026612D02*
X142268556Y-94969241D01*
X142919315Y-95620000D02*
X143785000Y-95620000D01*
%TO.N,/SD_DAT3*%
X148400000Y-81460000D02*
X148400000Y-82840000D01*
X148400000Y-82840000D02*
X149160000Y-83600000D01*
X140918556Y-93956444D02*
X140918556Y-95755637D01*
X142782919Y-97620000D02*
X143785000Y-97620000D01*
X140918556Y-95755637D02*
X142782919Y-97620000D01*
X142140000Y-92735000D02*
X140918556Y-93956444D01*
%TO.N,/SD_DAT2*%
X140380000Y-93450000D02*
X140380000Y-95853477D01*
X142646523Y-98120000D02*
X143785000Y-98120000D01*
X141095000Y-92735000D02*
X140380000Y-93450000D01*
X147300000Y-82720000D02*
X147300000Y-81460000D01*
X148120000Y-83540000D02*
X147300000Y-82720000D01*
X140380000Y-95853477D02*
X142646523Y-98120000D01*
%TO.N,/RCC_OSC32_OUT*%
X137720000Y-83750000D02*
X136830000Y-83750000D01*
X138110000Y-85445000D02*
X138110000Y-84140000D01*
X138110000Y-84140000D02*
X137720000Y-83750000D01*
X136220000Y-82770000D02*
X136220000Y-81430000D01*
X136220000Y-81430000D02*
X136420000Y-81230000D01*
X136220000Y-83140000D02*
X136220000Y-82770000D01*
X136830000Y-83750000D02*
X136220000Y-83140000D01*
%TO.N,/RCC_OSC32_IN*%
X139120000Y-81430000D02*
X138920000Y-81230000D01*
X139120000Y-82770000D02*
X139120000Y-81430000D01*
X138610000Y-83890000D02*
X139120000Y-83380000D01*
X138610000Y-85445000D02*
X138610000Y-83890000D01*
X139120000Y-83380000D02*
X139120000Y-82770000D01*
%TO.N,/MCU_BOOT0*%
X135390000Y-75650000D02*
X135515000Y-75525000D01*
X133750000Y-75650000D02*
X135390000Y-75650000D01*
X121500000Y-84970000D02*
X125320000Y-84970000D01*
X117770000Y-81240000D02*
X116910000Y-81240000D01*
X126465000Y-78525000D02*
X128120000Y-76870000D01*
X128120000Y-76870000D02*
X132530000Y-76870000D01*
X116910000Y-79970000D02*
X116920000Y-79960000D01*
X118278000Y-79940000D02*
X116940000Y-79940000D01*
X116940000Y-79940000D02*
X116920000Y-79960000D01*
X119730000Y-83200000D02*
X121500000Y-84970000D01*
X125320000Y-84970000D02*
X126465000Y-83825000D01*
X135515000Y-75525000D02*
X143285000Y-75525000D01*
X139176894Y-88958553D02*
X140338341Y-90120000D01*
X132530000Y-76870000D02*
X133750000Y-75650000D01*
X143285000Y-75525000D02*
X144180000Y-76420000D01*
X144180000Y-76420000D02*
X144180000Y-81210000D01*
X119730000Y-83200000D02*
X117770000Y-81240000D01*
X126465000Y-83825000D02*
X126465000Y-78525000D01*
X116910000Y-81240000D02*
X116910000Y-79970000D01*
X140338341Y-90120000D02*
X143785000Y-90120000D01*
%TO.N,Net-(Q1-G)*%
X120325000Y-78225000D02*
X118853000Y-78225000D01*
X118853000Y-78225000D02*
X118278000Y-78800000D01*
X120870000Y-78770000D02*
X120325000Y-78225000D01*
X118038000Y-78560000D02*
X118278000Y-78800000D01*
X116920000Y-78560000D02*
X118038000Y-78560000D01*
%TO.N,/MCU_NRESET*%
X123310000Y-78960000D02*
X124012000Y-79662000D01*
X135610000Y-86310685D02*
X136090802Y-86791487D01*
X123310000Y-78905000D02*
X123310000Y-78960000D01*
X124012000Y-79662000D02*
X124470000Y-79662000D01*
X136090802Y-86791487D02*
X136246281Y-86791487D01*
X123310000Y-78905000D02*
X123310000Y-79380000D01*
X135610000Y-85445000D02*
X135610000Y-86310685D01*
X123310000Y-79380000D02*
X122970000Y-79720000D01*
%TO.N,/PROG_PIN*%
X115960000Y-80420000D02*
X115960000Y-82165405D01*
X115536684Y-79996684D02*
X115960000Y-80420000D01*
X114453316Y-79996684D02*
X115536684Y-79996684D01*
X116634595Y-82840000D02*
X116910000Y-82840000D01*
X110710000Y-83740000D02*
X114453316Y-79996684D01*
X115960000Y-82165405D02*
X116634595Y-82840000D01*
X110370000Y-83740000D02*
X110710000Y-83740000D01*
%TO.N,/QSPI_IO3*%
X123529304Y-96568500D02*
X123607804Y-96490000D01*
X125798113Y-97120000D02*
X128435000Y-97120000D01*
X119630000Y-93614469D02*
X119630000Y-93205000D01*
X120657698Y-94642167D02*
X119630000Y-93614469D01*
X125168113Y-96490000D02*
X125798113Y-97120000D01*
X123607804Y-96490000D02*
X125168113Y-96490000D01*
%TO.N,/QSPI_CLK*%
X127123604Y-94620000D02*
X126563604Y-94060000D01*
X123349357Y-94544000D02*
X123345357Y-94540000D01*
X121810000Y-94540000D02*
X120900000Y-93630000D01*
X124929604Y-94544000D02*
X123349357Y-94544000D01*
X128435000Y-94620000D02*
X127123604Y-94620000D01*
X123345357Y-94540000D02*
X121810000Y-94540000D01*
X120900000Y-93630000D02*
X120900000Y-93205000D01*
X126563604Y-94060000D02*
X125413604Y-94060000D01*
X125413604Y-94060000D02*
X124929604Y-94544000D01*
%TO.N,/QSPI_IO0*%
X126525500Y-95620000D02*
X128435000Y-95620000D01*
X123628952Y-93869000D02*
X122834000Y-93869000D01*
X122834000Y-93869000D02*
X122170000Y-93205000D01*
X126110000Y-95204500D02*
X126525500Y-95620000D01*
%TO.N,/QSPI_IO2*%
X121900000Y-95890000D02*
X120900000Y-96890000D01*
X122786169Y-95890000D02*
X121900000Y-95890000D01*
X125208509Y-95894000D02*
X122790169Y-95894000D01*
X125644009Y-96329500D02*
X125208509Y-95894000D01*
X125943604Y-96620000D02*
X125653104Y-96329500D01*
X128435000Y-96620000D02*
X125943604Y-96620000D01*
X120900000Y-96890000D02*
X120900000Y-98605000D01*
X122790169Y-95894000D02*
X122786169Y-95890000D01*
X125653104Y-96329500D02*
X125644009Y-96329500D01*
%TO.N,/QSPI_IO1*%
X128435000Y-96120000D02*
X126080000Y-96120000D01*
X125839500Y-95879500D02*
X125830405Y-95879500D01*
X125435000Y-95484095D02*
X125435000Y-95475000D01*
X119630000Y-97260149D02*
X119630000Y-98605000D01*
X125830405Y-95879500D02*
X125435000Y-95484095D01*
X122972565Y-95440000D02*
X121450149Y-95440000D01*
X121450149Y-95440000D02*
X119630000Y-97260149D01*
X125435000Y-95475000D02*
X125404000Y-95444000D01*
X126080000Y-96120000D02*
X125839500Y-95879500D01*
X122976565Y-95444000D02*
X122972565Y-95440000D01*
X125404000Y-95444000D02*
X122976565Y-95444000D01*
%TO.N,/QSPI_CS*%
X126389595Y-94529500D02*
X125830405Y-94529500D01*
X126980095Y-95120000D02*
X126389595Y-94529500D01*
X125830405Y-94529500D02*
X125365905Y-94994000D01*
X123158961Y-94990000D02*
X121263753Y-94990000D01*
X128435000Y-95120000D02*
X126980095Y-95120000D01*
X118360000Y-97893753D02*
X118360000Y-98605000D01*
X121263753Y-94990000D02*
X118360000Y-97893753D01*
X123162961Y-94994000D02*
X123158961Y-94990000D01*
X125365905Y-94994000D02*
X123162961Y-94994000D01*
%TO.N,/SD_CD1*%
X156300000Y-74010000D02*
X156650000Y-74010000D01*
X143785000Y-98620000D02*
X144673604Y-98620000D01*
X144673604Y-98620000D02*
X145293604Y-98000000D01*
X145540000Y-97720000D02*
X145370000Y-97630000D01*
X155530000Y-74780000D02*
X156300000Y-74010000D01*
X155530000Y-79710000D02*
X155530000Y-79340000D01*
X155150000Y-80090000D02*
X155530000Y-79710000D01*
X145293604Y-98000000D02*
X145300000Y-98000000D01*
X145540000Y-97760000D02*
X145540000Y-97720000D01*
X145300000Y-98000000D02*
X145540000Y-97760000D01*
X155530000Y-79710000D02*
X155530000Y-74780000D01*
%TO.N,/B93_PIN*%
X110960000Y-84430000D02*
X110950000Y-84430000D01*
X114718316Y-80671684D02*
X110960000Y-84430000D01*
X135110000Y-86814574D02*
X135110000Y-85445000D01*
X115239500Y-80671684D02*
X114718316Y-80671684D01*
X110950000Y-84430000D02*
X110870000Y-84250000D01*
X135402713Y-87107287D02*
X135110000Y-86814574D01*
%TO.N,/B92_PIN*%
X135413072Y-88006730D02*
X135347561Y-88006730D01*
X115239500Y-81625729D02*
X114724271Y-81625729D01*
X114724271Y-81625729D02*
X111030000Y-85320000D01*
X110360000Y-85320000D02*
X110380000Y-85340000D01*
X134610000Y-87269169D02*
X134610000Y-85445000D01*
X111030000Y-85320000D02*
X110360000Y-85320000D01*
X135347561Y-88006730D02*
X134610000Y-87269169D01*
%TO.N,/B91_PIN*%
X134110000Y-87570000D02*
X134110000Y-85445000D01*
X134540874Y-88493771D02*
X134540874Y-88000874D01*
X114804556Y-82515444D02*
X115239500Y-82515444D01*
X111170000Y-86150000D02*
X114804556Y-82515444D01*
X111023604Y-86150000D02*
X111170000Y-86150000D01*
X134540874Y-88000874D02*
X134110000Y-87570000D01*
%TO.N,/B90_PIN*%
X133612903Y-88202197D02*
X133610000Y-88199294D01*
X114715678Y-83451530D02*
X111227208Y-86940000D01*
X110350000Y-86930000D02*
X110430000Y-86940000D01*
X110430000Y-86940000D02*
X110440000Y-86940000D01*
X115239500Y-83451530D02*
X114715678Y-83451530D01*
X111227208Y-86940000D02*
X110450000Y-86940000D01*
X110450000Y-86940000D02*
X110350000Y-86930000D01*
X133610000Y-88199294D02*
X133610000Y-85445000D01*
%TO.N,/B89_PIN*%
X131110000Y-85445000D02*
X131110000Y-87090000D01*
X130740000Y-87460000D02*
X130862269Y-87460000D01*
X131110000Y-87090000D02*
X130740000Y-87460000D01*
X130862269Y-87460000D02*
X130887178Y-87484909D01*
X111270000Y-87740000D02*
X114883970Y-84126030D01*
X110890000Y-87740000D02*
X111270000Y-87740000D01*
X114883970Y-84126030D02*
X116120000Y-84126030D01*
%TO.N,/B88_PIN*%
X130610000Y-85445000D02*
X130620000Y-85455000D01*
X130620000Y-86480000D02*
X130250000Y-86850000D01*
X110350000Y-88530000D02*
X110360000Y-88520000D01*
X115046678Y-84800530D02*
X111327208Y-88520000D01*
X117067665Y-84800530D02*
X115046678Y-84800530D01*
X130620000Y-85455000D02*
X130620000Y-86480000D01*
X111327208Y-88520000D02*
X110350000Y-88530000D01*
%TO.N,/B87_PIN*%
X114924500Y-85765500D02*
X111365000Y-89325000D01*
X111365000Y-89325000D02*
X111080000Y-89325000D01*
X117020000Y-85765500D02*
X114924500Y-85765500D01*
X127851112Y-85445000D02*
X130110000Y-85445000D01*
X127843056Y-85436944D02*
X127851112Y-85445000D01*
%TO.N,/B86_PIN*%
X110350000Y-90140000D02*
X110330000Y-90140000D01*
X126870000Y-86440000D02*
X115040000Y-86440000D01*
X127550000Y-87120000D02*
X126870000Y-86440000D01*
X111340000Y-90140000D02*
X110370000Y-90140000D01*
X115040000Y-86440000D02*
X111340000Y-90140000D01*
X110360000Y-90130000D02*
X110350000Y-90140000D01*
X110370000Y-90140000D02*
X110360000Y-90130000D01*
X128435000Y-87120000D02*
X127550000Y-87120000D01*
%TO.N,/B85_PIN*%
X125870000Y-88630000D02*
X124130000Y-86890000D01*
X128435000Y-88620000D02*
X127005000Y-88620000D01*
X127005000Y-88620000D02*
X126995000Y-88630000D01*
X115350000Y-86890000D02*
X111310000Y-90930000D01*
X111310000Y-90930000D02*
X111080000Y-90930000D01*
X126995000Y-88630000D02*
X125870000Y-88630000D01*
X124130000Y-86890000D02*
X115350000Y-86890000D01*
%TO.N,/B84_PIN*%
X110360000Y-91730000D02*
X110420000Y-91740000D01*
X125723604Y-89120000D02*
X128435000Y-89120000D01*
X115710000Y-87340000D02*
X123943604Y-87340000D01*
X111310000Y-91740000D02*
X115710000Y-87340000D01*
X110410000Y-91740000D02*
X110400000Y-91740000D01*
X110400000Y-91740000D02*
X110360000Y-91730000D01*
X110420000Y-91740000D02*
X111310000Y-91740000D01*
X123943604Y-87340000D02*
X125723604Y-89120000D01*
%TO.N,/B83_PIN*%
X123757208Y-87790000D02*
X116160000Y-87790000D01*
X116160000Y-87790000D02*
X111415000Y-92535000D01*
X128435000Y-89620000D02*
X125587208Y-89620000D01*
X125587208Y-89620000D02*
X123757208Y-87790000D01*
X111415000Y-92535000D02*
X111080000Y-92535000D01*
%TO.N,/B82_PIN*%
X110360000Y-93330000D02*
X110400000Y-93360000D01*
X125450812Y-90120000D02*
X123570812Y-88240000D01*
X116590000Y-88240000D02*
X111470000Y-93360000D01*
X128435000Y-90120000D02*
X125450812Y-90120000D01*
X110400000Y-93360000D02*
X110430000Y-93360000D01*
X123570812Y-88240000D02*
X116590000Y-88240000D01*
X110460000Y-93360000D02*
X110360000Y-93330000D01*
X111470000Y-93360000D02*
X110460000Y-93360000D01*
%TO.N,/B81_PIN*%
X123384416Y-88690000D02*
X117030000Y-88690000D01*
X128435000Y-90620000D02*
X125314416Y-90620000D01*
X117030000Y-88690000D02*
X111580000Y-94140000D01*
X125314416Y-90620000D02*
X123384416Y-88690000D01*
X111580000Y-94140000D02*
X111080000Y-94140000D01*
%TO.N,/B80_PIN*%
X110400000Y-94930000D02*
X111455812Y-94930000D01*
X117245812Y-89140000D02*
X123198020Y-89140000D01*
X125178020Y-91120000D02*
X128435000Y-91120000D01*
X111455812Y-94930000D02*
X117245812Y-89140000D01*
X110390000Y-94940000D02*
X110400000Y-94930000D01*
X123198020Y-89140000D02*
X125178020Y-91120000D01*
%TO.N,/B79_PIN*%
X128435000Y-91620000D02*
X125041624Y-91620000D01*
X111282208Y-95740000D02*
X111063604Y-95740000D01*
X123011624Y-89590000D02*
X117432208Y-89590000D01*
X125041624Y-91620000D02*
X123011624Y-89590000D01*
X117432208Y-89590000D02*
X111282208Y-95740000D01*
%TO.N,/B78_PIN*%
X110480000Y-96550000D02*
X110490000Y-96550000D01*
X115820000Y-91838604D02*
X115820000Y-92030000D01*
X124905228Y-92120000D02*
X122825228Y-90040000D01*
X110420000Y-96560000D02*
X110480000Y-96550000D01*
X117618604Y-90040000D02*
X115820000Y-91838604D01*
X111300000Y-96550000D02*
X110500000Y-96550000D01*
X128435000Y-92120000D02*
X124905228Y-92120000D01*
X115820000Y-92030000D02*
X111300000Y-96550000D01*
X110500000Y-96550000D02*
X110420000Y-96560000D01*
X122825228Y-90040000D02*
X117618604Y-90040000D01*
%TO.N,/B77_PIN*%
X116270000Y-92025000D02*
X117805000Y-90490000D01*
X111080000Y-97320000D02*
X111230000Y-97320000D01*
X122638832Y-90490000D02*
X124768832Y-92620000D01*
X117805000Y-90490000D02*
X122638832Y-90490000D01*
X116270000Y-92280000D02*
X116270000Y-92025000D01*
X111230000Y-97320000D02*
X116270000Y-92280000D01*
X124768832Y-92620000D02*
X128435000Y-92620000D01*
%TO.N,/B67_PIN*%
X126900000Y-93070000D02*
X127450000Y-93620000D01*
X124167936Y-93070000D02*
X126900000Y-93070000D01*
X127450000Y-93620000D02*
X128435000Y-93620000D01*
X123617436Y-92519500D02*
X124167936Y-93070000D01*
X123607472Y-92519500D02*
X123617436Y-92519500D01*
%TO.N,/B66_PIN*%
X124880000Y-93520000D02*
X126660000Y-93520000D01*
X126660000Y-93520000D02*
X127260000Y-94120000D01*
X127260000Y-94120000D02*
X128435000Y-94120000D01*
X124650000Y-93750000D02*
X124880000Y-93520000D01*
%TO.N,/B65_PIN*%
X125344225Y-97620000D02*
X128435000Y-97620000D01*
X125082242Y-97358017D02*
X125344225Y-97620000D01*
%TO.N,/B64_PIN*%
X124889630Y-98120000D02*
X128435000Y-98120000D01*
X124203804Y-97164500D02*
X124203804Y-97434174D01*
X124203804Y-97434174D02*
X124889630Y-98120000D01*
%TO.N,/B63_PIN*%
X122595500Y-97305500D02*
X122820000Y-97530000D01*
X125395000Y-100795000D02*
X130110000Y-100795000D01*
X122820000Y-98220000D02*
X125395000Y-100795000D01*
X122357821Y-97305500D02*
X122595500Y-97305500D01*
X122820000Y-97530000D02*
X122820000Y-98220000D01*
%TO.N,/B62_PIN*%
X131334707Y-95510000D02*
X131334707Y-95945293D01*
X131334707Y-95945293D02*
X130610000Y-96670000D01*
X130610000Y-96670000D02*
X130610000Y-100795000D01*
X131381748Y-95557041D02*
X131334707Y-95510000D01*
%TO.N,/B61_PIN*%
X132249804Y-95970196D02*
X131110000Y-97110000D01*
X132249804Y-95510000D02*
X132249804Y-95970196D01*
X131110000Y-97110000D02*
X131110000Y-100795000D01*
%TO.N,/B60_PIN*%
X133125748Y-95510000D02*
X133125748Y-95994252D01*
X131610000Y-97510000D02*
X131610000Y-100795000D01*
X133125748Y-95994252D02*
X131610000Y-97510000D01*
%TO.N,/B59_PIN*%
X134080000Y-95959466D02*
X132110000Y-97929466D01*
X132110000Y-97929466D02*
X132110000Y-100795000D01*
X134080000Y-95510000D02*
X134080000Y-95959466D01*
%TO.N,/B58_PIN*%
X132610000Y-98304135D02*
X132610000Y-100795000D01*
X133860199Y-97133862D02*
X133780273Y-97133862D01*
X134084368Y-96909693D02*
X133860199Y-97133862D01*
X133780273Y-97133862D02*
X132610000Y-98304135D01*
%TO.N,/B57_PIN*%
X133785905Y-98033347D02*
X133110000Y-98709252D01*
X133835383Y-98033347D02*
X133785905Y-98033347D01*
X133110000Y-98709252D02*
X133110000Y-100795000D01*
X134059868Y-97808862D02*
X133835383Y-98033347D01*
%TO.N,/B56_PIN*%
X134065500Y-98708347D02*
X133610000Y-99163847D01*
X133610000Y-99163847D02*
X133610000Y-100795000D01*
%TO.N,/B55_PIN*%
X134611675Y-99423048D02*
X134326952Y-99423048D01*
X134326952Y-99423048D02*
X134110000Y-99640000D01*
X134110000Y-99640000D02*
X134110000Y-100795000D01*
%TO.N,/B54_PIN*%
X127420000Y-101744500D02*
X127675500Y-102000000D01*
X127675500Y-102000000D02*
X134270685Y-102000000D01*
X134270685Y-102000000D02*
X134610000Y-101660685D01*
X134610000Y-101660685D02*
X134610000Y-100795000D01*
%TO.N,/B53_PIN*%
X135052286Y-102172287D02*
X135110000Y-102114573D01*
X135110000Y-102114573D02*
X135110000Y-100795000D01*
%TO.N,/B52_PIN*%
X135951583Y-102191532D02*
X135951583Y-102002268D01*
X135951583Y-102002268D02*
X135610000Y-101660685D01*
X135610000Y-101660685D02*
X135610000Y-100795000D01*
%TO.N,/A39_PIN*%
X164120000Y-78510000D02*
X164830000Y-77800000D01*
X138610000Y-99020000D02*
X138610000Y-100795000D01*
X137710000Y-98120000D02*
X138610000Y-99020000D01*
X164830000Y-72730000D02*
X166150000Y-71410000D01*
X166150000Y-71410000D02*
X166150000Y-67325500D01*
X137743389Y-97540000D02*
X137710000Y-97573389D01*
X164830000Y-77800000D02*
X164830000Y-72730000D01*
X137710000Y-97573389D02*
X137710000Y-98120000D01*
%TO.N,/A38_PIN*%
X163840000Y-77530000D02*
X163840000Y-70506500D01*
X163060000Y-78310000D02*
X163840000Y-77530000D01*
X138651944Y-98108056D02*
X138651944Y-98425548D01*
X138651944Y-98425548D02*
X139110000Y-98883604D01*
X139110000Y-98883604D02*
X139110000Y-100795000D01*
X163840000Y-70506500D02*
X163610000Y-70276500D01*
%TO.N,/A37_PIN*%
X138529470Y-96513968D02*
X138593968Y-96513968D01*
X138593968Y-96513968D02*
X139610000Y-97530000D01*
X139610000Y-97530000D02*
X139610000Y-100795000D01*
%TO.N,/A36_PIN*%
X140110000Y-97825158D02*
X140110000Y-100795000D01*
X140284500Y-97650658D02*
X140110000Y-97825158D01*
%TO.N,/A35_PIN*%
X140610000Y-99743604D02*
X140610000Y-100795000D01*
X140986583Y-99367021D02*
X140610000Y-99743604D01*
X140986583Y-98225500D02*
X140986583Y-99367021D01*
%TO.N,/A34_PIN*%
X146944000Y-97706000D02*
X145530000Y-99120000D01*
X145530000Y-99120000D02*
X143785000Y-99120000D01*
X147654039Y-97706000D02*
X146944000Y-97706000D01*
%TO.N,/A33_PIN*%
X148148500Y-97031500D02*
X145161500Y-97031500D01*
X145161500Y-97031500D02*
X144750000Y-96620000D01*
X144750000Y-96620000D02*
X143785000Y-96620000D01*
X148550000Y-96630000D02*
X148148500Y-97031500D01*
%TO.N,/A32_PIN*%
X144886396Y-96120000D02*
X143785000Y-96120000D01*
X145123396Y-96357000D02*
X144886396Y-96120000D01*
X147666221Y-96357000D02*
X145123396Y-96357000D01*
%TO.N,/A31_PIN*%
X145376395Y-95606395D02*
X144890000Y-95120000D01*
X148273321Y-95606395D02*
X145376395Y-95606395D01*
X148615487Y-95264229D02*
X148273321Y-95606395D01*
X144890000Y-95120000D02*
X143785000Y-95120000D01*
%TO.N,/A30_PIN*%
X147670000Y-94931895D02*
X145471895Y-94931895D01*
X145471895Y-94931895D02*
X145160000Y-94620000D01*
X145160000Y-94620000D02*
X143785000Y-94620000D01*
%TO.N,/A29_PIN*%
X148166160Y-94123556D02*
X143788556Y-94123556D01*
X143788556Y-94123556D02*
X143785000Y-94120000D01*
X148524110Y-93765606D02*
X148166160Y-94123556D01*
%TO.N,/A28_PIN*%
X147459056Y-93620000D02*
X143785000Y-93620000D01*
X147630000Y-93449056D02*
X147459056Y-93620000D01*
%TO.N,/A27_PIN*%
X147004461Y-93120000D02*
X143785000Y-93120000D01*
X148600000Y-92416106D02*
X147708355Y-92416106D01*
X147708355Y-92416106D02*
X147004461Y-93120000D01*
%TO.N,/A16_PIN*%
X148174529Y-90677141D02*
X148010835Y-90840835D01*
X164620000Y-90930000D02*
X163994439Y-90930000D01*
X163741580Y-90677141D02*
X148174529Y-90677141D01*
X163994439Y-90930000D02*
X163741580Y-90677141D01*
X146731669Y-92120000D02*
X143785000Y-92120000D01*
X148151669Y-90700000D02*
X146731669Y-92120000D01*
%TO.N,/A15_PIN*%
X147920000Y-90250000D02*
X147965716Y-90204284D01*
X147965716Y-90204284D02*
X163987142Y-90204284D01*
X147920000Y-90250000D02*
X146550000Y-91620000D01*
X163987142Y-90204284D02*
X164105230Y-90086196D01*
X146550000Y-91620000D02*
X143785000Y-91620000D01*
%TO.N,/A14_PIN*%
X146413604Y-91120000D02*
X143785000Y-91120000D01*
X147733604Y-89800000D02*
X146413604Y-91120000D01*
X147733604Y-89800000D02*
X147802177Y-89731427D01*
X164650000Y-89380000D02*
X164600000Y-89330000D01*
X163038335Y-89331665D02*
X164600000Y-89331665D01*
X147802177Y-89731427D02*
X162638573Y-89731427D01*
X162638573Y-89731427D02*
X163038335Y-89331665D01*
%TO.N,/A13_PIN*%
X162301430Y-89258570D02*
X163058170Y-88501830D01*
X146277208Y-90620000D02*
X143785000Y-90620000D01*
X147638638Y-89258570D02*
X162301430Y-89258570D01*
X147547208Y-89350000D02*
X146277208Y-90620000D01*
X147547208Y-89350000D02*
X147638638Y-89258570D01*
X163058170Y-88501830D02*
X164105230Y-88501830D01*
%TO.N,/A12_PIN*%
X163036668Y-87733332D02*
X164600000Y-87733332D01*
X146640812Y-89620000D02*
X143785000Y-89620000D01*
X161984287Y-88785713D02*
X163036668Y-87733332D01*
X147410812Y-88850000D02*
X146640812Y-89620000D01*
X164450000Y-87760000D02*
X164430000Y-87780000D01*
X147410812Y-88850000D02*
X147475099Y-88785713D01*
X147475099Y-88785713D02*
X161984287Y-88785713D01*
%TO.N,/A11_PIN*%
X147334416Y-88312856D02*
X161664416Y-88312856D01*
X146504416Y-89120000D02*
X147311560Y-88312856D01*
X147311560Y-88312856D02*
X147620000Y-88312856D01*
X163057272Y-86920000D02*
X164102694Y-86920000D01*
X161664416Y-88312856D02*
X163057272Y-86920000D01*
X143785000Y-89120000D02*
X146504416Y-89120000D01*
X164102694Y-86920000D02*
X164105230Y-86917464D01*
%TO.N,/A10_PIN*%
X163085000Y-86134999D02*
X164600000Y-86134999D01*
X147360000Y-87839999D02*
X147148021Y-87839999D01*
X146368020Y-88620000D02*
X143785000Y-88620000D01*
X161380000Y-87839999D02*
X163085000Y-86134999D01*
X147198020Y-87839999D02*
X161380000Y-87839999D01*
X147148021Y-87839999D02*
X146368020Y-88620000D01*
%TO.N,/A9_PIN*%
X143785000Y-88120000D02*
X146090000Y-88120000D01*
X146890000Y-87367142D02*
X161020000Y-87367142D01*
X146842858Y-87367142D02*
X147040000Y-87367142D01*
X161020000Y-87340000D02*
X163026902Y-85333098D01*
X163026902Y-85333098D02*
X164105230Y-85333098D01*
X146090000Y-88120000D02*
X146842858Y-87367142D01*
%TO.N,/A8_PIN*%
X144190000Y-84390000D02*
X146696802Y-86896802D01*
X142110000Y-84450000D02*
X142170000Y-84390000D01*
X146703604Y-86894285D02*
X160680000Y-86894285D01*
X160680000Y-86890000D02*
X163033334Y-84536666D01*
X163033334Y-84536666D02*
X164600000Y-84536666D01*
X146696802Y-86896802D02*
X146703604Y-86890000D01*
X142170000Y-84390000D02*
X144190000Y-84390000D01*
X142110000Y-85445000D02*
X142110000Y-84450000D01*
%TO.N,/A7_PIN*%
X141610000Y-85445000D02*
X141610000Y-84313604D01*
X163131268Y-83748732D02*
X164105230Y-83748732D01*
X146940000Y-86390000D02*
X146971428Y-86421428D01*
X141610000Y-84313604D02*
X141983604Y-83940000D01*
X141983604Y-83940000D02*
X144490000Y-83940000D01*
X146971428Y-86421428D02*
X160458572Y-86421428D01*
X160458572Y-86421428D02*
X163131268Y-83748732D01*
X144490000Y-83940000D02*
X146940000Y-86390000D01*
%TO.N,/A6_PIN*%
X141730000Y-83490000D02*
X141110000Y-84110000D01*
X160275000Y-85735000D02*
X160061429Y-85948571D01*
X141110000Y-84110000D02*
X141110000Y-85445000D01*
X163071667Y-82938333D02*
X164600000Y-82938333D01*
X144676396Y-83490000D02*
X141730000Y-83490000D01*
X147134967Y-85948571D02*
X144676396Y-83490000D01*
X160130000Y-85880000D02*
X163071667Y-82938333D01*
X160061429Y-85948571D02*
X147134967Y-85948571D01*
%TO.N,/A5_PIN*%
X141490000Y-83040000D02*
X140610000Y-83920000D01*
X147345714Y-85475714D02*
X147300000Y-85430000D01*
X164105230Y-82164366D02*
X163065634Y-82164366D01*
X147300000Y-85430000D02*
X144910000Y-83040000D01*
X140610000Y-83920000D02*
X140610000Y-85445000D01*
X159754286Y-85475714D02*
X147345714Y-85475714D01*
X163065634Y-82164366D02*
X159754286Y-85475714D01*
X144910000Y-83040000D02*
X141490000Y-83040000D01*
%TO.N,/A4_PIN*%
X145096396Y-82590000D02*
X147486396Y-84980000D01*
X147509253Y-85002857D02*
X159430000Y-85002857D01*
X141210000Y-82590000D02*
X145096396Y-82590000D01*
X147486396Y-84980000D02*
X147509253Y-85002857D01*
X140110000Y-83690000D02*
X141210000Y-82590000D01*
X140110000Y-85445000D02*
X140110000Y-83690000D01*
X163070000Y-81362857D02*
X163070000Y-81340000D01*
X163070000Y-81340000D02*
X164600000Y-81340000D01*
X159430000Y-85002857D02*
X163070000Y-81362857D01*
X164400000Y-81350000D02*
X164400000Y-81310000D01*
%TO.N,/A3_PIN*%
X147672792Y-84530000D02*
X145182792Y-82040000D01*
X163070000Y-80580000D02*
X159120000Y-84530000D01*
X141090000Y-82040000D02*
X140640000Y-82490000D01*
X145182792Y-82040000D02*
X141090000Y-82040000D01*
X140640000Y-82523604D02*
X139110000Y-84053604D01*
X140640000Y-82490000D02*
X140640000Y-82523604D01*
X159120000Y-84530000D02*
X147672792Y-84530000D01*
X164105230Y-80580000D02*
X163070000Y-80580000D01*
X139110000Y-84053604D02*
X139110000Y-85445000D01*
%TO.N,/A17_PIN*%
X148338065Y-91150000D02*
X146868065Y-92620000D01*
X146868065Y-92620000D02*
X143785000Y-92620000D01*
X163808043Y-91380000D02*
X163578043Y-91150000D01*
X164105230Y-91670562D02*
X164105230Y-91694770D01*
X164105230Y-91670562D02*
X163814668Y-91380000D01*
X163814668Y-91380000D02*
X163808043Y-91380000D01*
X163578043Y-91150000D02*
X148338065Y-91150000D01*
%TO.N,/A40_PIN*%
X137068889Y-98140187D02*
X138110000Y-99181298D01*
X138110000Y-99181298D02*
X138110000Y-100795000D01*
X136724500Y-96995406D02*
X137068889Y-97339795D01*
X137068889Y-97339795D02*
X137068889Y-98140187D01*
%TO.N,/A41_PIN*%
X136610000Y-99599188D02*
X136610000Y-100795000D01*
X136185884Y-99175072D02*
X136610000Y-99599188D01*
X136185884Y-99166370D02*
X136185884Y-99175072D01*
X135493889Y-98546623D02*
X135566137Y-98546623D01*
X135566137Y-98546623D02*
X136185884Y-99166370D01*
%TO.N,/A42_PIN*%
X136110000Y-99735584D02*
X136110000Y-100795000D01*
X135820381Y-99445965D02*
X136110000Y-99735584D01*
X135510884Y-99445965D02*
X135820381Y-99445965D01*
%TO.N,/B68_PIN*%
X129300685Y-93120000D02*
X128435000Y-93120000D01*
X129780000Y-92640685D02*
X129300685Y-93120000D01*
X129780000Y-92300000D02*
X129780000Y-92640685D01*
%TD*%
%TA.AperFunction,Conductor*%
%TO.N,GND*%
G36*
X121733842Y-96868622D02*
G01*
X121772406Y-96935416D01*
X121772406Y-97012545D01*
X121767801Y-97026817D01*
X121721584Y-97148682D01*
X121702543Y-97305500D01*
X121722782Y-97472189D01*
X121711945Y-97548552D01*
X121680227Y-97595507D01*
X121640711Y-97635023D01*
X121573916Y-97673587D01*
X121496788Y-97673587D01*
X121429995Y-97635024D01*
X121397765Y-97602794D01*
X121397763Y-97602793D01*
X121378070Y-97583100D01*
X121379269Y-97581900D01*
X121354223Y-97561744D01*
X121326364Y-97489823D01*
X121325500Y-97473798D01*
X121325500Y-97127965D01*
X121345462Y-97053465D01*
X121369141Y-97022606D01*
X121443249Y-96948498D01*
X121523126Y-96868620D01*
X121589918Y-96830058D01*
X121667047Y-96830058D01*
X121733842Y-96868622D01*
G37*
%TD.AperFunction*%
%TA.AperFunction,Conductor*%
G36*
X123409372Y-97208907D02*
G01*
X123450319Y-97219000D01*
X123450323Y-97219000D01*
X123460921Y-97221612D01*
X123528479Y-97258823D01*
X123564581Y-97313447D01*
X123623582Y-97469021D01*
X123679080Y-97549423D01*
X123713321Y-97599030D01*
X123831564Y-97703783D01*
X123895881Y-97737539D01*
X123931994Y-97764112D01*
X124636410Y-98468528D01*
X124656173Y-98478598D01*
X124676108Y-98490814D01*
X124694049Y-98503849D01*
X124715136Y-98510700D01*
X124736740Y-98519648D01*
X124756504Y-98529719D01*
X124778413Y-98533188D01*
X124801137Y-98538643D01*
X124822237Y-98545500D01*
X124856142Y-98545500D01*
X127209044Y-98545500D01*
X127283544Y-98565462D01*
X127338082Y-98620000D01*
X127358044Y-98694500D01*
X127339710Y-98762921D01*
X127345619Y-98803480D01*
X127345870Y-98803992D01*
X127360654Y-98879690D01*
X127345870Y-98934866D01*
X127345133Y-98936372D01*
X127334500Y-99009360D01*
X127334500Y-99230636D01*
X127337251Y-99249517D01*
X127328239Y-99326117D01*
X127282134Y-99387948D01*
X127211291Y-99418443D01*
X127189808Y-99420000D01*
X126953554Y-99420000D01*
X127420859Y-99887305D01*
X127459423Y-99954100D01*
X127464500Y-99992664D01*
X127464500Y-100067334D01*
X127444538Y-100141834D01*
X127420858Y-100172693D01*
X127315357Y-100278193D01*
X127248562Y-100316757D01*
X127171434Y-100316757D01*
X127104640Y-100278193D01*
X126585000Y-99758553D01*
X126585001Y-100220500D01*
X126565039Y-100295000D01*
X126510501Y-100349538D01*
X126436001Y-100369500D01*
X125632966Y-100369500D01*
X125558466Y-100349538D01*
X125527607Y-100325859D01*
X123289141Y-98087393D01*
X123250577Y-98020598D01*
X123245500Y-97982034D01*
X123245500Y-97462609D01*
X123245500Y-97462607D01*
X123238643Y-97441507D01*
X123233188Y-97418783D01*
X123229719Y-97396874D01*
X123229718Y-97396873D01*
X123226553Y-97376880D01*
X123234619Y-97300175D01*
X123279957Y-97237779D01*
X123350419Y-97206412D01*
X123409372Y-97208907D01*
G37*
%TD.AperFunction*%
%TA.AperFunction,Conductor*%
G36*
X141506835Y-75970462D02*
G01*
X141537694Y-75994141D01*
X142290000Y-76746447D01*
X143239999Y-77696445D01*
X143239999Y-76441464D01*
X143259961Y-76366964D01*
X143314499Y-76312426D01*
X143388999Y-76292464D01*
X143463499Y-76312426D01*
X143494356Y-76336103D01*
X143710860Y-76552607D01*
X143749423Y-76619400D01*
X143754500Y-76657964D01*
X143754500Y-80650840D01*
X143734538Y-80725340D01*
X143704307Y-80762367D01*
X143689517Y-80775470D01*
X143599778Y-80905478D01*
X143543763Y-81053178D01*
X143524722Y-81210000D01*
X143543763Y-81366819D01*
X143561150Y-81412663D01*
X143568904Y-81489400D01*
X143537250Y-81559734D01*
X143474670Y-81604817D01*
X143421833Y-81614500D01*
X141022607Y-81614500D01*
X141001518Y-81621352D01*
X140978788Y-81626809D01*
X140956873Y-81630280D01*
X140937110Y-81640350D01*
X140915515Y-81649295D01*
X140894418Y-81656150D01*
X140876474Y-81669187D01*
X140856548Y-81681398D01*
X140836781Y-81691470D01*
X140773331Y-81754921D01*
X140741472Y-81786780D01*
X140741471Y-81786781D01*
X140562401Y-81965851D01*
X140365823Y-82162428D01*
X140365822Y-82162429D01*
X140291470Y-82236780D01*
X140281399Y-82256546D01*
X140269186Y-82276476D01*
X140242283Y-82313506D01*
X140240339Y-82312094D01*
X140225426Y-82336428D01*
X139984858Y-82576996D01*
X139918063Y-82615560D01*
X139840935Y-82615560D01*
X139774140Y-82576996D01*
X139735576Y-82510201D01*
X139730499Y-82471637D01*
X139730499Y-82419441D01*
X139730499Y-82419440D01*
X139730499Y-82415136D01*
X139727715Y-82391129D01*
X139738962Y-82314826D01*
X139739419Y-82313781D01*
X139741416Y-82309258D01*
X139767585Y-82249991D01*
X139770500Y-82224865D01*
X139770499Y-80235136D01*
X139767585Y-80210009D01*
X139767585Y-80210007D01*
X139722206Y-80107235D01*
X139642766Y-80027795D01*
X139642765Y-80027795D01*
X139642765Y-80027794D01*
X139539991Y-79982415D01*
X139539990Y-79982414D01*
X139539988Y-79982414D01*
X139519132Y-79979995D01*
X139519131Y-79979994D01*
X139514865Y-79979500D01*
X139510568Y-79979500D01*
X138329441Y-79979500D01*
X138329423Y-79979500D01*
X138325136Y-79979501D01*
X138320862Y-79979996D01*
X138320856Y-79979997D01*
X138300007Y-79982414D01*
X138197235Y-80027793D01*
X138117795Y-80107233D01*
X138072414Y-80210011D01*
X138071093Y-80221400D01*
X138069500Y-80235135D01*
X138069500Y-80239430D01*
X138069500Y-80239431D01*
X138069500Y-82011000D01*
X138049538Y-82085500D01*
X137995000Y-82140038D01*
X137968929Y-82147023D01*
X137963554Y-82159999D01*
X138067638Y-82264084D01*
X138098583Y-82309258D01*
X138117793Y-82352764D01*
X138117794Y-82352765D01*
X138197235Y-82432206D01*
X138240738Y-82451414D01*
X138285912Y-82482359D01*
X138465859Y-82662306D01*
X138504423Y-82729101D01*
X138509500Y-82767665D01*
X138509500Y-82772334D01*
X138489538Y-82846834D01*
X138465859Y-82877693D01*
X138029139Y-83314413D01*
X137962344Y-83352977D01*
X137885216Y-83352977D01*
X137856135Y-83341814D01*
X137853123Y-83340279D01*
X137831217Y-83336810D01*
X137808482Y-83331352D01*
X137787394Y-83324500D01*
X137787393Y-83324500D01*
X137753488Y-83324500D01*
X137382664Y-83324500D01*
X137308164Y-83304538D01*
X137277305Y-83280859D01*
X136874140Y-82877693D01*
X136835576Y-82810898D01*
X136830499Y-82772334D01*
X136830499Y-82769999D01*
X137473553Y-82769999D01*
X137669999Y-82966446D01*
X137866446Y-82770000D01*
X137866446Y-82769999D01*
X137670000Y-82573553D01*
X137473553Y-82769999D01*
X136830499Y-82769999D01*
X136830499Y-82767664D01*
X136850461Y-82693164D01*
X136874140Y-82662305D01*
X137054086Y-82482359D01*
X137099257Y-82451416D01*
X137142765Y-82432206D01*
X137222206Y-82352765D01*
X137241416Y-82309257D01*
X137272360Y-82264084D01*
X137376445Y-82159998D01*
X137371071Y-82147024D01*
X137344999Y-82140038D01*
X137290461Y-82085500D01*
X137270499Y-82011003D01*
X137270499Y-80235136D01*
X137267585Y-80210009D01*
X137267585Y-80210007D01*
X137222206Y-80107235D01*
X137142766Y-80027795D01*
X137142765Y-80027794D01*
X137039991Y-79982415D01*
X137039990Y-79982414D01*
X137039988Y-79982414D01*
X137019132Y-79979995D01*
X137019131Y-79979994D01*
X137014865Y-79979500D01*
X137010568Y-79979500D01*
X135829441Y-79979500D01*
X135829423Y-79979500D01*
X135825136Y-79979501D01*
X135820862Y-79979996D01*
X135820856Y-79979997D01*
X135800007Y-79982414D01*
X135697235Y-80027793D01*
X135617793Y-80107235D01*
X135574307Y-80205722D01*
X135525953Y-80265811D01*
X135454033Y-80293672D01*
X135377818Y-80281841D01*
X135332644Y-80250896D01*
X134714140Y-79632392D01*
X134675576Y-79565597D01*
X134670499Y-79527033D01*
X134670499Y-78499441D01*
X134670499Y-78499440D01*
X134670499Y-78495136D01*
X134667639Y-78470472D01*
X134667585Y-78470007D01*
X134637839Y-78402640D01*
X141340911Y-78402640D01*
X141342910Y-78419875D01*
X141388213Y-78522478D01*
X141467521Y-78601786D01*
X141570126Y-78647090D01*
X141590921Y-78649502D01*
X141599520Y-78649999D01*
X142980486Y-78649999D01*
X142989071Y-78649502D01*
X143009876Y-78647090D01*
X143112477Y-78601787D01*
X143191786Y-78522478D01*
X143237089Y-78419875D01*
X143239088Y-78402642D01*
X142290000Y-77453553D01*
X141340911Y-78402640D01*
X134637839Y-78402640D01*
X134622206Y-78367235D01*
X134542766Y-78287795D01*
X134542765Y-78287794D01*
X134439991Y-78242415D01*
X134439990Y-78242414D01*
X134439988Y-78242414D01*
X134419132Y-78239995D01*
X134419131Y-78239994D01*
X134414865Y-78239500D01*
X134410568Y-78239500D01*
X132829441Y-78239500D01*
X132829423Y-78239500D01*
X132825136Y-78239501D01*
X132820862Y-78239996D01*
X132820856Y-78239997D01*
X132800007Y-78242414D01*
X132697235Y-78287793D01*
X132617795Y-78367233D01*
X132617794Y-78367234D01*
X132617794Y-78367235D01*
X132615037Y-78373479D01*
X132572414Y-78470011D01*
X132572361Y-78470472D01*
X132569500Y-78495135D01*
X132569500Y-78499430D01*
X132569500Y-78499431D01*
X132569500Y-79780558D01*
X132569500Y-79780575D01*
X132569501Y-79784864D01*
X132569996Y-79789138D01*
X132569997Y-79789143D01*
X132572414Y-79809992D01*
X132617793Y-79912764D01*
X132617794Y-79912764D01*
X132617794Y-79912765D01*
X132697235Y-79992206D01*
X132800009Y-80037585D01*
X132825135Y-80040500D01*
X133857033Y-80040499D01*
X133931533Y-80060461D01*
X133962392Y-80084140D01*
X134063893Y-80185641D01*
X134102457Y-80252436D01*
X134102457Y-80329564D01*
X134063893Y-80396359D01*
X133997098Y-80434923D01*
X133958534Y-80440000D01*
X133073554Y-80440000D01*
X133620000Y-80986447D01*
X133868193Y-81234641D01*
X133906757Y-81301436D01*
X133906757Y-81378564D01*
X133868193Y-81445359D01*
X133073554Y-82239999D01*
X133261835Y-82239999D01*
X133336335Y-82259961D01*
X133367194Y-82283640D01*
X133840859Y-82757305D01*
X133879423Y-82824100D01*
X133884500Y-82862664D01*
X133884500Y-82937334D01*
X133864538Y-83011834D01*
X133840860Y-83042692D01*
X133782695Y-83100858D01*
X133715900Y-83139423D01*
X133677335Y-83144500D01*
X133582665Y-83144500D01*
X133508165Y-83124538D01*
X133477306Y-83100859D01*
X133010000Y-82633553D01*
X132542694Y-83100859D01*
X132475899Y-83139423D01*
X132437335Y-83144500D01*
X132342665Y-83144500D01*
X132268165Y-83124538D01*
X132237305Y-83100858D01*
X132179139Y-83042691D01*
X132140576Y-82975896D01*
X132135499Y-82937337D01*
X132135499Y-82862662D01*
X132155461Y-82788164D01*
X132179140Y-82757305D01*
X132646445Y-82290000D01*
X132642735Y-82281043D01*
X132601662Y-82270038D01*
X132572893Y-82241269D01*
X132528108Y-82277306D01*
X132467927Y-82290000D01*
X132024513Y-82290000D01*
X132015930Y-82290497D01*
X131972731Y-82295507D01*
X131972319Y-82291960D01*
X131934580Y-82297817D01*
X131921621Y-82294344D01*
X131904991Y-82292415D01*
X131879893Y-82289503D01*
X131884775Y-82289926D01*
X131811940Y-82265822D01*
X131788411Y-82246663D01*
X131522234Y-81980486D01*
X132570000Y-81980486D01*
X132570497Y-81989068D01*
X132572909Y-82009873D01*
X132580156Y-82026287D01*
X133266446Y-81339999D01*
X132580156Y-80653709D01*
X132572909Y-80670125D01*
X132570497Y-80690916D01*
X132570000Y-80699520D01*
X132570000Y-81980486D01*
X131522234Y-81980486D01*
X130914140Y-81372392D01*
X130875576Y-81305597D01*
X130870499Y-81267033D01*
X130870499Y-80699441D01*
X130870499Y-80699440D01*
X130870499Y-80695136D01*
X130868224Y-80675523D01*
X130867585Y-80670007D01*
X130822206Y-80567235D01*
X130742766Y-80487795D01*
X130742765Y-80487795D01*
X130742765Y-80487794D01*
X130639991Y-80442415D01*
X130639990Y-80442414D01*
X130639988Y-80442414D01*
X130619132Y-80439995D01*
X130619131Y-80439994D01*
X130614865Y-80439500D01*
X130610568Y-80439500D01*
X129029441Y-80439500D01*
X129029423Y-80439500D01*
X129025136Y-80439501D01*
X129020862Y-80439996D01*
X129020856Y-80439997D01*
X129000007Y-80442414D01*
X128897235Y-80487793D01*
X128817795Y-80567233D01*
X128817794Y-80567234D01*
X128817794Y-80567235D01*
X128816057Y-80571169D01*
X128772414Y-80670011D01*
X128769996Y-80690856D01*
X128769500Y-80695135D01*
X128769500Y-80699430D01*
X128769500Y-80699431D01*
X128769500Y-81980558D01*
X128769500Y-81980575D01*
X128769501Y-81984864D01*
X128769996Y-81989138D01*
X128769997Y-81989143D01*
X128772414Y-82009992D01*
X128817793Y-82112765D01*
X128902169Y-82197140D01*
X128940734Y-82263934D01*
X128940734Y-82341062D01*
X128902172Y-82407856D01*
X128892795Y-82417232D01*
X128847414Y-82520011D01*
X128844995Y-82540867D01*
X128844500Y-82545135D01*
X128844500Y-82549430D01*
X128844500Y-82549431D01*
X128844500Y-83250558D01*
X128844500Y-83250575D01*
X128844501Y-83254864D01*
X128844996Y-83259138D01*
X128844997Y-83259143D01*
X128847414Y-83279992D01*
X128892793Y-83382764D01*
X128975786Y-83465757D01*
X129030416Y-83509719D01*
X129057307Y-83574356D01*
X129060280Y-83593125D01*
X129070351Y-83612890D01*
X129079300Y-83634495D01*
X129086151Y-83655582D01*
X129099186Y-83673523D01*
X129111404Y-83693460D01*
X129121471Y-83713219D01*
X129710748Y-84302496D01*
X129749312Y-84369291D01*
X129749312Y-84446419D01*
X129732882Y-84474881D01*
X129736094Y-84476451D01*
X129670134Y-84611374D01*
X129659500Y-84684362D01*
X129659500Y-84870500D01*
X129639538Y-84945000D01*
X129585000Y-84999538D01*
X129510500Y-85019500D01*
X128409333Y-85019500D01*
X128334833Y-84999538D01*
X128310529Y-84982029D01*
X128215295Y-84897660D01*
X128075423Y-84824248D01*
X127973167Y-84799045D01*
X127922041Y-84786444D01*
X127764071Y-84786444D01*
X127725725Y-84795895D01*
X127610688Y-84824248D01*
X127470818Y-84897659D01*
X127470815Y-84897661D01*
X127470816Y-84897661D01*
X127355820Y-84999538D01*
X127352571Y-85002416D01*
X127262834Y-85132422D01*
X127206819Y-85280122D01*
X127187778Y-85436943D01*
X127206819Y-85593765D01*
X127262834Y-85741465D01*
X127336053Y-85847540D01*
X127352573Y-85871474D01*
X127470816Y-85976227D01*
X127470818Y-85976228D01*
X127610688Y-86049639D01*
X127610690Y-86049639D01*
X127610691Y-86049640D01*
X127764071Y-86087444D01*
X127764072Y-86087444D01*
X127922040Y-86087444D01*
X127922041Y-86087444D01*
X128075421Y-86049640D01*
X128082978Y-86045674D01*
X128112310Y-86030279D01*
X128215296Y-85976227D01*
X128292343Y-85907969D01*
X128361343Y-85873511D01*
X128391146Y-85870500D01*
X129510500Y-85870500D01*
X129585000Y-85890462D01*
X129639538Y-85945000D01*
X129659500Y-86019500D01*
X129659500Y-86205637D01*
X129670133Y-86278622D01*
X129670133Y-86278623D01*
X129670134Y-86278625D01*
X129703788Y-86347465D01*
X129708063Y-86356209D01*
X129722848Y-86431907D01*
X129697805Y-86504856D01*
X129696829Y-86506288D01*
X129669779Y-86545478D01*
X129619991Y-86676756D01*
X129574907Y-86739336D01*
X129504574Y-86770990D01*
X129427837Y-86763236D01*
X129394425Y-86741633D01*
X129268625Y-86680134D01*
X129195637Y-86669500D01*
X129195636Y-86669500D01*
X127762966Y-86669500D01*
X127688466Y-86649538D01*
X127657607Y-86625859D01*
X127168151Y-86136403D01*
X127168146Y-86136395D01*
X127123220Y-86091471D01*
X127103458Y-86081402D01*
X127083525Y-86069187D01*
X127065582Y-86056151D01*
X127045542Y-86049640D01*
X127044492Y-86049298D01*
X127022890Y-86040351D01*
X127003124Y-86030279D01*
X126981217Y-86026810D01*
X126958482Y-86021352D01*
X126937394Y-86014500D01*
X126937393Y-86014500D01*
X126903488Y-86014500D01*
X117813230Y-86014500D01*
X117738730Y-85994538D01*
X117684192Y-85940000D01*
X117664230Y-85865500D01*
X117665315Y-85847550D01*
X117675278Y-85765500D01*
X117656237Y-85608682D01*
X117656236Y-85608680D01*
X117656236Y-85608678D01*
X117611195Y-85489916D01*
X117600220Y-85460977D01*
X117559638Y-85402183D01*
X117533746Y-85329531D01*
X117547649Y-85253666D01*
X117559633Y-85232908D01*
X117647885Y-85105053D01*
X117703902Y-84957348D01*
X117722943Y-84800530D01*
X117703902Y-84643712D01*
X117703901Y-84643710D01*
X117703901Y-84643708D01*
X117647886Y-84496008D01*
X117587588Y-84408651D01*
X117558148Y-84366000D01*
X117439905Y-84261247D01*
X117439903Y-84261246D01*
X117439902Y-84261245D01*
X117300032Y-84187834D01*
X117174669Y-84156936D01*
X117146650Y-84150030D01*
X116988680Y-84150030D01*
X116988678Y-84150030D01*
X116947604Y-84160153D01*
X116870492Y-84158598D01*
X116804488Y-84118696D01*
X116767278Y-84051137D01*
X116764037Y-84033453D01*
X116756237Y-83969212D01*
X116756236Y-83969210D01*
X116756236Y-83969208D01*
X116693805Y-83804591D01*
X116694919Y-83804168D01*
X116676145Y-83751491D01*
X116690047Y-83675626D01*
X116740018Y-83616876D01*
X116812670Y-83590982D01*
X116824662Y-83590499D01*
X117425558Y-83590499D01*
X117429864Y-83590499D01*
X117452233Y-83587904D01*
X117454992Y-83587585D01*
X117518287Y-83559637D01*
X117557765Y-83542206D01*
X117637206Y-83462765D01*
X117682585Y-83359991D01*
X117685500Y-83334865D01*
X117685499Y-82345136D01*
X117682585Y-82320009D01*
X117682585Y-82320007D01*
X117640575Y-82224865D01*
X117637206Y-82217235D01*
X117637205Y-82217234D01*
X117637205Y-82217233D01*
X117565330Y-82145357D01*
X117526766Y-82078562D01*
X117526766Y-82001434D01*
X117565328Y-81934642D01*
X117608754Y-81891216D01*
X117675547Y-81852654D01*
X117752675Y-81852654D01*
X117819470Y-81891218D01*
X118385859Y-82457607D01*
X118424423Y-82524402D01*
X118429500Y-82562966D01*
X118429500Y-84240558D01*
X118429500Y-84240575D01*
X118429501Y-84244864D01*
X118429996Y-84249138D01*
X118429997Y-84249143D01*
X118432414Y-84269992D01*
X118477793Y-84372764D01*
X118477794Y-84372764D01*
X118477794Y-84372765D01*
X118557235Y-84452206D01*
X118660009Y-84497585D01*
X118685135Y-84500500D01*
X120367033Y-84500499D01*
X120441533Y-84520461D01*
X120472392Y-84544140D01*
X121246780Y-85318528D01*
X121266538Y-85328595D01*
X121286477Y-85340813D01*
X121304417Y-85353848D01*
X121304418Y-85353848D01*
X121304419Y-85353849D01*
X121325511Y-85360701D01*
X121347111Y-85369649D01*
X121366871Y-85379718D01*
X121366872Y-85379718D01*
X121366874Y-85379719D01*
X121388783Y-85383188D01*
X121411507Y-85388643D01*
X121432607Y-85395500D01*
X121432609Y-85395500D01*
X125387392Y-85395500D01*
X125387393Y-85395500D01*
X125408489Y-85388644D01*
X125431217Y-85383188D01*
X125453126Y-85379719D01*
X125472888Y-85369648D01*
X125494488Y-85360701D01*
X125515581Y-85353849D01*
X125533527Y-85340809D01*
X125553453Y-85328598D01*
X125573220Y-85318528D01*
X125668528Y-85223220D01*
X125668528Y-85223219D01*
X126789554Y-84102194D01*
X126813528Y-84078220D01*
X126823595Y-84058459D01*
X126835813Y-84038524D01*
X126843098Y-84028495D01*
X126848850Y-84020580D01*
X126855705Y-83999479D01*
X126864649Y-83977888D01*
X126874719Y-83958126D01*
X126878188Y-83936214D01*
X126883645Y-83913485D01*
X126890500Y-83892393D01*
X126890500Y-83757607D01*
X126890500Y-80039999D01*
X129273554Y-80039999D01*
X130366445Y-80039999D01*
X129820000Y-79493553D01*
X129273554Y-80039999D01*
X126890500Y-80039999D01*
X126890500Y-79780486D01*
X128770000Y-79780486D01*
X128770497Y-79789068D01*
X128772909Y-79809873D01*
X128780156Y-79826287D01*
X129466445Y-79140000D01*
X130173553Y-79140000D01*
X130859842Y-79826289D01*
X130867090Y-79809874D01*
X130869502Y-79789079D01*
X130869999Y-79780479D01*
X130869999Y-78499513D01*
X130869502Y-78490928D01*
X130867090Y-78470125D01*
X130859842Y-78453710D01*
X130173553Y-79139999D01*
X130173553Y-79140000D01*
X129466445Y-79140000D01*
X129466446Y-79139999D01*
X128780156Y-78453709D01*
X128772909Y-78470125D01*
X128770497Y-78490916D01*
X128770000Y-78499520D01*
X128770000Y-79780486D01*
X126890500Y-79780486D01*
X126890500Y-78762965D01*
X126910462Y-78688465D01*
X126934137Y-78657610D01*
X127351747Y-78240000D01*
X129273554Y-78240000D01*
X129819999Y-78786445D01*
X130366445Y-78240000D01*
X129273554Y-78240000D01*
X127351747Y-78240000D01*
X128252607Y-77339141D01*
X128319402Y-77300577D01*
X128357966Y-77295500D01*
X132597392Y-77295500D01*
X132597393Y-77295500D01*
X132618489Y-77288644D01*
X132641217Y-77283188D01*
X132663126Y-77279719D01*
X132682888Y-77269648D01*
X132704488Y-77260701D01*
X132725581Y-77253849D01*
X132743527Y-77240809D01*
X132763453Y-77228598D01*
X132783220Y-77218528D01*
X132878528Y-77123220D01*
X132878528Y-77123219D01*
X133498194Y-76503553D01*
X141340000Y-76503553D01*
X141340000Y-77696445D01*
X141936446Y-77099999D01*
X141340000Y-76503553D01*
X133498194Y-76503553D01*
X133882606Y-76119141D01*
X133949402Y-76080577D01*
X133987966Y-76075500D01*
X134497759Y-76075500D01*
X134572259Y-76095462D01*
X134626797Y-76150000D01*
X134634063Y-76164316D01*
X134637793Y-76172764D01*
X134637794Y-76172765D01*
X134717235Y-76252206D01*
X134820009Y-76297585D01*
X134845135Y-76300500D01*
X135934864Y-76300499D01*
X135957233Y-76297904D01*
X135959992Y-76297585D01*
X136029008Y-76267111D01*
X136062765Y-76252206D01*
X136142206Y-76172765D01*
X136187585Y-76069991D01*
X136187585Y-76069987D01*
X136196689Y-76049370D01*
X136198838Y-76050318D01*
X136214564Y-76010631D01*
X136275021Y-75962739D01*
X136334160Y-75950500D01*
X141432335Y-75950500D01*
X141506835Y-75970462D01*
G37*
%TD.AperFunction*%
%TA.AperFunction,Conductor*%
G36*
X132925441Y-86533853D02*
G01*
X132926518Y-86534379D01*
X132973253Y-86541187D01*
X133007434Y-86524622D01*
X133084360Y-86530194D01*
X133148194Y-86573483D01*
X133181832Y-86642890D01*
X133184499Y-86670955D01*
X133184499Y-87645609D01*
X133164537Y-87720109D01*
X133134308Y-87757134D01*
X133122421Y-87767665D01*
X133032681Y-87897675D01*
X132976666Y-88045375D01*
X132957625Y-88202196D01*
X132976666Y-88359018D01*
X133021284Y-88476665D01*
X133029037Y-88553402D01*
X132997383Y-88623735D01*
X132934803Y-88668818D01*
X132858066Y-88676571D01*
X132787733Y-88644917D01*
X132776608Y-88634860D01*
X132579141Y-88437393D01*
X132540577Y-88370598D01*
X132535500Y-88332034D01*
X132535500Y-86670955D01*
X132555462Y-86596455D01*
X132610000Y-86541917D01*
X132684500Y-86521955D01*
X132752920Y-86540287D01*
X132793477Y-86534380D01*
X132794552Y-86533855D01*
X132870249Y-86519065D01*
X132925441Y-86533853D01*
G37*
%TD.AperFunction*%
%TA.AperFunction,Conductor*%
G36*
X136625407Y-87411285D02*
G01*
X136677708Y-87467972D01*
X136687486Y-87491178D01*
X136691352Y-87503076D01*
X136696810Y-87525812D01*
X136700279Y-87547719D01*
X136710351Y-87567485D01*
X136719298Y-87589087D01*
X136722164Y-87597905D01*
X136726151Y-87610177D01*
X136739186Y-87628118D01*
X136751404Y-87648055D01*
X136761471Y-87667814D01*
X136785446Y-87691789D01*
X137294779Y-88201121D01*
X137294780Y-88201123D01*
X137407185Y-88313528D01*
X137426943Y-88323595D01*
X137446884Y-88335814D01*
X137464824Y-88348849D01*
X137485908Y-88355699D01*
X137507518Y-88364649D01*
X137527279Y-88374719D01*
X137549188Y-88378188D01*
X137571912Y-88383643D01*
X137593012Y-88390500D01*
X137593014Y-88390500D01*
X138494680Y-88390500D01*
X138569180Y-88410462D01*
X138623718Y-88465000D01*
X138643680Y-88539500D01*
X138623718Y-88614000D01*
X138617314Y-88624126D01*
X138599132Y-88650469D01*
X138596672Y-88654033D01*
X138540657Y-88801731D01*
X138521616Y-88958553D01*
X138540657Y-89115374D01*
X138596672Y-89263074D01*
X138686411Y-89393083D01*
X138709491Y-89413530D01*
X138752018Y-89477874D01*
X138756675Y-89554861D01*
X138733311Y-89609699D01*
X138647835Y-89733534D01*
X138591819Y-89881234D01*
X138576262Y-90009362D01*
X138572778Y-90038056D01*
X138576464Y-90068412D01*
X138591819Y-90194877D01*
X138647834Y-90342577D01*
X138673476Y-90379725D01*
X138737573Y-90472586D01*
X138752360Y-90485686D01*
X138794887Y-90550027D01*
X138802556Y-90597214D01*
X138802556Y-95505450D01*
X138809408Y-95526538D01*
X138814866Y-95549273D01*
X138818335Y-95571180D01*
X138828407Y-95590946D01*
X138837356Y-95612551D01*
X138844207Y-95633638D01*
X138857242Y-95651579D01*
X138869464Y-95671525D01*
X138870896Y-95674336D01*
X138886926Y-95749780D01*
X138863087Y-95823131D01*
X138805765Y-95874735D01*
X138730321Y-95890765D01*
X138702474Y-95886641D01*
X138648013Y-95873218D01*
X138608455Y-95863468D01*
X138450485Y-95863468D01*
X138412139Y-95872919D01*
X138297102Y-95901272D01*
X138157232Y-95974683D01*
X138126286Y-96002099D01*
X138039797Y-96078721D01*
X138038985Y-96079440D01*
X137949248Y-96209446D01*
X137893233Y-96357146D01*
X137874192Y-96513968D01*
X137893233Y-96670787D01*
X137899634Y-96687665D01*
X137907386Y-96764403D01*
X137875731Y-96834735D01*
X137813151Y-96879818D01*
X137760316Y-96889500D01*
X137664404Y-96889500D01*
X137532519Y-96922006D01*
X137455407Y-96920452D01*
X137389402Y-96880550D01*
X137357546Y-96830174D01*
X137304720Y-96690883D01*
X137214983Y-96560876D01*
X137096740Y-96456123D01*
X137096738Y-96456122D01*
X137096737Y-96456121D01*
X136956867Y-96382710D01*
X136852537Y-96356996D01*
X136803485Y-96344906D01*
X136645515Y-96344906D01*
X136590156Y-96358550D01*
X136513044Y-96356996D01*
X136447040Y-96317094D01*
X136409829Y-96249535D01*
X136405500Y-96213879D01*
X136405500Y-96062854D01*
X136425462Y-95988354D01*
X136455696Y-95951324D01*
X136472179Y-95936723D01*
X136561916Y-95806716D01*
X136617933Y-95659011D01*
X136636974Y-95502193D01*
X136617933Y-95345375D01*
X136617932Y-95345373D01*
X136617932Y-95345371D01*
X136561917Y-95197671D01*
X136521646Y-95139330D01*
X136472179Y-95067663D01*
X136353936Y-94962910D01*
X136353934Y-94962909D01*
X136353933Y-94962908D01*
X136214063Y-94889497D01*
X136092356Y-94859500D01*
X136060681Y-94851693D01*
X135902711Y-94851693D01*
X135828435Y-94870000D01*
X135749330Y-94889497D01*
X135602181Y-94966728D01*
X135526938Y-94983674D01*
X135463693Y-94966728D01*
X135312365Y-94887304D01*
X135237095Y-94868752D01*
X135158985Y-94849500D01*
X135001015Y-94849500D01*
X134962670Y-94858951D01*
X134847632Y-94887304D01*
X134707759Y-94960716D01*
X134673160Y-94991369D01*
X134604158Y-95025829D01*
X134527170Y-95021171D01*
X134475552Y-94991369D01*
X134452240Y-94970716D01*
X134312367Y-94897304D01*
X134201586Y-94870000D01*
X134158985Y-94859500D01*
X134001015Y-94859500D01*
X133963477Y-94868752D01*
X133847632Y-94897304D01*
X133691742Y-94979124D01*
X133689416Y-94974692D01*
X133651135Y-94993446D01*
X133574185Y-94988199D01*
X133554450Y-94976664D01*
X133553159Y-94979124D01*
X133397268Y-94897304D01*
X133286487Y-94870000D01*
X133243886Y-94859500D01*
X133085916Y-94859500D01*
X133048378Y-94868752D01*
X132932533Y-94897304D01*
X132776643Y-94979124D01*
X132774319Y-94974697D01*
X132735806Y-94993490D01*
X132658865Y-94988122D01*
X132639332Y-94976702D01*
X132638062Y-94979124D01*
X132482171Y-94897304D01*
X132371390Y-94870000D01*
X132328789Y-94859500D01*
X132170819Y-94859500D01*
X132133281Y-94868752D01*
X132017436Y-94897304D01*
X131861546Y-94979124D01*
X131859222Y-94974697D01*
X131820709Y-94993490D01*
X131743768Y-94988122D01*
X131724235Y-94976702D01*
X131722965Y-94979124D01*
X131567074Y-94897304D01*
X131456293Y-94870000D01*
X131413692Y-94859500D01*
X131255722Y-94859500D01*
X131218184Y-94868752D01*
X131102339Y-94897304D01*
X131098742Y-94899193D01*
X131023498Y-94916138D01*
X130949863Y-94893191D01*
X130897566Y-94836501D01*
X130880500Y-94767259D01*
X130880500Y-92056200D01*
X130900462Y-91981700D01*
X130955000Y-91927162D01*
X131029500Y-91907200D01*
X131065158Y-91911530D01*
X131142123Y-91930500D01*
X131142125Y-91930500D01*
X131300094Y-91930500D01*
X131300095Y-91930500D01*
X131453475Y-91892696D01*
X131547420Y-91843388D01*
X131622663Y-91826442D01*
X131685909Y-91843388D01*
X131779855Y-91892696D01*
X131933235Y-91930500D01*
X131933236Y-91930500D01*
X132091204Y-91930500D01*
X132091205Y-91930500D01*
X132244585Y-91892696D01*
X132338534Y-91843387D01*
X132413774Y-91826441D01*
X132477017Y-91843386D01*
X132570967Y-91892696D01*
X132724347Y-91930500D01*
X132724348Y-91930500D01*
X132882316Y-91930500D01*
X132882317Y-91930500D01*
X133035697Y-91892696D01*
X133175572Y-91819283D01*
X133293815Y-91714530D01*
X133383552Y-91584523D01*
X133391485Y-91563607D01*
X133439568Y-91436821D01*
X133439568Y-91436820D01*
X133439569Y-91436818D01*
X133458610Y-91280000D01*
X133439569Y-91123182D01*
X133439568Y-91123180D01*
X133439568Y-91123178D01*
X133383553Y-90975478D01*
X133353224Y-90931539D01*
X133293815Y-90845470D01*
X133279025Y-90832367D01*
X133236499Y-90768021D01*
X133228832Y-90720840D01*
X133228832Y-89195938D01*
X133221978Y-89174845D01*
X133216519Y-89152104D01*
X133213051Y-89130206D01*
X133202982Y-89110444D01*
X133194034Y-89088841D01*
X133193365Y-89086783D01*
X133187182Y-89067752D01*
X133174141Y-89049803D01*
X133161929Y-89029874D01*
X133151860Y-89010112D01*
X133151858Y-89010110D01*
X133145153Y-88996950D01*
X133129117Y-88921508D01*
X133152951Y-88848155D01*
X133210269Y-88796546D01*
X133285711Y-88780510D01*
X133347156Y-88797372D01*
X133380538Y-88814893D01*
X133533918Y-88852697D01*
X133533919Y-88852697D01*
X133691891Y-88852697D01*
X133853811Y-88812788D01*
X133930923Y-88814341D01*
X133996928Y-88854243D01*
X134012092Y-88872816D01*
X134050388Y-88928298D01*
X134050390Y-88928300D01*
X134050391Y-88928301D01*
X134168634Y-89033054D01*
X134168636Y-89033055D01*
X134308506Y-89106466D01*
X134308508Y-89106466D01*
X134308509Y-89106467D01*
X134461889Y-89144271D01*
X134461890Y-89144271D01*
X134619858Y-89144271D01*
X134619859Y-89144271D01*
X134773239Y-89106467D01*
X134913114Y-89033054D01*
X135031357Y-88928301D01*
X135121094Y-88798294D01*
X135141419Y-88744701D01*
X135186500Y-88682124D01*
X135256832Y-88650469D01*
X135316393Y-88652868D01*
X135334087Y-88657230D01*
X135492056Y-88657230D01*
X135492057Y-88657230D01*
X135645437Y-88619426D01*
X135785312Y-88546013D01*
X135903555Y-88441260D01*
X135993292Y-88311253D01*
X135996186Y-88303624D01*
X136049308Y-88163551D01*
X136049308Y-88163550D01*
X136049309Y-88163548D01*
X136068350Y-88006730D01*
X136049309Y-87849912D01*
X136049308Y-87849910D01*
X136049308Y-87849908D01*
X135996354Y-87710281D01*
X135993292Y-87702207D01*
X135964358Y-87660290D01*
X135938468Y-87587641D01*
X135952371Y-87511776D01*
X136002343Y-87453026D01*
X136074995Y-87427134D01*
X136122641Y-87430980D01*
X136167296Y-87441987D01*
X136325265Y-87441987D01*
X136325266Y-87441987D01*
X136478646Y-87404183D01*
X136478646Y-87404182D01*
X136496213Y-87399853D01*
X136496448Y-87400806D01*
X136551770Y-87388344D01*
X136625407Y-87411285D01*
G37*
%TD.AperFunction*%
%TA.AperFunction,Conductor*%
G36*
X122712123Y-96319500D02*
G01*
X122722776Y-96319500D01*
X122736074Y-96319500D01*
X122810574Y-96339462D01*
X122865112Y-96394000D01*
X122885074Y-96468500D01*
X122883988Y-96486449D01*
X122874026Y-96568500D01*
X122874026Y-96568504D01*
X122875246Y-96578554D01*
X122864407Y-96654916D01*
X122816839Y-96715629D01*
X122745287Y-96744423D01*
X122668925Y-96733584D01*
X122658088Y-96728442D01*
X122590186Y-96692804D01*
X122569336Y-96687665D01*
X122436806Y-96655000D01*
X122278836Y-96655000D01*
X122248159Y-96662560D01*
X122125452Y-96692804D01*
X122094691Y-96708950D01*
X122019448Y-96725896D01*
X121945812Y-96702950D01*
X121893515Y-96646260D01*
X121876569Y-96571017D01*
X121899515Y-96497381D01*
X121920090Y-96471658D01*
X122032608Y-96359141D01*
X122099403Y-96320577D01*
X122137966Y-96315500D01*
X122686866Y-96315500D01*
X122712123Y-96319500D01*
G37*
%TD.AperFunction*%
%TA.AperFunction,Conductor*%
G36*
X142633544Y-87565462D02*
G01*
X142688082Y-87620000D01*
X142708044Y-87694500D01*
X142689710Y-87762921D01*
X142695619Y-87803480D01*
X142695870Y-87803992D01*
X142710654Y-87879690D01*
X142695870Y-87934866D01*
X142695133Y-87936372D01*
X142684500Y-88009360D01*
X142684500Y-88230639D01*
X142695133Y-88303624D01*
X142695591Y-88304561D01*
X142710376Y-88380259D01*
X142695592Y-88435436D01*
X142695133Y-88436374D01*
X142684500Y-88509360D01*
X142684500Y-88730639D01*
X142695133Y-88803624D01*
X142695591Y-88804561D01*
X142710376Y-88880259D01*
X142695592Y-88935436D01*
X142695133Y-88936374D01*
X142684500Y-89009360D01*
X142684500Y-89230639D01*
X142695133Y-89303624D01*
X142695591Y-89304561D01*
X142710376Y-89380259D01*
X142695592Y-89435436D01*
X142695133Y-89436374D01*
X142684500Y-89509360D01*
X142684500Y-89545500D01*
X142664538Y-89620000D01*
X142610000Y-89674538D01*
X142535500Y-89694500D01*
X140576306Y-89694500D01*
X140501806Y-89674538D01*
X140470947Y-89650859D01*
X139875926Y-89055837D01*
X139837362Y-88989042D01*
X139833371Y-88968437D01*
X139832171Y-88958557D01*
X139832172Y-88958553D01*
X139813131Y-88801735D01*
X139813130Y-88801733D01*
X139813130Y-88801731D01*
X139757115Y-88654031D01*
X139682556Y-88546014D01*
X139667377Y-88524023D01*
X139549134Y-88419270D01*
X139546987Y-88418143D01*
X139543727Y-88416432D01*
X139487038Y-88364134D01*
X139464093Y-88290498D01*
X139481040Y-88215255D01*
X139533338Y-88158566D01*
X139606974Y-88135621D01*
X139612972Y-88135500D01*
X141547392Y-88135500D01*
X141547393Y-88135500D01*
X141568489Y-88128644D01*
X141591217Y-88123188D01*
X141613126Y-88119719D01*
X141632888Y-88109648D01*
X141654488Y-88100701D01*
X141675581Y-88093849D01*
X141693527Y-88080809D01*
X141713453Y-88068598D01*
X141733220Y-88058528D01*
X141828528Y-87963220D01*
X141977607Y-87814141D01*
X142044402Y-87775577D01*
X142052952Y-87774451D01*
X142068982Y-87770500D01*
X142068985Y-87770500D01*
X142222365Y-87732696D01*
X142362240Y-87659283D01*
X142448381Y-87582969D01*
X142517380Y-87548511D01*
X142547183Y-87545500D01*
X142559044Y-87545500D01*
X142633544Y-87565462D01*
G37*
%TD.AperFunction*%
%TA.AperFunction,Conductor*%
G36*
X129725411Y-87266116D02*
G01*
X129769095Y-87293016D01*
X129877760Y-87389283D01*
X129877762Y-87389284D01*
X130017632Y-87462695D01*
X130017634Y-87462695D01*
X130017635Y-87462696D01*
X130135870Y-87491837D01*
X130203427Y-87529048D01*
X130243329Y-87595053D01*
X130248125Y-87618545D01*
X130250940Y-87641726D01*
X130306956Y-87789430D01*
X130381663Y-87897661D01*
X130396695Y-87919439D01*
X130514938Y-88024192D01*
X130514940Y-88024193D01*
X130654810Y-88097604D01*
X130654812Y-88097604D01*
X130654813Y-88097605D01*
X130808193Y-88135409D01*
X130808194Y-88135409D01*
X130966163Y-88135409D01*
X130999842Y-88127108D01*
X131076954Y-88128661D01*
X131142959Y-88168562D01*
X131180170Y-88236119D01*
X131184500Y-88271778D01*
X131184499Y-88927394D01*
X131191352Y-88948482D01*
X131196811Y-88971219D01*
X131201074Y-88998136D01*
X131193011Y-89074841D01*
X131147676Y-89137239D01*
X131077215Y-89168609D01*
X131000510Y-89160546D01*
X130948549Y-89126802D01*
X130540716Y-88718969D01*
X129638151Y-87816403D01*
X129638146Y-87816395D01*
X129593220Y-87771471D01*
X129573458Y-87761402D01*
X129553526Y-87749188D01*
X129521557Y-87725962D01*
X129473018Y-87666023D01*
X129460951Y-87589845D01*
X129488590Y-87517839D01*
X129496437Y-87507948D01*
X129529257Y-87469999D01*
X129522851Y-87426030D01*
X129531863Y-87349430D01*
X129577968Y-87287599D01*
X129648811Y-87257104D01*
X129725411Y-87266116D01*
G37*
%TD.AperFunction*%
%TA.AperFunction,Conductor*%
G36*
X144678999Y-85832625D02*
G01*
X144710227Y-85856674D01*
X144710369Y-85856817D01*
X145334999Y-86481446D01*
X145339525Y-86479571D01*
X145354961Y-86421965D01*
X145409499Y-86367427D01*
X145483999Y-86347465D01*
X145558499Y-86367427D01*
X145589358Y-86391106D01*
X146297892Y-87099640D01*
X146336456Y-87166435D01*
X146336456Y-87243563D01*
X146297892Y-87310358D01*
X145957393Y-87650859D01*
X145890598Y-87689423D01*
X145852034Y-87694500D01*
X145010956Y-87694500D01*
X144936456Y-87674538D01*
X144881918Y-87620000D01*
X144861956Y-87545500D01*
X144880289Y-87477078D01*
X144874380Y-87436522D01*
X144874132Y-87436014D01*
X144859343Y-87360317D01*
X144874130Y-87305129D01*
X144874866Y-87303625D01*
X144885500Y-87230636D01*
X144885500Y-87009364D01*
X144882748Y-86990481D01*
X144891761Y-86913881D01*
X144937866Y-86852050D01*
X144956491Y-86844032D01*
X144966446Y-86819999D01*
X144499140Y-86352693D01*
X144460576Y-86285898D01*
X144455499Y-86247338D01*
X144455499Y-85961662D01*
X144475461Y-85887163D01*
X144529999Y-85832625D01*
X144604499Y-85812663D01*
X144678999Y-85832625D01*
G37*
%TD.AperFunction*%
%TA.AperFunction,Conductor*%
G36*
X137924870Y-86534130D02*
G01*
X137926375Y-86534866D01*
X137969761Y-86541187D01*
X137999362Y-86545500D01*
X137999364Y-86545500D01*
X138220637Y-86545500D01*
X138237939Y-86542979D01*
X138293625Y-86534866D01*
X138294562Y-86534407D01*
X138370253Y-86519621D01*
X138425435Y-86534406D01*
X138426375Y-86534866D01*
X138482061Y-86542979D01*
X138499363Y-86545500D01*
X138625302Y-86545500D01*
X138699802Y-86565462D01*
X138754340Y-86620000D01*
X138774302Y-86694500D01*
X138773216Y-86712459D01*
X138769043Y-86746824D01*
X138788084Y-86903646D01*
X138850516Y-87068264D01*
X138850031Y-87068447D01*
X138869656Y-87123508D01*
X138855754Y-87199373D01*
X138805783Y-87258123D01*
X138733131Y-87284017D01*
X138721139Y-87284500D01*
X138666211Y-87284500D01*
X138645122Y-87291352D01*
X138622392Y-87296809D01*
X138600479Y-87300280D01*
X138580714Y-87310351D01*
X138559117Y-87319297D01*
X138538021Y-87326151D01*
X138520077Y-87339188D01*
X138500155Y-87351396D01*
X138480386Y-87361470D01*
X138386024Y-87455827D01*
X138386011Y-87455844D01*
X138345998Y-87495858D01*
X138279204Y-87534422D01*
X138240638Y-87539500D01*
X137898370Y-87539500D01*
X137823870Y-87519538D01*
X137793011Y-87495859D01*
X137579141Y-87281988D01*
X137540577Y-87215193D01*
X137535500Y-87176629D01*
X137535500Y-86670955D01*
X137555462Y-86596455D01*
X137610000Y-86541917D01*
X137684500Y-86521955D01*
X137752920Y-86540288D01*
X137793477Y-86534380D01*
X137793983Y-86534133D01*
X137869680Y-86519343D01*
X137924870Y-86534130D01*
G37*
%TD.AperFunction*%
%TA.AperFunction,Conductor*%
G36*
X133085000Y-85314962D02*
G01*
X133139538Y-85369500D01*
X133159500Y-85444000D01*
X133159500Y-85446000D01*
X133139538Y-85520500D01*
X133085000Y-85575038D01*
X133010500Y-85595000D01*
X132709500Y-85595000D01*
X132635000Y-85575038D01*
X132580462Y-85520500D01*
X132560500Y-85446000D01*
X132560500Y-85444000D01*
X132580462Y-85369500D01*
X132635000Y-85314962D01*
X132709500Y-85295000D01*
X133010500Y-85295000D01*
X133085000Y-85314962D01*
G37*
%TD.AperFunction*%
%TA.AperFunction,Conductor*%
G36*
X135110138Y-84015462D02*
G01*
X135140997Y-84039141D01*
X135191997Y-84090141D01*
X135230561Y-84156936D01*
X135230561Y-84234064D01*
X135191997Y-84300859D01*
X135125202Y-84339423D01*
X135086638Y-84344500D01*
X134999361Y-84344500D01*
X134926374Y-84355133D01*
X134925436Y-84355592D01*
X134849739Y-84370376D01*
X134794564Y-84355592D01*
X134793625Y-84355133D01*
X134720639Y-84344500D01*
X134720636Y-84344500D01*
X134499364Y-84344500D01*
X134499361Y-84344500D01*
X134426374Y-84355133D01*
X134425436Y-84355592D01*
X134349739Y-84370376D01*
X134294564Y-84355592D01*
X134293625Y-84355133D01*
X134220639Y-84344500D01*
X134220636Y-84344500D01*
X133999364Y-84344500D01*
X133999361Y-84344500D01*
X133926374Y-84355133D01*
X133925436Y-84355592D01*
X133849739Y-84370376D01*
X133794564Y-84355592D01*
X133793625Y-84355133D01*
X133720639Y-84344500D01*
X133720636Y-84344500D01*
X133499364Y-84344500D01*
X133499361Y-84344500D01*
X133426372Y-84355133D01*
X133424866Y-84355870D01*
X133349168Y-84370654D01*
X133293992Y-84355870D01*
X133293480Y-84355619D01*
X133260000Y-84350741D01*
X133260000Y-84402245D01*
X133240038Y-84476745D01*
X133216333Y-84507630D01*
X133214333Y-84509629D01*
X133147528Y-84548177D01*
X133070400Y-84548157D01*
X133003615Y-84509577D01*
X132965067Y-84442772D01*
X132960000Y-84404244D01*
X132960000Y-84350741D01*
X132926517Y-84355620D01*
X132925434Y-84356150D01*
X132849735Y-84370933D01*
X132794560Y-84356148D01*
X132793479Y-84355619D01*
X132759999Y-84350741D01*
X132760000Y-84404245D01*
X132740038Y-84478745D01*
X132685500Y-84533283D01*
X132611000Y-84553245D01*
X132536500Y-84533283D01*
X132505641Y-84509604D01*
X132503641Y-84507604D01*
X132465077Y-84440809D01*
X132460000Y-84402245D01*
X132460000Y-84350741D01*
X132426520Y-84355619D01*
X132426007Y-84355871D01*
X132350309Y-84370655D01*
X132295131Y-84355870D01*
X132293625Y-84355134D01*
X132220637Y-84344500D01*
X132220636Y-84344500D01*
X132099626Y-84344500D01*
X132025126Y-84324538D01*
X131970588Y-84270000D01*
X131966867Y-84263146D01*
X131948757Y-84227604D01*
X131923042Y-84183064D01*
X131923042Y-84105936D01*
X131961606Y-84039141D01*
X132028401Y-84000577D01*
X132066965Y-83995500D01*
X135035638Y-83995500D01*
X135110138Y-84015462D01*
G37*
%TD.AperFunction*%
%TA.AperFunction,Conductor*%
G36*
X168395500Y-63460462D02*
G01*
X168450038Y-63515000D01*
X168470000Y-63589500D01*
X168470000Y-103281024D01*
X168450038Y-103355524D01*
X168395500Y-103410062D01*
X168321024Y-103430024D01*
X109579500Y-103439500D01*
X106629500Y-103439500D01*
X106555000Y-103419538D01*
X106500462Y-103365000D01*
X106480500Y-103290500D01*
X106480500Y-101439977D01*
X106480508Y-101410000D01*
X106480636Y-100895045D01*
X109560849Y-100895045D01*
X109570570Y-101074337D01*
X109618606Y-101247351D01*
X109702714Y-101405993D01*
X109818953Y-101542841D01*
X109835785Y-101555636D01*
X109961901Y-101651507D01*
X110124862Y-101726901D01*
X110300221Y-101765500D01*
X110300222Y-101765500D01*
X110430721Y-101765500D01*
X110434760Y-101765500D01*
X110568505Y-101750954D01*
X110738662Y-101693622D01*
X110892517Y-101601050D01*
X111022875Y-101477569D01*
X111123640Y-101328951D01*
X111132956Y-101305571D01*
X111190101Y-101162147D01*
X111219150Y-100984954D01*
X111209429Y-100805662D01*
X111161393Y-100632648D01*
X111077285Y-100474006D01*
X110961046Y-100337158D01*
X110818100Y-100228494D01*
X110818099Y-100228493D01*
X110655138Y-100153099D01*
X110479779Y-100114500D01*
X110345240Y-100114500D01*
X110341230Y-100114936D01*
X110341213Y-100114937D01*
X110211499Y-100129045D01*
X110211496Y-100129045D01*
X110211495Y-100129046D01*
X110041338Y-100186378D01*
X109887483Y-100278950D01*
X109887481Y-100278951D01*
X109887482Y-100278951D01*
X109757125Y-100402431D01*
X109656357Y-100551052D01*
X109589898Y-100717852D01*
X109560849Y-100895045D01*
X106480636Y-100895045D01*
X106480739Y-100483634D01*
X106481720Y-96560000D01*
X109714722Y-96560000D01*
X109733763Y-96716821D01*
X109789778Y-96864521D01*
X109868055Y-96977925D01*
X109879517Y-96994530D01*
X109997760Y-97099283D01*
X109997762Y-97099284D01*
X110137632Y-97172695D01*
X110137634Y-97172695D01*
X110137635Y-97172696D01*
X110291015Y-97210500D01*
X110291016Y-97210500D01*
X110308580Y-97214829D01*
X110307774Y-97218096D01*
X110353924Y-97230462D01*
X110408462Y-97285000D01*
X110427337Y-97341537D01*
X110432011Y-97380028D01*
X110443763Y-97476821D01*
X110499778Y-97624521D01*
X110554489Y-97703783D01*
X110589517Y-97754530D01*
X110707760Y-97859283D01*
X110707762Y-97859284D01*
X110847632Y-97932695D01*
X110847634Y-97932695D01*
X110847635Y-97932696D01*
X111001015Y-97970500D01*
X111001016Y-97970500D01*
X111158984Y-97970500D01*
X111158985Y-97970500D01*
X111312365Y-97932696D01*
X111452240Y-97859283D01*
X111570483Y-97754530D01*
X111660220Y-97624523D01*
X111716237Y-97476818D01*
X111716236Y-97476818D01*
X111722653Y-97459901D01*
X111723974Y-97460402D01*
X111744538Y-97409300D01*
X111758295Y-97393451D01*
X114971748Y-94179999D01*
X116633552Y-94179999D01*
X117176445Y-94179999D01*
X116905000Y-93908553D01*
X116633552Y-94179999D01*
X114971748Y-94179999D01*
X116040641Y-93111106D01*
X116107436Y-93072542D01*
X116184564Y-93072542D01*
X116251359Y-93111106D01*
X116289923Y-93177901D01*
X116295000Y-93216465D01*
X116295000Y-93811445D01*
X116762306Y-93344140D01*
X116829101Y-93305576D01*
X116867660Y-93300499D01*
X116942335Y-93300499D01*
X117016834Y-93320461D01*
X117047693Y-93344140D01*
X117514998Y-93811444D01*
X117528479Y-93805861D01*
X117604948Y-93795794D01*
X117676205Y-93825309D01*
X117723158Y-93886498D01*
X117734500Y-93943516D01*
X117734500Y-93995556D01*
X117734500Y-93995573D01*
X117734501Y-93999864D01*
X117734996Y-94004138D01*
X117734997Y-94004143D01*
X117737414Y-94024992D01*
X117782793Y-94127764D01*
X117782794Y-94127764D01*
X117782794Y-94127765D01*
X117862235Y-94207206D01*
X117965009Y-94252585D01*
X117990135Y-94255500D01*
X118729864Y-94255499D01*
X118752233Y-94252904D01*
X118754992Y-94252585D01*
X118806378Y-94229895D01*
X118857765Y-94207206D01*
X118889641Y-94175330D01*
X118956436Y-94136766D01*
X119033564Y-94136766D01*
X119100359Y-94175330D01*
X119132235Y-94207206D01*
X119235009Y-94252585D01*
X119260135Y-94255500D01*
X119607564Y-94255499D01*
X119682064Y-94275461D01*
X119712923Y-94299140D01*
X119958665Y-94544882D01*
X119997229Y-94611677D01*
X120001220Y-94632281D01*
X120002420Y-94642165D01*
X120002420Y-94642167D01*
X120003733Y-94652977D01*
X120021461Y-94798988D01*
X120077476Y-94946688D01*
X120167213Y-95076695D01*
X120167214Y-95076696D01*
X120167215Y-95076697D01*
X120265126Y-95163437D01*
X120307652Y-95227781D01*
X120312309Y-95304768D01*
X120277849Y-95373770D01*
X120271679Y-95380324D01*
X118141145Y-97510859D01*
X118074350Y-97549423D01*
X118035789Y-97554500D01*
X117994442Y-97554500D01*
X117994425Y-97554500D01*
X117990136Y-97554501D01*
X117985862Y-97554996D01*
X117985856Y-97554997D01*
X117965007Y-97557414D01*
X117862235Y-97602793D01*
X117782795Y-97682233D01*
X117737414Y-97785011D01*
X117735255Y-97803625D01*
X117734500Y-97810135D01*
X117734500Y-97814430D01*
X117734500Y-97814431D01*
X117734500Y-99395558D01*
X117734500Y-99395575D01*
X117734501Y-99399864D01*
X117734996Y-99404138D01*
X117734997Y-99404143D01*
X117737414Y-99424992D01*
X117782793Y-99527764D01*
X117782794Y-99527764D01*
X117782794Y-99527765D01*
X117862235Y-99607206D01*
X117965009Y-99652585D01*
X117990135Y-99655500D01*
X118729864Y-99655499D01*
X118752233Y-99652904D01*
X118754992Y-99652585D01*
X118828789Y-99620000D01*
X118857765Y-99607206D01*
X118889641Y-99575329D01*
X118956436Y-99536766D01*
X119033564Y-99536766D01*
X119100359Y-99575330D01*
X119132235Y-99607206D01*
X119235009Y-99652585D01*
X119260135Y-99655500D01*
X119999864Y-99655499D01*
X120022233Y-99652904D01*
X120024992Y-99652585D01*
X120098789Y-99620000D01*
X120127765Y-99607206D01*
X120159640Y-99575330D01*
X120226436Y-99536766D01*
X120303564Y-99536766D01*
X120370358Y-99575330D01*
X120402235Y-99607206D01*
X120505009Y-99652585D01*
X120530135Y-99655500D01*
X121269864Y-99655499D01*
X121292233Y-99652904D01*
X121294992Y-99652585D01*
X121397763Y-99607207D01*
X121397763Y-99607206D01*
X121397765Y-99607206D01*
X121429995Y-99574975D01*
X121496788Y-99536412D01*
X121573916Y-99536412D01*
X121640711Y-99574975D01*
X121672522Y-99606786D01*
X121775126Y-99652090D01*
X121795921Y-99654502D01*
X121804520Y-99654999D01*
X122535486Y-99654999D01*
X122544071Y-99654502D01*
X122564876Y-99652090D01*
X122667477Y-99606787D01*
X122742855Y-99531409D01*
X121921805Y-98710359D01*
X121883241Y-98643564D01*
X121883241Y-98566436D01*
X121921805Y-98499641D01*
X122064641Y-98356805D01*
X122131436Y-98318241D01*
X122208564Y-98318241D01*
X122275359Y-98356805D01*
X122803894Y-98885340D01*
X122835842Y-98881135D01*
X122907099Y-98910650D01*
X122921753Y-98923501D01*
X125141780Y-101143528D01*
X125161538Y-101153595D01*
X125181477Y-101165813D01*
X125199417Y-101178848D01*
X125199418Y-101178848D01*
X125199419Y-101178849D01*
X125220511Y-101185701D01*
X125242111Y-101194649D01*
X125261871Y-101204718D01*
X125261872Y-101204718D01*
X125261874Y-101204719D01*
X125283783Y-101208188D01*
X125306507Y-101213643D01*
X125327607Y-101220500D01*
X125361512Y-101220500D01*
X126707378Y-101220500D01*
X126781878Y-101240462D01*
X126836416Y-101295000D01*
X126856378Y-101369500D01*
X126842411Y-101421625D01*
X126846195Y-101423061D01*
X126783763Y-101587678D01*
X126764722Y-101744500D01*
X126783763Y-101901321D01*
X126839778Y-102049021D01*
X126848296Y-102061361D01*
X126929517Y-102179030D01*
X127047760Y-102283783D01*
X127047762Y-102283784D01*
X127187632Y-102357195D01*
X127187634Y-102357195D01*
X127187635Y-102357196D01*
X127341015Y-102395000D01*
X127341016Y-102395000D01*
X127477715Y-102395000D01*
X127532538Y-102408161D01*
X127542373Y-102409718D01*
X127542374Y-102409719D01*
X127552020Y-102411246D01*
X127564272Y-102413187D01*
X127587013Y-102418646D01*
X127608106Y-102425500D01*
X134358448Y-102425500D01*
X134432948Y-102445462D01*
X134481071Y-102489856D01*
X134561803Y-102606817D01*
X134680046Y-102711570D01*
X134680048Y-102711571D01*
X134819918Y-102784982D01*
X134819920Y-102784982D01*
X134819921Y-102784983D01*
X134973301Y-102822787D01*
X134973302Y-102822787D01*
X135131270Y-102822787D01*
X135131271Y-102822787D01*
X135284651Y-102784983D01*
X135417038Y-102715499D01*
X135492280Y-102698553D01*
X135565916Y-102721498D01*
X135575934Y-102729026D01*
X135719215Y-102804227D01*
X135719217Y-102804227D01*
X135719218Y-102804228D01*
X135872598Y-102842032D01*
X135872599Y-102842032D01*
X136030567Y-102842032D01*
X136030568Y-102842032D01*
X136183948Y-102804228D01*
X136323823Y-102730815D01*
X136442066Y-102626062D01*
X136531803Y-102496055D01*
X136550991Y-102445462D01*
X136562544Y-102414999D01*
X143198552Y-102414999D01*
X143741445Y-102414999D01*
X143470000Y-102143553D01*
X143198552Y-102414999D01*
X136562544Y-102414999D01*
X136587819Y-102348353D01*
X136587819Y-102348352D01*
X136587820Y-102348350D01*
X136606861Y-102191532D01*
X136591055Y-102061359D01*
X136601892Y-101984998D01*
X136649459Y-101924284D01*
X136717488Y-101895958D01*
X136720632Y-101895500D01*
X136720636Y-101895500D01*
X136793625Y-101884866D01*
X136794562Y-101884407D01*
X136870253Y-101869621D01*
X136925435Y-101884406D01*
X136926375Y-101884866D01*
X136984766Y-101893373D01*
X136999363Y-101895500D01*
X136999364Y-101895500D01*
X137220637Y-101895500D01*
X137235233Y-101893373D01*
X137293625Y-101884866D01*
X137294557Y-101884410D01*
X137370250Y-101869621D01*
X137425435Y-101884406D01*
X137426375Y-101884866D01*
X137475034Y-101891955D01*
X137499363Y-101895500D01*
X137499364Y-101895500D01*
X137720637Y-101895500D01*
X137732800Y-101893727D01*
X137793625Y-101884866D01*
X137794562Y-101884407D01*
X137870253Y-101869621D01*
X137925435Y-101884406D01*
X137926375Y-101884866D01*
X137984766Y-101893373D01*
X137999363Y-101895500D01*
X137999364Y-101895500D01*
X138220637Y-101895500D01*
X138232800Y-101893727D01*
X138293625Y-101884866D01*
X138294562Y-101884407D01*
X138370253Y-101869621D01*
X138425435Y-101884406D01*
X138426375Y-101884866D01*
X138484766Y-101893373D01*
X138499363Y-101895500D01*
X138499364Y-101895500D01*
X138720637Y-101895500D01*
X138732800Y-101893727D01*
X138793625Y-101884866D01*
X138794562Y-101884407D01*
X138870253Y-101869621D01*
X138925435Y-101884406D01*
X138926375Y-101884866D01*
X138984766Y-101893373D01*
X138999363Y-101895500D01*
X138999364Y-101895500D01*
X139220637Y-101895500D01*
X139235233Y-101893373D01*
X139293625Y-101884866D01*
X139294557Y-101884410D01*
X139370250Y-101869621D01*
X139425435Y-101884406D01*
X139426375Y-101884866D01*
X139475034Y-101891955D01*
X139499363Y-101895500D01*
X139499364Y-101895500D01*
X139720637Y-101895500D01*
X139732800Y-101893727D01*
X139793625Y-101884866D01*
X139794562Y-101884407D01*
X139870253Y-101869621D01*
X139925435Y-101884406D01*
X139926375Y-101884866D01*
X139984766Y-101893373D01*
X139999363Y-101895500D01*
X139999364Y-101895500D01*
X140220637Y-101895500D01*
X140232800Y-101893727D01*
X140293625Y-101884866D01*
X140294562Y-101884407D01*
X140370253Y-101869621D01*
X140425435Y-101884406D01*
X140426375Y-101884866D01*
X140484766Y-101893373D01*
X140499363Y-101895500D01*
X140499364Y-101895500D01*
X140720637Y-101895500D01*
X140732800Y-101893727D01*
X140793625Y-101884866D01*
X140794562Y-101884407D01*
X140870253Y-101869621D01*
X140925435Y-101884406D01*
X140926375Y-101884866D01*
X140984766Y-101893373D01*
X140999363Y-101895500D01*
X140999364Y-101895500D01*
X141220638Y-101895500D01*
X141244965Y-101891955D01*
X141293625Y-101884866D01*
X141295128Y-101884131D01*
X141370821Y-101869343D01*
X141426014Y-101884132D01*
X141426521Y-101884380D01*
X141459999Y-101889256D01*
X141460000Y-101889256D01*
X141460000Y-101837755D01*
X141479962Y-101763255D01*
X141503641Y-101732396D01*
X141504641Y-101731396D01*
X141571436Y-101692832D01*
X141648564Y-101692832D01*
X141715359Y-101731396D01*
X141716359Y-101732396D01*
X141754923Y-101799191D01*
X141760000Y-101837755D01*
X141760000Y-101889256D01*
X141793477Y-101884380D01*
X141793983Y-101884133D01*
X141869680Y-101869343D01*
X141924870Y-101884130D01*
X141926375Y-101884866D01*
X141970168Y-101891246D01*
X141999362Y-101895500D01*
X141999364Y-101895500D01*
X142220637Y-101895500D01*
X142229918Y-101894147D01*
X142293625Y-101884866D01*
X142406211Y-101829826D01*
X142494826Y-101741211D01*
X142549866Y-101628625D01*
X142560500Y-101555636D01*
X142560500Y-101484500D01*
X142580462Y-101410000D01*
X142635000Y-101355462D01*
X142709500Y-101335500D01*
X142711000Y-101335500D01*
X142785500Y-101355462D01*
X142840038Y-101410000D01*
X142860000Y-101484500D01*
X142860000Y-102046445D01*
X143327306Y-101579140D01*
X143394101Y-101540576D01*
X143432660Y-101535499D01*
X143718335Y-101535499D01*
X143792835Y-101555461D01*
X143847373Y-101609999D01*
X143867335Y-101684499D01*
X143847373Y-101758999D01*
X143823694Y-101789858D01*
X143823553Y-101789999D01*
X144079999Y-102046445D01*
X144079999Y-101514653D01*
X144072326Y-101508766D01*
X144042811Y-101437509D01*
X144052880Y-101361041D01*
X144054233Y-101357878D01*
X144055300Y-101355462D01*
X144077585Y-101304991D01*
X144080500Y-101279865D01*
X144080499Y-100895045D01*
X161850849Y-100895045D01*
X161860570Y-101074337D01*
X161908606Y-101247351D01*
X161992714Y-101405993D01*
X162108953Y-101542841D01*
X162125785Y-101555636D01*
X162251901Y-101651507D01*
X162414862Y-101726901D01*
X162590221Y-101765500D01*
X162590222Y-101765500D01*
X162720721Y-101765500D01*
X162724760Y-101765500D01*
X162858505Y-101750954D01*
X163028662Y-101693622D01*
X163182517Y-101601050D01*
X163312875Y-101477569D01*
X163413640Y-101328951D01*
X163422956Y-101305571D01*
X163480101Y-101162147D01*
X163509150Y-100984954D01*
X163499429Y-100805662D01*
X163451393Y-100632648D01*
X163367285Y-100474006D01*
X163251046Y-100337158D01*
X163108100Y-100228494D01*
X163108099Y-100228493D01*
X162945138Y-100153099D01*
X162769779Y-100114500D01*
X162635240Y-100114500D01*
X162631230Y-100114936D01*
X162631213Y-100114937D01*
X162501499Y-100129045D01*
X162501496Y-100129045D01*
X162501495Y-100129046D01*
X162331338Y-100186378D01*
X162177483Y-100278950D01*
X162177481Y-100278951D01*
X162177482Y-100278951D01*
X162047125Y-100402431D01*
X161946357Y-100551052D01*
X161879898Y-100717852D01*
X161850849Y-100895045D01*
X144080499Y-100895045D01*
X144080499Y-100540136D01*
X144077585Y-100515009D01*
X144077585Y-100515007D01*
X144032206Y-100412235D01*
X143952766Y-100332795D01*
X143952765Y-100332794D01*
X143849991Y-100287415D01*
X143849990Y-100287414D01*
X143849988Y-100287414D01*
X143829132Y-100284995D01*
X143829131Y-100284994D01*
X143824865Y-100284500D01*
X143820568Y-100284500D01*
X143119441Y-100284500D01*
X143119423Y-100284500D01*
X143115136Y-100284501D01*
X143110862Y-100284996D01*
X143110856Y-100284997D01*
X143090007Y-100287414D01*
X142987235Y-100332793D01*
X142888099Y-100431930D01*
X142886900Y-100430731D01*
X142866755Y-100455769D01*
X142794837Y-100483634D01*
X142778798Y-100484500D01*
X142709500Y-100484500D01*
X142635000Y-100464538D01*
X142580462Y-100410000D01*
X142560500Y-100335500D01*
X142560500Y-100034360D01*
X142549175Y-99956628D01*
X142535500Y-99897517D01*
X142535500Y-99561254D01*
X142555462Y-99486754D01*
X142610000Y-99432216D01*
X142684500Y-99412254D01*
X142759000Y-99432216D01*
X142789855Y-99455892D01*
X142838789Y-99504826D01*
X142951375Y-99559866D01*
X143013729Y-99568950D01*
X143024363Y-99570500D01*
X143024364Y-99570500D01*
X144545637Y-99570500D01*
X144562644Y-99568022D01*
X144618625Y-99559866D01*
X144618626Y-99559865D01*
X144623378Y-99559173D01*
X144682482Y-99545500D01*
X145597392Y-99545500D01*
X145597393Y-99545500D01*
X145618489Y-99538644D01*
X145641217Y-99533188D01*
X145663126Y-99529719D01*
X145682888Y-99519648D01*
X145704488Y-99510701D01*
X145725581Y-99503849D01*
X145743527Y-99490809D01*
X145763453Y-99478598D01*
X145783220Y-99468528D01*
X145878528Y-99373220D01*
X147036628Y-98215119D01*
X147103421Y-98176557D01*
X147180549Y-98176557D01*
X147240788Y-98208951D01*
X147278206Y-98242100D01*
X147281799Y-98245283D01*
X147421671Y-98318695D01*
X147421673Y-98318695D01*
X147421674Y-98318696D01*
X147575054Y-98356500D01*
X147575055Y-98356500D01*
X147733023Y-98356500D01*
X147733024Y-98356500D01*
X147886404Y-98318696D01*
X148026279Y-98245283D01*
X148144522Y-98140530D01*
X148234259Y-98010523D01*
X148245064Y-97982034D01*
X148290275Y-97862821D01*
X148290275Y-97862820D01*
X148290276Y-97862818D01*
X148309317Y-97706000D01*
X148290276Y-97549182D01*
X148290274Y-97549179D01*
X148290267Y-97549114D01*
X148301104Y-97472751D01*
X148348671Y-97412037D01*
X148350534Y-97410660D01*
X148362025Y-97402310D01*
X148381953Y-97390098D01*
X148401720Y-97380028D01*
X148457607Y-97324140D01*
X148524402Y-97285577D01*
X148562966Y-97280500D01*
X148628984Y-97280500D01*
X148628985Y-97280500D01*
X148782365Y-97242696D01*
X148922240Y-97169283D01*
X149040483Y-97064530D01*
X149130220Y-96934523D01*
X149135557Y-96920452D01*
X149186236Y-96786821D01*
X149186236Y-96786820D01*
X149186237Y-96786818D01*
X149205278Y-96630000D01*
X149186237Y-96473182D01*
X149186236Y-96473180D01*
X149186236Y-96473178D01*
X149130221Y-96325478D01*
X149068914Y-96236660D01*
X149040483Y-96195470D01*
X148922240Y-96090717D01*
X148922237Y-96090715D01*
X148908698Y-96078721D01*
X148910976Y-96076148D01*
X148876052Y-96043924D01*
X148853112Y-95970286D01*
X148870065Y-95895044D01*
X148922367Y-95838359D01*
X148932728Y-95832377D01*
X148987727Y-95803512D01*
X149105970Y-95698759D01*
X149195707Y-95568752D01*
X149197983Y-95562752D01*
X149251723Y-95421050D01*
X149251723Y-95421049D01*
X149251724Y-95421047D01*
X149270765Y-95264229D01*
X149251724Y-95107411D01*
X149251723Y-95107409D01*
X149251723Y-95107407D01*
X149195708Y-94959707D01*
X149141748Y-94881533D01*
X149105970Y-94829699D01*
X148987727Y-94724946D01*
X148987725Y-94724945D01*
X148987724Y-94724944D01*
X148847851Y-94651532D01*
X148812899Y-94642917D01*
X148745341Y-94605705D01*
X148705440Y-94539700D01*
X148703888Y-94462588D01*
X148741100Y-94395030D01*
X148779309Y-94366317D01*
X148896350Y-94304889D01*
X149014593Y-94200136D01*
X149104330Y-94070129D01*
X149110116Y-94054874D01*
X149160346Y-93922427D01*
X149160346Y-93922426D01*
X149160347Y-93922424D01*
X149179388Y-93765606D01*
X149160347Y-93608788D01*
X149160346Y-93608786D01*
X149160346Y-93608784D01*
X149104331Y-93461084D01*
X149043682Y-93373219D01*
X149014593Y-93331076D01*
X148896350Y-93226323D01*
X148896348Y-93226322D01*
X148894112Y-93224341D01*
X148851584Y-93159997D01*
X148846927Y-93083009D01*
X148881387Y-93014008D01*
X148923668Y-92980881D01*
X148972240Y-92955389D01*
X149090483Y-92850636D01*
X149180220Y-92720629D01*
X149197671Y-92674616D01*
X149236236Y-92572927D01*
X149236236Y-92572926D01*
X149236237Y-92572924D01*
X149255278Y-92416106D01*
X149236237Y-92259288D01*
X149236236Y-92259286D01*
X149236236Y-92259284D01*
X149180221Y-92111584D01*
X149130568Y-92039649D01*
X149090483Y-91981576D01*
X148972240Y-91876823D01*
X148972238Y-91876822D01*
X148972237Y-91876821D01*
X148933389Y-91856432D01*
X148876700Y-91804134D01*
X148853755Y-91730499D01*
X148870702Y-91655255D01*
X148923000Y-91598566D01*
X148996635Y-91575621D01*
X149002634Y-91575500D01*
X163306407Y-91575500D01*
X163380907Y-91595462D01*
X163435445Y-91650000D01*
X163454320Y-91706537D01*
X163459901Y-91752500D01*
X163468993Y-91827383D01*
X163525008Y-91975083D01*
X163548668Y-92009360D01*
X163614747Y-92105092D01*
X163732990Y-92209845D01*
X163732992Y-92209846D01*
X163872862Y-92283257D01*
X163872864Y-92283257D01*
X163872865Y-92283258D01*
X164026245Y-92321062D01*
X164026246Y-92321062D01*
X164184214Y-92321062D01*
X164184215Y-92321062D01*
X164337595Y-92283258D01*
X164477470Y-92209845D01*
X164595713Y-92105092D01*
X164685450Y-91975085D01*
X164711196Y-91907200D01*
X164741466Y-91827383D01*
X164741466Y-91827382D01*
X164741467Y-91827380D01*
X164760508Y-91670562D01*
X164760507Y-91670559D01*
X164762688Y-91652603D01*
X164767542Y-91653192D01*
X164773408Y-91611643D01*
X164820931Y-91550895D01*
X164841279Y-91538017D01*
X164972240Y-91469283D01*
X165090483Y-91364530D01*
X165180220Y-91234523D01*
X165188301Y-91213217D01*
X165236236Y-91086821D01*
X165236236Y-91086820D01*
X165236237Y-91086818D01*
X165255278Y-90930000D01*
X165236237Y-90773182D01*
X165236236Y-90773180D01*
X165236236Y-90773178D01*
X165180221Y-90625478D01*
X165120286Y-90538647D01*
X165090483Y-90495470D01*
X164972240Y-90390717D01*
X164918398Y-90362458D01*
X164829498Y-90315798D01*
X164772809Y-90263500D01*
X164749864Y-90189864D01*
X164750828Y-90165912D01*
X164760508Y-90086196D01*
X164760507Y-90086193D01*
X164762688Y-90068236D01*
X164764140Y-90068412D01*
X164771852Y-90014054D01*
X164819414Y-89953337D01*
X164839673Y-89940525D01*
X164972240Y-89870948D01*
X165090483Y-89766195D01*
X165180220Y-89636188D01*
X165186360Y-89620000D01*
X165236236Y-89488486D01*
X165236236Y-89488485D01*
X165236237Y-89488483D01*
X165255278Y-89331665D01*
X165236237Y-89174847D01*
X165236236Y-89174845D01*
X165236236Y-89174843D01*
X165180221Y-89027143D01*
X165117568Y-88936375D01*
X165090483Y-88897135D01*
X164972240Y-88792382D01*
X164832365Y-88718969D01*
X164832362Y-88718968D01*
X164831093Y-88718302D01*
X164774403Y-88666004D01*
X164751458Y-88592368D01*
X164752422Y-88568420D01*
X164760508Y-88501830D01*
X164759425Y-88492913D01*
X164770260Y-88416553D01*
X164817825Y-88355838D01*
X164838083Y-88343026D01*
X164972240Y-88272615D01*
X165090483Y-88167862D01*
X165180220Y-88037855D01*
X165185402Y-88024193D01*
X165236236Y-87890153D01*
X165236236Y-87890152D01*
X165236237Y-87890150D01*
X165255278Y-87733332D01*
X165236237Y-87576514D01*
X165236236Y-87576512D01*
X165236236Y-87576510D01*
X165180221Y-87428810D01*
X165112549Y-87330770D01*
X165090483Y-87298802D01*
X164972240Y-87194049D01*
X164972238Y-87194048D01*
X164972237Y-87194047D01*
X164832686Y-87120804D01*
X164775997Y-87068506D01*
X164753052Y-86994870D01*
X164754018Y-86970911D01*
X164760508Y-86917464D01*
X164757830Y-86895413D01*
X164768667Y-86819055D01*
X164816233Y-86758341D01*
X164836492Y-86745528D01*
X164972240Y-86674282D01*
X165090483Y-86569529D01*
X165180220Y-86439522D01*
X165186879Y-86421965D01*
X165236236Y-86291820D01*
X165236236Y-86291819D01*
X165236237Y-86291817D01*
X165255278Y-86134999D01*
X165236237Y-85978181D01*
X165236236Y-85978179D01*
X165236236Y-85978177D01*
X165180221Y-85830477D01*
X165090484Y-85700471D01*
X165090483Y-85700469D01*
X164972240Y-85595716D01*
X164932842Y-85575038D01*
X164834280Y-85523307D01*
X164777591Y-85471009D01*
X164754646Y-85397373D01*
X164755611Y-85373424D01*
X164760508Y-85333098D01*
X164756236Y-85297918D01*
X164767073Y-85221558D01*
X164814639Y-85160844D01*
X164834896Y-85148033D01*
X164972240Y-85075949D01*
X165090483Y-84971196D01*
X165180220Y-84841189D01*
X165236237Y-84693484D01*
X165255278Y-84536666D01*
X165236237Y-84379848D01*
X165236236Y-84379846D01*
X165236236Y-84379844D01*
X165180221Y-84232144D01*
X165129456Y-84158598D01*
X165090483Y-84102136D01*
X164972240Y-83997383D01*
X164835873Y-83925811D01*
X164779186Y-83873515D01*
X164756241Y-83799879D01*
X164757205Y-83775928D01*
X164760508Y-83748732D01*
X164754642Y-83700423D01*
X164765478Y-83624062D01*
X164813043Y-83563348D01*
X164833297Y-83550539D01*
X164972240Y-83477616D01*
X165090483Y-83372863D01*
X165180220Y-83242856D01*
X165215708Y-83149283D01*
X165236236Y-83095154D01*
X165236236Y-83095153D01*
X165236237Y-83095151D01*
X165255278Y-82938333D01*
X165236237Y-82781515D01*
X165236236Y-82781513D01*
X165236236Y-82781511D01*
X165180221Y-82633811D01*
X165123386Y-82551472D01*
X165090483Y-82503803D01*
X164972240Y-82399050D01*
X164837468Y-82328315D01*
X164780780Y-82276019D01*
X164757835Y-82202383D01*
X164758801Y-82178423D01*
X164760508Y-82164366D01*
X164753047Y-82102924D01*
X164763884Y-82026566D01*
X164811450Y-81965851D01*
X164831717Y-81953035D01*
X164832361Y-81952696D01*
X164832365Y-81952696D01*
X164972240Y-81879283D01*
X165090483Y-81774530D01*
X165180220Y-81644523D01*
X165195279Y-81604817D01*
X165236236Y-81496821D01*
X165236236Y-81496820D01*
X165236237Y-81496818D01*
X165255278Y-81340000D01*
X165236237Y-81183182D01*
X165236236Y-81183180D01*
X165236236Y-81183178D01*
X165180221Y-81035478D01*
X165097368Y-80915445D01*
X165090483Y-80905470D01*
X164972240Y-80800717D01*
X164972238Y-80800716D01*
X164972237Y-80800715D01*
X164839063Y-80730819D01*
X164782374Y-80678521D01*
X164759429Y-80604886D01*
X164760394Y-80580935D01*
X164760508Y-80580000D01*
X164741467Y-80423182D01*
X164741466Y-80423180D01*
X164741466Y-80423178D01*
X164685451Y-80275478D01*
X164633352Y-80200000D01*
X164595713Y-80145470D01*
X164477470Y-80040717D01*
X164477468Y-80040716D01*
X164477467Y-80040715D01*
X164337597Y-79967304D01*
X164226808Y-79939998D01*
X164184215Y-79929500D01*
X164026245Y-79929500D01*
X163991896Y-79937966D01*
X163872862Y-79967304D01*
X163732993Y-80040715D01*
X163732991Y-80040716D01*
X163732990Y-80040717D01*
X163646848Y-80117030D01*
X163577850Y-80151489D01*
X163548047Y-80154500D01*
X163002605Y-80154500D01*
X162981509Y-80161354D01*
X162958779Y-80166811D01*
X162936873Y-80170280D01*
X162917107Y-80180351D01*
X162895518Y-80189294D01*
X162874420Y-80196150D01*
X162856474Y-80209188D01*
X162836545Y-80221400D01*
X162816779Y-80231471D01*
X162771857Y-80276391D01*
X162771848Y-80276403D01*
X158987393Y-84060859D01*
X158920598Y-84099423D01*
X158882034Y-84104500D01*
X152879116Y-84104500D01*
X152804616Y-84084538D01*
X152750078Y-84030000D01*
X152730116Y-83955500D01*
X152731109Y-83938327D01*
X152734502Y-83909076D01*
X152734999Y-83900479D01*
X152734999Y-83278552D01*
X152215358Y-83798193D01*
X152148563Y-83836757D01*
X152071435Y-83836757D01*
X152004640Y-83798193D01*
X151899140Y-83692693D01*
X151860576Y-83625898D01*
X151855499Y-83587337D01*
X151855499Y-83512662D01*
X151875461Y-83438164D01*
X151899140Y-83407305D01*
X152366445Y-82939999D01*
X152344225Y-82886354D01*
X152334158Y-82809885D01*
X152342564Y-82776500D01*
X152346237Y-82766818D01*
X152365278Y-82610000D01*
X152355194Y-82526954D01*
X152366031Y-82450596D01*
X152413597Y-82389882D01*
X152485148Y-82361085D01*
X152503108Y-82359999D01*
X153240486Y-82359999D01*
X153249071Y-82359502D01*
X153269874Y-82357090D01*
X153289195Y-82348559D01*
X153365410Y-82336727D01*
X153409559Y-82348555D01*
X153430009Y-82357585D01*
X153455135Y-82360500D01*
X154344864Y-82360499D01*
X154369991Y-82357585D01*
X154389815Y-82348831D01*
X154466028Y-82337000D01*
X154510180Y-82348829D01*
X154530009Y-82357585D01*
X154555135Y-82360500D01*
X155444864Y-82360499D01*
X155469991Y-82357585D01*
X155469992Y-82357584D01*
X155482839Y-82356095D01*
X155517175Y-82356096D01*
X155530008Y-82357584D01*
X155530009Y-82357585D01*
X155555135Y-82360500D01*
X156444864Y-82360499D01*
X156467233Y-82357904D01*
X156469992Y-82357585D01*
X156536277Y-82328317D01*
X156572765Y-82312206D01*
X156652206Y-82232765D01*
X156697585Y-82129991D01*
X156700500Y-82104865D01*
X156700499Y-80815136D01*
X156697585Y-80790009D01*
X156697585Y-80790007D01*
X156652206Y-80687235D01*
X156572766Y-80607795D01*
X156572765Y-80607794D01*
X156469991Y-80562415D01*
X156469990Y-80562414D01*
X156469988Y-80562414D01*
X156449132Y-80559995D01*
X156449131Y-80559994D01*
X156444865Y-80559500D01*
X156440569Y-80559500D01*
X155883516Y-80559500D01*
X155809016Y-80539538D01*
X155754478Y-80485000D01*
X155734516Y-80410500D01*
X155744199Y-80357664D01*
X155786236Y-80246821D01*
X155786236Y-80246820D01*
X155786237Y-80246818D01*
X155805278Y-80090000D01*
X155805277Y-80089994D01*
X155806477Y-80080114D01*
X155835273Y-80008563D01*
X155849023Y-79992724D01*
X155878528Y-79963220D01*
X155888600Y-79943451D01*
X155900807Y-79923529D01*
X155913849Y-79905581D01*
X155920702Y-79884486D01*
X155929649Y-79862886D01*
X155939719Y-79843126D01*
X155943188Y-79821217D01*
X155948644Y-79798489D01*
X155955500Y-79777393D01*
X155955500Y-79642607D01*
X155955500Y-79306512D01*
X155955500Y-76904115D01*
X155975462Y-76829616D01*
X156030000Y-76775078D01*
X156104500Y-76755116D01*
X156121673Y-76756109D01*
X156150923Y-76759502D01*
X156159520Y-76759999D01*
X157540486Y-76759999D01*
X157549071Y-76759502D01*
X157569873Y-76757090D01*
X157620973Y-76734526D01*
X156601806Y-75715359D01*
X156563242Y-75648564D01*
X156563242Y-75609999D01*
X157203553Y-75609999D01*
X157799999Y-76206445D01*
X157799999Y-76189663D01*
X161700728Y-76189663D01*
X161730770Y-76385773D01*
X161799674Y-76571819D01*
X161799675Y-76571820D01*
X161901090Y-76734526D01*
X161904621Y-76740190D01*
X162041307Y-76883985D01*
X162204145Y-76997324D01*
X162255822Y-77019500D01*
X162386465Y-77075563D01*
X162580801Y-77115500D01*
X162725686Y-77115500D01*
X162729473Y-77115500D01*
X162877379Y-77100459D01*
X163066678Y-77041067D01*
X163193190Y-76970846D01*
X163268016Y-76952145D01*
X163342168Y-76973363D01*
X163395777Y-77028813D01*
X163414500Y-77101124D01*
X163414500Y-77292034D01*
X163394538Y-77366534D01*
X163370859Y-77397393D01*
X163152393Y-77615859D01*
X163085598Y-77654423D01*
X163047034Y-77659500D01*
X162981015Y-77659500D01*
X162942670Y-77668951D01*
X162827632Y-77697304D01*
X162687762Y-77770715D01*
X162643444Y-77809977D01*
X162572966Y-77872415D01*
X162569515Y-77875472D01*
X162479778Y-78005478D01*
X162423763Y-78153178D01*
X162404722Y-78309999D01*
X162423763Y-78466821D01*
X162479778Y-78614521D01*
X162538682Y-78699858D01*
X162569517Y-78744530D01*
X162687760Y-78849283D01*
X162687762Y-78849284D01*
X162827632Y-78922695D01*
X162827634Y-78922695D01*
X162827635Y-78922696D01*
X162981015Y-78960500D01*
X162981016Y-78960500D01*
X163138984Y-78960500D01*
X163138985Y-78960500D01*
X163292365Y-78922696D01*
X163411910Y-78859952D01*
X163487153Y-78843006D01*
X163560789Y-78865951D01*
X163603779Y-78907243D01*
X163609871Y-78916068D01*
X163629517Y-78944530D01*
X163747760Y-79049283D01*
X163747762Y-79049284D01*
X163887632Y-79122695D01*
X163887634Y-79122695D01*
X163887635Y-79122696D01*
X164041015Y-79160500D01*
X164041016Y-79160500D01*
X164198984Y-79160500D01*
X164198985Y-79160500D01*
X164352365Y-79122696D01*
X164357508Y-79119997D01*
X164381539Y-79107384D01*
X164492240Y-79049283D01*
X164610483Y-78944530D01*
X164700220Y-78814523D01*
X164719774Y-78762965D01*
X164756236Y-78666821D01*
X164756236Y-78666820D01*
X164756237Y-78666818D01*
X164775278Y-78510000D01*
X164775277Y-78509994D01*
X164776477Y-78500114D01*
X164805273Y-78428563D01*
X164819024Y-78412722D01*
X165154554Y-78077194D01*
X165154554Y-78077193D01*
X165175511Y-78056237D01*
X165175511Y-78056236D01*
X165178528Y-78053220D01*
X165188598Y-78033456D01*
X165200808Y-78013530D01*
X165213850Y-77995581D01*
X165220702Y-77974487D01*
X165229652Y-77952882D01*
X165239717Y-77933129D01*
X165239719Y-77933126D01*
X165243189Y-77911209D01*
X165248644Y-77888492D01*
X165255500Y-77867393D01*
X165255500Y-77732607D01*
X165255500Y-77732606D01*
X165255500Y-72967965D01*
X165275462Y-72893465D01*
X165299141Y-72862606D01*
X165885249Y-72276499D01*
X166474554Y-71687194D01*
X166474554Y-71687193D01*
X166495511Y-71666237D01*
X166495511Y-71666236D01*
X166498528Y-71663220D01*
X166508596Y-71643456D01*
X166520814Y-71623521D01*
X166533848Y-71605582D01*
X166533847Y-71605582D01*
X166533849Y-71605581D01*
X166540701Y-71584488D01*
X166549651Y-71562883D01*
X166551365Y-71559520D01*
X166559719Y-71543126D01*
X166563188Y-71521217D01*
X166568644Y-71498489D01*
X166575500Y-71477393D01*
X166575500Y-71342607D01*
X166575500Y-71342606D01*
X166575500Y-69399998D01*
X166595462Y-69325499D01*
X166650000Y-69270961D01*
X166724500Y-69250999D01*
X166825558Y-69250999D01*
X166829864Y-69250999D01*
X166852233Y-69248404D01*
X166854992Y-69248085D01*
X166906377Y-69225395D01*
X166957765Y-69202706D01*
X167037206Y-69123265D01*
X167082585Y-69020491D01*
X167085500Y-68995365D01*
X167085499Y-65655636D01*
X167082585Y-65630509D01*
X167082585Y-65630507D01*
X167037206Y-65527735D01*
X166957766Y-65448295D01*
X166957765Y-65448295D01*
X166957765Y-65448294D01*
X166854991Y-65402915D01*
X166854990Y-65402914D01*
X166854988Y-65402914D01*
X166834132Y-65400495D01*
X166834131Y-65400494D01*
X166829865Y-65400000D01*
X166825568Y-65400000D01*
X165474441Y-65400000D01*
X165474423Y-65400000D01*
X165470136Y-65400001D01*
X165465862Y-65400496D01*
X165465856Y-65400497D01*
X165445007Y-65402914D01*
X165342235Y-65448293D01*
X165262795Y-65527733D01*
X165217414Y-65630511D01*
X165217401Y-65630626D01*
X165214500Y-65655635D01*
X165214500Y-65659930D01*
X165214500Y-65659931D01*
X165214500Y-68991058D01*
X165214501Y-68991068D01*
X165214501Y-68995364D01*
X165214996Y-68999632D01*
X165214997Y-68999643D01*
X165217414Y-69020492D01*
X165262793Y-69123264D01*
X165262794Y-69123265D01*
X165342235Y-69202706D01*
X165445009Y-69248085D01*
X165470135Y-69251000D01*
X165575501Y-69250999D01*
X165649999Y-69270961D01*
X165704537Y-69325498D01*
X165724500Y-69399998D01*
X165724500Y-71172033D01*
X165704538Y-71246533D01*
X165680859Y-71277392D01*
X164755018Y-72203233D01*
X164688223Y-72241797D01*
X164611095Y-72241797D01*
X164544300Y-72203233D01*
X164505736Y-72136438D01*
X164505736Y-72059310D01*
X164513351Y-72037698D01*
X164542585Y-71971491D01*
X164545500Y-71946365D01*
X164545499Y-68606636D01*
X164542585Y-68581509D01*
X164542585Y-68581507D01*
X164497206Y-68478735D01*
X164417766Y-68399295D01*
X164417765Y-68399294D01*
X164314991Y-68353915D01*
X164314990Y-68353914D01*
X164314988Y-68353914D01*
X164294132Y-68351495D01*
X164294131Y-68351494D01*
X164289865Y-68351000D01*
X164285568Y-68351000D01*
X162934441Y-68351000D01*
X162934423Y-68351000D01*
X162930136Y-68351001D01*
X162925862Y-68351496D01*
X162925856Y-68351497D01*
X162905007Y-68353914D01*
X162802235Y-68399293D01*
X162722795Y-68478733D01*
X162677414Y-68581511D01*
X162675270Y-68599999D01*
X162674500Y-68606635D01*
X162674500Y-68610930D01*
X162674500Y-68610931D01*
X162674500Y-71942058D01*
X162674501Y-71942068D01*
X162674501Y-71946364D01*
X162674996Y-71950632D01*
X162674997Y-71950643D01*
X162677414Y-71971492D01*
X162722793Y-72074264D01*
X162722794Y-72074265D01*
X162802235Y-72153706D01*
X162905009Y-72199085D01*
X162930135Y-72202000D01*
X163265501Y-72201999D01*
X163340000Y-72221961D01*
X163394538Y-72276499D01*
X163414500Y-72350999D01*
X163414500Y-75177453D01*
X163394538Y-75251953D01*
X163340000Y-75306491D01*
X163265500Y-75326453D01*
X163191000Y-75306491D01*
X163180381Y-75299747D01*
X163155854Y-75282675D01*
X162973533Y-75204436D01*
X162779199Y-75164500D01*
X162630527Y-75164500D01*
X162626770Y-75164882D01*
X162626771Y-75164882D01*
X162482619Y-75179541D01*
X162293318Y-75238934D01*
X162119854Y-75335215D01*
X161969320Y-75464443D01*
X161847877Y-75621335D01*
X161760505Y-75799455D01*
X161710776Y-75991520D01*
X161700728Y-76189663D01*
X157799999Y-76189663D01*
X157799999Y-75013552D01*
X157798630Y-75012985D01*
X157787051Y-75026501D01*
X157203553Y-75609999D01*
X156563242Y-75609999D01*
X156563242Y-75571436D01*
X156601806Y-75504641D01*
X157252307Y-74854140D01*
X157319102Y-74815576D01*
X157357666Y-74810499D01*
X157540558Y-74810499D01*
X157544864Y-74810499D01*
X157569991Y-74807585D01*
X157621508Y-74784837D01*
X157668198Y-74777590D01*
X157689980Y-74744990D01*
X157752206Y-74682765D01*
X157797585Y-74579991D01*
X157800500Y-74554865D01*
X157800499Y-73465136D01*
X157797585Y-73440009D01*
X157797585Y-73440007D01*
X157752206Y-73337235D01*
X157672766Y-73257795D01*
X157672765Y-73257794D01*
X157569991Y-73212415D01*
X157569990Y-73212414D01*
X157569988Y-73212414D01*
X157549132Y-73209995D01*
X157549131Y-73209994D01*
X157544865Y-73209500D01*
X157540568Y-73209500D01*
X155759441Y-73209500D01*
X155759423Y-73209500D01*
X155755136Y-73209501D01*
X155750862Y-73209996D01*
X155750856Y-73209997D01*
X155730007Y-73212414D01*
X155627235Y-73257793D01*
X155547795Y-73337233D01*
X155547794Y-73337234D01*
X155547794Y-73337235D01*
X155525104Y-73388621D01*
X155502414Y-73440011D01*
X155499996Y-73460856D01*
X155499500Y-73465135D01*
X155499500Y-73469431D01*
X155499500Y-74147033D01*
X155479538Y-74221533D01*
X155455859Y-74252392D01*
X155276780Y-74431472D01*
X155181469Y-74526782D01*
X155171399Y-74546546D01*
X155159186Y-74566476D01*
X155146149Y-74584420D01*
X155139295Y-74605514D01*
X155130350Y-74627110D01*
X155120280Y-74646873D01*
X155116809Y-74668788D01*
X155111352Y-74691518D01*
X155104500Y-74712606D01*
X155104500Y-79314512D01*
X155084538Y-79389012D01*
X155030000Y-79443550D01*
X154991157Y-79459182D01*
X154917636Y-79477302D01*
X154777759Y-79550717D01*
X154717287Y-79604289D01*
X154648285Y-79638748D01*
X154571297Y-79634090D01*
X154518348Y-79599093D01*
X154517081Y-79600524D01*
X154506996Y-79591590D01*
X154506954Y-79591562D01*
X154506929Y-79591530D01*
X154503540Y-79588527D01*
X154503539Y-79588526D01*
X154385296Y-79483773D01*
X154385294Y-79483772D01*
X154385293Y-79483771D01*
X154245423Y-79410360D01*
X154120766Y-79379636D01*
X154092041Y-79372556D01*
X153934071Y-79372556D01*
X153905346Y-79379636D01*
X153780688Y-79410360D01*
X153640816Y-79483772D01*
X153534928Y-79577580D01*
X153465927Y-79612040D01*
X153388939Y-79607383D01*
X153337321Y-79577581D01*
X153265296Y-79513773D01*
X153265294Y-79513772D01*
X153265293Y-79513771D01*
X153125423Y-79440360D01*
X153023167Y-79415157D01*
X152972041Y-79402556D01*
X152814071Y-79402556D01*
X152789691Y-79408565D01*
X152660688Y-79440360D01*
X152520818Y-79513771D01*
X152494978Y-79536663D01*
X152418644Y-79604289D01*
X152402571Y-79618528D01*
X152312834Y-79748534D01*
X152256819Y-79896234D01*
X152237778Y-80053056D01*
X152256819Y-80209877D01*
X152313791Y-80360099D01*
X152321544Y-80436836D01*
X152289890Y-80507169D01*
X152227310Y-80552252D01*
X152157315Y-80560944D01*
X152151855Y-80560310D01*
X152144865Y-80559500D01*
X152140568Y-80559500D01*
X151259441Y-80559500D01*
X151259423Y-80559500D01*
X151255136Y-80559501D01*
X151250862Y-80559996D01*
X151250856Y-80559997D01*
X151207613Y-80565012D01*
X151207560Y-80564560D01*
X151158468Y-80572181D01*
X151086548Y-80544318D01*
X151038195Y-80484229D01*
X151025500Y-80424046D01*
X151025500Y-79632609D01*
X151025500Y-79632607D01*
X151018643Y-79611507D01*
X151013188Y-79588783D01*
X151009719Y-79566874D01*
X150999648Y-79547110D01*
X150990698Y-79525501D01*
X150983849Y-79504419D01*
X150970814Y-79486478D01*
X150958598Y-79466543D01*
X150948528Y-79446780D01*
X150298890Y-78797142D01*
X150260326Y-78730347D01*
X150256335Y-78709742D01*
X150255135Y-78699862D01*
X150255136Y-78699858D01*
X150236095Y-78543040D01*
X150236094Y-78543038D01*
X150236094Y-78543036D01*
X150180079Y-78395336D01*
X150129553Y-78322137D01*
X150090341Y-78265328D01*
X149972098Y-78160575D01*
X149972096Y-78160574D01*
X149972095Y-78160573D01*
X149832225Y-78087162D01*
X149722020Y-78060000D01*
X149678843Y-78049358D01*
X149520873Y-78049358D01*
X149482528Y-78058809D01*
X149367490Y-78087162D01*
X149227620Y-78160573D01*
X149216985Y-78169995D01*
X149121598Y-78254500D01*
X149109373Y-78265330D01*
X149019636Y-78395336D01*
X148963621Y-78543036D01*
X148944580Y-78699857D01*
X148963621Y-78856679D01*
X149019636Y-79004379D01*
X149092933Y-79110568D01*
X149109375Y-79134388D01*
X149227618Y-79239141D01*
X149227620Y-79239142D01*
X149367490Y-79312553D01*
X149367492Y-79312553D01*
X149367493Y-79312554D01*
X149520873Y-79350358D01*
X149586892Y-79350358D01*
X149661392Y-79370320D01*
X149692251Y-79393999D01*
X150130859Y-79832607D01*
X150169423Y-79899402D01*
X150174500Y-79937966D01*
X150174500Y-80424045D01*
X150154538Y-80498545D01*
X150100000Y-80553083D01*
X150025500Y-80573045D01*
X149981352Y-80563733D01*
X149949123Y-80559994D01*
X149944865Y-80559500D01*
X149940568Y-80559500D01*
X149059441Y-80559500D01*
X149059423Y-80559500D01*
X149055136Y-80559501D01*
X149050862Y-80559996D01*
X149050856Y-80559997D01*
X149030008Y-80562414D01*
X149010181Y-80571169D01*
X148933966Y-80582998D01*
X148889818Y-80571168D01*
X148869995Y-80562415D01*
X148849123Y-80559994D01*
X148844865Y-80559500D01*
X148840568Y-80559500D01*
X147959441Y-80559500D01*
X147959423Y-80559500D01*
X147955136Y-80559501D01*
X147950862Y-80559996D01*
X147950856Y-80559997D01*
X147930008Y-80562414D01*
X147910181Y-80571169D01*
X147833966Y-80582998D01*
X147789818Y-80571168D01*
X147769995Y-80562415D01*
X147749123Y-80559994D01*
X147744865Y-80559500D01*
X147740568Y-80559500D01*
X146859441Y-80559500D01*
X146859423Y-80559500D01*
X146855136Y-80559501D01*
X146850862Y-80559996D01*
X146850856Y-80559997D01*
X146830007Y-80562414D01*
X146727235Y-80607793D01*
X146647795Y-80687233D01*
X146602414Y-80790011D01*
X146599996Y-80810856D01*
X146599500Y-80815135D01*
X146599500Y-80819430D01*
X146599500Y-80819431D01*
X146599500Y-82100558D01*
X146599501Y-82100568D01*
X146599501Y-82104864D01*
X146599996Y-82109132D01*
X146599997Y-82109143D01*
X146602414Y-82129992D01*
X146647793Y-82232764D01*
X146647794Y-82232765D01*
X146727235Y-82312206D01*
X146785684Y-82338013D01*
X146845772Y-82386365D01*
X146873635Y-82458284D01*
X146874500Y-82474317D01*
X146874500Y-82770242D01*
X146854538Y-82844742D01*
X146800000Y-82899280D01*
X146725500Y-82919242D01*
X146651000Y-82899280D01*
X146620141Y-82875601D01*
X145436011Y-81691471D01*
X145416252Y-81681404D01*
X145396315Y-81669186D01*
X145378374Y-81656151D01*
X145366102Y-81652164D01*
X145357284Y-81649298D01*
X145335682Y-81640351D01*
X145315916Y-81630279D01*
X145294009Y-81626810D01*
X145271274Y-81621352D01*
X145250186Y-81614500D01*
X145250185Y-81614500D01*
X145216280Y-81614500D01*
X144938167Y-81614500D01*
X144863667Y-81594538D01*
X144809129Y-81540000D01*
X144789167Y-81465500D01*
X144798850Y-81412663D01*
X144811782Y-81378564D01*
X144816237Y-81366818D01*
X144835278Y-81210000D01*
X144816237Y-81053182D01*
X144816236Y-81053180D01*
X144816236Y-81053178D01*
X144760221Y-80905478D01*
X144708316Y-80830281D01*
X144670483Y-80775470D01*
X144655693Y-80762367D01*
X144613167Y-80698021D01*
X144605500Y-80650840D01*
X144605500Y-76352609D01*
X144605500Y-76352607D01*
X144598643Y-76331507D01*
X144593188Y-76308783D01*
X144589719Y-76286874D01*
X144579649Y-76267111D01*
X144570699Y-76245503D01*
X144563849Y-76224419D01*
X144550814Y-76206478D01*
X144538595Y-76186538D01*
X144528528Y-76166780D01*
X144416124Y-76054376D01*
X144416121Y-76054374D01*
X143583151Y-75221403D01*
X143583146Y-75221395D01*
X143538220Y-75176471D01*
X143518458Y-75166402D01*
X143498525Y-75154187D01*
X143480582Y-75141151D01*
X143463755Y-75135684D01*
X143459492Y-75134298D01*
X143437890Y-75125351D01*
X143418124Y-75115279D01*
X143396217Y-75111810D01*
X143373482Y-75106352D01*
X143352394Y-75099500D01*
X143352393Y-75099500D01*
X143318488Y-75099500D01*
X136176189Y-75099500D01*
X136101689Y-75079538D01*
X136070830Y-75055859D01*
X136062766Y-75047795D01*
X136062765Y-75047794D01*
X135959991Y-75002415D01*
X135959990Y-75002414D01*
X135959988Y-75002414D01*
X135939132Y-74999995D01*
X135939131Y-74999994D01*
X135934865Y-74999500D01*
X135930568Y-74999500D01*
X134849441Y-74999500D01*
X134849423Y-74999500D01*
X134845136Y-74999501D01*
X134840862Y-74999996D01*
X134840856Y-74999997D01*
X134820007Y-75002414D01*
X134717235Y-75047793D01*
X134637793Y-75127235D01*
X134634063Y-75135684D01*
X134585710Y-75195773D01*
X134513791Y-75223635D01*
X134497759Y-75224500D01*
X133682605Y-75224500D01*
X133661509Y-75231354D01*
X133638779Y-75236811D01*
X133616873Y-75240280D01*
X133597107Y-75250351D01*
X133575518Y-75259294D01*
X133554420Y-75266150D01*
X133536474Y-75279188D01*
X133516545Y-75291400D01*
X133496781Y-75301470D01*
X132397393Y-76400859D01*
X132330598Y-76439423D01*
X132292034Y-76444500D01*
X131068328Y-76444500D01*
X130993828Y-76424538D01*
X130939290Y-76370000D01*
X130919328Y-76295500D01*
X130939290Y-76221000D01*
X130969520Y-76183973D01*
X131070483Y-76094530D01*
X131160220Y-75964523D01*
X131216237Y-75816818D01*
X131235278Y-75660000D01*
X131216237Y-75503182D01*
X131216236Y-75503180D01*
X131216236Y-75503178D01*
X131160221Y-75355478D01*
X131080706Y-75240281D01*
X131070483Y-75225470D01*
X130952240Y-75120717D01*
X130952238Y-75120716D01*
X130952237Y-75120715D01*
X130812367Y-75047304D01*
X130710111Y-75022101D01*
X130658985Y-75009500D01*
X130501015Y-75009500D01*
X130432038Y-75026501D01*
X130347631Y-75047305D01*
X130257571Y-75094572D01*
X130182328Y-75111518D01*
X130108692Y-75088572D01*
X130082969Y-75067998D01*
X130062766Y-75047795D01*
X130062765Y-75047794D01*
X129959991Y-75002415D01*
X129959990Y-75002414D01*
X129959988Y-75002414D01*
X129939132Y-74999995D01*
X129939131Y-74999994D01*
X129934865Y-74999500D01*
X129930568Y-74999500D01*
X128849441Y-74999500D01*
X128849423Y-74999500D01*
X128845136Y-74999501D01*
X128840862Y-74999996D01*
X128840856Y-74999997D01*
X128820007Y-75002414D01*
X128717235Y-75047793D01*
X128637793Y-75127235D01*
X128634063Y-75135684D01*
X128585710Y-75195773D01*
X128513791Y-75223635D01*
X128497759Y-75224500D01*
X127393046Y-75224500D01*
X127318546Y-75204538D01*
X127294242Y-75187029D01*
X127210295Y-75112660D01*
X127070423Y-75039248D01*
X126949726Y-75009500D01*
X126917041Y-75001444D01*
X126759071Y-75001444D01*
X126726386Y-75009500D01*
X126605688Y-75039248D01*
X126465818Y-75112659D01*
X126451492Y-75125351D01*
X126393788Y-75176472D01*
X126347571Y-75217416D01*
X126257834Y-75347422D01*
X126201819Y-75495122D01*
X126182778Y-75651944D01*
X126201819Y-75808765D01*
X126257834Y-75956465D01*
X126318852Y-76044865D01*
X126347573Y-76086474D01*
X126465816Y-76191227D01*
X126465818Y-76191228D01*
X126605688Y-76264639D01*
X126605690Y-76264639D01*
X126605691Y-76264640D01*
X126759071Y-76302444D01*
X126759072Y-76302444D01*
X126917040Y-76302444D01*
X126917041Y-76302444D01*
X127070421Y-76264640D01*
X127210296Y-76191227D01*
X127298629Y-76112971D01*
X127367631Y-76078511D01*
X127397434Y-76075500D01*
X128497759Y-76075500D01*
X128572259Y-76095462D01*
X128626797Y-76150000D01*
X128634063Y-76164316D01*
X128637793Y-76172764D01*
X128655170Y-76190141D01*
X128693734Y-76256936D01*
X128693734Y-76334064D01*
X128655170Y-76400859D01*
X128588375Y-76439423D01*
X128549811Y-76444500D01*
X128052607Y-76444500D01*
X128031518Y-76451352D01*
X128008788Y-76456809D01*
X127986875Y-76460280D01*
X127967110Y-76470351D01*
X127945513Y-76479297D01*
X127924417Y-76486151D01*
X127906473Y-76499188D01*
X127886551Y-76511396D01*
X127866782Y-76521470D01*
X127772419Y-76615828D01*
X127772406Y-76615845D01*
X126190822Y-78197429D01*
X126116470Y-78271780D01*
X126106399Y-78291546D01*
X126094186Y-78311476D01*
X126081149Y-78329420D01*
X126074295Y-78350514D01*
X126065350Y-78372110D01*
X126055280Y-78391873D01*
X126051809Y-78413788D01*
X126046352Y-78436518D01*
X126039500Y-78457606D01*
X126039500Y-78491512D01*
X126039499Y-83587034D01*
X126019537Y-83661534D01*
X125995858Y-83692393D01*
X125484358Y-84203892D01*
X125417563Y-84242456D01*
X125340435Y-84242456D01*
X125273640Y-84203892D01*
X125235076Y-84137097D01*
X125229999Y-84098533D01*
X125229999Y-82253553D01*
X124035359Y-83448193D01*
X123968564Y-83486757D01*
X123891436Y-83486757D01*
X123824641Y-83448193D01*
X122630000Y-82253552D01*
X122630000Y-84240486D01*
X122630497Y-84249071D01*
X122632909Y-84269873D01*
X122661805Y-84335316D01*
X122673635Y-84411532D01*
X122645773Y-84483451D01*
X122585684Y-84531805D01*
X122525500Y-84544500D01*
X121737966Y-84544500D01*
X121663466Y-84524538D01*
X121632607Y-84500859D01*
X121074140Y-83942392D01*
X121035576Y-83875597D01*
X121030499Y-83837033D01*
X121030499Y-82159441D01*
X121030499Y-82155136D01*
X121027585Y-82130009D01*
X121027585Y-82130007D01*
X120982206Y-82027235D01*
X120902766Y-81947795D01*
X120902765Y-81947795D01*
X120902765Y-81947794D01*
X120799991Y-81902415D01*
X120799990Y-81902414D01*
X120799988Y-81902414D01*
X120779175Y-81900000D01*
X122983554Y-81900000D01*
X123929999Y-82846446D01*
X124876445Y-81900000D01*
X122983554Y-81900000D01*
X120779175Y-81900000D01*
X120779132Y-81899995D01*
X120779131Y-81899994D01*
X120774865Y-81899500D01*
X120770569Y-81899500D01*
X119092966Y-81899500D01*
X119018466Y-81879538D01*
X118987607Y-81855859D01*
X118401747Y-81269999D01*
X120623552Y-81269999D01*
X121116445Y-81269999D01*
X120870000Y-81023553D01*
X120623552Y-81269999D01*
X118401747Y-81269999D01*
X118068151Y-80936403D01*
X118068146Y-80936395D01*
X118023220Y-80891471D01*
X118003458Y-80881402D01*
X117983525Y-80869187D01*
X117965582Y-80856151D01*
X117953310Y-80852164D01*
X117944492Y-80849298D01*
X117922890Y-80840351D01*
X117903124Y-80830279D01*
X117881217Y-80826810D01*
X117858482Y-80821352D01*
X117837394Y-80814500D01*
X117837393Y-80814500D01*
X117821395Y-80814500D01*
X117746895Y-80794538D01*
X117692357Y-80740000D01*
X117685090Y-80725683D01*
X117655423Y-80658492D01*
X117643593Y-80582277D01*
X117655423Y-80538126D01*
X117662204Y-80522766D01*
X117662206Y-80522765D01*
X117665321Y-80515709D01*
X117713673Y-80455621D01*
X117785593Y-80427759D01*
X117861808Y-80439589D01*
X117861809Y-80439589D01*
X117867734Y-80442205D01*
X117867735Y-80442206D01*
X117970509Y-80487585D01*
X117995635Y-80490500D01*
X118560364Y-80490499D01*
X118564674Y-80489999D01*
X119087875Y-80489999D01*
X119516122Y-80489999D01*
X119302000Y-80275876D01*
X119087875Y-80489999D01*
X118564674Y-80489999D01*
X118582733Y-80487904D01*
X118585492Y-80487585D01*
X118647145Y-80460362D01*
X118688265Y-80442206D01*
X118767706Y-80362765D01*
X118813085Y-80259991D01*
X118816000Y-80234865D01*
X118815999Y-80151839D01*
X118835960Y-80077343D01*
X118859640Y-80046482D01*
X118966121Y-79939999D01*
X119637876Y-79939999D01*
X119879764Y-80181887D01*
X119918328Y-80248682D01*
X119922412Y-80304418D01*
X119920497Y-80320921D01*
X119920000Y-80329520D01*
X119920000Y-81010486D01*
X119920497Y-81019071D01*
X119922909Y-81039876D01*
X119968212Y-81142477D01*
X120006091Y-81180356D01*
X120516447Y-80670000D01*
X121223553Y-80670000D01*
X121733909Y-81180356D01*
X121771786Y-81142478D01*
X121817090Y-81039873D01*
X121819502Y-81019078D01*
X121819999Y-81010479D01*
X121819999Y-80329513D01*
X121819503Y-80320944D01*
X121819430Y-80320309D01*
X121819456Y-80320128D01*
X121819255Y-80316640D01*
X121819520Y-80319695D01*
X121830667Y-80244004D01*
X121843102Y-80228302D01*
X121812921Y-80223849D01*
X121766721Y-80192456D01*
X121733909Y-80159644D01*
X121223553Y-80670000D01*
X120516447Y-80670000D01*
X120006091Y-80159644D01*
X119988499Y-80159644D01*
X119913999Y-80139682D01*
X119859461Y-80085144D01*
X119855403Y-80070000D01*
X120623554Y-80070000D01*
X120869999Y-80316446D01*
X121116445Y-80070000D01*
X120623554Y-80070000D01*
X119855403Y-80070000D01*
X119839499Y-80010644D01*
X119839499Y-79738376D01*
X119637876Y-79939999D01*
X118966121Y-79939999D01*
X118966122Y-79939998D01*
X118859640Y-79833516D01*
X118821076Y-79766721D01*
X118815999Y-79728157D01*
X118815999Y-79649441D01*
X118815999Y-79645136D01*
X118813085Y-79620009D01*
X118813085Y-79620007D01*
X118767707Y-79517236D01*
X118750480Y-79500009D01*
X118725828Y-79475357D01*
X118687265Y-79408565D01*
X118687265Y-79359242D01*
X119078632Y-79359242D01*
X119081894Y-79384017D01*
X119301999Y-79604123D01*
X119525365Y-79380756D01*
X119522103Y-79355980D01*
X119302000Y-79135876D01*
X119078632Y-79359242D01*
X118687265Y-79359242D01*
X118687265Y-79331437D01*
X118725826Y-79264644D01*
X118767706Y-79222765D01*
X118813085Y-79119991D01*
X118816000Y-79094865D01*
X118815999Y-79011840D01*
X118835960Y-78937343D01*
X118859641Y-78906482D01*
X119071984Y-78694141D01*
X119138779Y-78655577D01*
X119177342Y-78650500D01*
X119426658Y-78650500D01*
X119501158Y-78670462D01*
X119532017Y-78694141D01*
X119878466Y-79040589D01*
X119917030Y-79107384D01*
X119921115Y-79128783D01*
X119922414Y-79139992D01*
X119967793Y-79242764D01*
X119967794Y-79242764D01*
X119967794Y-79242765D01*
X120047235Y-79322206D01*
X120150009Y-79367585D01*
X120175135Y-79370500D01*
X121564864Y-79370499D01*
X121587233Y-79367904D01*
X121589992Y-79367585D01*
X121692765Y-79322206D01*
X121734750Y-79280221D01*
X121995751Y-79280221D01*
X122015910Y-79315136D01*
X122019939Y-79370074D01*
X122020244Y-79366566D01*
X122019996Y-79370845D01*
X122019996Y-79370851D01*
X122019500Y-79375135D01*
X122019500Y-79379430D01*
X122019500Y-79379431D01*
X122019500Y-80060558D01*
X122019500Y-80060575D01*
X122019501Y-80064864D01*
X122019996Y-80069138D01*
X122019998Y-80069161D01*
X122020090Y-80069954D01*
X122020056Y-80070178D01*
X122020245Y-80073432D01*
X122019997Y-80070581D01*
X122008832Y-80146256D01*
X121996421Y-80161918D01*
X122026557Y-80166356D01*
X122072795Y-80197766D01*
X122147235Y-80272206D01*
X122250009Y-80317585D01*
X122275135Y-80320500D01*
X123664864Y-80320499D01*
X123687233Y-80317904D01*
X123689992Y-80317585D01*
X123792765Y-80272206D01*
X123882127Y-80182844D01*
X123948921Y-80144279D01*
X124026049Y-80144279D01*
X124047669Y-80151897D01*
X124150009Y-80197085D01*
X124175135Y-80200000D01*
X124764864Y-80199999D01*
X124787233Y-80197404D01*
X124789992Y-80197085D01*
X124858555Y-80166811D01*
X124892765Y-80151706D01*
X124972206Y-80072265D01*
X125017585Y-79969491D01*
X125020500Y-79944365D01*
X125020499Y-79379636D01*
X125017585Y-79354509D01*
X125017585Y-79354507D01*
X124967228Y-79240460D01*
X124937266Y-79188564D01*
X124937266Y-79111436D01*
X124967223Y-79059547D01*
X124972203Y-79048267D01*
X124972206Y-79048265D01*
X125017585Y-78945491D01*
X125020500Y-78920365D01*
X125020499Y-78355636D01*
X125017585Y-78330509D01*
X124979820Y-78244980D01*
X124967990Y-78168768D01*
X124993499Y-78100159D01*
X125080220Y-77974523D01*
X125130802Y-77841148D01*
X125136236Y-77826821D01*
X125136236Y-77826820D01*
X125136237Y-77826818D01*
X125155278Y-77670000D01*
X125136237Y-77513182D01*
X125136236Y-77513180D01*
X125136236Y-77513178D01*
X125080221Y-77365478D01*
X125035423Y-77300577D01*
X124990483Y-77235470D01*
X124872240Y-77130717D01*
X124872238Y-77130716D01*
X124872237Y-77130715D01*
X124732367Y-77057304D01*
X124616770Y-77028813D01*
X124578985Y-77019500D01*
X124421015Y-77019500D01*
X124383230Y-77028813D01*
X124267632Y-77057304D01*
X124127762Y-77130715D01*
X124009515Y-77235472D01*
X123919778Y-77365478D01*
X123863763Y-77513178D01*
X123844722Y-77669999D01*
X123863763Y-77826821D01*
X123919778Y-77974521D01*
X123972252Y-78050542D01*
X123998144Y-78123194D01*
X123984241Y-78199058D01*
X123974116Y-78213416D01*
X123926111Y-78322137D01*
X123877758Y-78382225D01*
X123805838Y-78410087D01*
X123729622Y-78398256D01*
X123691003Y-78373480D01*
X123682240Y-78365717D01*
X123682239Y-78365716D01*
X123542367Y-78292304D01*
X123432917Y-78265328D01*
X123388985Y-78254500D01*
X123231015Y-78254500D01*
X123192669Y-78263951D01*
X123077632Y-78292304D01*
X122937762Y-78365715D01*
X122904328Y-78395335D01*
X122819907Y-78470125D01*
X122819515Y-78470472D01*
X122729778Y-78600478D01*
X122673763Y-78748178D01*
X122654722Y-78905002D01*
X122660494Y-78952543D01*
X122649656Y-79028905D01*
X122602089Y-79089619D01*
X122530537Y-79118414D01*
X122512581Y-79119500D01*
X122279442Y-79119500D01*
X122279424Y-79119500D01*
X122275136Y-79119501D01*
X122270862Y-79119996D01*
X122270856Y-79119997D01*
X122250007Y-79122414D01*
X122147233Y-79167794D01*
X122073370Y-79241657D01*
X122006575Y-79280221D01*
X121995751Y-79280221D01*
X121734750Y-79280221D01*
X121766628Y-79248343D01*
X121833422Y-79209778D01*
X121844248Y-79209778D01*
X121824089Y-79174861D01*
X121820064Y-79119887D01*
X121819756Y-79123434D01*
X121820003Y-79119141D01*
X121820500Y-79114865D01*
X121820499Y-78425136D01*
X121817585Y-78400009D01*
X121817585Y-78400007D01*
X121772206Y-78297235D01*
X121692766Y-78217795D01*
X121692765Y-78217794D01*
X121589991Y-78172415D01*
X121589990Y-78172414D01*
X121589988Y-78172414D01*
X121569132Y-78169995D01*
X121569131Y-78169994D01*
X121564865Y-78169500D01*
X121560569Y-78169500D01*
X120932966Y-78169500D01*
X120858466Y-78149538D01*
X120827607Y-78125859D01*
X120623151Y-77921403D01*
X120623146Y-77921395D01*
X120578220Y-77876471D01*
X120558458Y-77866402D01*
X120538525Y-77854187D01*
X120520582Y-77841151D01*
X120508310Y-77837164D01*
X120499492Y-77834298D01*
X120477890Y-77825351D01*
X120458124Y-77815279D01*
X120436217Y-77811810D01*
X120413482Y-77806352D01*
X120392394Y-77799500D01*
X120392393Y-77799500D01*
X120358488Y-77799500D01*
X118920393Y-77799500D01*
X118785607Y-77799500D01*
X118785606Y-77799500D01*
X118764510Y-77806354D01*
X118741783Y-77811810D01*
X118733571Y-77813111D01*
X118719869Y-77815281D01*
X118700111Y-77825349D01*
X118678513Y-77834295D01*
X118657420Y-77841148D01*
X118639471Y-77854189D01*
X118619545Y-77866400D01*
X118599780Y-77876471D01*
X118505420Y-77970827D01*
X118505407Y-77970844D01*
X118350251Y-78125999D01*
X118283456Y-78164563D01*
X118206327Y-78164563D01*
X118177246Y-78153399D01*
X118171124Y-78150279D01*
X118149217Y-78146810D01*
X118126482Y-78141352D01*
X118105394Y-78134500D01*
X118105393Y-78134500D01*
X118071488Y-78134500D01*
X117819903Y-78134500D01*
X117745403Y-78114538D01*
X117690865Y-78060000D01*
X117683599Y-78045684D01*
X117662207Y-77997236D01*
X117582766Y-77917795D01*
X117582765Y-77917794D01*
X117479991Y-77872415D01*
X117479990Y-77872414D01*
X117479988Y-77872414D01*
X117459132Y-77869995D01*
X117459131Y-77869994D01*
X117454865Y-77869500D01*
X117450568Y-77869500D01*
X116389441Y-77869500D01*
X116389423Y-77869500D01*
X116385136Y-77869501D01*
X116380862Y-77869996D01*
X116380856Y-77869997D01*
X116360007Y-77872414D01*
X116257235Y-77917793D01*
X116177795Y-77997233D01*
X116132414Y-78100011D01*
X116131890Y-78104530D01*
X116129500Y-78125135D01*
X116129500Y-78129430D01*
X116129500Y-78129431D01*
X116129500Y-78990558D01*
X116129500Y-78990575D01*
X116129501Y-78994864D01*
X116129996Y-78999138D01*
X116129997Y-78999143D01*
X116132414Y-79019992D01*
X116177793Y-79122764D01*
X116209670Y-79154641D01*
X116248234Y-79221436D01*
X116248234Y-79298564D01*
X116209670Y-79365359D01*
X116177795Y-79397233D01*
X116132414Y-79500011D01*
X116130416Y-79517236D01*
X116129500Y-79525135D01*
X116129500Y-79529430D01*
X116129500Y-79529431D01*
X116129500Y-79628034D01*
X116109538Y-79702534D01*
X116055000Y-79757072D01*
X115980500Y-79777034D01*
X115906000Y-79757072D01*
X115875141Y-79733393D01*
X115834835Y-79693087D01*
X115834830Y-79693079D01*
X115789904Y-79648155D01*
X115770142Y-79638086D01*
X115750209Y-79625871D01*
X115732266Y-79612835D01*
X115715485Y-79607383D01*
X115711176Y-79605982D01*
X115689574Y-79597035D01*
X115669808Y-79586963D01*
X115647901Y-79583494D01*
X115625166Y-79578036D01*
X115604078Y-79571184D01*
X115604077Y-79571184D01*
X115570172Y-79571184D01*
X114520709Y-79571184D01*
X114385923Y-79571184D01*
X114364834Y-79578036D01*
X114342104Y-79583493D01*
X114320191Y-79586964D01*
X114300426Y-79597035D01*
X114278829Y-79605981D01*
X114257733Y-79612835D01*
X114239789Y-79625872D01*
X114219868Y-79638079D01*
X114200099Y-79648153D01*
X114176121Y-79672131D01*
X110756921Y-83091329D01*
X110690126Y-83129893D01*
X110615905Y-83130641D01*
X110495067Y-83100858D01*
X110448985Y-83089500D01*
X110291015Y-83089500D01*
X110252669Y-83098951D01*
X110137632Y-83127304D01*
X109997762Y-83200715D01*
X109955170Y-83238448D01*
X109891661Y-83294712D01*
X109879515Y-83305472D01*
X109789778Y-83435478D01*
X109733763Y-83583178D01*
X109714722Y-83739999D01*
X109733763Y-83896821D01*
X109789778Y-84044521D01*
X109846040Y-84126030D01*
X109879517Y-84174530D01*
X109997760Y-84279283D01*
X109997762Y-84279284D01*
X110137632Y-84352695D01*
X110137634Y-84352695D01*
X110137635Y-84352696D01*
X110190033Y-84365610D01*
X110257590Y-84402821D01*
X110297492Y-84468825D01*
X110302289Y-84492321D01*
X110309591Y-84552458D01*
X110298754Y-84628821D01*
X110251188Y-84689535D01*
X110197336Y-84715088D01*
X110137635Y-84729803D01*
X109997762Y-84803215D01*
X109879515Y-84907972D01*
X109789778Y-85037978D01*
X109733763Y-85185678D01*
X109714722Y-85342500D01*
X109733763Y-85499321D01*
X109789778Y-85647021D01*
X109790311Y-85647793D01*
X109879517Y-85777030D01*
X109997760Y-85881783D01*
X109997762Y-85881784D01*
X110137632Y-85955195D01*
X110137634Y-85955195D01*
X110137635Y-85955196D01*
X110280915Y-85990510D01*
X110348472Y-86027721D01*
X110388374Y-86093726D01*
X110393171Y-86117224D01*
X110395191Y-86133863D01*
X110384353Y-86210226D01*
X110336785Y-86270939D01*
X110282935Y-86296490D01*
X110137635Y-86332303D01*
X109997762Y-86405715D01*
X109968197Y-86431907D01*
X109883947Y-86506546D01*
X109879515Y-86510472D01*
X109789778Y-86640478D01*
X109733763Y-86788178D01*
X109714722Y-86945000D01*
X109733763Y-87101821D01*
X109789778Y-87249521D01*
X109870318Y-87366202D01*
X109879517Y-87379530D01*
X109997760Y-87484283D01*
X109997762Y-87484284D01*
X110137632Y-87557695D01*
X110137634Y-87557695D01*
X110137635Y-87557696D01*
X110291015Y-87595500D01*
X110291016Y-87595500D01*
X110308580Y-87599829D01*
X110307661Y-87603554D01*
X110352103Y-87615462D01*
X110406641Y-87670000D01*
X110425515Y-87726534D01*
X110425941Y-87730043D01*
X110415105Y-87806402D01*
X110367539Y-87867116D01*
X110308170Y-87891010D01*
X110308580Y-87892671D01*
X110296884Y-87895553D01*
X110295989Y-87895914D01*
X110295238Y-87895959D01*
X110137632Y-87934804D01*
X109997762Y-88008215D01*
X109964305Y-88037855D01*
X109883264Y-88109651D01*
X109879515Y-88112972D01*
X109789778Y-88242978D01*
X109733763Y-88390678D01*
X109714722Y-88547499D01*
X109733763Y-88704321D01*
X109789778Y-88852021D01*
X109863312Y-88958553D01*
X109879517Y-88982030D01*
X109997760Y-89086783D01*
X109997762Y-89086784D01*
X110137632Y-89160195D01*
X110137634Y-89160195D01*
X110137635Y-89160196D01*
X110291015Y-89198000D01*
X110291016Y-89198000D01*
X110308580Y-89202329D01*
X110307643Y-89206130D01*
X110351799Y-89217962D01*
X110406337Y-89272500D01*
X110425212Y-89329036D01*
X110425637Y-89332541D01*
X110414801Y-89408902D01*
X110367235Y-89469616D01*
X110308143Y-89493399D01*
X110308580Y-89495171D01*
X110296099Y-89498246D01*
X110295685Y-89498414D01*
X110295336Y-89498435D01*
X110137632Y-89537304D01*
X109997762Y-89610715D01*
X109950504Y-89652582D01*
X109903188Y-89694500D01*
X109879515Y-89715472D01*
X109789778Y-89845478D01*
X109733763Y-89993178D01*
X109714722Y-90150000D01*
X109733763Y-90306821D01*
X109789778Y-90454521D01*
X109841683Y-90529718D01*
X109879517Y-90584530D01*
X109997760Y-90689283D01*
X109997762Y-90689284D01*
X110137632Y-90762695D01*
X110137634Y-90762695D01*
X110137635Y-90762696D01*
X110291015Y-90800500D01*
X110291016Y-90800500D01*
X110308580Y-90804829D01*
X110307624Y-90808706D01*
X110351496Y-90820462D01*
X110406034Y-90875000D01*
X110424908Y-90931533D01*
X110425334Y-90935043D01*
X110414498Y-91011402D01*
X110366932Y-91072116D01*
X110308116Y-91095788D01*
X110308580Y-91097671D01*
X110291016Y-91102000D01*
X110291015Y-91102000D01*
X110290427Y-91102145D01*
X110137632Y-91139804D01*
X109997762Y-91213215D01*
X109997759Y-91213217D01*
X109997760Y-91213217D01*
X109895710Y-91303625D01*
X109879515Y-91317972D01*
X109789778Y-91447978D01*
X109733763Y-91595678D01*
X109714722Y-91752500D01*
X109733763Y-91909321D01*
X109789778Y-92057021D01*
X109857063Y-92154500D01*
X109879517Y-92187030D01*
X109997760Y-92291783D01*
X109997762Y-92291784D01*
X110137632Y-92365195D01*
X110137634Y-92365195D01*
X110137635Y-92365196D01*
X110291015Y-92403000D01*
X110291016Y-92403000D01*
X110308580Y-92407329D01*
X110307605Y-92411283D01*
X110351192Y-92422962D01*
X110405730Y-92477500D01*
X110424606Y-92534039D01*
X110424722Y-92534997D01*
X110424722Y-92535000D01*
X110425030Y-92537541D01*
X110414194Y-92613902D01*
X110366628Y-92674616D01*
X110308088Y-92698177D01*
X110308580Y-92700171D01*
X110291016Y-92704500D01*
X110291015Y-92704500D01*
X110259833Y-92712185D01*
X110137632Y-92742304D01*
X109997762Y-92815715D01*
X109879515Y-92920472D01*
X109789778Y-93050478D01*
X109733763Y-93198178D01*
X109715285Y-93350362D01*
X109714722Y-93355000D01*
X109716543Y-93369999D01*
X109733763Y-93511821D01*
X109789778Y-93659521D01*
X109870318Y-93776202D01*
X109879517Y-93789530D01*
X109997760Y-93894283D01*
X109997762Y-93894284D01*
X110137632Y-93967695D01*
X110137634Y-93967695D01*
X110137635Y-93967696D01*
X110291015Y-94005500D01*
X110291016Y-94005500D01*
X110308580Y-94009829D01*
X110307586Y-94013859D01*
X110350889Y-94025462D01*
X110405427Y-94080000D01*
X110424303Y-94136539D01*
X110424722Y-94139994D01*
X110424722Y-94140000D01*
X110424727Y-94140043D01*
X110413891Y-94216402D01*
X110366325Y-94277116D01*
X110308061Y-94300566D01*
X110308580Y-94302671D01*
X110291016Y-94307000D01*
X110291015Y-94307000D01*
X110279651Y-94309801D01*
X110137632Y-94344804D01*
X109997762Y-94418215D01*
X109977259Y-94436379D01*
X109885262Y-94517881D01*
X109879515Y-94522972D01*
X109789778Y-94652978D01*
X109733763Y-94800678D01*
X109714722Y-94957500D01*
X109733763Y-95114321D01*
X109789778Y-95262021D01*
X109851909Y-95352033D01*
X109879517Y-95392030D01*
X109997760Y-95496783D01*
X109997762Y-95496784D01*
X110137632Y-95570195D01*
X110137634Y-95570195D01*
X110137635Y-95570196D01*
X110291015Y-95608000D01*
X110291016Y-95608000D01*
X110308580Y-95612329D01*
X110307680Y-95615978D01*
X110352406Y-95627962D01*
X110406944Y-95682500D01*
X110425819Y-95739036D01*
X110426244Y-95742540D01*
X110415408Y-95818902D01*
X110367842Y-95879616D01*
X110308198Y-95903621D01*
X110308580Y-95905171D01*
X110297665Y-95907861D01*
X110296292Y-95908414D01*
X110295139Y-95908483D01*
X110137632Y-95947304D01*
X109997762Y-96020715D01*
X109954428Y-96059105D01*
X109918746Y-96090717D01*
X109879515Y-96125472D01*
X109789778Y-96255478D01*
X109733763Y-96403178D01*
X109714722Y-96560000D01*
X106481720Y-96560000D01*
X106486813Y-76189663D01*
X109410728Y-76189663D01*
X109440770Y-76385773D01*
X109509674Y-76571819D01*
X109509675Y-76571820D01*
X109611090Y-76734526D01*
X109614621Y-76740190D01*
X109751307Y-76883985D01*
X109914145Y-76997324D01*
X109965822Y-77019500D01*
X110096465Y-77075563D01*
X110290801Y-77115500D01*
X110435686Y-77115500D01*
X110439473Y-77115500D01*
X110587379Y-77100459D01*
X110776678Y-77041067D01*
X110950146Y-76944784D01*
X111100682Y-76815553D01*
X111222122Y-76658666D01*
X111309495Y-76480544D01*
X111359224Y-76288480D01*
X111369272Y-76090337D01*
X111339230Y-75894227D01*
X111270325Y-75708180D01*
X111165380Y-75539811D01*
X111153080Y-75526872D01*
X111028692Y-75396014D01*
X110865854Y-75282675D01*
X110683533Y-75204436D01*
X110489199Y-75164500D01*
X110340527Y-75164500D01*
X110336770Y-75164882D01*
X110336771Y-75164882D01*
X110192619Y-75179541D01*
X110003318Y-75238934D01*
X109829854Y-75335215D01*
X109679320Y-75464443D01*
X109557877Y-75621335D01*
X109470505Y-75799455D01*
X109420776Y-75991520D01*
X109410728Y-76189663D01*
X106486813Y-76189663D01*
X106487778Y-72330558D01*
X107239500Y-72330558D01*
X107239501Y-72330568D01*
X107239501Y-72334864D01*
X107239996Y-72339132D01*
X107239997Y-72339143D01*
X107242414Y-72359992D01*
X107287793Y-72462764D01*
X107287794Y-72462764D01*
X107287794Y-72462765D01*
X107367235Y-72542206D01*
X107470009Y-72587585D01*
X107495135Y-72590500D01*
X108215903Y-72590499D01*
X108290403Y-72610461D01*
X108344941Y-72664999D01*
X108364903Y-72739499D01*
X108364419Y-72747500D01*
X108364722Y-72749997D01*
X108364722Y-72750000D01*
X108376077Y-72843518D01*
X108383763Y-72906821D01*
X108439778Y-73054521D01*
X108446681Y-73064521D01*
X108529517Y-73184530D01*
X108647760Y-73289283D01*
X108647762Y-73289284D01*
X108787632Y-73362695D01*
X108787634Y-73362695D01*
X108787635Y-73362696D01*
X108941015Y-73400500D01*
X108941016Y-73400500D01*
X109098984Y-73400500D01*
X109098985Y-73400500D01*
X109252365Y-73362696D01*
X109392240Y-73289283D01*
X109510483Y-73184530D01*
X109600220Y-73054523D01*
X109652444Y-72916821D01*
X109656236Y-72906821D01*
X109656236Y-72906820D01*
X109656237Y-72906818D01*
X109675278Y-72750000D01*
X109675277Y-72749997D01*
X109677458Y-72732041D01*
X109679750Y-72732319D01*
X109687020Y-72681095D01*
X109734587Y-72620382D01*
X109806138Y-72591585D01*
X109824097Y-72590499D01*
X110780558Y-72590499D01*
X110784864Y-72590499D01*
X110789174Y-72589999D01*
X115643554Y-72589999D01*
X118736445Y-72589999D01*
X118477004Y-72330558D01*
X123339500Y-72330558D01*
X123339501Y-72330568D01*
X123339501Y-72334864D01*
X123339996Y-72339132D01*
X123339997Y-72339143D01*
X123342414Y-72359992D01*
X123387793Y-72462764D01*
X123387794Y-72462764D01*
X123387794Y-72462765D01*
X123467235Y-72542206D01*
X123570009Y-72587585D01*
X123595135Y-72590500D01*
X124447117Y-72590499D01*
X124521617Y-72610461D01*
X124576155Y-72664999D01*
X124596117Y-72739499D01*
X124595031Y-72757457D01*
X124594722Y-72759998D01*
X124613763Y-72916821D01*
X124669778Y-73064521D01*
X124750317Y-73181202D01*
X124759517Y-73194530D01*
X124877760Y-73299283D01*
X124877762Y-73299284D01*
X125017632Y-73372695D01*
X125017634Y-73372695D01*
X125017635Y-73372696D01*
X125171015Y-73410500D01*
X125171016Y-73410500D01*
X125328984Y-73410500D01*
X125328985Y-73410500D01*
X125482365Y-73372696D01*
X125622240Y-73299283D01*
X125740483Y-73194530D01*
X125830220Y-73064523D01*
X125834013Y-73054523D01*
X125886236Y-72916821D01*
X125886236Y-72916820D01*
X125886237Y-72916818D01*
X125905278Y-72760000D01*
X125904969Y-72757456D01*
X125915807Y-72681094D01*
X125963374Y-72620381D01*
X126014018Y-72599999D01*
X129093555Y-72599999D01*
X129686444Y-72599999D01*
X135093555Y-72599999D01*
X135686444Y-72599999D01*
X135389999Y-72303553D01*
X135093555Y-72599999D01*
X129686444Y-72599999D01*
X129389999Y-72303553D01*
X129093555Y-72599999D01*
X126014018Y-72599999D01*
X126034925Y-72591585D01*
X126052883Y-72590499D01*
X126880558Y-72590499D01*
X126884864Y-72590499D01*
X126907233Y-72587904D01*
X126909992Y-72587585D01*
X126961378Y-72564895D01*
X127012765Y-72542206D01*
X127092206Y-72462765D01*
X127137585Y-72359991D01*
X127139848Y-72340486D01*
X128590000Y-72340486D01*
X128590497Y-72349068D01*
X128592909Y-72369873D01*
X128600156Y-72386287D01*
X129036446Y-71950000D01*
X129743553Y-71950000D01*
X130179842Y-72386289D01*
X130187090Y-72369874D01*
X130189502Y-72349079D01*
X130189999Y-72340486D01*
X134590000Y-72340486D01*
X134590497Y-72349068D01*
X134592909Y-72369873D01*
X134600157Y-72386288D01*
X135036446Y-71950000D01*
X135743553Y-71950000D01*
X136179842Y-72386289D01*
X136187090Y-72369874D01*
X136189502Y-72349079D01*
X136189999Y-72340479D01*
X136189999Y-71559513D01*
X136189502Y-71550928D01*
X136187090Y-71530125D01*
X136179842Y-71513710D01*
X135743553Y-71949999D01*
X135743553Y-71950000D01*
X135036446Y-71950000D01*
X135036447Y-71949999D01*
X134600156Y-71513709D01*
X134592909Y-71530125D01*
X134590497Y-71550916D01*
X134590000Y-71559520D01*
X134590000Y-72340486D01*
X130189999Y-72340486D01*
X130189999Y-72340479D01*
X130189999Y-71559513D01*
X130189502Y-71550928D01*
X130187090Y-71530125D01*
X130179842Y-71513710D01*
X129743553Y-71949999D01*
X129743553Y-71950000D01*
X129036446Y-71950000D01*
X129036447Y-71949999D01*
X128600156Y-71513709D01*
X128592909Y-71530125D01*
X128590497Y-71550916D01*
X128590000Y-71559520D01*
X128590000Y-72340486D01*
X127139848Y-72340486D01*
X127140500Y-72334865D01*
X127140500Y-71300000D01*
X129093555Y-71300000D01*
X129389999Y-71596445D01*
X129686444Y-71300000D01*
X135093555Y-71300000D01*
X135389999Y-71596445D01*
X135686444Y-71300000D01*
X135093555Y-71300000D01*
X129686444Y-71300000D01*
X129093555Y-71300000D01*
X127140500Y-71300000D01*
X127140499Y-69902640D01*
X141340911Y-69902640D01*
X141342910Y-69919875D01*
X141388213Y-70022478D01*
X141467521Y-70101786D01*
X141570126Y-70147090D01*
X141590921Y-70149502D01*
X141599520Y-70149999D01*
X142980486Y-70149999D01*
X142989071Y-70149502D01*
X143009876Y-70147090D01*
X143112477Y-70101787D01*
X143191786Y-70022478D01*
X143237089Y-69919875D01*
X143239088Y-69902642D01*
X143239086Y-69902640D01*
X155900911Y-69902640D01*
X155902910Y-69919875D01*
X155948213Y-70022478D01*
X156027521Y-70101786D01*
X156130126Y-70147090D01*
X156150921Y-70149502D01*
X156159520Y-70149999D01*
X157540486Y-70149999D01*
X157549071Y-70149502D01*
X157569876Y-70147090D01*
X157672477Y-70101787D01*
X157751786Y-70022478D01*
X157797089Y-69919875D01*
X157799088Y-69902642D01*
X156850000Y-68953553D01*
X155900911Y-69902640D01*
X143239086Y-69902640D01*
X142290000Y-68953553D01*
X141340911Y-69902640D01*
X127140499Y-69902640D01*
X127140499Y-69045136D01*
X127137585Y-69020009D01*
X127137585Y-69020007D01*
X127092206Y-68917235D01*
X127012766Y-68837795D01*
X127012765Y-68837794D01*
X126909991Y-68792415D01*
X126909990Y-68792414D01*
X126909988Y-68792414D01*
X126889132Y-68789995D01*
X126889131Y-68789994D01*
X126884865Y-68789500D01*
X126880568Y-68789500D01*
X123599441Y-68789500D01*
X123599423Y-68789500D01*
X123595136Y-68789501D01*
X123590862Y-68789996D01*
X123590856Y-68789997D01*
X123570007Y-68792414D01*
X123467235Y-68837793D01*
X123387795Y-68917233D01*
X123342414Y-69020011D01*
X123339996Y-69040856D01*
X123339500Y-69045135D01*
X123339500Y-69049430D01*
X123339500Y-69049431D01*
X123339500Y-72330558D01*
X118477004Y-72330558D01*
X117190000Y-71043553D01*
X115643554Y-72589999D01*
X110789174Y-72589999D01*
X110807233Y-72587904D01*
X110809992Y-72587585D01*
X110861378Y-72564895D01*
X110912765Y-72542206D01*
X110992206Y-72462765D01*
X111037585Y-72359991D01*
X111040500Y-72334865D01*
X111040499Y-69143553D01*
X115290000Y-69143553D01*
X115290000Y-72236445D01*
X116836446Y-70689999D01*
X117543552Y-70689999D01*
X119089999Y-72236445D01*
X119089999Y-69143553D01*
X117543552Y-70689999D01*
X116836446Y-70689999D01*
X115290000Y-69143553D01*
X111040499Y-69143553D01*
X111040499Y-69045136D01*
X111037585Y-69020009D01*
X111037585Y-69020007D01*
X110992206Y-68917235D01*
X110912766Y-68837795D01*
X110912765Y-68837794D01*
X110809991Y-68792415D01*
X110809990Y-68792414D01*
X110809988Y-68792414D01*
X110789175Y-68790000D01*
X115643554Y-68790000D01*
X117189999Y-70336446D01*
X118736445Y-68790000D01*
X115643554Y-68790000D01*
X110789175Y-68790000D01*
X110789132Y-68789995D01*
X110789131Y-68789994D01*
X110784865Y-68789500D01*
X110780568Y-68789500D01*
X107499441Y-68789500D01*
X107499423Y-68789500D01*
X107495136Y-68789501D01*
X107490862Y-68789996D01*
X107490856Y-68789997D01*
X107470007Y-68792414D01*
X107367235Y-68837793D01*
X107287795Y-68917233D01*
X107242414Y-69020011D01*
X107239996Y-69040856D01*
X107239500Y-69045135D01*
X107239500Y-69049430D01*
X107239500Y-69049431D01*
X107239500Y-72330558D01*
X106487778Y-72330558D01*
X106488860Y-68003553D01*
X141340000Y-68003553D01*
X141340000Y-69196445D01*
X141936446Y-68599999D01*
X142643553Y-68599999D01*
X143239999Y-69196445D01*
X143239999Y-68003553D01*
X155900000Y-68003553D01*
X155900000Y-69196445D01*
X156496446Y-68599999D01*
X157203553Y-68599999D01*
X157799999Y-69196445D01*
X157799999Y-68990986D01*
X160135000Y-68990986D01*
X160135497Y-68999571D01*
X160137909Y-69020376D01*
X160183212Y-69122977D01*
X160262521Y-69202286D01*
X160365126Y-69247590D01*
X160385921Y-69250002D01*
X160394520Y-69250499D01*
X161745486Y-69250499D01*
X161754071Y-69250002D01*
X161774876Y-69247590D01*
X161877477Y-69202287D01*
X161956786Y-69122978D01*
X162002090Y-69020373D01*
X162004502Y-68999578D01*
X162004999Y-68990979D01*
X162004999Y-68614052D01*
X161070000Y-67679053D01*
X160135000Y-68614051D01*
X160135000Y-68990986D01*
X157799999Y-68990986D01*
X157799999Y-68003553D01*
X157203553Y-68599999D01*
X156496446Y-68599999D01*
X155900000Y-68003553D01*
X143239999Y-68003553D01*
X142643553Y-68599999D01*
X141936446Y-68599999D01*
X141340000Y-68003553D01*
X106488860Y-68003553D01*
X106489036Y-67297357D01*
X141340910Y-67297357D01*
X142289999Y-68246446D01*
X143239087Y-67297358D01*
X143239087Y-67297357D01*
X155900910Y-67297357D01*
X156849999Y-68246446D01*
X157799087Y-67297358D01*
X157797089Y-67280126D01*
X157751785Y-67177520D01*
X157672478Y-67098213D01*
X157569873Y-67052909D01*
X157549078Y-67050497D01*
X157540479Y-67050000D01*
X156159513Y-67050000D01*
X156150928Y-67050497D01*
X156130123Y-67052909D01*
X156027522Y-67098212D01*
X155948214Y-67177520D01*
X155902910Y-67280125D01*
X155900910Y-67297357D01*
X143239087Y-67297357D01*
X143237089Y-67280126D01*
X143191785Y-67177520D01*
X143112478Y-67098213D01*
X143009873Y-67052909D01*
X142989078Y-67050497D01*
X142980479Y-67050000D01*
X141599513Y-67050000D01*
X141590928Y-67050497D01*
X141570123Y-67052909D01*
X141467522Y-67098212D01*
X141388214Y-67177520D01*
X141342910Y-67280125D01*
X141340910Y-67297357D01*
X106489036Y-67297357D01*
X106489174Y-66744053D01*
X160135000Y-66744053D01*
X160135000Y-67906945D01*
X160716446Y-67325499D01*
X161423553Y-67325499D01*
X162004999Y-67906944D01*
X162004999Y-66744053D01*
X161423553Y-67325499D01*
X160716446Y-67325499D01*
X160135000Y-66744053D01*
X106489174Y-66744053D01*
X106489351Y-66036947D01*
X160135000Y-66036947D01*
X161069999Y-66971946D01*
X162004999Y-66036946D01*
X162004999Y-65660013D01*
X162004502Y-65651428D01*
X162002090Y-65630623D01*
X161956787Y-65528022D01*
X161877478Y-65448713D01*
X161774873Y-65403409D01*
X161754078Y-65400997D01*
X161745479Y-65400500D01*
X160394513Y-65400500D01*
X160385928Y-65400997D01*
X160365123Y-65403409D01*
X160262522Y-65448712D01*
X160183213Y-65528021D01*
X160137909Y-65630626D01*
X160135497Y-65651421D01*
X160135000Y-65660020D01*
X160135000Y-66036947D01*
X106489351Y-66036947D01*
X106489963Y-63589463D01*
X106509944Y-63514968D01*
X106564495Y-63460444D01*
X106638963Y-63440500D01*
X168321000Y-63440500D01*
X168395500Y-63460462D01*
G37*
%TD.AperFunction*%
%TD*%
M02*
