M48
; DRILL file {KiCad 7.0.2} date Mon May 22 10:31:19 2023
; FORMAT={-:-/ absolute / inch / decimal}
; #@! TF.CreationDate,2023-05-22T10:31:19+03:00
; #@! TF.GenerationSoftware,Kicad,Pcbnew,7.0.2
; #@! TF.FileFunction,Plated,1,2,PTH
FMAT,2
INCH
; #@! TA.AperFunction,Plated,PTH,ViaDrill
T1C0.0157
; #@! TA.AperFunction,Plated,PTH,ComponentDrill
T2C0.0413
; #@! TA.AperFunction,Plated,PTH,ComponentDrill
T3C0.0531
; #@! TA.AperFunction,Plated,PTH,ViaDrill
T4C0.1181
%
G90
G05
T1
X4.2921Y-2.8642
X4.3453Y-3.2969
X4.3453Y-3.3599
X4.3453Y-3.423
X4.3453Y-3.4861
X4.3453Y-3.5492
X4.3453Y-3.6123
X4.3453Y-3.6754
X4.3453Y-3.7385
X4.3453Y-3.8016
X4.3681Y-3.324
X4.372Y-3.3909
X4.3732Y-3.4535
X4.3732Y-3.5167
X4.3732Y-3.5799
X4.3732Y-3.6431
X4.3732Y-3.7063
X4.3732Y-3.7689
X4.3732Y-3.8315
X4.3854Y-3.1083
X4.422Y-3.8638
X4.5146Y-2.685
X4.537Y-3.1761
X4.537Y-3.2136
X4.537Y-3.2486
X4.537Y-3.2855
X4.5717Y-3.312
X4.6071Y-3.3766
X4.609Y-3.3386
X4.6555Y-2.9024
X4.7106Y-2.6866
X4.7503Y-3.7261
X4.8148Y-3.5892
X4.8172Y-3.8309
X4.8547Y-3.1065
X4.8634Y-3.8019
X4.8664Y-3.6425
X4.8673Y-3.6956
X4.8899Y-3.8254
X4.9016Y-3.0579
X4.9075Y-3.6909
X4.9245Y-3.833
X4.9311Y-2.8646
X4.9441Y-3.1492
X4.965Y-3.7482
X4.9936Y-2.9784
X5.0114Y-3.1472
X5.0165Y-4.0057
X5.0332Y-3.3637
X5.1094Y-3.6339
X5.128Y-3.4193
X5.135Y-3.5937
X5.1409Y-2.9787
X5.1508Y-3.4843
X5.153Y-3.4443
X5.1662Y-3.5937
X5.1707Y-3.7602
X5.1973Y-3.5937
X5.2021Y-3.2175
X5.2067Y-3.7602
X5.2285Y-3.5937
X5.2427Y-3.7602
X5.2604Y-3.4725
X5.2638Y-3.5189
X5.2782Y-3.8153
X5.2782Y-3.8507
X5.2782Y-3.8862
X5.2787Y-3.7602
X5.2969Y-3.484
X5.2997Y-3.9143
X5.317Y-4.0225
X5.3181Y-3.7598
X5.3308Y-3.4294
X5.3312Y-3.4648
X5.3344Y-3.8798
X5.3351Y-3.9152
X5.337Y-3.6421
X5.3524Y-4.0233
X5.3536Y-3.7599
X5.364Y-3.417
X5.3829Y-3.8187
X5.423Y-3.8402
X5.4307Y-3.4366
X5.4394Y-3.5008
X5.4441Y-3.739
X5.4539Y-3.7998
X5.4587Y-3.8625
X5.4794Y-3.5023
X5.4814Y-3.5448
X5.4891Y-3.4152
X5.523Y-3.8445
X5.5507Y-3.8671
X5.5549Y-3.651
X5.5745Y-3.7343
X5.5902Y-3.4299
X5.5961Y-3.651
X5.5981Y-3.6968
X5.665Y-2.7646
X5.6764Y-3.1972
X5.7299Y-3.8472
X5.8122Y-3.6791
X5.8132Y-3.8467
X5.8136Y-3.7936
X5.8138Y-3.7375
X5.8315Y-3.289
X5.8474Y-3.6916
X5.8484Y-3.8043
X5.8504Y-3.6384
X5.851Y-3.7506
X5.8724Y-3.2913
X5.8898Y-3.0984
X5.9138Y-3.2933
X5.9673Y-3.0976
X5.9728Y-3.2524
X6.0087Y-4.015
X6.0194Y-3.1517
X6.0635Y-3.1505
X6.1083Y-3.1531
X6.1146Y-2.761
X6.187Y-3.098
X6.2614Y-3.7217
X6.263Y-4.0102
X6.3748Y-2.8799
X6.376Y-3.0827
X6.4197Y-3.0831
X6.4228Y-2.5965
X6.4417Y-3.8622
X6.4608Y-3.1724
X6.4608Y-3.2348
X6.4608Y-3.2972
X6.4608Y-3.3596
X6.4608Y-3.4219
X6.4608Y-3.4843
X6.4608Y-3.5467
X6.4608Y-3.6091
X6.4614Y-3.0909
X6.4803Y-3.2024
X6.4803Y-3.2653
X6.4803Y-3.3282
X6.4803Y-3.3911
X6.4803Y-3.4541
X6.4803Y-3.517
X6.4803Y-3.5799
T2
X4.3461Y-3.974
X6.4047Y-3.974
T3
X4.3461Y-2.9976
X6.4047Y-2.9976
T4
X5.4126Y-2.5961
T0
M30
