%TF.GenerationSoftware,KiCad,Pcbnew,7.0.5*%
%TF.CreationDate,2023-06-07T18:50:11+03:00*%
%TF.ProjectId,DIRECT_I2C__1,44495245-4354-45f4-9932-435fb1312e6b,rev?*%
%TF.SameCoordinates,Original*%
%TF.FileFunction,Copper,L2,Bot*%
%TF.FilePolarity,Positive*%
%FSLAX46Y46*%
G04 Gerber Fmt 4.6, Leading zero omitted, Abs format (unit mm)*
G04 Created by KiCad (PCBNEW 7.0.5) date 2023-06-07 18:50:11*
%MOMM*%
%LPD*%
G01*
G04 APERTURE LIST*
%TA.AperFunction,SMDPad,CuDef*%
%ADD10R,2.000000X0.500000*%
%TD*%
%TA.AperFunction,ComponentPad*%
%ADD11C,0.675000*%
%TD*%
%TA.AperFunction,ComponentPad*%
%ADD12C,0.525000*%
%TD*%
%TA.AperFunction,ViaPad*%
%ADD13C,1.000000*%
%TD*%
%TA.AperFunction,ViaPad*%
%ADD14C,0.700000*%
%TD*%
%TA.AperFunction,Conductor*%
%ADD15C,0.500000*%
%TD*%
%TA.AperFunction,Conductor*%
%ADD16C,0.250000*%
%TD*%
G04 APERTURE END LIST*
D10*
%TO.P,H1,1*%
%TO.N,GND*%
X117540000Y-92380000D03*
%TO.P,H1,2*%
%TO.N,unconnected-(H1-Pad2)*%
X117540000Y-91580000D03*
%TO.P,H1,3*%
%TO.N,unconnected-(H1-Pad3)*%
X117540000Y-90780000D03*
%TO.P,H1,4*%
%TO.N,/I2C_SDA_OUT*%
X117540000Y-89980000D03*
%TO.P,H1,5*%
%TO.N,/I2C_SCL_OUT*%
X117540000Y-89180000D03*
%TO.P,H1,6*%
%TO.N,unconnected-(H1-Pad6)*%
X117540000Y-88380000D03*
%TO.P,H1,7*%
%TO.N,unconnected-(H1-Pad7)*%
X117540000Y-87580000D03*
%TO.P,H1,8*%
%TO.N,/I2C_SCL*%
X117540000Y-86780000D03*
%TO.P,H1,9*%
%TO.N,/I2C_SDA*%
X117540000Y-85980000D03*
%TO.P,H1,10*%
%TO.N,/VCC3*%
X117540000Y-85180000D03*
%TO.P,H1,11*%
%TO.N,unconnected-(H1-Pad11)*%
X122240000Y-85180000D03*
%TO.P,H1,12*%
%TO.N,unconnected-(H1-Pad12)*%
X122240000Y-85980000D03*
%TO.P,H1,13*%
%TO.N,unconnected-(H1-Pad13)*%
X122240000Y-86780000D03*
%TO.P,H1,14*%
%TO.N,unconnected-(H1-Pad14)*%
X122240000Y-87580000D03*
%TO.P,H1,15*%
%TO.N,unconnected-(H1-Pad15)*%
X122240000Y-88380000D03*
%TO.P,H1,16*%
%TO.N,unconnected-(H1-Pad16)*%
X122240000Y-89180000D03*
%TO.P,H1,17*%
%TO.N,unconnected-(H1-Pad17)*%
X122240000Y-89980000D03*
%TO.P,H1,18*%
%TO.N,unconnected-(H1-Pad18)*%
X122240000Y-90780000D03*
%TO.P,H1,19*%
%TO.N,unconnected-(H1-Pad19)*%
X122240000Y-91580000D03*
%TO.P,H1,20*%
%TO.N,GND*%
X122240000Y-92380000D03*
D11*
%TO.P,H1,MH1*%
%TO.N,N/C*%
X120840000Y-95180000D03*
D12*
%TO.P,H1,MH2*%
X120840000Y-82380000D03*
%TD*%
D13*
%TO.N,/VCC3*%
X119370000Y-87920000D03*
D14*
X117735000Y-83695000D03*
D13*
%TO.N,GND*%
X123830000Y-92380000D03*
D14*
%TO.N,/I2C_SDA*%
X119319199Y-85979500D03*
%TO.N,/I2C_SCL*%
X118910000Y-86780000D03*
%TO.N,/I2C_SCL_OUT*%
X118934698Y-89145953D03*
%TO.N,/I2C_SDA_OUT*%
X118911744Y-90045162D03*
%TD*%
D15*
%TO.N,/VCC3*%
X119410000Y-87920000D02*
X120210000Y-87120000D01*
X120210000Y-87120000D02*
X120210000Y-85560000D01*
X119370000Y-87920000D02*
X119410000Y-87920000D01*
X119830000Y-85180000D02*
X117540000Y-85180000D01*
D16*
X117735000Y-85180000D02*
X119000000Y-85180000D01*
D15*
X120210000Y-85560000D02*
X119830000Y-85180000D01*
X119370000Y-87960000D02*
X119360000Y-87970000D01*
X119360000Y-87970000D02*
X119350000Y-87970000D01*
D16*
X117735000Y-83695000D02*
X117735000Y-85180000D01*
D15*
X119370000Y-87920000D02*
X119370000Y-87960000D01*
%TO.N,GND*%
X117540000Y-92380000D02*
X123830000Y-92380000D01*
D16*
%TO.N,/I2C_SDA*%
X119319199Y-85979500D02*
X119318699Y-85980000D01*
X119318699Y-85980000D02*
X117540000Y-85980000D01*
%TO.N,/I2C_SCL*%
X118910000Y-86780000D02*
X117540000Y-86780000D01*
%TO.N,/I2C_SCL_OUT*%
X117574047Y-89145953D02*
X117540000Y-89180000D01*
X118934698Y-89145953D02*
X117574047Y-89145953D01*
%TO.N,/I2C_SDA_OUT*%
X118911744Y-90045162D02*
X117605162Y-90045162D01*
X117605162Y-90045162D02*
X117540000Y-89980000D01*
%TD*%
%TA.AperFunction,Conductor*%
%TO.N,GND*%
G36*
X124882539Y-78800185D02*
G01*
X124928294Y-78852989D01*
X124939500Y-78904500D01*
X124939500Y-79779531D01*
X124930061Y-98646123D01*
X124910343Y-98713153D01*
X124857516Y-98758881D01*
X124806123Y-98770061D01*
X105939469Y-98779500D01*
X105064500Y-98779500D01*
X104997461Y-98759815D01*
X104951706Y-98707011D01*
X104940500Y-98655500D01*
X104940500Y-97780031D01*
X104941775Y-95229663D01*
X119860728Y-95229663D01*
X119890768Y-95425764D01*
X119890771Y-95425777D01*
X119959673Y-95611815D01*
X119959677Y-95611824D01*
X120064616Y-95780184D01*
X120064621Y-95780191D01*
X120201306Y-95923983D01*
X120201309Y-95923986D01*
X120364146Y-96037324D01*
X120546465Y-96115563D01*
X120740801Y-96155500D01*
X120889474Y-96155500D01*
X121037380Y-96140459D01*
X121109478Y-96117838D01*
X121226678Y-96081067D01*
X121400146Y-95984784D01*
X121550682Y-95855553D01*
X121672122Y-95698666D01*
X121759495Y-95520544D01*
X121809224Y-95328480D01*
X121819272Y-95130337D01*
X121789230Y-94934227D01*
X121720325Y-94748180D01*
X121720322Y-94748175D01*
X121615383Y-94579815D01*
X121615378Y-94579808D01*
X121478693Y-94436016D01*
X121478692Y-94436015D01*
X121315853Y-94322675D01*
X121133535Y-94244437D01*
X120939199Y-94204500D01*
X120790527Y-94204500D01*
X120790526Y-94204500D01*
X120642619Y-94219540D01*
X120453329Y-94278930D01*
X120453320Y-94278934D01*
X120279852Y-94375217D01*
X120279851Y-94375217D01*
X120129319Y-94504445D01*
X120129317Y-94504446D01*
X120007879Y-94661331D01*
X120007877Y-94661335D01*
X119920503Y-94839459D01*
X119870777Y-95031511D01*
X119870776Y-95031517D01*
X119860728Y-95229662D01*
X119860728Y-95229663D01*
X104941775Y-95229663D01*
X104942825Y-93129999D01*
X117143552Y-93129999D01*
X117143553Y-93130000D01*
X117936447Y-93130000D01*
X117936447Y-93129999D01*
X121843552Y-93129999D01*
X121843553Y-93130000D01*
X122636447Y-93130000D01*
X122636447Y-93129999D01*
X122240000Y-92733553D01*
X121843552Y-93129999D01*
X117936447Y-93129999D01*
X117540000Y-92733553D01*
X117143552Y-93129999D01*
X104942825Y-93129999D01*
X104943051Y-92677844D01*
X116040000Y-92677844D01*
X116046401Y-92737372D01*
X116046403Y-92737379D01*
X116096645Y-92872086D01*
X116096649Y-92872093D01*
X116182809Y-92987187D01*
X116182812Y-92987190D01*
X116297906Y-93073350D01*
X116297913Y-93073354D01*
X116432621Y-93123596D01*
X116432626Y-93123598D01*
X116441856Y-93124589D01*
X117399628Y-92166818D01*
X117460951Y-92133333D01*
X117487304Y-92130499D01*
X117592691Y-92130499D01*
X117659729Y-92150184D01*
X117680371Y-92166818D01*
X118638141Y-93124589D01*
X118647374Y-93123598D01*
X118782086Y-93073354D01*
X118782093Y-93073350D01*
X118897187Y-92987190D01*
X118897190Y-92987187D01*
X118983350Y-92872093D01*
X118983354Y-92872086D01*
X119033596Y-92737379D01*
X119033598Y-92737372D01*
X119039999Y-92677844D01*
X119040000Y-92677827D01*
X119040000Y-92082172D01*
X119039999Y-92082155D01*
X119033598Y-92022627D01*
X119033596Y-92022620D01*
X118983354Y-91887913D01*
X118983352Y-91887911D01*
X118897190Y-91772813D01*
X118897185Y-91772807D01*
X118890185Y-91767567D01*
X118848316Y-91711632D01*
X118840499Y-91668306D01*
X118840499Y-91285136D01*
X118840497Y-91285117D01*
X118837586Y-91260013D01*
X118837585Y-91260011D01*
X118837585Y-91260009D01*
X118824371Y-91230083D01*
X118815300Y-91160808D01*
X118824369Y-91129919D01*
X118837585Y-91099991D01*
X118840500Y-91074865D01*
X118840499Y-90819660D01*
X118860183Y-90752623D01*
X118912987Y-90706868D01*
X118964499Y-90695662D01*
X118990729Y-90695662D01*
X119144109Y-90657858D01*
X119283984Y-90584445D01*
X119402227Y-90479692D01*
X119491964Y-90349685D01*
X119547981Y-90201980D01*
X119567022Y-90045162D01*
X119547981Y-89888344D01*
X119491964Y-89740639D01*
X119451918Y-89682623D01*
X119430036Y-89616270D01*
X119447501Y-89548618D01*
X119451903Y-89541767D01*
X119514918Y-89450476D01*
X119570935Y-89302771D01*
X119589976Y-89145953D01*
X119570935Y-88989135D01*
X119518508Y-88850898D01*
X119513142Y-88781237D01*
X119546289Y-88719731D01*
X119593497Y-88689887D01*
X119636419Y-88674868D01*
X119719522Y-88645789D01*
X119872262Y-88549816D01*
X119999816Y-88422262D01*
X120095789Y-88269522D01*
X120155368Y-88099255D01*
X120156960Y-88085131D01*
X120169061Y-87977722D01*
X120196127Y-87913307D01*
X120204590Y-87903933D01*
X120591894Y-87516629D01*
X120593360Y-87515212D01*
X120641044Y-87470680D01*
X120664049Y-87432847D01*
X120667606Y-87427622D01*
X120694361Y-87392342D01*
X120700145Y-87377671D01*
X120743049Y-87322528D01*
X120808957Y-87299334D01*
X120876941Y-87315453D01*
X120925419Y-87365769D01*
X120939500Y-87423161D01*
X120939500Y-87874856D01*
X120939502Y-87874882D01*
X120942413Y-87899985D01*
X120942413Y-87899986D01*
X120942414Y-87899990D01*
X120942415Y-87899991D01*
X120955626Y-87929912D01*
X120955628Y-87929915D01*
X120964697Y-87999194D01*
X120955628Y-88030083D01*
X120942415Y-88060008D01*
X120939500Y-88085131D01*
X120939500Y-88674856D01*
X120939502Y-88674882D01*
X120942413Y-88699985D01*
X120942413Y-88699986D01*
X120942414Y-88699990D01*
X120942415Y-88699991D01*
X120955626Y-88729912D01*
X120955628Y-88729915D01*
X120964697Y-88799194D01*
X120955628Y-88830083D01*
X120942415Y-88860008D01*
X120939500Y-88885131D01*
X120939500Y-89474856D01*
X120939502Y-89474882D01*
X120942413Y-89499985D01*
X120942413Y-89499986D01*
X120942414Y-89499990D01*
X120942415Y-89499991D01*
X120955626Y-89529912D01*
X120955628Y-89529915D01*
X120964697Y-89599194D01*
X120955628Y-89630083D01*
X120942415Y-89660008D01*
X120939500Y-89685131D01*
X120939500Y-90274856D01*
X120939502Y-90274882D01*
X120942413Y-90299985D01*
X120942413Y-90299986D01*
X120942414Y-90299990D01*
X120942415Y-90299991D01*
X120955626Y-90329912D01*
X120955628Y-90329915D01*
X120964697Y-90399194D01*
X120955628Y-90430083D01*
X120942415Y-90460008D01*
X120939500Y-90485131D01*
X120939500Y-91074856D01*
X120939502Y-91074882D01*
X120942413Y-91099985D01*
X120942413Y-91099986D01*
X120942414Y-91099990D01*
X120942415Y-91099991D01*
X120955626Y-91129912D01*
X120955628Y-91129915D01*
X120964697Y-91199194D01*
X120955628Y-91230083D01*
X120942415Y-91260008D01*
X120939500Y-91285131D01*
X120939500Y-91668303D01*
X120919815Y-91735342D01*
X120889815Y-91767566D01*
X120882818Y-91772804D01*
X120882808Y-91772814D01*
X120796649Y-91887906D01*
X120796645Y-91887913D01*
X120746403Y-92022620D01*
X120746401Y-92022627D01*
X120740000Y-92082155D01*
X120740000Y-92677844D01*
X120746401Y-92737372D01*
X120746403Y-92737379D01*
X120796645Y-92872086D01*
X120796649Y-92872093D01*
X120882809Y-92987187D01*
X120882812Y-92987190D01*
X120997906Y-93073350D01*
X120997913Y-93073354D01*
X121132621Y-93123596D01*
X121132626Y-93123598D01*
X121141856Y-93124589D01*
X122099628Y-92166818D01*
X122160951Y-92133333D01*
X122187304Y-92130499D01*
X122292691Y-92130499D01*
X122359729Y-92150184D01*
X122380371Y-92166818D01*
X123338141Y-93124589D01*
X123347374Y-93123598D01*
X123482086Y-93073354D01*
X123482093Y-93073350D01*
X123597187Y-92987190D01*
X123597190Y-92987187D01*
X123683350Y-92872093D01*
X123683354Y-92872086D01*
X123733596Y-92737379D01*
X123733598Y-92737372D01*
X123739999Y-92677844D01*
X123740000Y-92677827D01*
X123740000Y-92082172D01*
X123739999Y-92082155D01*
X123733598Y-92022627D01*
X123733596Y-92022620D01*
X123683354Y-91887913D01*
X123683352Y-91887911D01*
X123597190Y-91772813D01*
X123597185Y-91772807D01*
X123590185Y-91767567D01*
X123548316Y-91711632D01*
X123540499Y-91668306D01*
X123540499Y-91285136D01*
X123540497Y-91285117D01*
X123537586Y-91260012D01*
X123537585Y-91260010D01*
X123537585Y-91260009D01*
X123524373Y-91230087D01*
X123524373Y-91230086D01*
X123515301Y-91160808D01*
X123524374Y-91129912D01*
X123537584Y-91099995D01*
X123537584Y-91099994D01*
X123537584Y-91099993D01*
X123537585Y-91099991D01*
X123540500Y-91074865D01*
X123540499Y-90485136D01*
X123539868Y-90479692D01*
X123537586Y-90460012D01*
X123537585Y-90460010D01*
X123537585Y-90460009D01*
X123530681Y-90444374D01*
X123524373Y-90430086D01*
X123515301Y-90360808D01*
X123524374Y-90329912D01*
X123537584Y-90299995D01*
X123537584Y-90299994D01*
X123537584Y-90299993D01*
X123537585Y-90299991D01*
X123540500Y-90274865D01*
X123540499Y-89685136D01*
X123540208Y-89682624D01*
X123537586Y-89660012D01*
X123537585Y-89660010D01*
X123537585Y-89660009D01*
X123530681Y-89644374D01*
X123524373Y-89630086D01*
X123515301Y-89560808D01*
X123524374Y-89529912D01*
X123537584Y-89499995D01*
X123537584Y-89499994D01*
X123537584Y-89499993D01*
X123537585Y-89499991D01*
X123540500Y-89474865D01*
X123540499Y-88885136D01*
X123540497Y-88885117D01*
X123537586Y-88860012D01*
X123537585Y-88860010D01*
X123537585Y-88860009D01*
X123530681Y-88844374D01*
X123524373Y-88830086D01*
X123515301Y-88760808D01*
X123524374Y-88729912D01*
X123537584Y-88699995D01*
X123537584Y-88699994D01*
X123537584Y-88699993D01*
X123537585Y-88699991D01*
X123540500Y-88674865D01*
X123540499Y-88085136D01*
X123540497Y-88085117D01*
X123537586Y-88060012D01*
X123537585Y-88060010D01*
X123537585Y-88060009D01*
X123530681Y-88044374D01*
X123524373Y-88030086D01*
X123515301Y-87960808D01*
X123524374Y-87929912D01*
X123537584Y-87899995D01*
X123537584Y-87899994D01*
X123537584Y-87899993D01*
X123537585Y-87899991D01*
X123540500Y-87874865D01*
X123540499Y-87285136D01*
X123540497Y-87285117D01*
X123537586Y-87260012D01*
X123537585Y-87260010D01*
X123537585Y-87260009D01*
X123530681Y-87244374D01*
X123524373Y-87230086D01*
X123515301Y-87160808D01*
X123524374Y-87129912D01*
X123537584Y-87099995D01*
X123537584Y-87099994D01*
X123537584Y-87099993D01*
X123537585Y-87099991D01*
X123540500Y-87074865D01*
X123540499Y-86485136D01*
X123540497Y-86485117D01*
X123537586Y-86460012D01*
X123537585Y-86460010D01*
X123537585Y-86460009D01*
X123530681Y-86444374D01*
X123524373Y-86430086D01*
X123515301Y-86360808D01*
X123524374Y-86329912D01*
X123537584Y-86299995D01*
X123537584Y-86299994D01*
X123537584Y-86299993D01*
X123537585Y-86299991D01*
X123540500Y-86274865D01*
X123540499Y-85685136D01*
X123540497Y-85685117D01*
X123537586Y-85660012D01*
X123537585Y-85660010D01*
X123537585Y-85660009D01*
X123530681Y-85644374D01*
X123524373Y-85630086D01*
X123515301Y-85560808D01*
X123524374Y-85529912D01*
X123537584Y-85499995D01*
X123537584Y-85499994D01*
X123537584Y-85499993D01*
X123537585Y-85499991D01*
X123540500Y-85474865D01*
X123540499Y-84885136D01*
X123540497Y-84885117D01*
X123537586Y-84860012D01*
X123537585Y-84860010D01*
X123537585Y-84860009D01*
X123492206Y-84757235D01*
X123412765Y-84677794D01*
X123395854Y-84670327D01*
X123309992Y-84632415D01*
X123284865Y-84629500D01*
X121195143Y-84629500D01*
X121195117Y-84629502D01*
X121170012Y-84632413D01*
X121170008Y-84632415D01*
X121067235Y-84677793D01*
X120987794Y-84757234D01*
X120942415Y-84860006D01*
X120942415Y-84860008D01*
X120939500Y-84885131D01*
X120939500Y-85260660D01*
X120919815Y-85327699D01*
X120867011Y-85373454D01*
X120797853Y-85383398D01*
X120734297Y-85354373D01*
X120707393Y-85321396D01*
X120705225Y-85317537D01*
X120702409Y-85311866D01*
X120684780Y-85271280D01*
X120673454Y-85257359D01*
X120661556Y-85239877D01*
X120652764Y-85224240D01*
X120621472Y-85192948D01*
X120617215Y-85188231D01*
X120589278Y-85153892D01*
X120574613Y-85143540D01*
X120558441Y-85129917D01*
X120226659Y-84798135D01*
X120225187Y-84796612D01*
X120180678Y-84748954D01*
X120142861Y-84725957D01*
X120137610Y-84722383D01*
X120102341Y-84695638D01*
X120102342Y-84695638D01*
X120085642Y-84689052D01*
X120066716Y-84679652D01*
X120051380Y-84670327D01*
X120008758Y-84658384D01*
X120002740Y-84656360D01*
X119961565Y-84640124D01*
X119961556Y-84640122D01*
X119943716Y-84638288D01*
X119922951Y-84634342D01*
X119905669Y-84629500D01*
X119905665Y-84629500D01*
X119861406Y-84629500D01*
X119855064Y-84629175D01*
X119827427Y-84626333D01*
X119811029Y-84624648D01*
X119811024Y-84624648D01*
X119793344Y-84627697D01*
X119772276Y-84629500D01*
X118284500Y-84629500D01*
X118217461Y-84609815D01*
X118171706Y-84557011D01*
X118160500Y-84505500D01*
X118160500Y-84242903D01*
X118180183Y-84175868D01*
X118202270Y-84150093D01*
X118225483Y-84129530D01*
X118315220Y-83999523D01*
X118371237Y-83851818D01*
X118390278Y-83695000D01*
X118371237Y-83538182D01*
X118315220Y-83390477D01*
X118225483Y-83260470D01*
X118107240Y-83155717D01*
X118107238Y-83155716D01*
X118107237Y-83155715D01*
X117967365Y-83082303D01*
X117813986Y-83044500D01*
X117813985Y-83044500D01*
X117656015Y-83044500D01*
X117656014Y-83044500D01*
X117502634Y-83082303D01*
X117362762Y-83155715D01*
X117244516Y-83260471D01*
X117154781Y-83390475D01*
X117154780Y-83390476D01*
X117098762Y-83538181D01*
X117079721Y-83694999D01*
X117079721Y-83695000D01*
X117098762Y-83851818D01*
X117154780Y-83999523D01*
X117154781Y-83999524D01*
X117244515Y-84129528D01*
X117244516Y-84129529D01*
X117244517Y-84129530D01*
X117267727Y-84150092D01*
X117304853Y-84209279D01*
X117309500Y-84242907D01*
X117309500Y-84505500D01*
X117289815Y-84572539D01*
X117237011Y-84618294D01*
X117185500Y-84629500D01*
X116495143Y-84629500D01*
X116495117Y-84629502D01*
X116470012Y-84632413D01*
X116470008Y-84632415D01*
X116367235Y-84677793D01*
X116287794Y-84757234D01*
X116242415Y-84860006D01*
X116242415Y-84860008D01*
X116239500Y-84885131D01*
X116239500Y-85474856D01*
X116239502Y-85474882D01*
X116242413Y-85499985D01*
X116242413Y-85499986D01*
X116242414Y-85499990D01*
X116242415Y-85499991D01*
X116255626Y-85529912D01*
X116255628Y-85529915D01*
X116264697Y-85599194D01*
X116255628Y-85630083D01*
X116242415Y-85660008D01*
X116239500Y-85685131D01*
X116239500Y-86274856D01*
X116239502Y-86274882D01*
X116242413Y-86299985D01*
X116242413Y-86299986D01*
X116242414Y-86299990D01*
X116242415Y-86299991D01*
X116255626Y-86329912D01*
X116255628Y-86329915D01*
X116264697Y-86399194D01*
X116255628Y-86430083D01*
X116242415Y-86460008D01*
X116239500Y-86485131D01*
X116239500Y-87074856D01*
X116239502Y-87074882D01*
X116242413Y-87099985D01*
X116242413Y-87099986D01*
X116242414Y-87099990D01*
X116242415Y-87099991D01*
X116255626Y-87129912D01*
X116255628Y-87129915D01*
X116264697Y-87199194D01*
X116255628Y-87230083D01*
X116242415Y-87260008D01*
X116239500Y-87285131D01*
X116239500Y-87874856D01*
X116239502Y-87874882D01*
X116242413Y-87899985D01*
X116242413Y-87899986D01*
X116242414Y-87899990D01*
X116242415Y-87899991D01*
X116255626Y-87929912D01*
X116255628Y-87929915D01*
X116264697Y-87999194D01*
X116255628Y-88030083D01*
X116242415Y-88060008D01*
X116239500Y-88085131D01*
X116239500Y-88674856D01*
X116239502Y-88674882D01*
X116242413Y-88699985D01*
X116242413Y-88699986D01*
X116242414Y-88699990D01*
X116242415Y-88699991D01*
X116255626Y-88729912D01*
X116255628Y-88729915D01*
X116264697Y-88799194D01*
X116255628Y-88830083D01*
X116242415Y-88860008D01*
X116239500Y-88885131D01*
X116239500Y-89474856D01*
X116239502Y-89474882D01*
X116242413Y-89499985D01*
X116242413Y-89499986D01*
X116242414Y-89499990D01*
X116242415Y-89499991D01*
X116255626Y-89529912D01*
X116255628Y-89529915D01*
X116264697Y-89599194D01*
X116255628Y-89630083D01*
X116242415Y-89660008D01*
X116239500Y-89685131D01*
X116239500Y-90274856D01*
X116239502Y-90274882D01*
X116242413Y-90299985D01*
X116242413Y-90299986D01*
X116242414Y-90299990D01*
X116242415Y-90299991D01*
X116255626Y-90329912D01*
X116255628Y-90329915D01*
X116264697Y-90399194D01*
X116255628Y-90430083D01*
X116242415Y-90460008D01*
X116239500Y-90485131D01*
X116239500Y-91074856D01*
X116239502Y-91074882D01*
X116242413Y-91099985D01*
X116242413Y-91099986D01*
X116242414Y-91099990D01*
X116242415Y-91099991D01*
X116255626Y-91129912D01*
X116255628Y-91129915D01*
X116264697Y-91199194D01*
X116255628Y-91230083D01*
X116242415Y-91260008D01*
X116239500Y-91285131D01*
X116239500Y-91668303D01*
X116219815Y-91735342D01*
X116189815Y-91767566D01*
X116182818Y-91772804D01*
X116182808Y-91772814D01*
X116096649Y-91887906D01*
X116096645Y-91887913D01*
X116046403Y-92022620D01*
X116046401Y-92022627D01*
X116040000Y-92082155D01*
X116040000Y-92677844D01*
X104943051Y-92677844D01*
X104948223Y-82335048D01*
X120010850Y-82335048D01*
X120020571Y-82514338D01*
X120020571Y-82514343D01*
X120068605Y-82687348D01*
X120068608Y-82687354D01*
X120152714Y-82845993D01*
X120268955Y-82982842D01*
X120268956Y-82982843D01*
X120411901Y-83091507D01*
X120574862Y-83166901D01*
X120574863Y-83166901D01*
X120574865Y-83166902D01*
X120628065Y-83178611D01*
X120750221Y-83205500D01*
X120750224Y-83205500D01*
X120884755Y-83205500D01*
X120884760Y-83205500D01*
X121018505Y-83190954D01*
X121188662Y-83133622D01*
X121342517Y-83041050D01*
X121472875Y-82917569D01*
X121573640Y-82768951D01*
X121640101Y-82602147D01*
X121669150Y-82424955D01*
X121659429Y-82245661D01*
X121611393Y-82072649D01*
X121527286Y-81914008D01*
X121527285Y-81914006D01*
X121411044Y-81777157D01*
X121268099Y-81668493D01*
X121105138Y-81593099D01*
X121105134Y-81593097D01*
X120929779Y-81554500D01*
X120795240Y-81554500D01*
X120795238Y-81554500D01*
X120661496Y-81569045D01*
X120661489Y-81569047D01*
X120491339Y-81626377D01*
X120491336Y-81626379D01*
X120337482Y-81718950D01*
X120207123Y-81842431D01*
X120106358Y-81991051D01*
X120106357Y-81991053D01*
X120039900Y-82157847D01*
X120010850Y-82335048D01*
X104948223Y-82335048D01*
X104949938Y-78904438D01*
X104969656Y-78837408D01*
X105022483Y-78791680D01*
X105073938Y-78780500D01*
X124815500Y-78780500D01*
X124882539Y-78800185D01*
G37*
%TD.AperFunction*%
%TD*%
M02*
