%TF.GenerationSoftware,KiCad,Pcbnew,7.0.5*%
%TF.CreationDate,2023-06-07T18:50:11+03:00*%
%TF.ProjectId,DIRECT_I2C__1,44495245-4354-45f4-9932-435fb1312e6b,rev?*%
%TF.SameCoordinates,Original*%
%TF.FileFunction,Copper,L1,Top*%
%TF.FilePolarity,Positive*%
%FSLAX46Y46*%
G04 Gerber Fmt 4.6, Leading zero omitted, Abs format (unit mm)*
G04 Created by KiCad (PCBNEW 7.0.5) date 2023-06-07 18:50:11*
%MOMM*%
%LPD*%
G01*
G04 APERTURE LIST*
%TA.AperFunction,SMDPad,CuDef*%
%ADD10R,0.900000X0.650000*%
%TD*%
%TA.AperFunction,SMDPad,CuDef*%
%ADD11R,1.250000X0.600000*%
%TD*%
%TA.AperFunction,ComponentPad*%
%ADD12C,0.675000*%
%TD*%
%TA.AperFunction,ComponentPad*%
%ADD13C,0.525000*%
%TD*%
%TA.AperFunction,ViaPad*%
%ADD14C,1.000000*%
%TD*%
%TA.AperFunction,ViaPad*%
%ADD15C,0.700000*%
%TD*%
%TA.AperFunction,Conductor*%
%ADD16C,0.250000*%
%TD*%
%TA.AperFunction,Conductor*%
%ADD17C,0.500000*%
%TD*%
G04 APERTURE END LIST*
D10*
%TO.P,R1,1*%
%TO.N,/I2C_SCL*%
X118560000Y-85132500D03*
%TO.P,R1,2*%
%TO.N,/VCC3*%
X118560000Y-83682500D03*
%TD*%
%TO.P,R2,1*%
%TO.N,/I2C_SDA*%
X119880000Y-85145000D03*
%TO.P,R2,2*%
%TO.N,/VCC3*%
X119880000Y-83695000D03*
%TD*%
D11*
%TO.P,D1,1,AOUT*%
%TO.N,/I2C_SDA_OUT*%
X122990000Y-88900000D03*
%TO.P,D1,2,VN*%
%TO.N,GND*%
X122990000Y-87950000D03*
%TO.P,D1,3,AIN*%
%TO.N,/I2C_SDA*%
X122990000Y-87000000D03*
%TO.P,D1,4,BIN*%
%TO.N,/I2C_SCL*%
X120490000Y-87000000D03*
%TO.P,D1,5,VP*%
%TO.N,/VCC3*%
X120490000Y-87950000D03*
%TO.P,D1,6,BOUT*%
%TO.N,/I2C_SCL_OUT*%
X120490000Y-88900000D03*
%TD*%
D12*
%TO.P,H1,MH1*%
%TO.N,N/C*%
X120840000Y-95180000D03*
D13*
%TO.P,H1,MH2*%
X120840000Y-82380000D03*
%TD*%
D14*
%TO.N,/VCC3*%
X119370000Y-87920000D03*
D15*
X117735000Y-83695000D03*
D14*
%TO.N,GND*%
X123830000Y-92380000D03*
D15*
%TO.N,/I2C_SDA*%
X119319199Y-85979500D03*
%TO.N,/I2C_SCL*%
X118910000Y-86780000D03*
%TO.N,/I2C_SCL_OUT*%
X118934698Y-89145953D03*
%TO.N,/I2C_SDA_OUT*%
X118911744Y-90045162D03*
%TD*%
D16*
%TO.N,/I2C_SDA*%
X120119500Y-85979500D02*
X119880000Y-85740000D01*
X119880000Y-85740000D02*
X119880000Y-85145000D01*
X119319199Y-85979500D02*
X120119500Y-85979500D01*
%TO.N,/VCC3*%
X119240000Y-83695000D02*
X118572500Y-83695000D01*
D17*
X119410000Y-87960000D02*
X120630000Y-87960000D01*
X119370000Y-87920000D02*
X119410000Y-87960000D01*
D16*
X117735000Y-83695000D02*
X119240000Y-83695000D01*
D17*
X120630000Y-87960000D02*
X120640000Y-87970000D01*
D16*
X118572500Y-83695000D02*
X118560000Y-83682500D01*
X119880000Y-83695000D02*
X119240000Y-83695000D01*
D17*
%TO.N,GND*%
X123830000Y-92380000D02*
X123750000Y-92380000D01*
X123820000Y-87970000D02*
X124190000Y-88340000D01*
X123140000Y-87970000D02*
X123820000Y-87970000D01*
X124190000Y-88340000D02*
X124190000Y-92020000D01*
X123750000Y-92380000D02*
X123800000Y-92330000D01*
X124190000Y-92020000D02*
X123830000Y-92380000D01*
D16*
%TO.N,/I2C_SDA*%
X122170000Y-87000000D02*
X123220000Y-87000000D01*
X121149500Y-85979500D02*
X122170000Y-87000000D01*
X120550000Y-86000000D02*
X120550000Y-86000000D01*
X123220000Y-87000000D02*
X123350000Y-86870000D01*
X119319199Y-85979500D02*
X121149500Y-85979500D01*
%TO.N,/I2C_SCL*%
X119730000Y-87000000D02*
X120720000Y-87000000D01*
X118910000Y-86780000D02*
X119510000Y-86780000D01*
X120720000Y-87000000D02*
X120850000Y-86870000D01*
X118910000Y-86780000D02*
X118560000Y-86430000D01*
X118910000Y-86780000D02*
X118940000Y-86750000D01*
X118560000Y-86430000D02*
X118560000Y-85132500D01*
X119510000Y-86780000D02*
X119730000Y-87000000D01*
%TO.N,/I2C_SCL_OUT*%
X119634047Y-89145953D02*
X118934698Y-89145953D01*
X119880000Y-88900000D02*
X119634047Y-89145953D01*
X120720000Y-88900000D02*
X119880000Y-88900000D01*
X120850000Y-88770000D02*
X120720000Y-88900000D01*
%TO.N,/I2C_SDA_OUT*%
X122230000Y-88900000D02*
X123220000Y-88900000D01*
X118911744Y-90045162D02*
X118966582Y-90100000D01*
X118911744Y-90045162D02*
X119166906Y-89790000D01*
X118966582Y-90100000D02*
X119010000Y-90100000D01*
X121340000Y-89790000D02*
X122230000Y-88900000D01*
X119166906Y-89790000D02*
X121340000Y-89790000D01*
X123220000Y-88900000D02*
X123350000Y-88770000D01*
%TD*%
%TA.AperFunction,Conductor*%
%TO.N,GND*%
G36*
X124882539Y-78800185D02*
G01*
X124928294Y-78852989D01*
X124939500Y-78904500D01*
X124939500Y-98655500D01*
X124919815Y-98722539D01*
X124867011Y-98768294D01*
X124815500Y-98779500D01*
X105064500Y-98779500D01*
X104997461Y-98759815D01*
X104951706Y-98707011D01*
X104940500Y-98655500D01*
X104940500Y-95288926D01*
X119664500Y-95288926D01*
X119704530Y-95503069D01*
X119742341Y-95600670D01*
X119783226Y-95706207D01*
X119783229Y-95706213D01*
X119897906Y-95891423D01*
X119897912Y-95891432D01*
X120044678Y-96052427D01*
X120218528Y-96183712D01*
X120413541Y-96280817D01*
X120623077Y-96340435D01*
X120785653Y-96355500D01*
X120785656Y-96355500D01*
X120894344Y-96355500D01*
X120894347Y-96355500D01*
X121056923Y-96340435D01*
X121266459Y-96280817D01*
X121461472Y-96183712D01*
X121635322Y-96052427D01*
X121782088Y-95891432D01*
X121896772Y-95706210D01*
X121975470Y-95503069D01*
X122015500Y-95288926D01*
X122015500Y-95071074D01*
X121975470Y-94856931D01*
X121896772Y-94653790D01*
X121782088Y-94468568D01*
X121635322Y-94307573D01*
X121461472Y-94176288D01*
X121266462Y-94079184D01*
X121266459Y-94079183D01*
X121056923Y-94019565D01*
X121056920Y-94019564D01*
X121056918Y-94019564D01*
X120949819Y-94009640D01*
X120894347Y-94004500D01*
X120785653Y-94004500D01*
X120735845Y-94009115D01*
X120623081Y-94019564D01*
X120413537Y-94079184D01*
X120218527Y-94176288D01*
X120044676Y-94307574D01*
X119897913Y-94468566D01*
X119897906Y-94468576D01*
X119783229Y-94653786D01*
X119783226Y-94653792D01*
X119723435Y-94808130D01*
X119704530Y-94856931D01*
X119664500Y-95071074D01*
X119664500Y-95288926D01*
X104940500Y-95288926D01*
X104940500Y-83695000D01*
X116879815Y-83695000D01*
X116898503Y-83872805D01*
X116898504Y-83872807D01*
X116953747Y-84042829D01*
X116953750Y-84042835D01*
X117043141Y-84197665D01*
X117084812Y-84243946D01*
X117162764Y-84330521D01*
X117162767Y-84330523D01*
X117162770Y-84330526D01*
X117307407Y-84435612D01*
X117470733Y-84508329D01*
X117530839Y-84521105D01*
X117592318Y-84554295D01*
X117626095Y-84615458D01*
X117621443Y-84685173D01*
X117621239Y-84685724D01*
X117615910Y-84700012D01*
X117615909Y-84700015D01*
X117615909Y-84700017D01*
X117609500Y-84759627D01*
X117609500Y-84759634D01*
X117609500Y-84759635D01*
X117609500Y-85505370D01*
X117609501Y-85505376D01*
X117615908Y-85564983D01*
X117666202Y-85699828D01*
X117666206Y-85699835D01*
X117752452Y-85815044D01*
X117752455Y-85815047D01*
X117867666Y-85901295D01*
X117869928Y-85902530D01*
X117871749Y-85904351D01*
X117874769Y-85906612D01*
X117874443Y-85907046D01*
X117919332Y-85951936D01*
X117934499Y-86011361D01*
X117934499Y-86347255D01*
X117932776Y-86362872D01*
X117933061Y-86362899D01*
X117932326Y-86370666D01*
X117934469Y-86438846D01*
X117934500Y-86440793D01*
X117934500Y-86469343D01*
X117934501Y-86469360D01*
X117935368Y-86476231D01*
X117935826Y-86482050D01*
X117937290Y-86528624D01*
X117937291Y-86528627D01*
X117942880Y-86547867D01*
X117946824Y-86566911D01*
X117949336Y-86586792D01*
X117951603Y-86592517D01*
X117966490Y-86630119D01*
X117968382Y-86635647D01*
X117981381Y-86680388D01*
X117991580Y-86697634D01*
X118000136Y-86715100D01*
X118007514Y-86733732D01*
X118034905Y-86771433D01*
X118038106Y-86776306D01*
X118044191Y-86786594D01*
X118060780Y-86836754D01*
X118073503Y-86957804D01*
X118073504Y-86957807D01*
X118128747Y-87127829D01*
X118128750Y-87127835D01*
X118218141Y-87282665D01*
X118259812Y-87328946D01*
X118337764Y-87415521D01*
X118337767Y-87415523D01*
X118337770Y-87415526D01*
X118380885Y-87446851D01*
X118423549Y-87502180D01*
X118429528Y-87571794D01*
X118426662Y-87583151D01*
X118424183Y-87591325D01*
X118383975Y-87723870D01*
X118364659Y-87920000D01*
X118383975Y-88116129D01*
X118383976Y-88116132D01*
X118439108Y-88297878D01*
X118441188Y-88304732D01*
X118447436Y-88316421D01*
X118461678Y-88384823D01*
X118436678Y-88450067D01*
X118410965Y-88475191D01*
X118362467Y-88510427D01*
X118362462Y-88510431D01*
X118242838Y-88643289D01*
X118153448Y-88798117D01*
X118153445Y-88798123D01*
X118098202Y-88968145D01*
X118098201Y-88968147D01*
X118079513Y-89145953D01*
X118098201Y-89323758D01*
X118098202Y-89323760D01*
X118153445Y-89493782D01*
X118153447Y-89493785D01*
X118153448Y-89493788D01*
X118164932Y-89513679D01*
X118181404Y-89581578D01*
X118164932Y-89637675D01*
X118130494Y-89697324D01*
X118075248Y-89867354D01*
X118075247Y-89867356D01*
X118056559Y-90045161D01*
X118075247Y-90222967D01*
X118075248Y-90222969D01*
X118130491Y-90392991D01*
X118130494Y-90392997D01*
X118219885Y-90547827D01*
X118261556Y-90594108D01*
X118339508Y-90680683D01*
X118339511Y-90680685D01*
X118339514Y-90680688D01*
X118484151Y-90785774D01*
X118647477Y-90858491D01*
X118822353Y-90895662D01*
X118822354Y-90895662D01*
X119001133Y-90895662D01*
X119001135Y-90895662D01*
X119176011Y-90858491D01*
X119339337Y-90785774D01*
X119483974Y-90680688D01*
X119603603Y-90547827D01*
X119644206Y-90477499D01*
X119694772Y-90429285D01*
X119751593Y-90415500D01*
X121257257Y-90415500D01*
X121272877Y-90417224D01*
X121272904Y-90416939D01*
X121280666Y-90417673D01*
X121280666Y-90417672D01*
X121280667Y-90417673D01*
X121283999Y-90417568D01*
X121348847Y-90415531D01*
X121350794Y-90415500D01*
X121379347Y-90415500D01*
X121379350Y-90415500D01*
X121386228Y-90414630D01*
X121392041Y-90414172D01*
X121438627Y-90412709D01*
X121457869Y-90407117D01*
X121476912Y-90403174D01*
X121496792Y-90400664D01*
X121540122Y-90383507D01*
X121545646Y-90381617D01*
X121549396Y-90380527D01*
X121590390Y-90368618D01*
X121607629Y-90358422D01*
X121625103Y-90349862D01*
X121643727Y-90342488D01*
X121643727Y-90342487D01*
X121643732Y-90342486D01*
X121681449Y-90315082D01*
X121686305Y-90311892D01*
X121726420Y-90288170D01*
X121740589Y-90273999D01*
X121755379Y-90261368D01*
X121771587Y-90249594D01*
X121801299Y-90213676D01*
X121805212Y-90209376D01*
X122277774Y-89736815D01*
X122339093Y-89703333D01*
X122365442Y-89700499D01*
X123662872Y-89700499D01*
X123722483Y-89694091D01*
X123857331Y-89643796D01*
X123972546Y-89557546D01*
X124058796Y-89442331D01*
X124109091Y-89307483D01*
X124115500Y-89247873D01*
X124115499Y-88552128D01*
X124109091Y-88492517D01*
X124095429Y-88455888D01*
X124058797Y-88357671D01*
X124058793Y-88357664D01*
X123972547Y-88242455D01*
X123972544Y-88242452D01*
X123857335Y-88156206D01*
X123857328Y-88156202D01*
X123722482Y-88105908D01*
X123722483Y-88105908D01*
X123662883Y-88099501D01*
X123662881Y-88099500D01*
X123662873Y-88099500D01*
X123662864Y-88099500D01*
X122317129Y-88099500D01*
X122317123Y-88099501D01*
X122257516Y-88105908D01*
X122122671Y-88156202D01*
X122122664Y-88156206D01*
X122007457Y-88242451D01*
X122007450Y-88242457D01*
X121943057Y-88328475D01*
X121916677Y-88354480D01*
X121888572Y-88374901D01*
X121883688Y-88378109D01*
X121843579Y-88401829D01*
X121829414Y-88415995D01*
X121814620Y-88428630D01*
X121809420Y-88432408D01*
X121743614Y-88455888D01*
X121675560Y-88440062D01*
X121626865Y-88389956D01*
X121612990Y-88321478D01*
X121613246Y-88318833D01*
X121613506Y-88316421D01*
X121615500Y-88297873D01*
X121615499Y-87618623D01*
X121635183Y-87551585D01*
X121687987Y-87505830D01*
X121757146Y-87495886D01*
X121799234Y-87509961D01*
X121816970Y-87519711D01*
X121833233Y-87530393D01*
X121849064Y-87542673D01*
X121891847Y-87561187D01*
X121897061Y-87563741D01*
X121932391Y-87583164D01*
X121941853Y-87588366D01*
X121981379Y-87622715D01*
X122007455Y-87657547D01*
X122122664Y-87743793D01*
X122122671Y-87743797D01*
X122257517Y-87794091D01*
X122257516Y-87794091D01*
X122264444Y-87794835D01*
X122317127Y-87800500D01*
X123662872Y-87800499D01*
X123722483Y-87794091D01*
X123857331Y-87743796D01*
X123972546Y-87657546D01*
X124058796Y-87542331D01*
X124109091Y-87407483D01*
X124115500Y-87347873D01*
X124115499Y-86652128D01*
X124109091Y-86592517D01*
X124106955Y-86586791D01*
X124058797Y-86457671D01*
X124058793Y-86457664D01*
X123972547Y-86342455D01*
X123972544Y-86342452D01*
X123857335Y-86256206D01*
X123857328Y-86256202D01*
X123722482Y-86205908D01*
X123722483Y-86205908D01*
X123662883Y-86199501D01*
X123662881Y-86199500D01*
X123662873Y-86199500D01*
X123662864Y-86199500D01*
X122317130Y-86199500D01*
X122313806Y-86199679D01*
X122313733Y-86198315D01*
X122250348Y-86186828D01*
X122218259Y-86163669D01*
X121650303Y-85595712D01*
X121640480Y-85583450D01*
X121640259Y-85583634D01*
X121635286Y-85577622D01*
X121585566Y-85530932D01*
X121584166Y-85529575D01*
X121563976Y-85509384D01*
X121558486Y-85505125D01*
X121554061Y-85501347D01*
X121520082Y-85469438D01*
X121520080Y-85469436D01*
X121520077Y-85469435D01*
X121502529Y-85459788D01*
X121486263Y-85449104D01*
X121470433Y-85436825D01*
X121427668Y-85418318D01*
X121422422Y-85415748D01*
X121381593Y-85393303D01*
X121381592Y-85393302D01*
X121362193Y-85388322D01*
X121343781Y-85382018D01*
X121325398Y-85374062D01*
X121325392Y-85374060D01*
X121279374Y-85366772D01*
X121273652Y-85365587D01*
X121228521Y-85354000D01*
X121228519Y-85354000D01*
X121208484Y-85354000D01*
X121189086Y-85352473D01*
X121181662Y-85351297D01*
X121169305Y-85349340D01*
X121169304Y-85349340D01*
X121122916Y-85353725D01*
X121117078Y-85354000D01*
X120954500Y-85354000D01*
X120887461Y-85334315D01*
X120841706Y-85281511D01*
X120830500Y-85230000D01*
X120830499Y-84772129D01*
X120830498Y-84772123D01*
X120824091Y-84712516D01*
X120773797Y-84577671D01*
X120773796Y-84577669D01*
X120711394Y-84494311D01*
X120686977Y-84428847D01*
X120701828Y-84360574D01*
X120711394Y-84345689D01*
X120722749Y-84330521D01*
X120773796Y-84262331D01*
X120824091Y-84127483D01*
X120830500Y-84067873D01*
X120830499Y-83523783D01*
X120850183Y-83456745D01*
X120902987Y-83410990D01*
X120942341Y-83400382D01*
X121041033Y-83390662D01*
X121234341Y-83332023D01*
X121412494Y-83236798D01*
X121568647Y-83108647D01*
X121696798Y-82952494D01*
X121757738Y-82838484D01*
X121792021Y-82774345D01*
X121792021Y-82774344D01*
X121792023Y-82774341D01*
X121850662Y-82581033D01*
X121870462Y-82380000D01*
X121850662Y-82178967D01*
X121792023Y-81985659D01*
X121792021Y-81985656D01*
X121792021Y-81985654D01*
X121696801Y-81807511D01*
X121696799Y-81807509D01*
X121696798Y-81807506D01*
X121657824Y-81760016D01*
X121568647Y-81651352D01*
X121412495Y-81523203D01*
X121412488Y-81523198D01*
X121234345Y-81427978D01*
X121041031Y-81369337D01*
X120930900Y-81358490D01*
X120890380Y-81354500D01*
X120789620Y-81354500D01*
X120752433Y-81358162D01*
X120638968Y-81369337D01*
X120445654Y-81427978D01*
X120267511Y-81523198D01*
X120267504Y-81523203D01*
X120111352Y-81651352D01*
X119983203Y-81807504D01*
X119983198Y-81807511D01*
X119887978Y-81985654D01*
X119829337Y-82178968D01*
X119809538Y-82379999D01*
X119829337Y-82581031D01*
X119829338Y-82581033D01*
X119868310Y-82709507D01*
X119868933Y-82779371D01*
X119831685Y-82838484D01*
X119768391Y-82868075D01*
X119749649Y-82869500D01*
X119382130Y-82869500D01*
X119382123Y-82869501D01*
X119322516Y-82875908D01*
X119280087Y-82891733D01*
X119210395Y-82896715D01*
X119193425Y-82891732D01*
X119117485Y-82863409D01*
X119117483Y-82863408D01*
X119057883Y-82857001D01*
X119057881Y-82857000D01*
X119057873Y-82857000D01*
X119057864Y-82857000D01*
X118062129Y-82857000D01*
X118062125Y-82857001D01*
X118002515Y-82863409D01*
X117994972Y-82865192D01*
X117994587Y-82863565D01*
X117934849Y-82867978D01*
X117824391Y-82844500D01*
X117645609Y-82844500D01*
X117614954Y-82851015D01*
X117470733Y-82881670D01*
X117470728Y-82881672D01*
X117307408Y-82954387D01*
X117162768Y-83059475D01*
X117043140Y-83192336D01*
X116953750Y-83347164D01*
X116953747Y-83347170D01*
X116898504Y-83517192D01*
X116898503Y-83517194D01*
X116879815Y-83695000D01*
X104940500Y-83695000D01*
X104940500Y-78904500D01*
X104960185Y-78837461D01*
X105012989Y-78791706D01*
X105064500Y-78780500D01*
X124815500Y-78780500D01*
X124882539Y-78800185D01*
G37*
%TD.AperFunction*%
%TD*%
M02*
