%TF.GenerationSoftware,KiCad,Pcbnew,7.0.5*%
%TF.CreationDate,2023-06-07T18:50:11+03:00*%
%TF.ProjectId,DIRECT_I2C__1,44495245-4354-45f4-9932-435fb1312e6b,rev?*%
%TF.SameCoordinates,Original*%
%TF.FileFunction,Legend,Top*%
%TF.FilePolarity,Positive*%
%FSLAX46Y46*%
G04 Gerber Fmt 4.6, Leading zero omitted, Abs format (unit mm)*
G04 Created by KiCad (PCBNEW 7.0.5) date 2023-06-07 18:50:11*
%MOMM*%
%LPD*%
G01*
G04 APERTURE LIST*
%ADD10C,0.150000*%
%ADD11C,0.254000*%
%ADD12C,0.200000*%
G04 APERTURE END LIST*
D10*
X105576779Y-80289819D02*
X105576779Y-79289819D01*
X105576779Y-79289819D02*
X105814874Y-79289819D01*
X105814874Y-79289819D02*
X105957731Y-79337438D01*
X105957731Y-79337438D02*
X106052969Y-79432676D01*
X106052969Y-79432676D02*
X106100588Y-79527914D01*
X106100588Y-79527914D02*
X106148207Y-79718390D01*
X106148207Y-79718390D02*
X106148207Y-79861247D01*
X106148207Y-79861247D02*
X106100588Y-80051723D01*
X106100588Y-80051723D02*
X106052969Y-80146961D01*
X106052969Y-80146961D02*
X105957731Y-80242200D01*
X105957731Y-80242200D02*
X105814874Y-80289819D01*
X105814874Y-80289819D02*
X105576779Y-80289819D01*
X106576779Y-80289819D02*
X106576779Y-79289819D01*
X107624397Y-80289819D02*
X107291064Y-79813628D01*
X107052969Y-80289819D02*
X107052969Y-79289819D01*
X107052969Y-79289819D02*
X107433921Y-79289819D01*
X107433921Y-79289819D02*
X107529159Y-79337438D01*
X107529159Y-79337438D02*
X107576778Y-79385057D01*
X107576778Y-79385057D02*
X107624397Y-79480295D01*
X107624397Y-79480295D02*
X107624397Y-79623152D01*
X107624397Y-79623152D02*
X107576778Y-79718390D01*
X107576778Y-79718390D02*
X107529159Y-79766009D01*
X107529159Y-79766009D02*
X107433921Y-79813628D01*
X107433921Y-79813628D02*
X107052969Y-79813628D01*
X108052969Y-79766009D02*
X108386302Y-79766009D01*
X108529159Y-80289819D02*
X108052969Y-80289819D01*
X108052969Y-80289819D02*
X108052969Y-79289819D01*
X108052969Y-79289819D02*
X108529159Y-79289819D01*
X109529159Y-80194580D02*
X109481540Y-80242200D01*
X109481540Y-80242200D02*
X109338683Y-80289819D01*
X109338683Y-80289819D02*
X109243445Y-80289819D01*
X109243445Y-80289819D02*
X109100588Y-80242200D01*
X109100588Y-80242200D02*
X109005350Y-80146961D01*
X109005350Y-80146961D02*
X108957731Y-80051723D01*
X108957731Y-80051723D02*
X108910112Y-79861247D01*
X108910112Y-79861247D02*
X108910112Y-79718390D01*
X108910112Y-79718390D02*
X108957731Y-79527914D01*
X108957731Y-79527914D02*
X109005350Y-79432676D01*
X109005350Y-79432676D02*
X109100588Y-79337438D01*
X109100588Y-79337438D02*
X109243445Y-79289819D01*
X109243445Y-79289819D02*
X109338683Y-79289819D01*
X109338683Y-79289819D02*
X109481540Y-79337438D01*
X109481540Y-79337438D02*
X109529159Y-79385057D01*
X109814874Y-79289819D02*
X110386302Y-79289819D01*
X110100588Y-80289819D02*
X110100588Y-79289819D01*
X111481541Y-80289819D02*
X111481541Y-79289819D01*
X111910112Y-79385057D02*
X111957731Y-79337438D01*
X111957731Y-79337438D02*
X112052969Y-79289819D01*
X112052969Y-79289819D02*
X112291064Y-79289819D01*
X112291064Y-79289819D02*
X112386302Y-79337438D01*
X112386302Y-79337438D02*
X112433921Y-79385057D01*
X112433921Y-79385057D02*
X112481540Y-79480295D01*
X112481540Y-79480295D02*
X112481540Y-79575533D01*
X112481540Y-79575533D02*
X112433921Y-79718390D01*
X112433921Y-79718390D02*
X111862493Y-80289819D01*
X111862493Y-80289819D02*
X112481540Y-80289819D01*
X113481540Y-80194580D02*
X113433921Y-80242200D01*
X113433921Y-80242200D02*
X113291064Y-80289819D01*
X113291064Y-80289819D02*
X113195826Y-80289819D01*
X113195826Y-80289819D02*
X113052969Y-80242200D01*
X113052969Y-80242200D02*
X112957731Y-80146961D01*
X112957731Y-80146961D02*
X112910112Y-80051723D01*
X112910112Y-80051723D02*
X112862493Y-79861247D01*
X112862493Y-79861247D02*
X112862493Y-79718390D01*
X112862493Y-79718390D02*
X112910112Y-79527914D01*
X112910112Y-79527914D02*
X112957731Y-79432676D01*
X112957731Y-79432676D02*
X113052969Y-79337438D01*
X113052969Y-79337438D02*
X113195826Y-79289819D01*
X113195826Y-79289819D02*
X113291064Y-79289819D01*
X113291064Y-79289819D02*
X113433921Y-79337438D01*
X113433921Y-79337438D02*
X113481540Y-79385057D01*
X115243445Y-79623152D02*
X115100588Y-80099342D01*
X115100588Y-80099342D02*
X115052969Y-80194580D01*
X115052969Y-80194580D02*
X115005350Y-80242200D01*
X115005350Y-80242200D02*
X114910112Y-80289819D01*
X114910112Y-80289819D02*
X114814874Y-80289819D01*
X114814874Y-80289819D02*
X114719636Y-80242200D01*
X114719636Y-80242200D02*
X114672017Y-80194580D01*
X114672017Y-80194580D02*
X114624398Y-80051723D01*
X114624398Y-80051723D02*
X114624398Y-79861247D01*
X114624398Y-79861247D02*
X114672017Y-79718390D01*
X114672017Y-79718390D02*
X114719636Y-79670771D01*
X114719636Y-79670771D02*
X114814874Y-79623152D01*
X114814874Y-79623152D02*
X114910112Y-79623152D01*
X114910112Y-79623152D02*
X115005350Y-79670771D01*
X115005350Y-79670771D02*
X115052969Y-79718390D01*
X115052969Y-79718390D02*
X115100588Y-79813628D01*
X115100588Y-79813628D02*
X115148207Y-80146961D01*
X115148207Y-80146961D02*
X115195826Y-80242200D01*
X115195826Y-80242200D02*
X115291064Y-80289819D01*
X116195826Y-80289819D02*
X115624398Y-80289819D01*
X115910112Y-80289819D02*
X115910112Y-79289819D01*
X115910112Y-79289819D02*
X115814874Y-79432676D01*
X115814874Y-79432676D02*
X115719636Y-79527914D01*
X115719636Y-79527914D02*
X115624398Y-79575533D01*
X105862493Y-82280771D02*
X105814874Y-82233152D01*
X105814874Y-82233152D02*
X105719636Y-82090295D01*
X105719636Y-82090295D02*
X105672017Y-81995057D01*
X105672017Y-81995057D02*
X105624398Y-81852200D01*
X105624398Y-81852200D02*
X105576779Y-81614104D01*
X105576779Y-81614104D02*
X105576779Y-81423628D01*
X105576779Y-81423628D02*
X105624398Y-81185533D01*
X105624398Y-81185533D02*
X105672017Y-81042676D01*
X105672017Y-81042676D02*
X105719636Y-80947438D01*
X105719636Y-80947438D02*
X105814874Y-80804580D01*
X105814874Y-80804580D02*
X105862493Y-80756961D01*
X106814874Y-81804580D02*
X106767255Y-81852200D01*
X106767255Y-81852200D02*
X106624398Y-81899819D01*
X106624398Y-81899819D02*
X106529160Y-81899819D01*
X106529160Y-81899819D02*
X106386303Y-81852200D01*
X106386303Y-81852200D02*
X106291065Y-81756961D01*
X106291065Y-81756961D02*
X106243446Y-81661723D01*
X106243446Y-81661723D02*
X106195827Y-81471247D01*
X106195827Y-81471247D02*
X106195827Y-81328390D01*
X106195827Y-81328390D02*
X106243446Y-81137914D01*
X106243446Y-81137914D02*
X106291065Y-81042676D01*
X106291065Y-81042676D02*
X106386303Y-80947438D01*
X106386303Y-80947438D02*
X106529160Y-80899819D01*
X106529160Y-80899819D02*
X106624398Y-80899819D01*
X106624398Y-80899819D02*
X106767255Y-80947438D01*
X106767255Y-80947438D02*
X106814874Y-80995057D01*
X107243446Y-81804580D02*
X107291065Y-81852200D01*
X107291065Y-81852200D02*
X107243446Y-81899819D01*
X107243446Y-81899819D02*
X107195827Y-81852200D01*
X107195827Y-81852200D02*
X107243446Y-81804580D01*
X107243446Y-81804580D02*
X107243446Y-81899819D01*
X107672017Y-81852200D02*
X107814874Y-81899819D01*
X107814874Y-81899819D02*
X108052969Y-81899819D01*
X108052969Y-81899819D02*
X108148207Y-81852200D01*
X108148207Y-81852200D02*
X108195826Y-81804580D01*
X108195826Y-81804580D02*
X108243445Y-81709342D01*
X108243445Y-81709342D02*
X108243445Y-81614104D01*
X108243445Y-81614104D02*
X108195826Y-81518866D01*
X108195826Y-81518866D02*
X108148207Y-81471247D01*
X108148207Y-81471247D02*
X108052969Y-81423628D01*
X108052969Y-81423628D02*
X107862493Y-81376009D01*
X107862493Y-81376009D02*
X107767255Y-81328390D01*
X107767255Y-81328390D02*
X107719636Y-81280771D01*
X107719636Y-81280771D02*
X107672017Y-81185533D01*
X107672017Y-81185533D02*
X107672017Y-81090295D01*
X107672017Y-81090295D02*
X107719636Y-80995057D01*
X107719636Y-80995057D02*
X107767255Y-80947438D01*
X107767255Y-80947438D02*
X107862493Y-80899819D01*
X107862493Y-80899819D02*
X108100588Y-80899819D01*
X108100588Y-80899819D02*
X108243445Y-80947438D01*
X108672017Y-81804580D02*
X108719636Y-81852200D01*
X108719636Y-81852200D02*
X108672017Y-81899819D01*
X108672017Y-81899819D02*
X108624398Y-81852200D01*
X108624398Y-81852200D02*
X108672017Y-81804580D01*
X108672017Y-81804580D02*
X108672017Y-81899819D01*
X109719635Y-81804580D02*
X109672016Y-81852200D01*
X109672016Y-81852200D02*
X109529159Y-81899819D01*
X109529159Y-81899819D02*
X109433921Y-81899819D01*
X109433921Y-81899819D02*
X109291064Y-81852200D01*
X109291064Y-81852200D02*
X109195826Y-81756961D01*
X109195826Y-81756961D02*
X109148207Y-81661723D01*
X109148207Y-81661723D02*
X109100588Y-81471247D01*
X109100588Y-81471247D02*
X109100588Y-81328390D01*
X109100588Y-81328390D02*
X109148207Y-81137914D01*
X109148207Y-81137914D02*
X109195826Y-81042676D01*
X109195826Y-81042676D02*
X109291064Y-80947438D01*
X109291064Y-80947438D02*
X109433921Y-80899819D01*
X109433921Y-80899819D02*
X109529159Y-80899819D01*
X109529159Y-80899819D02*
X109672016Y-80947438D01*
X109672016Y-80947438D02*
X109719635Y-80995057D01*
X110148207Y-81804580D02*
X110195826Y-81852200D01*
X110195826Y-81852200D02*
X110148207Y-81899819D01*
X110148207Y-81899819D02*
X110100588Y-81852200D01*
X110100588Y-81852200D02*
X110148207Y-81804580D01*
X110148207Y-81804580D02*
X110148207Y-81899819D01*
X110576778Y-81852200D02*
X110719635Y-81899819D01*
X110719635Y-81899819D02*
X110957730Y-81899819D01*
X110957730Y-81899819D02*
X111052968Y-81852200D01*
X111052968Y-81852200D02*
X111100587Y-81804580D01*
X111100587Y-81804580D02*
X111148206Y-81709342D01*
X111148206Y-81709342D02*
X111148206Y-81614104D01*
X111148206Y-81614104D02*
X111100587Y-81518866D01*
X111100587Y-81518866D02*
X111052968Y-81471247D01*
X111052968Y-81471247D02*
X110957730Y-81423628D01*
X110957730Y-81423628D02*
X110767254Y-81376009D01*
X110767254Y-81376009D02*
X110672016Y-81328390D01*
X110672016Y-81328390D02*
X110624397Y-81280771D01*
X110624397Y-81280771D02*
X110576778Y-81185533D01*
X110576778Y-81185533D02*
X110576778Y-81090295D01*
X110576778Y-81090295D02*
X110624397Y-80995057D01*
X110624397Y-80995057D02*
X110672016Y-80947438D01*
X110672016Y-80947438D02*
X110767254Y-80899819D01*
X110767254Y-80899819D02*
X111005349Y-80899819D01*
X111005349Y-80899819D02*
X111148206Y-80947438D01*
X111576778Y-81804580D02*
X111624397Y-81852200D01*
X111624397Y-81852200D02*
X111576778Y-81899819D01*
X111576778Y-81899819D02*
X111529159Y-81852200D01*
X111529159Y-81852200D02*
X111576778Y-81804580D01*
X111576778Y-81804580D02*
X111576778Y-81899819D01*
X111957730Y-82280771D02*
X112005349Y-82233152D01*
X112005349Y-82233152D02*
X112100587Y-82090295D01*
X112100587Y-82090295D02*
X112148206Y-81995057D01*
X112148206Y-81995057D02*
X112195825Y-81852200D01*
X112195825Y-81852200D02*
X112243444Y-81614104D01*
X112243444Y-81614104D02*
X112243444Y-81423628D01*
X112243444Y-81423628D02*
X112195825Y-81185533D01*
X112195825Y-81185533D02*
X112148206Y-81042676D01*
X112148206Y-81042676D02*
X112100587Y-80947438D01*
X112100587Y-80947438D02*
X112005349Y-80804580D01*
X112005349Y-80804580D02*
X111957730Y-80756961D01*
%TO.C,G\u002A\u002A\u002A*%
G36*
X110133641Y-82816680D02*
G01*
X110102544Y-82873234D01*
X110039721Y-82936132D01*
X109980315Y-82976068D01*
X109880051Y-83039567D01*
X109753567Y-83129932D01*
X109647705Y-83212091D01*
X109533981Y-83299368D01*
X109431585Y-83369316D01*
X109366116Y-83405170D01*
X109290948Y-83459685D01*
X109227872Y-83544687D01*
X109142157Y-83643527D01*
X109024019Y-83712095D01*
X108895218Y-83779319D01*
X108834882Y-83857602D01*
X108837337Y-83959830D01*
X108873772Y-84053357D01*
X108944765Y-84177018D01*
X109035058Y-84304652D01*
X109060581Y-84335823D01*
X109135563Y-84439894D01*
X109150812Y-84505282D01*
X109106847Y-84529454D01*
X109023630Y-84515796D01*
X108884534Y-84510656D01*
X108820821Y-84534541D01*
X108740069Y-84564157D01*
X108663820Y-84551247D01*
X108615214Y-84529127D01*
X108529204Y-84495206D01*
X108458437Y-84502157D01*
X108393377Y-84531946D01*
X108316168Y-84589088D01*
X108301758Y-84642042D01*
X108296694Y-84706055D01*
X108259055Y-84788343D01*
X108206628Y-84858380D01*
X108159734Y-84885767D01*
X108108481Y-84901359D01*
X108015167Y-84941533D01*
X107936475Y-84979470D01*
X107822210Y-85033766D01*
X107728181Y-85073042D01*
X107690068Y-85085140D01*
X107603168Y-85110488D01*
X107564710Y-85125422D01*
X107478039Y-85140641D01*
X107403786Y-85135498D01*
X107310452Y-85138234D01*
X107208334Y-85169161D01*
X107125057Y-85216627D01*
X107088285Y-85268556D01*
X107088080Y-85342698D01*
X107090616Y-85377081D01*
X107071944Y-85428469D01*
X107005812Y-85441971D01*
X106930932Y-85421309D01*
X106882020Y-85347550D01*
X106873950Y-85325912D01*
X106833492Y-85209854D01*
X106610398Y-85235094D01*
X106444675Y-85244208D01*
X106327512Y-85225827D01*
X106285696Y-85208462D01*
X106182940Y-85157002D01*
X106063218Y-85098331D01*
X106045815Y-85089919D01*
X105935229Y-85013148D01*
X105870547Y-84919754D01*
X105863251Y-84834338D01*
X105847249Y-84786002D01*
X105800168Y-84723097D01*
X105753002Y-84642208D01*
X105708971Y-84518656D01*
X105674580Y-84379356D01*
X105656335Y-84251223D01*
X105660740Y-84161169D01*
X105662833Y-84154883D01*
X105685876Y-84120854D01*
X105724552Y-84135584D01*
X105770292Y-84175687D01*
X105855520Y-84233091D01*
X105933494Y-84255402D01*
X106007996Y-84226323D01*
X106090812Y-84155054D01*
X106156711Y-84065544D01*
X106173513Y-84027562D01*
X106214760Y-83997928D01*
X106303456Y-83968811D01*
X106347669Y-83959359D01*
X106473105Y-83947316D01*
X106572172Y-83971060D01*
X106629613Y-84001084D01*
X106750308Y-84072296D01*
X106851260Y-83952322D01*
X106914014Y-83865020D01*
X106938855Y-83781096D01*
X106936013Y-83664043D01*
X106935019Y-83653422D01*
X106930767Y-83524434D01*
X106952217Y-83461237D01*
X107003517Y-83458660D01*
X107063660Y-83493108D01*
X107158092Y-83533104D01*
X107273787Y-83550827D01*
X107279397Y-83550876D01*
X107391671Y-83557918D01*
X107537155Y-83576004D01*
X107632679Y-83591852D01*
X107791039Y-83607238D01*
X107970653Y-83603064D01*
X108149134Y-83582207D01*
X108304096Y-83547543D01*
X108413152Y-83501946D01*
X108430365Y-83489393D01*
X108506300Y-83455338D01*
X108611857Y-83439739D01*
X108620508Y-83439635D01*
X108750445Y-83423211D01*
X108900249Y-83379857D01*
X109050250Y-83318454D01*
X109180779Y-83247884D01*
X109272167Y-83177026D01*
X109302396Y-83131764D01*
X109342102Y-83083629D01*
X109375155Y-83083071D01*
X109433355Y-83080756D01*
X109448154Y-83067213D01*
X109500341Y-83035633D01*
X109529853Y-83031752D01*
X109602471Y-83008195D01*
X109659027Y-82968954D01*
X109764025Y-82901872D01*
X109932508Y-82830156D01*
X110071988Y-82782990D01*
X110125846Y-82781566D01*
X110133641Y-82816680D01*
G37*
D11*
%TO.C,R1*%
X118610000Y-85982500D02*
G75*
G03*
X118610000Y-85982500I-50000J0D01*
G01*
%TO.C,R2*%
X119930000Y-85995000D02*
G75*
G03*
X119930000Y-85995000I-50000J0D01*
G01*
D12*
%TO.C,D1*%
X123615000Y-89550000D02*
X122365000Y-89550000D01*
X122015000Y-89375000D02*
X121465000Y-89375000D01*
X122015000Y-86525000D02*
X122015000Y-89375000D01*
X121465000Y-89375000D02*
X121465000Y-86525000D01*
X121465000Y-86525000D02*
X122015000Y-86525000D01*
%TD*%
M02*
