%TF.GenerationSoftware,KiCad,Pcbnew,7.0.2*%
%TF.CreationDate,2023-06-06T11:51:25+03:00*%
%TF.ProjectId,MB_V1,4d425f56-312e-46b6-9963-61645f706362,rev?*%
%TF.SameCoordinates,Original*%
%TF.FileFunction,Soldermask,Bot*%
%TF.FilePolarity,Negative*%
%FSLAX46Y46*%
G04 Gerber Fmt 4.6, Leading zero omitted, Abs format (unit mm)*
G04 Created by KiCad (PCBNEW 7.0.2) date 2023-06-06 11:51:25*
%MOMM*%
%LPD*%
G01*
G04 APERTURE LIST*
%ADD10C,1.725000*%
%ADD11R,1.725000X1.725000*%
%ADD12C,0.525000*%
%ADD13C,0.675000*%
%ADD14R,1.275000X1.275000*%
%ADD15C,1.275000*%
G04 APERTURE END LIST*
D10*
%TO.C,J6*%
X82076000Y-160578000D03*
X84616000Y-160578000D03*
X87156000Y-160578000D03*
X89696000Y-160578000D03*
X92236000Y-160578000D03*
D11*
X94776000Y-160578000D03*
%TD*%
D12*
%TO.C,H1*%
X108320000Y-138150000D03*
X160610000Y-138150000D03*
D13*
X108320000Y-114950000D03*
X160610000Y-114950000D03*
%TD*%
D14*
%TO.C,J5*%
X99830000Y-144840000D03*
D15*
X99830000Y-147380000D03*
%TD*%
D12*
%TO.C,H3*%
X138585000Y-155980000D03*
D13*
X127385000Y-155980000D03*
%TD*%
D11*
%TO.C,J1*%
X120936000Y-149140000D03*
D10*
X118396000Y-149140000D03*
X115856000Y-149140000D03*
X113316000Y-149140000D03*
X110776000Y-149140000D03*
X108236000Y-149140000D03*
%TD*%
D12*
%TO.C,H2*%
X94290000Y-125910000D03*
D13*
X94290000Y-137110000D03*
%TD*%
D12*
%TO.C,H5*%
X94290000Y-105650000D03*
D13*
X94290000Y-116850000D03*
%TD*%
D11*
%TO.C,J2*%
X94776000Y-145858000D03*
D10*
X92236000Y-145858000D03*
X89696000Y-145858000D03*
X87156000Y-145858000D03*
X84616000Y-145858000D03*
X82076000Y-145858000D03*
%TD*%
D12*
%TO.C,H4*%
X150480000Y-158090000D03*
D13*
X150480000Y-146890000D03*
%TD*%
D11*
%TO.C,J3*%
X94776000Y-153248000D03*
D10*
X92236000Y-153248000D03*
X89696000Y-153248000D03*
X87156000Y-153248000D03*
X84616000Y-153248000D03*
X82076000Y-153248000D03*
%TD*%
%TO.C,J4*%
X108236000Y-160578000D03*
X110776000Y-160578000D03*
X113316000Y-160578000D03*
X115856000Y-160578000D03*
X118396000Y-160578000D03*
D11*
X120936000Y-160578000D03*
%TD*%
M02*
