%TF.GenerationSoftware,KiCad,Pcbnew,7.0.2*%
%TF.CreationDate,2023-06-06T11:51:25+03:00*%
%TF.ProjectId,MB_V1,4d425f56-312e-46b6-9963-61645f706362,rev?*%
%TF.SameCoordinates,Original*%
%TF.FileFunction,Soldermask,Top*%
%TF.FilePolarity,Negative*%
%FSLAX46Y46*%
G04 Gerber Fmt 4.6, Leading zero omitted, Abs format (unit mm)*
G04 Created by KiCad (PCBNEW 7.0.2) date 2023-06-06 11:51:25*
%MOMM*%
%LPD*%
G01*
G04 APERTURE LIST*
%ADD10R,0.475000X0.500000*%
%ADD11R,0.500000X0.475000*%
%ADD12R,1.300000X0.600000*%
%ADD13R,0.980000X0.780000*%
%ADD14R,0.950000X1.450000*%
%ADD15R,0.620000X1.820000*%
%ADD16C,1.725000*%
%ADD17R,1.725000X1.725000*%
%ADD18R,1.170000X1.800000*%
%ADD19R,2.150000X2.200000*%
%ADD20R,0.900000X0.650000*%
%ADD21R,0.970000X1.470000*%
%ADD22R,0.600000X0.240000*%
%ADD23R,0.240000X0.600000*%
%ADD24R,2.550000X2.050000*%
%ADD25R,3.300000X0.500000*%
%ADD26C,0.525000*%
%ADD27C,0.675000*%
%ADD28R,1.275000X1.275000*%
%ADD29C,1.275000*%
%ADD30R,0.500000X3.300000*%
%ADD31R,2.400000X3.400000*%
%ADD32R,1.250000X0.600000*%
%ADD33R,0.405000X0.990000*%
%ADD34R,0.405000X0.510000*%
%ADD35R,2.235000X1.725000*%
%ADD36R,0.077000X0.250000*%
%ADD37R,0.450000X1.475000*%
%ADD38R,0.900000X0.950000*%
G04 APERTURE END LIST*
D10*
%TO.C,R57*%
X149822000Y-141980000D03*
X148798000Y-141980000D03*
%TD*%
%TO.C,R56*%
X140562000Y-141990000D03*
X139538000Y-141990000D03*
%TD*%
%TO.C,R55*%
X132242000Y-141990000D03*
X131218000Y-141990000D03*
%TD*%
%TO.C,R54*%
X123892000Y-142010000D03*
X122868000Y-142010000D03*
%TD*%
%TO.C,R53*%
X117392000Y-143600000D03*
X116368000Y-143600000D03*
%TD*%
D11*
%TO.C,R52*%
X154410000Y-159922000D03*
X154410000Y-158898000D03*
%TD*%
%TO.C,R51*%
X153310000Y-160132000D03*
X153310000Y-159108000D03*
%TD*%
D10*
%TO.C,R50*%
X163362000Y-156940000D03*
X162338000Y-156940000D03*
%TD*%
D11*
%TO.C,R49*%
X158490000Y-154698000D03*
X158490000Y-155722000D03*
%TD*%
D12*
%TO.C,Q2*%
X162040000Y-154620000D03*
X159940000Y-155570000D03*
X159940000Y-153670000D03*
%TD*%
D13*
%TO.C,C13*%
X162740000Y-150850000D03*
X162740000Y-152250000D03*
%TD*%
D14*
%TO.C,R48*%
X128540000Y-122950000D03*
X130540000Y-122950000D03*
%TD*%
D15*
%TO.C,C5*%
X137670436Y-110900000D03*
X140870436Y-110900000D03*
%TD*%
D16*
%TO.C,J6*%
X82076000Y-160578000D03*
X84616000Y-160578000D03*
X87156000Y-160578000D03*
X89696000Y-160578000D03*
X92236000Y-160578000D03*
D17*
X94776000Y-160578000D03*
%TD*%
D18*
%TO.C,F1*%
X103900000Y-143200000D03*
X106840000Y-143200000D03*
%TD*%
D14*
%TO.C,R30*%
X149760000Y-125283334D03*
X151760000Y-125283334D03*
%TD*%
%TO.C,R15*%
X141410000Y-128246666D03*
X143410000Y-128246666D03*
%TD*%
%TO.C,R13*%
X141410000Y-131203332D03*
X143410000Y-131203332D03*
%TD*%
D19*
%TO.C,D1*%
X105110000Y-150260000D03*
X105110000Y-145860000D03*
%TD*%
D20*
%TO.C,R24*%
X144540872Y-110395000D03*
X144540872Y-111845000D03*
%TD*%
%TO.C,R22*%
X134600436Y-114717500D03*
X134600436Y-113267500D03*
%TD*%
D10*
%TO.C,R46*%
X140408000Y-135830000D03*
X141432000Y-135830000D03*
%TD*%
D14*
%TO.C,R21*%
X116360000Y-134160000D03*
X118360000Y-134160000D03*
%TD*%
D21*
%TO.C,C11*%
X147610000Y-125220000D03*
X145950000Y-125220000D03*
%TD*%
D10*
%TO.C,R44*%
X123708000Y-135830000D03*
X124732000Y-135830000D03*
%TD*%
D22*
%TO.C,IC4*%
X141028750Y-138880000D03*
D23*
X141678750Y-139780000D03*
X142178750Y-139780000D03*
X142678750Y-139780000D03*
X143178750Y-139780000D03*
X143678750Y-139780000D03*
X144178750Y-139780000D03*
D22*
X144828750Y-138880000D03*
X144828750Y-137380000D03*
D23*
X144178750Y-136480000D03*
X143678750Y-136480000D03*
X143178750Y-136480000D03*
X142678750Y-136480000D03*
X142178750Y-136480000D03*
X141678750Y-136480000D03*
D22*
X141028750Y-137380000D03*
D24*
X142928750Y-138130000D03*
%TD*%
D14*
%TO.C,R4*%
X124710000Y-134170000D03*
X126710000Y-134170000D03*
%TD*%
D25*
%TO.C,H1*%
X161560000Y-116950000D03*
X161560000Y-117750000D03*
X161560000Y-118550000D03*
X161560000Y-119350000D03*
X161560000Y-120150000D03*
X161560000Y-120950000D03*
X161560000Y-121750000D03*
X161560000Y-122550000D03*
X161560000Y-123350000D03*
X161560000Y-124150000D03*
X161560000Y-124950000D03*
X161560000Y-125750000D03*
X161560000Y-126550000D03*
X161560000Y-127350000D03*
X161560000Y-128150000D03*
X161560000Y-128950000D03*
X161560000Y-129750000D03*
X161560000Y-130550000D03*
X161560000Y-131350000D03*
X161560000Y-132150000D03*
X161560000Y-132950000D03*
X161560000Y-133750000D03*
X161560000Y-134550000D03*
X161560000Y-135350000D03*
X161560000Y-136150000D03*
X156760000Y-116950000D03*
X156760000Y-117750000D03*
X156760000Y-118550000D03*
X156760000Y-119350000D03*
X156760000Y-120150000D03*
X156760000Y-120950000D03*
X156760000Y-121750000D03*
X156760000Y-122550000D03*
X156760000Y-123350000D03*
X156760000Y-124150000D03*
X156760000Y-124950000D03*
X156760000Y-125750000D03*
X156760000Y-126550000D03*
X156760000Y-127350000D03*
X156760000Y-128150000D03*
X156760000Y-128950000D03*
X156760000Y-129750000D03*
X156760000Y-130550000D03*
X156760000Y-131350000D03*
X156760000Y-132150000D03*
X156760000Y-132950000D03*
X156760000Y-133750000D03*
X156760000Y-134550000D03*
X156760000Y-135350000D03*
X156760000Y-136150000D03*
X109270000Y-136150000D03*
X109270000Y-135350000D03*
X109270000Y-134550000D03*
X109270000Y-133750000D03*
X109270000Y-132950000D03*
X109270000Y-132150000D03*
X109270000Y-131350000D03*
X109270000Y-130550000D03*
X109270000Y-129750000D03*
X109270000Y-128950000D03*
X109270000Y-128150000D03*
X109270000Y-127350000D03*
X109270000Y-126550000D03*
X109270000Y-125750000D03*
X109270000Y-124950000D03*
X109270000Y-124150000D03*
X109270000Y-123350000D03*
X109270000Y-122550000D03*
X109270000Y-121750000D03*
X109270000Y-120950000D03*
X109270000Y-120150000D03*
X109270000Y-119350000D03*
X109270000Y-118550000D03*
X109270000Y-117750000D03*
X109270000Y-116950000D03*
X104470000Y-136150000D03*
X104470000Y-135350000D03*
X104470000Y-134550000D03*
X104470000Y-133750000D03*
X104470000Y-132950000D03*
X104470000Y-132150000D03*
X104470000Y-131350000D03*
X104470000Y-130550000D03*
X104470000Y-129750000D03*
X104470000Y-128950000D03*
X104470000Y-128150000D03*
X104470000Y-127350000D03*
X104470000Y-126550000D03*
X104470000Y-125750000D03*
X104470000Y-124950000D03*
X104470000Y-124150000D03*
X104470000Y-123350000D03*
X104470000Y-122550000D03*
X104470000Y-121750000D03*
X104470000Y-120950000D03*
X104470000Y-120150000D03*
X104470000Y-119350000D03*
X104470000Y-118550000D03*
X104470000Y-117750000D03*
X104470000Y-116950000D03*
D26*
X108320000Y-138150000D03*
X160610000Y-138150000D03*
D27*
X108320000Y-114950000D03*
X160610000Y-114950000D03*
%TD*%
D28*
%TO.C,J5*%
X99830000Y-144840000D03*
D29*
X99830000Y-147380000D03*
%TD*%
D14*
%TO.C,R10*%
X133060000Y-125290000D03*
X135060000Y-125290000D03*
%TD*%
%TO.C,R29*%
X149760000Y-131250000D03*
X151760000Y-131250000D03*
%TD*%
D10*
%TO.C,R45*%
X132058000Y-135830000D03*
X133082000Y-135830000D03*
%TD*%
D20*
%TO.C,R20*%
X133630436Y-110375000D03*
X133630436Y-111825000D03*
%TD*%
D14*
%TO.C,R7*%
X124710000Y-128250000D03*
X126710000Y-128250000D03*
%TD*%
D20*
%TO.C,R41*%
X147010000Y-140855000D03*
X147010000Y-139405000D03*
%TD*%
D30*
%TO.C,H3*%
X129385000Y-155030000D03*
X130185000Y-155030000D03*
X130985000Y-155030000D03*
X131785000Y-155030000D03*
X132585000Y-155030000D03*
X133385000Y-155030000D03*
X134185000Y-155030000D03*
X134985000Y-155030000D03*
X135785000Y-155030000D03*
X136585000Y-155030000D03*
X136585000Y-159830000D03*
X135785000Y-159830000D03*
X134985000Y-159830000D03*
X134185000Y-159830000D03*
X133385000Y-159830000D03*
X132585000Y-159830000D03*
X131785000Y-159830000D03*
X130985000Y-159830000D03*
X130185000Y-159830000D03*
X129385000Y-159830000D03*
D26*
X138585000Y-155980000D03*
D27*
X127385000Y-155980000D03*
%TD*%
D20*
%TO.C,R16*%
X122720000Y-110365000D03*
X122720000Y-111815000D03*
%TD*%
D13*
%TO.C,C10*%
X152340872Y-113220000D03*
X152340872Y-114620000D03*
%TD*%
D31*
%TO.C,L2*%
X140450436Y-118680000D03*
X134650436Y-118680000D03*
%TD*%
D20*
%TO.C,R36*%
X123090000Y-139345000D03*
X123090000Y-140795000D03*
%TD*%
D14*
%TO.C,R9*%
X133060000Y-131203332D03*
X135060000Y-131203332D03*
%TD*%
%TO.C,R28*%
X149760000Y-134233334D03*
X151760000Y-134233334D03*
%TD*%
D10*
%TO.C,R47*%
X148758000Y-135830000D03*
X149782000Y-135830000D03*
%TD*%
D17*
%TO.C,J1*%
X120936000Y-149140000D03*
D16*
X118396000Y-149140000D03*
X115856000Y-149140000D03*
X113316000Y-149140000D03*
X110776000Y-149140000D03*
X108236000Y-149140000D03*
%TD*%
D32*
%TO.C,PS3*%
X149850872Y-114550000D03*
X149850872Y-113600000D03*
X149850872Y-112650000D03*
X147350872Y-112650000D03*
X147350872Y-113600000D03*
X147350872Y-114550000D03*
%TD*%
D20*
%TO.C,R42*%
X148120000Y-139405000D03*
X148120000Y-140855000D03*
%TD*%
D21*
%TO.C,C8*%
X139250000Y-124970000D03*
X137590000Y-124970000D03*
%TD*%
D25*
%TO.C,H2*%
X93340000Y-135110000D03*
X93340000Y-134310000D03*
X93340000Y-133510000D03*
X93340000Y-132710000D03*
X93340000Y-131910000D03*
X93340000Y-131110000D03*
X93340000Y-130310000D03*
X93340000Y-129510000D03*
X93340000Y-128710000D03*
X93340000Y-127910000D03*
X98140000Y-127910000D03*
X98140000Y-128710000D03*
X98140000Y-129510000D03*
X98140000Y-130310000D03*
X98140000Y-131110000D03*
X98140000Y-131910000D03*
X98140000Y-132710000D03*
X98140000Y-133510000D03*
X98140000Y-134310000D03*
X98140000Y-135110000D03*
D26*
X94290000Y-125910000D03*
D27*
X94290000Y-137110000D03*
%TD*%
D21*
%TO.C,C7*%
X139250000Y-123190000D03*
X137590000Y-123190000D03*
%TD*%
D33*
%TO.C,Q1*%
X113580000Y-138835000D03*
X112920000Y-138835000D03*
X112260000Y-138835000D03*
X111600000Y-138835000D03*
D34*
X111600000Y-141945000D03*
X112260000Y-141945000D03*
X112920000Y-141945000D03*
X113580000Y-141945000D03*
D35*
X112590000Y-140827000D03*
D36*
X111434000Y-141565000D03*
X113746000Y-141565000D03*
%TD*%
D14*
%TO.C,R3*%
X116360000Y-128246666D03*
X118360000Y-128246666D03*
%TD*%
D25*
%TO.C,H5*%
X93340000Y-114850000D03*
X93340000Y-114050000D03*
X93340000Y-113250000D03*
X93340000Y-112450000D03*
X93340000Y-111650000D03*
X93340000Y-110850000D03*
X93340000Y-110050000D03*
X93340000Y-109250000D03*
X93340000Y-108450000D03*
X93340000Y-107650000D03*
X98140000Y-107650000D03*
X98140000Y-108450000D03*
X98140000Y-109250000D03*
X98140000Y-110050000D03*
X98140000Y-110850000D03*
X98140000Y-111650000D03*
X98140000Y-112450000D03*
X98140000Y-113250000D03*
X98140000Y-114050000D03*
X98140000Y-114850000D03*
D26*
X94290000Y-105650000D03*
D27*
X94290000Y-116850000D03*
%TD*%
D20*
%TO.C,R23*%
X146770872Y-110395000D03*
X146770872Y-111845000D03*
%TD*%
D32*
%TO.C,PS1*%
X127990000Y-114570000D03*
X127990000Y-113620000D03*
X127990000Y-112670000D03*
X125490000Y-112670000D03*
X125490000Y-113620000D03*
X125490000Y-114570000D03*
%TD*%
D22*
%TO.C,IC3*%
X132677500Y-138880000D03*
D23*
X133327500Y-139780000D03*
X133827500Y-139780000D03*
X134327500Y-139780000D03*
X134827500Y-139780000D03*
X135327500Y-139780000D03*
X135827500Y-139780000D03*
D22*
X136477500Y-138880000D03*
X136477500Y-137380000D03*
D23*
X135827500Y-136480000D03*
X135327500Y-136480000D03*
X134827500Y-136480000D03*
X134327500Y-136480000D03*
X133827500Y-136480000D03*
X133327500Y-136480000D03*
D22*
X132677500Y-137380000D03*
D24*
X134577500Y-138130000D03*
%TD*%
D14*
%TO.C,R12*%
X141410000Y-134160000D03*
X143410000Y-134160000D03*
%TD*%
D21*
%TO.C,C2*%
X122420000Y-125030000D03*
X120760000Y-125030000D03*
%TD*%
D13*
%TO.C,C4*%
X130520000Y-113280000D03*
X130520000Y-114680000D03*
%TD*%
D21*
%TO.C,C12*%
X147610000Y-123440000D03*
X145950000Y-123440000D03*
%TD*%
D22*
%TO.C,IC2*%
X124326250Y-138880000D03*
D23*
X124976250Y-139780000D03*
X125476250Y-139780000D03*
X125976250Y-139780000D03*
X126476250Y-139780000D03*
X126976250Y-139780000D03*
X127476250Y-139780000D03*
D22*
X128126250Y-138880000D03*
X128126250Y-137380000D03*
D23*
X127476250Y-136480000D03*
X126976250Y-136480000D03*
X126476250Y-136480000D03*
X125976250Y-136480000D03*
X125476250Y-136480000D03*
X124976250Y-136480000D03*
D22*
X124326250Y-137380000D03*
D24*
X126226250Y-138130000D03*
%TD*%
D17*
%TO.C,J2*%
X94776000Y-145858000D03*
D16*
X92236000Y-145858000D03*
X89696000Y-145858000D03*
X87156000Y-145858000D03*
X84616000Y-145858000D03*
X82076000Y-145858000D03*
%TD*%
D20*
%TO.C,R38*%
X131450000Y-139335000D03*
X131450000Y-140785000D03*
%TD*%
D25*
%TO.C,H4*%
X151430000Y-148890000D03*
X151430000Y-149690000D03*
X151430000Y-150490000D03*
X151430000Y-151290000D03*
X151430000Y-152090000D03*
X151430000Y-152890000D03*
X151430000Y-153690000D03*
X151430000Y-154490000D03*
X151430000Y-155290000D03*
X151430000Y-156090000D03*
X146630000Y-156090000D03*
X146630000Y-155290000D03*
X146630000Y-154490000D03*
X146630000Y-153690000D03*
X146630000Y-152890000D03*
X146630000Y-152090000D03*
X146630000Y-151290000D03*
X146630000Y-150490000D03*
X146630000Y-149690000D03*
X146630000Y-148890000D03*
D26*
X150480000Y-158090000D03*
D27*
X150480000Y-146890000D03*
%TD*%
D14*
%TO.C,R14*%
X141410000Y-125290000D03*
X143410000Y-125290000D03*
%TD*%
D37*
%TO.C,IC7*%
X161465000Y-145372000D03*
X160815000Y-145372000D03*
X160165000Y-145372000D03*
X159515000Y-145372000D03*
X158865000Y-145372000D03*
X158215000Y-145372000D03*
X157565000Y-145372000D03*
X156915000Y-145372000D03*
X156265000Y-145372000D03*
X155615000Y-145372000D03*
X155615000Y-151248000D03*
X156265000Y-151248000D03*
X156915000Y-151248000D03*
X157565000Y-151248000D03*
X158215000Y-151248000D03*
X158865000Y-151248000D03*
X159515000Y-151248000D03*
X160165000Y-151248000D03*
X160815000Y-151248000D03*
X161465000Y-151248000D03*
%TD*%
D13*
%TO.C,C6*%
X141430436Y-113250000D03*
X141430436Y-114650000D03*
%TD*%
D21*
%TO.C,C1*%
X122420000Y-123240000D03*
X120760000Y-123240000D03*
%TD*%
D20*
%TO.C,R40*%
X139770000Y-139345000D03*
X139770000Y-140795000D03*
%TD*%
%TO.C,R18*%
X124960000Y-110375000D03*
X124960000Y-111825000D03*
%TD*%
D15*
%TO.C,C3*%
X126740000Y-110910000D03*
X129940000Y-110910000D03*
%TD*%
D14*
%TO.C,R5*%
X124710000Y-131210000D03*
X126710000Y-131210000D03*
%TD*%
D38*
%TO.C,R26*%
X107750000Y-141230000D03*
X109350000Y-141230000D03*
%TD*%
D20*
%TO.C,R35*%
X121980000Y-140795000D03*
X121980000Y-139345000D03*
%TD*%
D14*
%TO.C,R8*%
X133060000Y-134160000D03*
X135060000Y-134160000D03*
%TD*%
D11*
%TO.C,R32*%
X159520000Y-143952000D03*
X159520000Y-142928000D03*
%TD*%
D14*
%TO.C,R11*%
X133060000Y-128246666D03*
X135060000Y-128246666D03*
%TD*%
%TO.C,R2*%
X116360000Y-125290000D03*
X118360000Y-125290000D03*
%TD*%
%TO.C,R1*%
X116360000Y-131203332D03*
X118360000Y-131203332D03*
%TD*%
D10*
%TO.C,R43*%
X115348000Y-135830000D03*
X116372000Y-135830000D03*
%TD*%
D20*
%TO.C,R37*%
X130350000Y-140785000D03*
X130350000Y-139335000D03*
%TD*%
D15*
%TO.C,C9*%
X148610872Y-110910000D03*
X151810872Y-110910000D03*
%TD*%
D31*
%TO.C,L3*%
X151360872Y-118680000D03*
X145560872Y-118680000D03*
%TD*%
D17*
%TO.C,J3*%
X94776000Y-153248000D03*
D16*
X92236000Y-153248000D03*
X89696000Y-153248000D03*
X87156000Y-153248000D03*
X84616000Y-153248000D03*
X82076000Y-153248000D03*
%TD*%
D32*
%TO.C,PS2*%
X138900436Y-114550000D03*
X138900436Y-113600000D03*
X138900436Y-112650000D03*
X136400436Y-112650000D03*
X136400436Y-113600000D03*
X136400436Y-114550000D03*
%TD*%
D20*
%TO.C,R17*%
X123690000Y-114745000D03*
X123690000Y-113295000D03*
%TD*%
D31*
%TO.C,L1*%
X129540000Y-118710000D03*
X123740000Y-118710000D03*
%TD*%
D20*
%TO.C,R33*%
X116240000Y-141125000D03*
X116240000Y-142575000D03*
%TD*%
D22*
%TO.C,IC1*%
X115975000Y-138880000D03*
D23*
X116625000Y-139780000D03*
X117125000Y-139780000D03*
X117625000Y-139780000D03*
X118125000Y-139780000D03*
X118625000Y-139780000D03*
X119125000Y-139780000D03*
D22*
X119775000Y-138880000D03*
X119775000Y-137380000D03*
D23*
X119125000Y-136480000D03*
X118625000Y-136480000D03*
X118125000Y-136480000D03*
X117625000Y-136480000D03*
X117125000Y-136480000D03*
X116625000Y-136480000D03*
D22*
X115975000Y-137380000D03*
D24*
X117875000Y-138130000D03*
%TD*%
D20*
%TO.C,R39*%
X138660000Y-140795000D03*
X138660000Y-139345000D03*
%TD*%
D38*
%TO.C,R27*%
X104750000Y-141230000D03*
X106350000Y-141230000D03*
%TD*%
D20*
%TO.C,R19*%
X135870436Y-110355000D03*
X135870436Y-111805000D03*
%TD*%
D14*
%TO.C,R6*%
X124710000Y-125290000D03*
X126710000Y-125290000D03*
%TD*%
%TO.C,R31*%
X149760000Y-128266667D03*
X151760000Y-128266667D03*
%TD*%
D22*
%TO.C,IC5*%
X149380000Y-138880000D03*
D23*
X150030000Y-139780000D03*
X150530000Y-139780000D03*
X151030000Y-139780000D03*
X151530000Y-139780000D03*
X152030000Y-139780000D03*
X152530000Y-139780000D03*
D22*
X153180000Y-138880000D03*
X153180000Y-137380000D03*
D23*
X152530000Y-136480000D03*
X152030000Y-136480000D03*
X151530000Y-136480000D03*
X151030000Y-136480000D03*
X150530000Y-136480000D03*
X150030000Y-136480000D03*
D22*
X149380000Y-137380000D03*
D24*
X151280000Y-138130000D03*
%TD*%
D20*
%TO.C,R34*%
X115130000Y-142575000D03*
X115130000Y-141125000D03*
%TD*%
%TO.C,R25*%
X145510872Y-114737500D03*
X145510872Y-113287500D03*
%TD*%
D16*
%TO.C,J4*%
X108236000Y-160578000D03*
X110776000Y-160578000D03*
X113316000Y-160578000D03*
X115856000Y-160578000D03*
X118396000Y-160578000D03*
D17*
X120936000Y-160578000D03*
%TD*%
M02*
